<svg xmlns="http://www.w3.org/2000/svg" width="47.363" height="12.863" viewBox="0 0 47.363 12.863">
  <g id="Raggruppa_37874" data-name="Raggruppa 37874" transform="translate(8873.949 20727.518)">
    <path id="Tracciato_43956" data-name="Tracciato 43956" d="M3338.949,112.093h3.007l-1.508-3.673Z" transform="translate(-12206.063 -20832.539)" fill="#016fd0"/>
    <g id="Raggruppa_37873" data-name="Raggruppa 37873">
      <path id="Tracciato_43955" data-name="Tracciato 43955" d="M3467.862,110.283v1.676h4.835v1.88h-4.835v1.834h5.415l2.516-2.7-2.409-2.686Z" transform="translate(-12311.391 -20834.061)" fill="#016fd0"/>
      <path id="Tracciato_43957" data-name="Tracciato 43957" d="M3348.948,89.843h-5.73l-1.819,1.968-1.7-1.968h-10.483v.006h-6.056l-1.435,3.319-1.473-3.319h-6.735v1.518l-.74-1.518h-5.744l-5.447,12.852h6.543l.848-2.047h1.9l.846,2.047h7.4v-1.565l.661,1.571h3.844l.661-1.595V102.7h4.922v0h10.259l1.874-2,1.765,2,3.985,0h1.851v-2.246l-3.674-4.161,3.674-3.935Zm-23.062,11.048-.008-7.217-3.194,7.217h-1.934l-3.2-7.223v7.223h-4.479l-.846-2.055h-4.586l-.855,2.055h-2.392l3.944-9.214h3.272l3.746,8.724V91.676h3.595l2.882,6.251,2.648-6.251h3.667v9.214Zm16.887-4.59,4.055,4.593h-2.76l-2.712-3.051-2.818,3.051h-2.565v0h-6.159V91.676h8.858l2.71,3.021,2.8-3.021h2.908Z" transform="translate(-12175.533 -20817.361)" fill="#016fd0"/>
    </g>
  </g>
</svg>
