<svg xmlns="http://www.w3.org/2000/svg" width="42.08" height="17.277" viewBox="0 0 42.08 17.277">
  <path id="Tracciato_43928" data-name="Tracciato 43928" d="M1938.987,80.009a2.586,2.586,0,0,1-2.072.978,2.933,2.933,0,0,1,.74-2.145,3.09,3.09,0,0,1,2.055-1.06,3.12,3.12,0,0,1-.723,2.228m.715,1.134c-1.142-.066-2.121.649-2.663.649s-1.381-.617-2.285-.6a3.376,3.376,0,0,0-2.869,1.743c-1.233,2.121-.321,5.261.871,6.987.584.855,1.282,1.792,2.2,1.759.871-.033,1.217-.567,2.269-.567s1.364.567,2.285.551c.954-.016,1.553-.855,2.137-1.71a7.508,7.508,0,0,0,.954-1.964,3.1,3.1,0,0,1-1.858-2.819,3.163,3.163,0,0,1,1.5-2.647,3.257,3.257,0,0,0-2.548-1.381m6.6-2.384V91.574h1.989V87.193h2.753a4.067,4.067,0,0,0,4.282-4.225,4.019,4.019,0,0,0-4.217-4.208Zm1.989,1.677h2.293a2.55,2.55,0,1,1-.008,5.088h-2.285Zm10.669,11.236a3.292,3.292,0,0,0,2.935-1.636h.041v1.537h1.842V85.2c0-1.85-1.48-3.041-3.757-3.041-2.113,0-3.674,1.208-3.732,2.869h1.792a1.746,1.746,0,0,1,1.882-1.307c1.217,0,1.9.567,1.9,1.611v.707l-2.482.148c-2.31.14-3.559,1.085-3.559,2.729,0,1.66,1.291,2.762,3.14,2.762m.534-1.521c-1.06,0-1.734-.51-1.734-1.291,0-.806.649-1.274,1.89-1.348l2.211-.14V88.1a2.162,2.162,0,0,1-2.367,2.055m6.74,4.907c1.94,0,2.852-.74,3.65-2.984l3.493-9.8h-2.022l-2.343,7.57h-.041l-2.343-7.57h-2.079l3.37,9.33-.181.567a1.581,1.581,0,0,1-1.677,1.332c-.156,0-.46-.016-.583-.033V95.01a5.467,5.467,0,0,0,.756.049" transform="translate(-1931.299 -77.781)"/>
</svg>
