<svg xmlns="http://www.w3.org/2000/svg" width="42.083" height="16.711" viewBox="0 0 42.083 16.711">
  <g id="Raggruppa_37886" data-name="Raggruppa 37886" transform="translate(9040.207 20729.441)">
    <path id="Tracciato_43930" data-name="Tracciato 43930" d="M2494.708,91.805v4.9h-1.554v-12.1h4.121a3.726,3.726,0,0,1,2.668,1.047,3.5,3.5,0,0,1,0,5.12,3.716,3.716,0,0,1-2.668,1.03h-2.567Zm0-5.709v4.222h2.605a2.1,2.1,0,0,0,1.579-3.541l-.041-.041a2.028,2.028,0,0,0-1.538-.642h-2.605Z" transform="translate(-11515.012 -20813.084)" fill="#5f6368"/>
    <path id="Tracciato_43931" data-name="Tracciato 43931" d="M2539.788,104.014a3.852,3.852,0,0,1,2.719.921,3.265,3.265,0,0,1,1,2.525v5.1h-1.487v-1.149h-.067a2.968,2.968,0,0,1-2.567,1.419,3.338,3.338,0,0,1-2.289-.811,2.587,2.587,0,0,1-.921-2.027,2.457,2.457,0,0,1,.971-2.043,4.1,4.1,0,0,1,2.592-.761,4.59,4.59,0,0,1,2.28.507v-.355a1.769,1.769,0,0,0-.642-1.375,2.2,2.2,0,0,0-1.5-.567,2.379,2.379,0,0,0-2.061,1.1l-1.368-.862a3.809,3.809,0,0,1,3.342-1.622m-2.01,6.013a1.24,1.24,0,0,0,.515,1.013,1.9,1.9,0,0,0,1.208.405,2.478,2.478,0,0,0,1.748-.726,2.271,2.271,0,0,0,.772-1.706,3.175,3.175,0,0,0-2.027-.579,2.626,2.626,0,0,0-1.579.456,1.361,1.361,0,0,0-.637,1.135" transform="translate(-11550.16 -20828.939)" fill="#5f6368"/>
    <path id="Tracciato_43932" data-name="Tracciato 43932" d="M2585.9,105.491l-5.189,11.924h-1.6l1.926-4.172-3.412-7.752h1.689l2.466,5.945h.034l2.4-5.945Z" transform="translate(-11584.025 -20830.146)" fill="#5f6368"/>
    <path id="Tracciato_43933" data-name="Tracciato 43933" d="M2437.527,111.873a8.281,8.281,0,0,0-.12-1.413h-6.553v2.676h3.753a3.217,3.217,0,0,1-1.388,2.112v1.737h2.24a6.8,6.8,0,0,0,2.068-5.112" transform="translate(-11464.111 -20834.205)" fill="#4285f4"/>
    <path id="Tracciato_43934" data-name="Tracciato 43934" d="M2403.126,130.206a6.651,6.651,0,0,0,4.605-1.677l-2.24-1.737a4.215,4.215,0,0,1-6.267-2.2h-2.308v1.79a6.949,6.949,0,0,0,6.209,3.829" transform="translate(-11436.383 -20845.748)" fill="#34a853"/>
    <path id="Tracciato_43935" data-name="Tracciato 43935" d="M2395.921,104.713a4.161,4.161,0,0,1,0-2.66v-1.79h-2.308a6.951,6.951,0,0,0,0,6.241Z" transform="translate(-11433.08 -20825.873)" fill="#fbbc04"/>
    <path id="Tracciato_43936" data-name="Tracciato 43936" d="M2403.126,82.084a3.773,3.773,0,0,1,2.666,1.042l1.983-1.983a6.676,6.676,0,0,0-4.649-1.81,6.949,6.949,0,0,0-6.209,3.829l2.308,1.79a4.157,4.157,0,0,1,3.9-2.868" transform="translate(-11436.383 -20808.773)" fill="#ea4335"/>
  </g>
</svg>
