<svg xmlns="http://www.w3.org/2000/svg" width="66.443" height="64.028" viewBox="0 0 66.443 64.028"><g transform="translate(0)"><path d="M41.084,7.264,57.218,14.77v7.795L52.339,42.126,39.989,52.16,20.1,55.117l-5.487-8.261L9.98,32.526,9.191,18.949l2.9-7.122L24.9,8.607Z" fill="#fff"/><path d="M-99.481-56.18a8.675,8.675,0,0,0-.434-2.719c-1.141-3.468-9.106-27.978-9.388-28.833a8.692,8.692,0,0,0-8.255-5.971h-30.29a8.692,8.692,0,0,0-8.255,5.971c-.281.856-8.246,25.366-9.388,28.833a8.687,8.687,0,0,0-.434,2.719,8.674,8.674,0,0,0,3.557,7.011c1.438,1.054,22.433,16.249,24.467,17.771a8.656,8.656,0,0,0,5.2,1.724,8.653,8.653,0,0,0,5.2-1.728c2.116-1.585,23.023-16.712,24.461-17.766a8.674,8.674,0,0,0,3.557-7.011m-12.063-14.674c0,16.775-18.037,27.309-21.159,27.309s-21.159-8.583-21.159-27.309a11.8,11.8,0,0,1,11.8-11.8,11.737,11.737,0,0,1,9.363,4.693,11.737,11.737,0,0,1,9.363-4.693,11.8,11.8,0,0,1,11.8,11.8" transform="translate(165.924 93.703)" fill="#d93d3d"/></g></svg>