<svg xmlns="http://www.w3.org/2000/svg" xmlns:xlink="http://www.w3.org/1999/xlink" width="94.289" height="63.945" viewBox="0 0 94.289 63.945"><defs><clipPath id="a"><path d="M0-59.716H94.289v-63.945H0Z" transform="translate(0 123.661)" fill="none"/></clipPath></defs><g transform="translate(0 123.661)"><g transform="translate(0 -123.661)" clip-path="url(#a)"><g transform="translate(33.603 5.235)"><path d="M-29.427-25.637c4.206-7.866,8.1-15.027,11.855-22.267.925-1.783,1.942-2.5,3.977-2.077A28.447,28.447,0,0,0-8-49.5c2.428.013,3.2,1.343,3.4,3.506.97,10.369,2,20.734,3.007,31.1.45,4.639.883,9.281,1.339,14.076A64.163,64.163,0,0,1-8.4-.937C-9.264-1.052-10.4-2.488-10.62-3.5c-1.642-7.521-3.084-15.085-4.612-22.635a19.644,19.644,0,0,0-.857-2.266c-2.255,5.069-4.231,9.481-6.179,13.9-1.474,3.354-2.966,6.7-4.342,10.1a2.793,2.793,0,0,1-3.165,2.045C-37.9-2.8-36.115-.9-39.015-9.058c-1.761-4.956-3.453-9.935-5.2-14.9-.236-.675-.584-1.31-1.259-2.791-1.085,4.485-2,8.16-2.862,11.845-.794,3.385-1.413,6.814-2.38,10.145a3.387,3.387,0,0,1-2.314,2.087,68.955,68.955,0,0,1-7.913-.575c.519-2.794.962-5.43,1.506-8.05,2.694-12.964,5.469-25.911,8.079-38.893.5-2.51,1.593-2.815,4.025-2.894,5.889-.195,8.578,2.512,10.227,7.969,1.942,6.432,4.9,12.557,7.674,19.474" transform="translate(60.938 53.09)" fill="#3fc5b7"/></g><g transform="translate(16.657 5.234)"><path d="M-14.454-8.176c-1.581,0-3.165.027-4.746-.009-1.365-.031-2.021.509-2.133,1.948-.352,4.528-.392,4.527,4.191,5.1,2.964.373,2.964.373,2.935,3.346-.042,4.47-.042,4.47-4.513,4.239-2.937-.151-4.116,1.173-3.531,4.194.079.408,1.021.9,1.586.923,2.369.114,4.745.11,7.118.057,1.489-.034,2.211.487,2.123,2.063-.08,1.446-.057,2.9-.013,4.351.039,1.309-.458,1.987-1.843,1.914-5.13-.271-10.262-.48-15.384-.855-.481-.038-1.289-1.124-1.267-1.7.44-10.592.989-21.18,1.494-31.77.068-1.418.593-2.149,2.15-2.167,5.468-.071,10.936-.178,16.4-.39,1.841-.071,2.515.6,2.394,2.386-.1,1.444-.059,2.9-.017,4.349.041,1.413-.563,2.065-2,2.024-1.646-.046-3.295-.009-4.944-.009" transform="translate(29.931 16.931)" fill="#ff4c3e"/></g><g transform="translate(0 5.233)"><path d="M-14.073-34.249c-.048,2.77,6.163,3.725,8.982,3.707,6.96-.049,6.961.071,7.043,7.119.058,5.161.066,5.036-5.152,4.714-5.809-.355-16.994-.571-22.812-.611-2.512-.016-3.4-.614-3.062-3.314,1.695-13.567,3.215-27.153,4.8-40.734.214-1.834.354-3.682.711-5.49.142-.716.739-1.874,1.2-1.91a50.26,50.26,0,0,1,7.722-.013c.449.036,1.089,1.39,1.129,2.161.138,2.674.054,5.36.054,8.042" transform="translate(29.143 70.924)" fill="#1b3c8a"/></g><g transform="translate(7.142 0)"><path d="M-.022,0,2.018.014a.211.211,0,0,1,.228.231.212.212,0,0,1-.231.229L.434.463l0,.707,1.13.008a.211.211,0,0,1,.228.231.211.211,0,0,1-.231.228L.427,1.63.414,3.348a.2.2,0,0,1-.232.229.2.2,0,0,1-.228-.232Z" transform="translate(0.045)" fill="#fff"/></g><g transform="translate(10.968 1.132)"><path d="M-.005-.762a.594.594,0,0,1,.284-.572.792.792,0,0,1,.627-.244l.349,0a.788.788,0,0,1,.623.252.592.592,0,0,1,.276.576L2.148.084a.639.639,0,0,1-.308.591.735.735,0,0,1-.6.226L.888.9a.735.735,0,0,1-.6-.234.643.643,0,0,1-.3-.6ZM.43.073c0,.092.031.152.159.263a.4.4,0,0,0,.3.122l.349,0a.4.4,0,0,0,.3-.117c.129-.11.162-.169.162-.261L1.713-.75c0-.092-.031-.152-.159-.263a.4.4,0,0,0-.3-.122l-.349,0a.4.4,0,0,0-.3.117C.469-.91.436-.851.436-.759Z" transform="translate(0.011 1.578)" fill="#fff"/></g><g transform="translate(14.731 1.153)"><path d="M-.421-.834-.43.447c0,.152-.034.3-.222.3S-.872.6-.871.445L-.857-1.4c0-.161.02-.326.222-.325s.219.167.218.323v.06l.36-.232A.722.722,0,0,1,.326-1.72l.326,0a.556.556,0,0,1,.407.164c.2.171.187.359.193.6L1.289.432c0,.156-.021.331-.219.329C.891.76.856.608.852.462L.816-.9c-.007-.271-.029-.377-.3-.38H.373a.265.265,0,0,0-.139.04Z" transform="translate(0.871 1.727)" fill="#fff"/></g><g transform="translate(18.503 0.282)"><path d="M-1.14-.845A.626.626,0,0,1-.705-.6l.073.078.007-.928c0-.152.035-.3.222-.3s.22.153.219.3L-.2,1.331c0,.152-.034.308-.222.306s-.22-.148-.219-.3V1.314l-.1.1a.7.7,0,0,1-.425.223l-.427,0A.682.682,0,0,1-1.97,1.47l-.15-.13A.57.57,0,0,1-2.36.829l.006-.887a.57.57,0,0,1,.247-.508l.152-.128a.555.555,0,0,1,.424-.153Zm-.778,1.5c0,.124,0,.28.067.336l.132.107a.287.287,0,0,0,.164.089l.313,0a.369.369,0,0,0,.216-.109L-.77.868c.064-.055.129-.11.13-.192l0-.556c0-.082-.064-.139-.128-.194l-.251-.218A.368.368,0,0,0-1.231-.4l-.312,0a.294.294,0,0,0-.166.086l-.134.1c-.069.055-.07.211-.071.336Z" transform="translate(2.36 1.749)" fill="#fff"/></g><g transform="translate(22.269 1.21)"><path d="M-.7-.412c-.129,0-.3-.03-.3-.223S-.844-.854-.7-.853l.607,0a.7.7,0,0,1,.568.2.637.637,0,0,1,.194.526l.036,1.5c0,.129-.062.258-.208.256A.225.225,0,0,1,.275,1.41l-.3.154A.4.4,0,0,1-.3,1.626l-.423,0a.69.69,0,0,1-.5-.16A.616.616,0,0,1-1.449.92l0-.193a.576.576,0,0,1,.219-.49A.726.726,0,0,1-.712.075L.234.081v-.1c0-.331-.071-.387-.388-.389ZM-.711.516c-.119,0-.294.031-.3.191l0,.294c0,.147.178.181.283.182l.487,0L.25.937l0-.1C.253.6.185.522-.059.52Z" transform="translate(1.449 0.853)" fill="#fff"/></g><g transform="translate(26.032 1.234)"><path d="M-1.51-.42-2.686-.428c-.129,0-.3-.03-.3-.223s.158-.22.305-.219l1.433.01c.225,0,.3.076.3.232v.147a.315.315,0,0,1-.13.247l-1.49,1.4,1.305.009c.147,0,.3.035.3.223s-.177.219-.305.218L-2.8,1.606c-.308,0-.325-.131-.325-.26l0-.115a.217.217,0,0,1,.084-.21Z" transform="translate(3.126 0.87)" fill="#fff"/></g><g transform="translate(30.016 0.166)"><path d="M-1.023-2.929l.331,0c.147,0,.3.035.3.222s-.176.22-.3.219l-1.122-.008c-.129,0-.3-.029-.3-.223s.158-.22.3-.218l.35,0,.011-1.595-.349,0c-.129,0-.3-.03-.3-.223s.158-.219.3-.219l.464,0c.252,0,.326.049.324.31Zm-.645-2.931a.182.182,0,0,1,.208-.205l.252,0A.183.183,0,0,1-1-5.856l0,.21a.182.182,0,0,1-.208.206l-.252,0a.182.182,0,0,1-.205-.208Z" transform="translate(2.118 6.066)" fill="#fff"/></g><g transform="translate(33.571 1.291)"><path d="M-.006-.762a.6.6,0,0,1,.284-.572.792.792,0,0,1,.627-.244l.349,0a.787.787,0,0,1,.623.253.592.592,0,0,1,.276.577L2.148.085A.639.639,0,0,1,1.84.675a.734.734,0,0,1-.6.225L.888.9a.734.734,0,0,1-.6-.234.642.642,0,0,1-.3-.6ZM.429.073c0,.092.032.152.159.263a.4.4,0,0,0,.3.122l.349,0a.4.4,0,0,0,.3-.117c.13-.109.162-.169.163-.261L1.713-.75c0-.092-.032-.152-.159-.263a.4.4,0,0,0-.3-.122l-.35,0a.4.4,0,0,0-.3.117C.469-.91.436-.851.436-.759Z" transform="translate(0.012 1.578)" fill="#fff"/></g><g transform="translate(37.335 1.312)"><path d="M-.421-.834-.429.447c0,.152-.034.3-.223.3S-.872.6-.871.445L-.858-1.4c0-.161.021-.326.223-.325s.219.167.218.323v.06l.36-.232A.732.732,0,0,1,.326-1.72l.326,0a.558.558,0,0,1,.407.164c.2.171.186.36.193.6L1.289.433c0,.156-.021.33-.219.329C.891.76.856.608.852.461L.816-.9C.809-1.17.787-1.276.52-1.278H.373a.268.268,0,0,0-.139.04Z" transform="translate(0.871 1.727)" fill="#fff"/></g><g transform="translate(41.105 1.343)"><path d="M-.75-2.313a.47.47,0,0,1-.394-.123L-1.331-2.6a.549.549,0,0,1-.222-.5l.006-.85a.581.581,0,0,1,.22-.527l.157-.132a.593.593,0,0,1,.489-.18l.4,0a.632.632,0,0,1,.486.164l.178.144A.623.623,0,0,1,.612-3.9l0,.354c0,.252-.044.326-.306.324l-1.415-.01v.147a.214.214,0,0,0,.063.129l.11.12a.371.371,0,0,0,.293.085L.3-2.747c.147,0,.3.034.3.222s-.176.22-.3.219Zm-.357-1.363,1.277.009,0-.267c0-.082.005-.152-.054-.206l-.169-.148a.308.308,0,0,0-.211-.057l-.372,0A.351.351,0,0,0-.86-4.3l-.153.11a.2.2,0,0,0-.093.2Z" transform="translate(1.553 4.789)" fill="#fff"/></g><g transform="translate(0.518 60.372)"><path d="M-1.906-2.908a.212.212,0,0,1,.23.23.211.211,0,0,1-.23.229h-2.04V-5.793a.2.2,0,0,1,.23-.23.2.2,0,0,1,.23.23v2.884Z" transform="translate(3.946 6.023)" fill="#fff"/></g><g transform="translate(4.557 60.372)"><path d="M-1.021-2.926H-.69c.147,0,.3.032.3.22s-.174.22-.3.22H-1.811c-.129,0-.3-.027-.3-.22s.157-.22.3-.22h.349V-4.52h-.349c-.129,0-.3-.028-.3-.221s.157-.22.3-.22h.464c.252,0,.326.046.326.307Zm-.667-2.927a.182.182,0,0,1,.207-.206h.253a.182.182,0,0,1,.207.206v.213a.182.182,0,0,1-.207.205h-.253a.182.182,0,0,1-.207-.205Z" transform="translate(2.115 6.059)" fill="#fff"/></g><g transform="translate(8.108 61.469)"><path d="M-1.605-.514V-.739c0-.156.027-.326.225-.326.156,0,.216.125.216.266v.313a.362.362,0,0,1-.051.179l-.657,1.443c-.041.092-.119.275-.23.275h-.285c-.11,0-.188-.183-.229-.275L-3.274-.307a.371.371,0,0,1-.05-.179V-.8c0-.142.059-.266.216-.266.2,0,.225.17.225.326v.224L-2.244.952Z" transform="translate(3.324 1.065)" fill="#fff"/></g><g transform="translate(11.875 61.469)"><path d="M0-.768a.6.6,0,0,1,.28-.575A.789.789,0,0,1,.905-1.59h.35a.79.79,0,0,1,.625.248.6.6,0,0,1,.28.575V.064a.642.642,0,0,1-.3.593.733.733,0,0,1-.6.229H.905A.732.732,0,0,1,.3.657.641.641,0,0,1,0,.064ZM.441.064C.441.156.474.216.6.325a.4.4,0,0,0,.3.12h.35a.4.4,0,0,0,.3-.12c.128-.11.16-.17.16-.261V-.768c0-.092-.032-.15-.16-.262a.4.4,0,0,0-.3-.119H.905a.4.4,0,0,0-.3.119c-.128.111-.161.17-.161.262Z" transform="translate(0 1.59)" fill="#fff"/></g><g transform="translate(15.642 61.47)"><path d="M0-.3C0-.465.019-.63.221-.63c.174,0,.22.147.22.294v.179L.786-.442a.658.658,0,0,1,.39-.188H1.53a.584.584,0,0,1,.432.174.646.646,0,0,1,.2.5c0,.153-.027.308-.216.308-.161,0-.225-.128-.225-.271a.291.291,0,0,0-.046-.193c-.055-.078-.161-.078-.266-.078H1.278a.344.344,0,0,0-.221.106L.441.426V1.542c0,.153-.032.3-.22.3S0,1.7,0,1.542Z" transform="translate(0 0.63)" fill="#fff"/></g><g transform="translate(19.41 61.47)"><path d="M-.412-.832V.45c0,.153-.032.3-.221.3S-.853.6-.853.45V-1.4c0-.16.019-.326.22-.326s.221.165.221.322v.058l.359-.233a.718.718,0,0,1,.381-.147H.654a.555.555,0,0,1,.409.16c.2.17.189.358.2.6L1.307.423c0,.156-.019.33-.216.33C.912.753.875.6.87.456L.824-.9c-.009-.27-.033-.376-.3-.376H.378a.259.259,0,0,0-.138.042Z" transform="translate(0.853 1.722)" fill="#fff"/></g><g transform="translate(23.177 61.469)"><path d="M0-.768a.6.6,0,0,1,.28-.575A.789.789,0,0,1,.905-1.59h.349a.791.791,0,0,1,.626.248.6.6,0,0,1,.28.575V.064a.641.641,0,0,1-.3.593.732.732,0,0,1-.6.229H.905A.734.734,0,0,1,.3.657.641.641,0,0,1,0,.064ZM.441.064C.441.156.474.216.6.325a.4.4,0,0,0,.3.12h.349a.4.4,0,0,0,.3-.12c.129-.11.161-.17.161-.261V-.768c0-.092-.033-.15-.161-.262a.4.4,0,0,0-.3-.119H.905a.4.4,0,0,0-.3.119c-.128.111-.161.17-.161.262Z" transform="translate(0 1.59)" fill="#fff"/></g><g transform="translate(30.656 60.372)"><path d="M-1.905-2.908a.212.212,0,0,1,.23.23.212.212,0,0,1-.23.229h-2.04V-6.023h2.04a.212.212,0,0,1,.23.23.212.212,0,0,1-.23.229H-3.486v1.1h.675a.212.212,0,0,1,.23.229.212.212,0,0,1-.23.23h-.675v1.1Z" transform="translate(3.945 6.023)" fill="#fff"/></g><g transform="translate(34.478 61.47)"><path d="M-2.017-2.007c0,.1.019.326-.216.326-.189,0-.221-.156-.221-.307v-.073l-.358.234a.728.728,0,0,1-.382.146H-3.52a.612.612,0,0,1-.409-.16.7.7,0,0,1-.2-.6l-.046-1.388c-.005-.16.018-.33.221-.33s.21.16.216.3L-3.694-2.5a.738.738,0,0,0,.046.284c.037.066.152.093.258.093h.147a.237.237,0,0,0,.138-.042l.648-.409V-3.854c0-.152.032-.3.22-.3s.221.152.221.3Z" transform="translate(4.177 4.157)" fill="#fff"/></g><g transform="translate(38.246 61.47)"><path d="M0-.3C0-.465.018-.63.22-.63c.175,0,.221.147.221.294v.179L.785-.442a.661.661,0,0,1,.39-.188H1.53a.583.583,0,0,1,.432.174.645.645,0,0,1,.2.5c0,.153-.028.308-.217.308-.161,0-.224-.128-.224-.271a.288.288,0,0,0-.047-.193c-.055-.078-.161-.078-.266-.078H1.277a.345.345,0,0,0-.221.106L.441.426V1.542c0,.153-.032.3-.221.3S0,1.7,0,1.542Z" transform="translate(0 0.63)" fill="#fff"/></g><g transform="translate(42.013 61.469)"><path d="M0-.768a.6.6,0,0,1,.281-.575A.789.789,0,0,1,.905-1.59h.35a.791.791,0,0,1,.625.248.6.6,0,0,1,.28.575V.064a.642.642,0,0,1-.3.593.731.731,0,0,1-.6.229H.905A.733.733,0,0,1,.3.657.643.643,0,0,1,0,.064ZM.441.064C.441.156.474.216.6.325a.4.4,0,0,0,.3.12h.35a.4.4,0,0,0,.3-.12c.129-.11.161-.17.161-.261V-.768c0-.092-.032-.15-.161-.262a.4.4,0,0,0-.3-.119H.905a.4.4,0,0,0-.3.119c-.129.111-.161.17-.161.262Z" transform="translate(0 1.59)" fill="#fff"/></g><g transform="translate(49.493 60.372)"><path d="M-1.583,0h.574V3.345a.2.2,0,0,1-.23.229.2.2,0,0,1-.23-.229V.633h-.009l-.436.647v.074c0,.141-.054.276-.229.276s-.23-.134-.23-.276V1.281L-2.811.633H-2.82V3.345a.2.2,0,0,1-.23.229.2.2,0,0,1-.23-.229V0H-2.7l.561.809Z" transform="translate(3.279)" fill="#fff"/></g><g transform="translate(53.315 61.47)"><path d="M-.756-2.312a.469.469,0,0,1-.4-.119L-1.34-2.6a.549.549,0,0,1-.225-.5v-.85a.581.581,0,0,1,.216-.527l.157-.134a.593.593,0,0,1,.487-.183h.4a.63.63,0,0,1,.487.16l.18.143a.625.625,0,0,1,.23.575v.353c0,.253-.041.327-.3.327H-1.124v.146a.223.223,0,0,0,.064.13l.111.119a.37.37,0,0,0,.294.083H.291c.146,0,.3.032.3.22s-.175.22-.3.22Zm-.368-1.359H.153v-.266c0-.083.005-.152-.054-.207l-.171-.147a.314.314,0,0,0-.211-.054H-.655A.355.355,0,0,0-.88-4.3l-.153.11a.2.2,0,0,0-.092.2Z" transform="translate(1.565 4.788)" fill="#fff"/></g><g transform="translate(57.082 60.56)"><path d="M-1.129-.85a.628.628,0,0,1,.436.243l.074.079v-.928c0-.153.032-.3.22-.3s.221.152.221.3V1.318c0,.152-.033.308-.221.308s-.22-.146-.22-.293V1.305l-.1.1a.7.7,0,0,1-.422.224h-.427a.674.674,0,0,1-.377-.156l-.152-.128A.571.571,0,0,1-2.338.832V-.055a.573.573,0,0,1,.244-.51l.152-.129A.556.556,0,0,1-1.519-.85ZM-1.9.657c0,.124,0,.28.069.336l.134.105a.29.29,0,0,0,.164.087h.313A.374.374,0,0,0-1,1.075L-.747.86C-.683.8-.619.749-.619.667V.11c0-.083-.065-.138-.129-.193L-1-.3a.368.368,0,0,0-.216-.109h-.313a.3.3,0,0,0-.164.086l-.134.107C-1.9-.161-1.9,0-1.9.119Z" transform="translate(2.338 1.76)" fill="#fff"/></g><g transform="translate(61.065 60.372)"><path d="M-1.022-2.926h.33c.147,0,.3.032.3.22s-.174.22-.3.22H-1.814c-.128,0-.3-.027-.3-.22s.156-.22.3-.22h.35V-4.52h-.35c-.128,0-.3-.028-.3-.221s.156-.22.3-.22h.464c.253,0,.327.046.327.307Zm-.667-2.927a.182.182,0,0,1,.207-.206h.253a.183.183,0,0,1,.207.206v.213a.182.182,0,0,1-.207.205h-.253a.182.182,0,0,1-.207-.205Z" transform="translate(2.117 6.059)" fill="#fff"/></g><g transform="translate(64.617 60.716)"><path d="M-.828-2.24c0,.248-.009.39.294.39h.225c.179,0,.263-.013.308-.193a.225.225,0,0,1,.22-.179A.22.22,0,0,1,.444-2a.655.655,0,0,1-.15.367.716.716,0,0,1-.607.225H-.538a.718.718,0,0,1-.57-.22.8.8,0,0,1-.161-.616v-1.2h-.142c-.129,0-.3-.028-.3-.221s.156-.22.3-.22h.142v-.45c0-.152.033-.3.221-.3s.22.152.22.3v.45h.74c.147,0,.3.032.3.22s-.175.221-.3.221h-.74Z" transform="translate(1.714 4.638)" fill="#fff"/></g><g transform="translate(68.384 61.47)"><path d="M-.755-2.312a.469.469,0,0,1-.395-.119L-1.339-2.6a.55.55,0,0,1-.225-.5v-.85a.58.58,0,0,1,.217-.527l.156-.134a.593.593,0,0,1,.486-.183H-.3a.63.63,0,0,1,.487.16l.179.143A.626.626,0,0,1,.6-3.91v.353c0,.253-.041.327-.3.327H-1.122v.146a.217.217,0,0,0,.064.13l.11.119a.372.372,0,0,0,.294.083H.292c.147,0,.3.032.3.22s-.174.22-.3.22Zm-.367-1.359H.155v-.266c0-.083,0-.152-.055-.207l-.17-.147a.312.312,0,0,0-.21-.054H-.654a.355.355,0,0,0-.224.05l-.153.11a.2.2,0,0,0-.092.2Z" transform="translate(1.564 4.788)" fill="#fff"/></g><g transform="translate(72.152 61.47)"><path d="M0-.3C0-.465.019-.63.22-.63c.175,0,.22.147.22.294v.179L.785-.442A.661.661,0,0,1,1.176-.63H1.53a.581.581,0,0,1,.432.174.646.646,0,0,1,.2.5c0,.153-.027.308-.216.308-.161,0-.225-.128-.225-.271a.291.291,0,0,0-.046-.193c-.054-.078-.16-.078-.266-.078H1.278a.346.346,0,0,0-.221.106L.441.426V1.542c0,.153-.032.3-.22.3S0,1.7,0,1.542Z" transform="translate(0 0.63)" fill="#fff"/></g><g transform="translate(75.918 61.47)"><path d="M0-.3C0-.465.019-.63.221-.63c.174,0,.22.147.22.294v.179L.786-.442a.661.661,0,0,1,.39-.188h.354a.581.581,0,0,1,.432.174.645.645,0,0,1,.2.5c0,.153-.028.308-.217.308-.16,0-.224-.128-.224-.271a.291.291,0,0,0-.046-.193c-.055-.078-.16-.078-.266-.078H1.279a.344.344,0,0,0-.221.106L.442.426V1.542c0,.153-.032.3-.22.3S0,1.7,0,1.542Z" transform="translate(0 0.63)" fill="#fff"/></g><g transform="translate(79.687 61.47)"><path d="M-.69-.412c-.129,0-.3-.028-.3-.221s.156-.22.3-.22h.607a.7.7,0,0,1,.569.2.636.636,0,0,1,.2.524l.047,1.5c0,.128-.06.256-.207.256A.225.225,0,0,1,.3,1.4l-.3.157a.407.407,0,0,1-.271.063H-.7a.69.69,0,0,1-.5-.156A.617.617,0,0,1-1.429.924V.731A.574.574,0,0,1-1.213.24.725.725,0,0,1-.7.074H.247v-.1c0-.331-.073-.386-.39-.386ZM-.7.515c-.118,0-.293.033-.293.193V1c0,.148.18.18.285.18h.487L.27.928v-.1C.27.588.2.515-.043.515Z" transform="translate(1.429 0.854)" fill="#fff"/></g><g transform="translate(83.453 61.47)"><path d="M-.412-.832V.45c0,.153-.033.3-.221.3S-.854.6-.854.45V-1.4c0-.16.019-.326.22-.326s.221.165.221.322v.058l.357-.233a.726.726,0,0,1,.382-.147H.653a.555.555,0,0,1,.409.16c.2.17.19.358.2.6L1.306.423c0,.156-.019.33-.216.33C.91.753.874.6.87.456L.823-.9c-.009-.27-.032-.376-.3-.376H.377a.259.259,0,0,0-.137.042Z" transform="translate(0.854 1.722)" fill="#fff"/></g><g transform="translate(87.221 61.47)"><path d="M-.754-2.312a.47.47,0,0,1-.395-.119L-1.338-2.6a.549.549,0,0,1-.224-.5v-.85a.579.579,0,0,1,.216-.527L-1.19-4.6A.594.594,0,0,1-.7-4.788h.4a.627.627,0,0,1,.486.16l.18.143A.627.627,0,0,1,.6-3.91v.353c0,.253-.041.327-.3.327H-1.12v.146a.221.221,0,0,0,.063.13l.111.119a.372.372,0,0,0,.294.083H.294c.146,0,.3.032.3.22s-.175.22-.3.22ZM-1.12-3.672H.156v-.266c0-.083,0-.152-.054-.207L-.07-4.292a.312.312,0,0,0-.21-.054H-.652a.356.356,0,0,0-.225.05l-.152.11a.2.2,0,0,0-.092.2Z" transform="translate(1.562 4.788)" fill="#fff"/></g><g transform="translate(90.988 61.47)"><path d="M-.691-.412C-.82-.412-1-.441-1-.634s.157-.22.3-.22h.606a.7.7,0,0,1,.57.2.636.636,0,0,1,.2.524l.046,1.5c0,.128-.059.256-.206.256A.225.225,0,0,1,.3,1.4l-.3.157a.407.407,0,0,1-.271.063H-.7a.686.686,0,0,1-.5-.156.615.615,0,0,1-.23-.542V.731A.574.574,0,0,1-1.215.24.728.728,0,0,1-.7.074H.245v-.1c0-.331-.073-.386-.389-.386Zm0,.928c-.12,0-.295.033-.295.193V1c0,.148.18.18.285.18h.487L.269.928v-.1C.269.588.2.515-.044.515Z" transform="translate(1.431 0.854)" fill="#fff"/></g><g transform="translate(27.164 61.886)"><path d="M-1.283-.64A.687.687,0,0,1-1.97.045.686.686,0,0,1-2.657-.64a.687.687,0,0,1,.687-.686.687.687,0,0,1,.687.686" transform="translate(2.657 1.326)" fill="#ff4c3e"/></g><g transform="translate(46.407 61.886)"><path d="M-1.283-.64a.689.689,0,0,1-.689.688A.687.687,0,0,1-2.656-.64a.686.686,0,0,1,.685-.686.688.688,0,0,1,.689.686" transform="translate(2.656 1.326)" fill="#ff4c3e"/></g></g></g></svg>