<svg xmlns="http://www.w3.org/2000/svg" width="145.019" height="22.581" viewBox="0 0 145.019 22.581">
  <g id="Raggruppa_40216" data-name="Raggruppa 40216" transform="translate(-7956.225 -2105.214)">
    <g id="Raggruppa_40215" data-name="Raggruppa 40215">
      <g id="Raggruppa_40214" data-name="Raggruppa 40214" transform="translate(7956.225 2105.214)">
        <g id="Raggruppa_37114" data-name="Raggruppa 37114" transform="translate(66.46 9.599)">
          <path id="Tracciato_39212" data-name="Tracciato 39212" d="M0,0" fill="#cd2d45" stroke="#2b2e34" stroke-width="0.33"/>
        </g>
        <g id="Raggruppa_37115" data-name="Raggruppa 37115" transform="translate(56.29 0)">
          <path id="Tracciato_39213" data-name="Tracciato 39213" d="M8.1,6.435H-5.15L8.1-5.536h0v-5.313H-13.656v5.313H-.407L-13.656,6.435v5.3H8.1Z" transform="translate(13.656 10.849)" fill="#cd2d45"/>
        </g>
        <path id="Tracciato_39214" data-name="Tracciato 39214" d="M104.939-5.058H111v-22.58h-6.059Z" transform="translate(34.021 27.638)" fill="#cd2d45"/>
        <g id="Raggruppa_37116" data-name="Raggruppa 37116" transform="translate(111.674 0.001)">
          <path id="Tracciato_39215" data-name="Tracciato 39215" d="M4.9,3.813,14.7-6.428H6.612L-2.2,2.8V-6.428H-8.259v22.58H-2.2V11.227L.636,8.266l6.239,7.886H14.7Z" transform="translate(8.259 6.428)" fill="#cd2d45"/>
        </g>
        <g id="Raggruppa_37117" data-name="Raggruppa 37117" transform="translate(80.988 0.001)">
          <path id="Tracciato_39216" data-name="Tracciato 39216" d="M10.282,8.407.1-14.173H-7.15L-17.335,8.407h6.707l1.486-3.435H2.089L3.575,8.407ZM-.2-.324H-6.85l3.323-7.682Z" transform="translate(17.335 14.173)" fill="#cd2d45"/>
        </g>
        <g id="Raggruppa_37118" data-name="Raggruppa 37118" transform="translate(0 0.001)">
          <path id="Tracciato_39217" data-name="Tracciato 39217" d="M7.987,1.975v-5.3H-13.465v22.58H7.987V13.946L21.237,1.975Z" transform="translate(13.465 3.329)" fill="#cd2d45"/>
        </g>
        <path id="Tracciato_39218" data-name="Tracciato 39218" d="M44.644-5.058h.631v-22.58h-.631Z" transform="translate(-1.743 27.638)" fill="#cd2d45"/>
      </g>
    </g>
  </g>
</svg>
