<svg xmlns="http://www.w3.org/2000/svg" width="144.115" height="36.094" viewBox="0 0 144.115 36.094"><g transform="translate(-501.998 -64.923)" style="isolation:isolate"><g transform="translate(548.353 64.923)"><path d="M.2,34.545H-.2V0H.2Z" fill="#fff"/></g><path d="M0,0H5.229V4.4H0Z" transform="translate(585.017 64.923)" fill="#00a8bf"/><g transform="translate(560.162 64.923)"><path d="M650.517,83.384c0,3-.89,4.165-3.175,4.165-1.823,0-2.566-1.021-2.566-3.525V74.785h-5.23v10.03c0,3.181.726,6.832,6.389,6.832a6.394,6.394,0,0,0,4.805-2.075v1.649h5.006V74.785h-5.229Z" transform="translate(-606.781 -68.266)" fill="#fff"/><path d="M601.593,79.684h5.01c-.388,2.622-2.127,4-5.05,4-4.321,0-5.861-3.583-5.861-6.937,0-1.67.422-7.119,5.861-7.119a4.277,4.277,0,0,1,4.5,3.392l.063.263h5.452l-.042-.381c-.6-5.484-5.591-7.982-9.97-7.982-6.921,0-11.57,4.753-11.57,11.828,0,6.857,4.758,11.645,11.57,11.645a8.165,8.165,0,0,0,6.073-2.584l.429,2.066h3.822V75.432H601.593Z" transform="translate(-589.983 -64.923)" fill="#fff"/></g><rect width="5.229" height="16.436" transform="translate(585.017 71.442)" fill="#fff"/><rect width="5.229" height="16.436" transform="translate(640.552 71.442)" fill="#fff"/><g transform="translate(610.982 71.015)"><path d="M677.368,80.849c-.422-.095-.844-.179-1.253-.261-1.947-.391-3.627-.728-3.627-1.749,0-.742.734-1.119,2.183-1.119,1.812,0,2.663.56,2.759,1.815l.024.318h5.013l-.034-.375c-.317-3.492-2.958-5.339-7.635-5.339-4.863,0-7.54,1.918-7.54,5.4,0,2.984,2.79,3.97,5.519,4.54,3.034.623,4.876,1.075,4.876,2.1,0,1.62-2.362,1.667-2.631,1.667-.728,0-3.107-.167-3.143-2.312l-.006-.338h-5.016l.017.36c.172,3.732,3.13,5.872,8.116,5.872,5.016,0,7.893-2.124,7.893-5.827,0-3.12-2.652-4.128-5.515-4.752" transform="translate(-666.858 -74.139)" fill="#fff"/></g><path d="M0,0H5.229V4.4H0Z" transform="translate(640.551 64.923)" fill="#00a8bf"/><g transform="translate(525.029 66.421)"><path d="M699.779,67.189H694.55V72.21H691.8v3.581h2.751v8.948c0,3.667,3.172,4.091,5.558,4.091a17.984,17.984,0,0,0,2.708-.157l.29-.046V84.537l-.408.077a6.932,6.932,0,0,1-1.343.116c-1.355,0-1.576-.208-1.576-1.484V75.791h3.326V72.21h-3.326Z" transform="translate(-589.359 -67.189)" fill="#fff"/><path d="M548.352,82.342H536.837a11.515,11.515,0,0,0,11.515,11.515Z" transform="translate(-536.837 -72.325)" fill="#00a8bf"/></g><path d="M536.544,87.954h-23.03V76.438h11.515V64.923H502V99.469h34.545Z" transform="translate(0 0)" fill="#fff"/><g transform="translate(560.814 93.359)"><path d="M676.116,110.892a1.43,1.43,0,0,0-1.6-1.4c-.771,0-1.641.338-1.641,1.226,0,.744.524.982,1.218,1.168l.685.152c.482.118.956.288.956.8,0,.61-.694.829-1.193.829a1.151,1.151,0,0,1-1.288-1.091h-.531a1.58,1.58,0,0,0,1.794,1.539c.812,0,1.751-.363,1.751-1.311a1.28,1.28,0,0,0-1.244-1.21l-.711-.161c-.364-.093-.906-.262-.906-.736,0-.567.559-.753,1.033-.753a1,1,0,0,1,1.143.957Zm-4.24,0a1.429,1.429,0,0,0-1.6-1.4c-.771,0-1.641.338-1.641,1.226,0,.744.524.982,1.218,1.168l.686.152c.482.118.956.288.956.8,0,.61-.694.829-1.194.829a1.151,1.151,0,0,1-1.286-1.091h-.531a1.58,1.58,0,0,0,1.793,1.539c.813,0,1.752-.363,1.752-1.311a1.28,1.28,0,0,0-1.244-1.21l-.712-.161c-.364-.093-.905-.262-.905-.736,0-.567.558-.753,1.033-.753a1,1,0,0,1,1.142.957Zm-7.395.6a1.55,1.55,0,0,1,1.439-1.558,1.468,1.468,0,0,1,1.388,1.558Zm3.36.447c.042-1.226-.516-2.453-1.92-2.453a2.043,2.043,0,0,0-1.972,2.309c0,1.244.583,2.31,1.972,2.31a1.782,1.782,0,0,0,1.9-1.565h-.533a1.33,1.33,0,0,1-1.37,1.117,1.549,1.549,0,0,1-1.439-1.719Zm-8.393,2.039h.531v-2.547a1.379,1.379,0,0,1,1.372-1.5c.863,0,1.109.567,1.109,1.32v2.724h.531v-2.809c0-1.041-.372-1.683-1.6-1.683a1.479,1.479,0,0,0-1.4.879h-.017v-.752h-.531Zm-1.718-5.187h.531v-.853h-.531Zm0,5.187h.531v-4.365h-.531Zm-1.1-3.088a1.429,1.429,0,0,0-1.6-1.4c-.771,0-1.641.338-1.641,1.226,0,.744.524.982,1.218,1.168l.686.152c.483.118.957.288.957.8,0,.61-.693.829-1.194.829a1.151,1.151,0,0,1-1.286-1.091h-.532a1.581,1.581,0,0,0,1.793,1.539c.812,0,1.751-.363,1.751-1.311a1.279,1.279,0,0,0-1.242-1.21l-.712-.161c-.364-.093-.9-.262-.9-.736,0-.567.559-.753,1.032-.753a1.006,1.006,0,0,1,1.144.957Zm-4.324-1.277h-.531v2.293c0,.888-.4,1.751-1.312,1.751-.846,0-1.143-.414-1.168-1.2v-2.843h-.531v2.835c0,1.015.43,1.657,1.53,1.657a1.625,1.625,0,0,0,1.507-.913h.016v.786h.49Zm-8.561,4.365h.489v-.829h.017a1.633,1.633,0,0,0,1.558.956c1.328,0,1.962-1.074,1.962-2.309s-.634-2.31-1.962-2.31a1.559,1.559,0,0,0-1.516.955h-.017v-2.5h-.531Zm3.5-2.182c0,.906-.416,1.862-1.431,1.862-1.135,0-1.533-.956-1.533-1.862s.4-1.862,1.533-1.862c1.015,0,1.431.957,1.431,1.862m-9.286,2.182h.531v-2.327a1.5,1.5,0,0,1,1.625-1.565v-.532a1.613,1.613,0,0,0-1.65,1.082h-.017v-1.023h-.489Zm-1.178-4.365h-.532v2.293c0,.888-.4,1.751-1.312,1.751-.846,0-1.142-.414-1.168-1.2v-2.843h-.532v2.835c0,1.015.431,1.657,1.531,1.657a1.624,1.624,0,0,0,1.507-.913h.017v.786h.489Zm-6.566.321a1.9,1.9,0,1,1-1.532,1.862,1.66,1.66,0,0,1,1.532-1.862m0-.448a2.324,2.324,0,1,0,2.065,2.31,2.09,2.09,0,0,0-2.065-2.31m-4.678,4.476-.187.5c-.178.407-.288.686-.762.686a1.818,1.818,0,0,1-.364-.042v.448a1.394,1.394,0,0,0,.406.042c.668,0,.846-.211,1.151-.947l1.9-5.035h-.533l-1.345,3.723-1.438-3.723h-.566Zm-8.458-2.47a1.55,1.55,0,0,1,1.438-1.558,1.467,1.467,0,0,1,1.388,1.558Zm3.359.447c.043-1.226-.515-2.453-1.92-2.453a2.042,2.042,0,0,0-1.971,2.309c0,1.244.583,2.31,1.971,2.31a1.781,1.781,0,0,0,1.9-1.565h-.532a1.33,1.33,0,0,1-1.372,1.117,1.548,1.548,0,0,1-1.438-1.719Zm-6.566,2.039h.567l1.632-4.365h-.549l-1.354,3.833h-.017l-1.37-3.833h-.592Zm-4.222-4.044a1.9,1.9,0,1,1-1.532,1.862,1.661,1.661,0,0,1,1.532-1.862m0-.448a2.324,2.324,0,1,0,2.065,2.31,2.089,2.089,0,0,0-2.065-2.31m-4.526,4.492h.532v-2.327a1.5,1.5,0,0,1,1.624-1.565v-.532a1.614,1.614,0,0,0-1.65,1.082h-.016v-1.023h-.49ZM600.09,115.6h.532v-2.445h.017a1.557,1.557,0,0,0,1.515.955c1.329,0,1.963-1.074,1.963-2.309s-.633-2.31-1.963-2.31a1.633,1.633,0,0,0-1.557.955h-.017v-.828h-.49Zm3.494-3.8c0,.906-.414,1.862-1.431,1.862-1.134,0-1.532-.956-1.532-1.862,0-.99.355-1.862,1.532-1.862,1.016,0,1.431.957,1.431,1.862m-10.712,2.182h.531v-2.437c.009-.914.381-1.608,1.3-1.608.678,0,.923.491.914,1.083v2.962h.532v-2.47c0-.812.262-1.574,1.185-1.574.762,0,1.033.389,1.033,1.109v2.936h.531v-2.962c0-1.032-.49-1.53-1.446-1.53a1.473,1.473,0,0,0-1.387.853,1.214,1.214,0,0,0-1.253-.853,1.525,1.525,0,0,0-1.431.862h-.025v-.735h-.49Zm-1.9,0h.575v-6.041h-.575Z" transform="translate(-590.969 -107.939)" fill="#fff"/></g></g></svg>