<svg xmlns="http://www.w3.org/2000/svg" width="303.358" height="46.281" viewBox="0 0 303.358 46.281">
  <g id="Raggruppa_39193" data-name="Raggruppa 39193" transform="translate(15621.77 8695.935)">
    <path id="Tracciato_39915" data-name="Tracciato 39915" d="M89-.876h1.309v-44.5H89Z" transform="translate(-15621.77 -8649.653)" fill="#cd2d45"/>
    <path id="Tracciato_39916" data-name="Tracciato 39916" d="M0,0V44.5H44.5V34.05L71.989,10.455H44.5V0Z" transform="translate(-15621.77 -8695.032)" fill="#cd2d45"/>
    <path id="Tracciato_39917" data-name="Tracciato 39917" d="M89-.876h1.309v-44.5H89Z" transform="translate(-15621.77 -8649.653)" fill="#cd2d45"/>
    <path id="Tracciato_39918" data-name="Tracciato 39918" d="M0,0V44.6H33.821v-10H12.587V0Z" transform="translate(-15455.089 -8695.096)" fill="#cd2d45"/>
    <path id="Tracciato_39919" data-name="Tracciato 39919" d="M0,0A26.607,26.607,0,0,0,12.683-2.988a22.451,22.451,0,0,0,8.837-8.264,22.428,22.428,0,0,0,3.21-11.889,22.432,22.432,0,0,0-3.21-11.888,22.458,22.458,0,0,0-8.837-8.264A26.618,26.618,0,0,0,0-46.281a26.618,26.618,0,0,0-12.683,2.988,22.451,22.451,0,0,0-8.837,8.264,22.423,22.423,0,0,0-3.21,11.888,22.419,22.419,0,0,0,3.21,11.889,22.444,22.444,0,0,0,8.837,8.264A26.607,26.607,0,0,0,0,0M0-10.426a11.911,11.911,0,0,1-6.1-1.589A11.417,11.417,0,0,1-10.426-16.5a13.562,13.562,0,0,1-1.589-6.644,13.567,13.567,0,0,1,1.589-6.643A11.43,11.43,0,0,1-6.1-34.266,11.921,11.921,0,0,1,0-35.855a11.926,11.926,0,0,1,6.1,1.589,11.444,11.444,0,0,1,4.323,4.482,13.577,13.577,0,0,1,1.589,6.643A13.573,13.573,0,0,1,10.426-16.5,11.43,11.43,0,0,1,6.1-12.015,11.916,11.916,0,0,1,0-10.426" transform="translate(-15393.292 -8649.653)" fill="#cd2d45"/>
    <path id="Tracciato_39920" data-name="Tracciato 39920" d="M0,0A16.082,16.082,0,0,1-6.8,1.462,13.043,13.043,0,0,1-13.35-.159,11.389,11.389,0,0,1-17.8-4.673a13.439,13.439,0,0,1-1.589-6.579,12.435,12.435,0,0,1,3.5-9.25,12.522,12.522,0,0,1,9.218-3.465A14.119,14.119,0,0,1,4.132-19.008l8.01-7.248a21.566,21.566,0,0,0-8.264-6.039,28.461,28.461,0,0,0-11.189-2.1,27.173,27.173,0,0,0-12.778,2.956A21.943,21.943,0,0,0-28.926-23.2,22.7,22.7,0,0,0-32.1-11.252,22.693,22.693,0,0,0-28.926.7a22.042,22.042,0,0,0,8.773,8.233A26.519,26.519,0,0,0-7.565,11.888a34.937,34.937,0,0,0,9.917-1.462,28.974,28.974,0,0,0,8.773-4.2V-12.206H0Z" transform="translate(-15330.554 -8661.542)" fill="#cd2d45"/>
    <path id="Tracciato_39921" data-name="Tracciato 39921" d="M0,0A10.413,10.413,0,0,0,4.092-3.982a11.256,11.256,0,0,0,1.443-5.7,10.153,10.153,0,0,0-4.122-8.506Q-2.709-21.346-10.6-21.345H-34.167v44.6H-9.422q8.244,0,12.6-3.186a10.544,10.544,0,0,0,4.357-9.048,11.577,11.577,0,0,0-2-6.85A11.617,11.617,0,0,0,0,0M-6.242-7.965q0,4.335-5.888,4.333h-9.441v-8.6h9.441q5.888,0,5.888,4.269m2,17.586q0,4.525-6.124,4.524H-21.571V5.1h11.207q6.125,0,6.124,4.524" transform="translate(-15471.085 -8673.75)" fill="#cd2d45"/>
  </g>
</svg>
