<svg xmlns="http://www.w3.org/2000/svg" width="331.178" height="50.526" viewBox="0 0 331.178 50.526">
  <g id="Raggruppa_39998" data-name="Raggruppa 39998" transform="translate(-1174 -183.738)">
    <path id="Tracciato_39915" data-name="Tracciato 39915" d="M89,3.2h1.429V-45.378H89Z" transform="translate(1182.162 230.104)" fill="#fff"/>
    <path id="Tracciato_39916" data-name="Tracciato 39916" d="M0,0V48.584H48.583V37.172L78.591,11.413H48.583V0Z" transform="translate(1174 184.725)" fill="#fff"/>
    <path id="Tracciato_39917" data-name="Tracciato 39917" d="M89,3.2h1.429V-45.378H89Z" transform="translate(1182.162 230.104)" fill="#fff"/>
    <path id="Tracciato_39918" data-name="Tracciato 39918" d="M0,0V48.691H36.923V37.771H13.741V0Z" transform="translate(1355.967 184.654)" fill="#fff"/>
    <path id="Tracciato_39919" data-name="Tracciato 39919" d="M2.268,4.243A29.047,29.047,0,0,0,16.114.981a24.509,24.509,0,0,0,9.647-9.022,24.484,24.484,0,0,0,3.5-12.979A24.488,24.488,0,0,0,25.761-34a24.517,24.517,0,0,0-9.647-9.022A29.06,29.06,0,0,0,2.268-46.281a29.06,29.06,0,0,0-13.846,3.262A24.51,24.51,0,0,0-21.226-34a24.478,24.478,0,0,0-3.5,12.978,24.474,24.474,0,0,0,3.5,12.979A24.5,24.5,0,0,0-11.578.981,29.047,29.047,0,0,0,2.268,4.243m0-11.382A13,13,0,0,1-4.395-8.874a12.464,12.464,0,0,1-4.719-4.893,14.805,14.805,0,0,1-1.735-7.253,14.81,14.81,0,0,1,1.735-7.252,12.478,12.478,0,0,1,4.719-4.893A13.015,13.015,0,0,1,2.268-34.9a13.02,13.02,0,0,1,6.663,1.735,12.493,12.493,0,0,1,4.719,4.893,14.822,14.822,0,0,1,1.735,7.252,14.817,14.817,0,0,1-1.735,7.253A12.479,12.479,0,0,1,8.931-8.874,13.009,13.009,0,0,1,2.268-7.139" transform="translate(1421.162 230.021)" fill="#fff"/>
    <path id="Tracciato_39920" data-name="Tracciato 39920" d="M2.944,3.153a17.557,17.557,0,0,1-7.426,1.6,14.239,14.239,0,0,1-7.148-1.77,12.433,12.433,0,0,1-4.859-4.928,14.671,14.671,0,0,1-1.735-7.182q0-6.316,3.818-10.1A13.671,13.671,0,0,1-4.343-23.011,15.414,15.414,0,0,1,7.455-17.6L16.2-25.51A23.544,23.544,0,0,0,7.178-32.1a31.072,31.072,0,0,0-12.215-2.29,29.665,29.665,0,0,0-13.95,3.227,23.955,23.955,0,0,0-9.647,8.988A24.777,24.777,0,0,0-32.1-9.131,24.773,24.773,0,0,0-28.635,3.916,24.063,24.063,0,0,0-19.057,12.9,28.951,28.951,0,0,0-5.315,16.131a38.142,38.142,0,0,0,10.826-1.6,31.631,31.631,0,0,0,9.578-4.581V-10.172H2.944Z" transform="translate(1488.979 218.131)" fill="#fff"/>
    <path id="Tracciato_39921" data-name="Tracciato 39921" d="M3.133,1.957A11.368,11.368,0,0,0,7.6-2.39,12.288,12.288,0,0,0,9.176-8.616a11.084,11.084,0,0,0-4.5-9.286q-4.5-3.444-13.114-3.443H-34.167v48.69H-7.153q9,0,13.758-3.478a11.51,11.51,0,0,0,4.757-9.877A12.638,12.638,0,0,0,9.176,6.512,12.682,12.682,0,0,0,3.133,1.957m-6.814-8.7q0,4.732-6.428,4.73H-20.416V-11.4h10.307q6.427,0,6.428,4.66M-1.5,12.46q0,4.94-6.686,4.939H-20.416V7.521H-8.181q6.686,0,6.686,4.939" transform="translate(1335.371 206.002)" fill="#fff"/>
  </g>
</svg>
