<svg xmlns="http://www.w3.org/2000/svg" width="453.924" height="41.036" viewBox="0 0 453.924 41.036"><g transform="translate(11182.636 20787)"><path d="M2.653,0V24.315L-13.287,0h-9.706V39.151h9.479V14.89L2.19,38.88l.177.271h9.763V0Z" transform="translate(-11159.643 -20785.85)" fill="#fff"/><path d="M129.517-14.186h9.015V-42.519h-9.015Z" transform="translate(-11271.614 -20732.51)" fill="#fff"/><path d="M0,0,9.583,7.608h6.83L10.795,0Z" transform="translate(-11097.097 -20785.893)" fill="#ff9d2a"/><path d="M2.646.436A13.854,13.854,0,0,0-7.785-3.781c-8.779,0-15.149,6.277-15.149,14.928,0,8.9,6.087,14.875,15.149,14.875,7.047,0,11.725-3.208,13.9-9.537l.271-.785H-1.777l-.125.425c-.383,1.3-2.544,3.093-5.608,3.093-3.966,0-6-1.812-6.367-5.693H6.608l.037-.553a16.683,16.683,0,0,0-4-12.536M-2.509,7.614H-13.845c.254-1.419,1.326-4.591,5.839-4.591,3.085,0,4.716,1.342,5.5,4.591" transform="translate(-11077.55 -20771.986)" fill="#fff"/><path d="M129.517-44.67h9.016v-7.587h-9.016Z" transform="translate(-11271.614 -20733.635)" fill="#ff9d2a"/><path d="M0,0V39.2H9.016V29.516l2.323-2.133L18.962,39.2H29.9l-12.32-17.68L29.066,10.862H18.048L9.016,19.8V0Z" transform="translate(-11128.093 -20785.893)" fill="#fff"/><path d="M186.732,481.955h5.753v38.9H188.43V487.24h-.108l-17.258,33.616h-3.725l-17.2-33.671h-.11v33.671h-4.053v-38.9h5.916l17.421,33.834Z" transform="translate(-11183.116 -21267.969)" fill="#fff"/><path d="M222.432,509.034h-20.6l-5.314,11.822h-4.383l17.749-38.9H214.6l17.75,38.9h-4.711Zm-10.245-23.047-8.71,19.341h17.312Z" transform="translate(-11178.495 -21267.969)" fill="#fff"/><path d="M266.145,513.6h-.11c-4,5.722-8.6,8.338-16.27,8.338-13.258,0-20.49-8.282-20.49-20.435,0-11.772,7.944-20.437,20.928-20.437,10.9,0,17.86,6.1,18.9,13.3h-4.383c-1.589-6.595-7.506-9.591-14.518-9.591-10.682,0-16.545,6.484-16.545,16.73,0,10.464,5.369,16.73,15.778,16.73,11.724,0,15.449-6.649,16.654-13.624H251.737V500.9h18.079v20.055h-3.123Z" transform="translate(-11174.778 -21268.064)" fill="#fff"/><path d="M300.309,509.034h-20.6L274.4,520.856h-4.383l17.749-38.9h4.711l17.75,38.9h-4.711Zm-10.245-23.047-8.71,19.341h17.312Z" transform="translate(-11170.7 -21267.969)" fill="#fff"/><path d="M309.014,517.151,338.05,485.66H310.877v-3.7h32.65v3.7l-29.2,31.491h29.639v3.7H309.014Z" transform="translate(-11166.774 -21267.969)" fill="#fff"/><path d="M345.089,481.955h4.054v38.9h-4.054Z" transform="translate(-11163.028 -21267.969)" fill="#fff"/><path d="M356.642,481.955h4.875l27.337,33.234h.111V481.955h4.054v38.9h-4.713l-27.5-33.234H360.7v33.234h-4.054Z" transform="translate(-11162.246 -21267.969)" fill="#fff"/><path d="M397.607,481.955h31.117v3.7H401.662v13.185h26.076v3.7H401.662v14.6h27.5v3.7H397.607Z" transform="translate(-11157.874 -21267.969)" fill="#fff"/><path d="M0,0V39.224" transform="translate(-11053.925 -20785.893)" fill="#fff"/><path d="M.5,39.224h-1V0h1Z" transform="translate(-11053.925 -20785.893)" fill="#fff"/></g></svg>