<svg xmlns="http://www.w3.org/2000/svg" width="274.605" height="69.193" viewBox="0 0 274.605 69.193"><g transform="translate(-147.253 -84.182)"><text transform="translate(257.233 149.375)" fill="#fff" font-size="16" font-family="HelveticaNeueLTStd-Roman, Helvetica Neue LT Std"><tspan x="0" y="0">I</tspan></text><text transform="translate(261.377 149.375)" fill="#fff" font-size="16" font-family="HelveticaNeueLTStd-Roman, Helvetica Neue LT Std"><tspan x="0" y="0">m</tspan></text><text transform="translate(275.025 149.375)" fill="#fff" font-size="16" font-family="HelveticaNeueLTStd-Roman, Helvetica Neue LT Std"><tspan x="0" y="0">p</tspan></text><text transform="translate(284.449 149.375)" fill="#fff" font-size="16" font-family="HelveticaNeueLTStd-Roman, Helvetica Neue LT Std"><tspan x="0" y="0">r</tspan></text><text transform="translate(289.697 149.375)" fill="#fff" font-size="16" font-family="HelveticaNeueLTStd-Roman, Helvetica Neue LT Std"><tspan x="0" y="0" letter-spacing="0.02em">ov</tspan><tspan y="0">e</tspan></text><text transform="translate(315.153 149.375)" fill="#fff" font-size="16" font-family="SegoeUI, Segoe UI"><tspan x="0" y="0"> </tspan></text><text transform="translate(319.682 149.375)" fill="#fff" font-size="16" font-family="HelveticaNeueLTStd-Roman, Helvetica Neue LT Std"><tspan x="0" y="0" letter-spacing="0.02em">y</tspan><tspan y="0" letter-spacing="0.019em">o</tspan><tspan y="0" letter-spacing="0.02em">u</tspan><tspan y="0">r</tspan></text><text transform="translate(351.329 149.375)" fill="#fff" font-size="16" font-family="SegoeUI, Segoe UI"><tspan x="0" y="0"> </tspan></text><text transform="translate(355.857 149.375)" fill="#fff" font-size="16" font-family="HelveticaNeueLTStd-Roman, Helvetica Neue LT Std"><tspan x="0" y="0" letter-spacing="0.02em">bu</tspan><tspan y="0" letter-spacing="0.019em">s</tspan><tspan y="0" letter-spacing="0.02em">ine</tspan><tspan y="0">ss</tspan></text><path d="M.25,65.321h-.5V0h.5Z" transform="translate(234.904 84.182)" fill="#fff"/><rect width="9.888" height="8.322" transform="translate(304.232 84.182)" fill="#00a7c2"/><path d="M339.933,112.768c0,5.667-1.683,7.875-6,7.875-3.447,0-4.853-1.931-4.853-6.665V96.509h-9.889v18.967c0,6.015,1.373,12.918,12.081,12.918a12.1,12.1,0,0,0,9.087-3.923v3.117h9.465V96.509h-9.888Z" fill="#fff"/><path d="M279.188,112.094h9.473c-.734,4.957-4.021,7.57-9.549,7.57-8.172,0-11.083-6.775-11.083-13.116,0-3.158.8-13.462,11.083-13.462,4.427,0,7.525,2.338,8.5,6.414l.119.5h10.31l-.079-.721c-1.142-10.371-10.573-15.1-18.851-15.1-13.086,0-21.878,8.989-21.878,22.366,0,12.964,9,22.019,21.878,22.019a15.436,15.436,0,0,0,11.482-4.886l.811,3.907h7.227V104.055H279.188Z" fill="#fff"/><rect width="9.888" height="31.079" transform="translate(304.232 96.509)" fill="#fff"/><rect width="9.888" height="31.079" transform="translate(409.24 96.509)" fill="#fff"/><path d="M373.2,108.389c-.8-.178-1.6-.338-2.371-.494-3.68-.739-6.858-1.378-6.858-3.307,0-1.4,1.389-2.115,4.128-2.115,3.428,0,5.037,1.059,5.218,3.432l.046.6h9.479l-.064-.709c-.6-6.6-5.593-10.1-14.437-10.1-9.194,0-14.258,3.627-14.258,10.212,0,5.643,5.275,7.507,10.437,8.586,5.737,1.178,9.219,2.033,9.219,3.972,0,3.062-4.465,3.15-4.975,3.15-1.376,0-5.874-.315-5.942-4.372l-.011-.639h-9.485l.032.68c.325,7.057,5.918,11.1,15.345,11.1,9.485,0,14.924-4.016,14.924-11.018,0-5.9-5.013-7.805-10.427-8.986" fill="#fff"/><rect width="9.888" height="8.322" transform="translate(409.24 84.182)" fill="#00a7c2"/><path d="M399.593,87.014H389.7v9.5h-5.2v6.772h5.2V120.2c0,6.933,6,7.735,10.509,7.735a34.165,34.165,0,0,0,5.121-.3l.548-.087v-7.735l-.772.147a13.027,13.027,0,0,1-2.539.219c-2.561,0-2.979-.394-2.979-2.806v-14.1h6.29V96.509h-6.29Z" fill="#fff"/><path d="M212.575,105.956H190.8a21.775,21.775,0,0,0,21.774,21.774Z" fill="#00a7c2"/><path d="M190.8,105.956V84.182H147.253V149.5H190.8V127.73H169.027V105.956Z" fill="#fff"/><rect width="33.774" height="21.774" transform="translate(178.801 127.73)" fill="#fff"/></g></svg>