<svg xmlns="http://www.w3.org/2000/svg" xmlns:xlink="http://www.w3.org/1999/xlink" width="78" height="48" viewBox="0 0 78 48"><defs><clipPath id="a"><rect width="78" height="48" transform="translate(5977 -10284)" fill="#fff" opacity="0.64"/></clipPath></defs><g transform="translate(-5977 10284)" clip-path="url(#a)"><g transform="translate(5977.251 -10284.104)"><path d="M34.6,7.945V-3.329H-13.465v48H34.6V33.393L64.284,7.945Z" transform="translate(13.465 3.329)" fill="#fff"/><g transform="translate(9.48 16.588)"><g transform="translate(0 8.109)"><g transform="translate(4.265 3.84)"><path d="M-435.913,207.141" transform="translate(435.913 -207.141)" fill="#383838"/></g><g transform="translate(3.369 3.182)"><path d="M-437.263,206.15" transform="translate(437.263 -206.15)" fill="#383838"/><path transform="translate(437.263 -206.15)" fill="#2b2e34"/></g><path d="M-435.133,207.083h-4.39l4.39-3.968h0v-1.76h-7.208v1.76h4.389l-4.389,3.966v1.757h7.208Z" transform="translate(442.341 -201.354)" fill="#383838"/><path d="M-401.063,208.838h2.007v-7.48h-2.007Z" transform="translate(428.451 -201.355)" fill="#383838"/><g transform="translate(18.348 0.003)"><path d="M-410.328,204.751l3.251-3.392h-2.684l-2.919,3.056v-3.056h-2.007v7.48h2.006v-1.631l.94-.981,2.069,2.612h2.594Z" transform="translate(414.687 -201.359)" fill="#383838"/></g><g transform="translate(8.182 0.003)"><path d="M-420.859,208.839l-3.374-7.48h-2.4l-3.374,7.48h2.222l.492-1.138h3.72l.493,1.138Zm-3.473-2.892h-2.2l1.1-2.545Z" transform="translate(430.009 -201.359)" fill="#383838"/></g></g><g style="isolation:isolate"><path d="M-437.219,194.235l-.219-4.159-1.926,4.159h-.32l-1.919-4.159-.226,4.159h-.512l.3-5.1h.539l1.981,4.282,1.973-4.282H-437l.3,5.1Z" transform="translate(442.341 -189.133)" fill="#383838"/><path d="M-429.177,192.941h-2.677l-.567,1.318h-.553l2.213-5.054h.492l2.213,5.054h-.553Zm-.185-.437-1.147-2.67-1.154,2.67Z" transform="translate(439.189 -189.157)" fill="#383838"/><path d="M-420.326,191.746a2.346,2.346,0,0,1-2.452,2.513h-1.714v-5.054h1.714A2.354,2.354,0,0,1-420.326,191.746Zm-.539,0a1.92,1.92,0,0,0-1.953-2.111h-1.154v4.193h1.154A1.911,1.911,0,0,0-420.865,191.746Z" transform="translate(436.335 -189.157)" fill="#383838"/><path d="M-413.453,193.829v.43h-3.175v-5.054h3.114v.431h-2.595v1.83h2.424v.431h-2.424v1.933Z" transform="translate(433.689 -189.157)" fill="#383838"/><path d="M-407.467,189.205h.519v5.054h-.519Z" transform="translate(430.606 -189.157)" fill="#383838"/><path d="M-404.605,189.205h.334l3.51,4.153-.007-4.153h.519v5.054h-.334l-3.51-4.152.007,4.152h-.519Z" transform="translate(429.643 -189.157)" fill="#383838"/></g></g></g></g></svg>