<svg xmlns="http://www.w3.org/2000/svg" width="42.312" height="49.932" viewBox="0 0 42.312 49.932">
  <g id="Raggruppa_37887" data-name="Raggruppa 37887" transform="translate(-614.623 -4484.622)">
    <path id="Tracciato_43942" data-name="Tracciato 43942" d="M203.11,90.054q-.484-.143-1-.259c-.342-.076-.7-.144-1.058-.2a25.75,25.75,0,0,0-4.145-.306h-12.56a1.96,1.96,0,0,0-.866.2A2.025,2.025,0,0,0,182.37,91l-2.67,17.152-.077.5a2.294,2.294,0,0,1,2.256-1.961h4.7c9.234,0,16.465-3.8,18.577-14.8.063-.325-.113-.954-.065-1.265a8.4,8.4,0,0,0-1.509-.429c-.155-.052-.314-.1-.475-.15" transform="translate(447.656 4406.242)" fill="#012069"/>
    <path id="Tracciato_44823" data-name="Tracciato 44823" d="M161.418,73.443a1.939,1.939,0,0,1,1.918-1.639H175.5a25.444,25.444,0,0,1,4.013.291q.528.085,1.024.2t.966.247q.233.068.459.142a11,11,0,0,1,1.682.711c.609-3.885,0-6.527-2.1-8.921-2.313-2.635-6.491-3.765-11.837-3.765H154.185a2.221,2.221,0,0,0-2.193,1.874l-6.461,40.975a1.331,1.331,0,0,0,1.315,1.54h9.581l2.406-15.26Z" transform="translate(469.109 4423.916)" fill="#002f86"/>
    <path id="Tracciato_44824" data-name="Tracciato 44824" d="M199.771,93.376h0c-.047.3-.1.6-.159.909-2.046,10.506-9.048,14.14-17.99,14.14h-4.553a2.212,2.212,0,0,0-2.185,1.874l-2.331,14.781-.662,4.193a1.166,1.166,0,0,0,1.15,1.348h8.075a1.943,1.943,0,0,0,1.918-1.639l.079-.412,1.522-9.646.1-.533a1.942,1.942,0,0,1,1.918-1.639h1.209c7.822,0,13.948-3.178,15.737-12.369.747-3.841.361-7.048-1.616-9.3a7.712,7.712,0,0,0-2.211-1.706" transform="translate(452.982 4403.934)" fill="#009cde"/>
  </g>
</svg>
