<svg xmlns="http://www.w3.org/2000/svg" width="100" height="80" viewBox="0 0 100 80"><g transform="translate(-7048 12470)"><rect width="40" height="41" transform="translate(7048 -12431)" fill="#2b2b2b"/><rect width="40" height="41" transform="translate(7108 -12431)" fill="#2b2b2b"/><path d="M40,0h0a0,0,0,0,1,0,0V40a0,0,0,0,1,0,0H0a0,0,0,0,1,0,0v0A40,40,0,0,1,40,0Z" transform="translate(7048 -12470)" fill="#ff9d2a"/><path d="M40,0h0a0,0,0,0,1,0,0V40a0,0,0,0,1,0,0H0a0,0,0,0,1,0,0v0A40,40,0,0,1,40,0Z" transform="translate(7108 -12470)" fill="#ff9d2a"/></g></svg>