<svg xmlns="http://www.w3.org/2000/svg" width="56.469" height="13.396" viewBox="0 0 56.469 13.396">
  <g id="Raggruppa_37872" data-name="Raggruppa 37872" transform="translate(8962.95 20727.783)">
    <path id="Tracciato_43951" data-name="Tracciato 43951" d="M3034.739,107.111h-1.249a.113.113,0,0,0-.111.111v2.619a.112.112,0,0,0,.111.109h1.249a1.424,1.424,0,0,0,0-2.84" transform="translate(-11956.399 -20831.469)" fill="#5a31f4"/>
    <path id="Tracciato_43952" data-name="Tracciato 43952" d="M3061.769,129.049c0,.38.321.592.88.592a1.073,1.073,0,0,0,1.21-1.14v-.21l-1.138.059c-.6.03-.951.28-.951.7" transform="translate(-11979.595 -20848.773)" fill="#5a31f4"/>
    <g id="Raggruppa_37871" data-name="Raggruppa 37871">
      <path id="Tracciato_43947" data-name="Tracciato 43947" d="M2864.479,92.664a2.7,2.7,0,0,0-2.612-1.568,2.6,2.6,0,0,0-2.042,1.05l-.048.058V88.471a.082.082,0,0,0-.024-.058.081.081,0,0,0-.057-.024h-1.834a.081.081,0,0,0-.08.081V99.179a.08.08,0,0,0,.08.08h1.964a.081.081,0,0,0,.081-.08V94.613a1.442,1.442,0,0,1,1.538-1.516c1.035,0,1.3.852,1.3,1.72v4.361a.08.08,0,0,0,.08.08h1.959a.081.081,0,0,0,.082-.08V94.557a3.422,3.422,0,0,0-.021-.464,4.085,4.085,0,0,0-.364-1.429" transform="translate(-11812.929 -20816.174)" fill="#5a31f4"/>
      <path id="Tracciato_43948" data-name="Tracciato 43948" d="M2819.814,104.35s-1-.235-1.368-.33-1.011-.3-1.011-.782.519-.642,1.046-.642,1.112.127,1.158.711a.083.083,0,0,0,.027.055.084.084,0,0,0,.057.022l1.936-.007a.083.083,0,0,0,.083-.089c-.12-1.869-1.76-2.538-3.273-2.538a2.846,2.846,0,0,0-3.106,2.488c0,.952.269,1.846,2.385,2.467.371.108.876.248,1.316.371.53.148.815.371.815.723,0,.408-.592.692-1.173.692-.841,0-1.439-.312-1.488-.873a.084.084,0,0,0-.084-.074l-1.931.009a.085.085,0,0,0-.033.007.082.082,0,0,0-.028.019.082.082,0,0,0-.024.061c.089,1.764,1.792,2.715,3.381,2.715,2.366,0,3.436-1.331,3.436-2.578a2.382,2.382,0,0,0-2.121-2.428" transform="translate(-11778.069 -20826.271)" fill="#5a31f4"/>
      <path id="Tracciato_43949" data-name="Tracciato 43949" d="M2957.557,103.154a3.059,3.059,0,0,0-2.338,1.2v-1.124a.08.08,0,0,0-.023-.056.079.079,0,0,0-.055-.024H2953.3a.08.08,0,0,0-.08.08v10.5a.08.08,0,0,0,.08.078h1.966a.077.077,0,0,0,.055-.023.078.078,0,0,0,.023-.055v-3.452h.03a2.815,2.815,0,0,0,2.281,1.047,3.932,3.932,0,0,0,3.845-4.089,4,4,0,0,0-3.946-4.083m-.182,6.172a2.084,2.084,0,1,1,2.032-2.088,2.056,2.056,0,0,1-2.032,2.088" transform="translate(-11890.909 -20828.232)" fill="#5a31f4"/>
      <path id="Tracciato_43950" data-name="Tracciato 43950" d="M2905.439,100.645a5.468,5.468,0,0,0-3.48,1.121l-.022.015a.183.183,0,0,0-.074.11.181.181,0,0,0,.02.131l.725,1.248a.185.185,0,0,0,.129.089.179.179,0,0,0,.148-.04l.058-.047a3.883,3.883,0,0,1,2.446-.855,2.586,2.586,0,0,1,2.038.633,3.118,3.118,0,0,1,.913,2.275,2.459,2.459,0,0,1-2.536,2.711c-1.288-.007-2.153-.679-2.153-1.671a1.417,1.417,0,0,1,.7-1.213.18.18,0,0,0,.055-.231l-.651-1.23a.2.2,0,0,0-.048-.057.193.193,0,0,0-.066-.034.183.183,0,0,0-.148.019,2.937,2.937,0,0,0-1.578,2.749,3.69,3.69,0,0,0,3.767,3.48h.248a4.3,4.3,0,0,0,4.289-4.437,4.68,4.68,0,0,0-4.78-4.765" transform="translate(-11848.94 -20826.186)" fill="#5a31f4"/>
      <path id="Tracciato_43953" data-name="Tracciato 43953" d="M3028.043,88.52h-16.771a2.094,2.094,0,0,0-2.094,2.1V99.8a2.1,2.1,0,0,0,2.094,2.1h16.771a2.1,2.1,0,0,0,2.1-2.093V90.618a2.094,2.094,0,0,0-2.1-2.1m-13.015,7.272h-1.319a.11.11,0,0,0-.111.111v1.878a.111.111,0,0,1-.111.111h-.929a.113.113,0,0,1-.111-.111V91.006a.111.111,0,0,1,.111-.111h2.47a2.45,2.45,0,0,1,.008,4.9Zm6.951,1.988a.113.113,0,0,1-.032.079.115.115,0,0,1-.036.024.111.111,0,0,1-.043.009h-.877a.111.111,0,0,1-.079-.033.11.11,0,0,1-.024-.037.116.116,0,0,1-.008-.043v-.2a.083.083,0,0,0-.052-.084.081.081,0,0,0-.052,0,.082.082,0,0,0-.044.029,1.756,1.756,0,0,1-1.366.493c-1,0-1.661-.521-1.661-1.42a1.317,1.317,0,0,1,.55-1.13,3.121,3.121,0,0,1,1.749-.444l.88-.029v-.257c0-.519-.349-.74-.91-.74s-.914.2-1,.522a.108.108,0,0,1-.04.057.105.105,0,0,1-.066.02H3018a.109.109,0,0,1-.085-.037.11.11,0,0,1-.023-.042.1.1,0,0,1,0-.047c.13-.769.766-1.353,2.122-1.353,1.44,0,1.959.67,1.959,1.949Zm5.463-4.4-1.952,5.207a2.019,2.019,0,0,1-2.071,1.52,1.649,1.649,0,0,1-.475-.058.113.113,0,0,1-.061-.04.115.115,0,0,1-.023-.069v-.791a.113.113,0,0,1,.04-.087.108.108,0,0,1,.044-.022.111.111,0,0,1,.049,0,2.178,2.178,0,0,0,.406.038,1.05,1.05,0,0,0,1.06-.75l.058-.182a.111.111,0,0,0,0-.075l-1.825-4.688a.108.108,0,0,1,0-.052.116.116,0,0,1,.019-.048.12.12,0,0,1,.04-.034.111.111,0,0,1,.051-.013h.887a.113.113,0,0,1,.063.02.111.111,0,0,1,.041.052l1.24,3.307a.114.114,0,0,0,.106.074.112.112,0,0,0,.064-.02.111.111,0,0,0,.042-.053l1.075-3.3a.111.111,0,0,1,.106-.077h.91a.114.114,0,0,1,.051.012.112.112,0,0,1,.04.033.118.118,0,0,1,.021.048.11.11,0,0,1,0,.052Z" transform="translate(-11936.626 -20816.279)" fill="#5a31f4"/>
    </g>
  </g>
</svg>
