<svg xmlns="http://www.w3.org/2000/svg" width="42.08" height="13.588" viewBox="0 0 42.08 13.588">
  <path id="Tracciato_43926" data-name="Tracciato 43926" d="M1474.65,88.033l-3.539,8.946-1.432-7.607a1.585,1.585,0,0,0-1.568-1.339h-5.786l-.081.382a14.163,14.163,0,0,1,3.355,1.118,1.44,1.44,0,0,1,.807,1.155l2.712,10.489h3.594l5.509-13.144Zm5.03,0-2.813,13.144h3.4l2.812-13.144Zm19.495,3.551,1.03,4.936h-2.821Zm-.5-3.551a1.549,1.549,0,0,0-1.447.964l-5.1,12.18h3.568l.71-1.962h4.361l.412,1.962h3.145l-2.744-13.144Zm-14.669,4.1c-.024,1.893,1.687,2.949,2.976,3.577,1.324.645,1.769,1.058,1.764,1.634-.01.882-1.056,1.271-2.036,1.287a7.1,7.1,0,0,1-3.491-.83l-.615,2.88a10.24,10.24,0,0,0,3.781.7c3.571,0,5.907-1.763,5.92-4.5.014-3.469-4.8-3.661-4.765-5.211.011-.47.46-.972,1.443-1.1a6.4,6.4,0,0,1,3.352.587l.6-2.786a9.112,9.112,0,0,0-3.182-.584c-3.361,0-5.725,1.787-5.744,4.344" transform="translate(-1462.244 -87.793)" fill="#254aa5"/>
</svg>
