<svg xmlns="http://www.w3.org/2000/svg" width="266.567" height="48" viewBox="0 0 266.567 48"><g transform="translate(-6538.083 17753.755)"><path d="M0-37.414c.044,8.022,6.4,11.178,13.589,11.178,6.882,0,13.633-2.542,13.633-10.477,0-5.655-4.559-7.759-9.074-9.03-4.559-1.271-9.074-1.709-9.074-4.12,0-2.06,2.192-2.674,3.946-2.674,2.5,0,5.172.92,5.041,3.77h8.154C26.17-55.824,19.9-58.849,13.677-58.849,7.8-58.849.92-56.175.92-49.337c0,5.742,4.69,7.759,9.162,9.03,4.515,1.271,8.986,1.8,8.986,4.559,0,2.323-2.542,3.2-5,3.2-3.463,0-5.742-1.183-5.918-4.866ZM31.473-26.893h8.153V-38.948H52.514V-45.26H39.627v-6.4h14.9v-6.532H31.473Zm37.6-22.619h.088l3.463,10.959h-7.1ZM53.29-26.893h8.373L63.635-32.5H74.55l1.929,5.611h8.5l-11.7-31.3H64.994Z" transform="translate(6719.667 -17694.906)" fill="#ff9d2a"/><path d="M0,0V47.537" transform="translate(6604.128 -17753.293)" fill="#fff"/><path d="M.5,47.537h-1V0h1Z" transform="translate(6604.128 -17753.293)" fill="#fff"/><path d="M-27.537-27.538H-43.314A15.777,15.777,0,0,1-27.537-43.315Z" transform="translate(6597.175 -17678.219)" fill="#ff9d2a"/><path d="M0,0V47.332H15.777V15.777H31.555V31.555H47.332V0Z" transform="translate(6538.083 -17753.088)" fill="#fff"/><path d="M-35.735-33.881-48.46-53.292h-7.749v31.255h7.566V-41.405L-36.1-22.253l.142.216h7.793V-53.292h-7.566Z" transform="translate(6679.051 -17699.775)" fill="#fff"/><path d="M321.543-83.56h7.2v-22.619h-7.2Z" transform="translate(6333.661 -17638.252)" fill="#fff"/><path d="M-22.869-10.6l-4.485-6.073h-8.617l7.65,6.073Z" transform="translate(6727.099 -17736.428)" fill="#ff9d2a"/><path d="M-35.644-5.877a11.06,11.06,0,0,0-8.328-3.367c-7.008,0-12.094,5.012-12.094,11.917,0,7.1,4.86,11.875,12.094,11.875,5.626,0,9.36-2.562,11.1-7.613l.216-.627h-6.519l-.1.339c-.306,1.035-2.031,2.469-4.477,2.469-3.166,0-4.792-1.448-5.083-4.545h16.354l.029-.441A13.318,13.318,0,0,0-35.644-5.877m-4.115,5.73h-9.05a4.3,4.3,0,0,1,4.661-3.665c2.464,0,3.766,1.071,4.389,3.665" transform="translate(6744.487 -17735.773)" fill="#fff"/><path d="M321.543-123.927h7.2v-6.057h-7.2Z" transform="translate(6333.661 -17623.117)" fill="#ff9d2a"/><path d="M-40.5-15.134h-8.8L-56.5-8V-23.805h-7.2V7.484h7.2V-.243l1.854-1.7,6.085,9.429h8.736L-49.664-6.629Z" transform="translate(6730.085 -17729.297)" fill="#fff"/><path d="M-9.738-14.61-13.9-22.744h-1.413v9.351h.968v-8.1h.026l4.114,8.1h.891l4.127-8.082h.026v8.082H-4.2v-9.351H-5.572Zm7.166-3.459c0,3.3,2.422,4.911,5.082,4.911s5.082-1.61,5.082-4.911S5.169-22.98,2.509-22.98s-5.082,1.61-5.082,4.911m1.046,0a3.775,3.775,0,0,1,4.035-4.022,3.775,3.775,0,0,1,4.035,4.022,3.775,3.775,0,0,1-4.035,4.022,3.775,3.775,0,0,1-4.035-4.022M9.216-13.393h5.2c1.441,0,3.09-.719,3.09-2.671a2.21,2.21,0,0,0-1.976-2.293v-.026a1.969,1.969,0,0,0,1.61-2c0-1.323-.772-2.356-2.606-2.356H9.216Zm.968-8.462h4.167c1.061,0,1.821.367,1.821,1.507,0,1.246-.838,1.665-2.149,1.665H10.184Zm0,4.061h4.31c1.127,0,1.965.38,1.965,1.73,0,1.284-.943,1.782-2.2,1.782H10.184Zm9.105,4.4h.968v-9.351H19.29Zm3.065,0h6.9v-.889H23.322v-8.462h-.968Zm8.187,0h7.544v-.889H31.509v-3.512h6.235v-.889H31.509v-3.172H37.98v-.889H30.541Z" transform="translate(6638.16 -17692.6)" fill="#fff"/><path d="M0-16.734H4.689c2.62,0,3.994-2.042,3.994-4.676,0-2.935-1.413-4.676-4.139-4.676H0ZM.968-25.2H4.505c2.162,0,3.132,1.311,3.132,3.787,0,2.87-1.454,3.787-3.132,3.787H.968Zm9.512,8.463h7.544v-.889H11.448v-3.512h6.235v-.889H11.448V-25.2h6.471v-.889H10.48Zm16.255-6.68c-.065-2.227-1.99-2.907-3.9-2.907-1.808,0-3.693.667-3.693,2.71,0,1.507,1.19,2.136,3.418,2.49,1.7.275,3.407.445,3.407,1.873,0,1.481-1.454,1.861-2.856,1.861-1.8,0-3.106-.472-3.276-2.437h-.967c.144,2.515,1.872,3.326,4.243,3.326,1.821,0,3.9-.628,3.9-2.92,0-1.8-1.7-2.188-3.4-2.477-2.28-.38-3.42-.668-3.42-1.886,0-1.061,1.14-1.651,2.647-1.651s2.8.419,2.935,2.018Zm1.731,6.68h.968V-19.89l2.043-1.676,4.336,4.833h1.375l-4.952-5.488,4.637-3.864h-1.4L29.433-21.03v-5.056h-.968Zm12.458,0h.968V-25.2h3.668v-.889h-8.3v.889h3.668Zm5.24-4.676c0,3.3,2.422,4.911,5.082,4.911s5.082-1.61,5.082-4.911-2.422-4.911-5.082-4.911-5.082,1.61-5.082,4.911m1.046,0a3.775,3.775,0,0,1,4.035-4.022A3.776,3.776,0,0,1,55.28-21.41a3.775,3.775,0,0,1-4.035,4.022,3.775,3.775,0,0,1-4.035-4.022M58.946-25.2H62.89c1.114,0,1.9.406,1.9,1.809,0,1.088-.472,1.835-2.1,1.835H58.946Zm-.968,8.463h.968v-3.93h3.642c2.083,0,3.248-.955,3.248-2.724a2.539,2.539,0,0,0-2.815-2.7H57.978Z" transform="translate(6698.956 -17689.258)" fill="#fff"/><path d="M0,0V9.351H7.544V8.462H.968V4.95H7.2V4.061H.968V.889H7.439V0Z" transform="translate(6684.121 -17715.344)" fill="#fff"/></g></svg>