<svg xmlns="http://www.w3.org/2000/svg" width="358.732" height="64" viewBox="0 0 358.732 64"><g transform="translate(-335 -1582)"><path d="M232.7,117.594h10.058v-1.185h-8.768v-4.683H242.3V110.54h-8.314v-4.229h8.628v-1.186H232.7Zm12-4.139H250v-1.29H244.7Zm18.931-.61c-.437,2.376-1.9,3.878-4.873,3.878-3.79,0-5.24-2.586-5.24-5.363,0-3.634,2.148-5.363,5.24-5.363,2.253,0,4.384.961,4.768,3.336h1.292c-.384-3.284-3.336-4.522-6.061-4.522a6.288,6.288,0,0,0-6.635,6.549c0,4,2.583,6.549,6.635,6.549,3.58,0,5.886-2.268,6.165-5.064Zm2.849-1.485c0,4.4,3.229,6.549,6.775,6.549s6.776-2.147,6.776-6.549-3.229-6.549-6.776-6.549-6.775,2.147-6.775,6.549m1.395,0a5.381,5.381,0,1,1,5.381,5.363,5.034,5.034,0,0,1-5.381-5.363m21.589,4.612L283.9,105.126H282.02v12.468h1.29V106.8h.035l5.485,10.794h1.188l5.5-10.776h.035v10.776h1.29V105.126h-1.832Zm17.309,0-5.555-10.846h-1.884v12.468h1.29V106.8h.035l5.485,10.794h1.188l5.5-10.776h.034v10.776h1.29V105.126h-1.831Zm10.079,1.622H326.9v-1.185h-8.768v-4.683h8.313V110.54h-8.313v-4.229h8.628v-1.186h-9.919Zm12.139,0h1.29V112.11h5.014c2.149,0,2.987.733,3.022,2.934a5.776,5.776,0,0,0,.332,2.55h1.4a6.641,6.641,0,0,1-.437-2.585c-.087-2.044-.453-3.179-2.217-3.457v-.035a3.039,3.039,0,0,0,2.443-3.022c0-2.62-1.936-3.369-4.05-3.369h-6.794Zm1.29-11.283h5.591c1.188,0,2.568.349,2.568,2.184,0,1.9-1.275,2.429-2.691,2.429h-5.468Zm22.688,6.534c-.437,2.376-1.9,3.878-4.873,3.878-3.79,0-5.24-2.586-5.24-5.363,0-3.634,2.148-5.363,5.24-5.363,2.253,0,4.384.961,4.768,3.336h1.292c-.384-3.284-3.336-4.522-6.06-4.522a6.288,6.288,0,0,0-6.635,6.549c0,4,2.583,6.549,6.635,6.549,3.58,0,5.886-2.268,6.165-5.064Zm3.547,4.749H366.57v-1.185H357.8v-4.683h8.314V110.54H357.8v-4.229h8.628v-1.186h-9.919Z" transform="translate(215.313 1528.091)" fill="#383838"/><path d="M509.393,24.314H518.1c3.273,0,5.845,1.227,5.845,4.909,0,3.448-2.4,4.676-5.845,4.676h-8.708ZM498.522,42.607h20.047c8.942,0,16.248-3.039,16.248-12.975a9.9,9.9,0,0,0-7.189-9.877,9.384,9.384,0,0,0,5.494-8.416c0-8.708-7.89-10.579-15.079-10.461H498.522ZM509.393,9.293h8.416c2.28,0,4.442.994,4.442,4.033,0,2.981-2.572,3.975-4.442,3.975h-8.416Zm61.648,33.314V34.191H551.7A35.537,35.537,0,0,1,559.06,28.7c5.962-3.682,11.573-6.6,11.573-14.436,0-8.709-7.189-12.917-15.254-12.917-10.17,0-16.6,6.838-16.015,16.949h9.293c.058-4.442,1.52-8.241,6.78-8.241,3.156,0,5.26,1.929,5.26,5.085,0,2.747-2.221,4.734-5.318,6.78-3.156,1.987-7.13,4.091-10.637,7.13a18.042,18.042,0,0,0-6.371,13.559Zm44.1-26.827C614.852,5.728,605.092,0,596.091,0c-12.625,0-20.807,9.644-20.807,21.742s8.182,21.742,20.807,21.742c10.578,0,18.469-6.312,19.054-17.066H604.273c-.409,4.792-3.331,7.715-8.416,7.715-7.014,0-9.7-6.2-9.7-12.39s2.689-12.391,9.7-12.391c4.559,0,7.832,2.221,8.416,6.429Z" transform="translate(78.587 1582)" fill="#ff9d2a"/><path d="M-.014,63.382H-.5V0h.485Z" transform="translate(423.317 1582.618)" fill="#383838"/><path d="M64.352,109.5H43.316A21.035,21.035,0,0,1,64.352,88.465Z" transform="translate(312.721 1536.499)" fill="#ff9d2a"/><path d="M63.109,43.907V1.835H0V64.943H21.037V22.871H42.073V43.907Z" transform="translate(335 1581.056)" fill="#383838"/><path d="M260,27.772,243.029,1.891H232.7V43.564h10.089V17.74L259.5,43.276l.189.288h10.391V1.891H260Z" transform="translate(215.313 1581.027)" fill="#383838"/><rect width="9.596" height="30.158" transform="translate(491.159 1594.434)" fill="#383838"/><path d="M437.64,9.893l-5.98-8.1H420.17l10.2,8.1Z" transform="translate(118.887 1581.076)" fill="#ff9d2a"/><path d="M439.97,28.477a14.748,14.748,0,0,0-11.1-4.489c-9.344,0-16.125,6.683-16.125,15.89,0,9.471,6.48,15.834,16.125,15.834,7.5,0,12.48-3.416,14.8-10.151l.288-.836h-8.692l-.133.452c-.407,1.38-2.708,3.292-5.969,3.292-4.222,0-6.39-1.93-6.777-6.06h21.8l.039-.589a17.757,17.757,0,0,0-4.256-13.343m-5.487,7.64H422.417c.27-1.511,1.411-4.887,6.214-4.887,3.284,0,5.021,1.428,5.852,4.887" transform="translate(122.708 1569.662)" fill="#383838"/><rect width="9.596" height="8.075" transform="translate(491.159 1582.871)" fill="#ff9d2a"/><path d="M383.174,13.356H371.446l-9.614,9.514V1.795h-9.6V43.514h9.6v-10.3l2.472-2.269,8.113,12.572h11.647L370.953,24.7Z" transform="translate(153.829 1581.076)" fill="#383838"/></g></svg>