<svg xmlns="http://www.w3.org/2000/svg" width="242.387" height="47.999" viewBox="0 0 242.387 47.999"><g transform="translate(-1609 18056.222)"><path d="M0-16.734H5.2c1.441,0,3.09-.719,3.09-2.671A2.209,2.209,0,0,0,6.314-21.7v-.026a1.969,1.969,0,0,0,1.61-2c0-1.323-.771-2.356-2.605-2.356H0ZM.968-25.2H5.134c1.061,0,1.822.367,1.822,1.506,0,1.246-.839,1.665-2.149,1.665H.968Zm0,4.061H5.279c1.127,0,1.965.38,1.965,1.73,0,1.284-.943,1.782-2.2,1.782H.968Zm14.776.67H11.605l2.083-4.652Zm1.637,3.732h1.126l-4.243-9.351H13.138L8.894-16.734H9.942l1.27-2.843h4.925ZM27.73-20.3a3.3,3.3,0,0,1-3.655,2.908c-2.843,0-3.93-1.939-3.93-4.022,0-2.725,1.611-4.022,3.93-4.022,1.69,0,3.288.721,3.576,2.5h.969c-.288-2.463-2.5-3.392-4.545-3.392A4.716,4.716,0,0,0,19.1-21.41,4.616,4.616,0,0,0,24.075-16.5,4.323,4.323,0,0,0,28.7-20.3Zm2.66,3.562h.968V-19.89L33.4-21.567l4.336,4.833h1.375l-4.952-5.488L38.8-26.085H37.4L31.358-21.03v-5.056H30.39ZM43.476-21.41c0,3.3,2.422,4.911,5.082,4.911s5.082-1.61,5.082-4.911-2.422-4.911-5.082-4.911-5.082,1.61-5.082,4.911m1.046,0a3.775,3.775,0,0,1,4.035-4.022,3.776,3.776,0,0,1,4.035,4.022,3.775,3.775,0,0,1-4.035,4.022,3.775,3.775,0,0,1-4.035-4.022m10.612,4.676H56.1v-4.4H61.84v-.889H56.1V-25.2h6.039v-.889H55.135Zm8.135,0h.968v-4.4h5.738v-.889H64.237V-25.2h6.039v-.889H63.269Zm8.239,0h.968v-9.351h-.968ZM82.746-20.3a3.3,3.3,0,0,1-3.655,2.908c-2.843,0-3.93-1.939-3.93-4.022,0-2.725,1.611-4.022,3.93-4.022,1.69,0,3.288.721,3.576,2.5h.969c-.288-2.463-2.5-3.392-4.545-3.392a4.716,4.716,0,0,0-4.976,4.911A4.617,4.617,0,0,0,79.091-16.5a4.323,4.323,0,0,0,4.624-3.8Zm2.661,3.562H92.95v-.889H86.374v-3.512H92.61v-.889H86.374V-25.2h6.471v-.889H85.407Z" transform="translate(1693.758 -17991.725)" fill="#fff"/><path d="M-14.231-30.688H-7.7c2.455,0,4.384.92,4.384,3.682,0,2.586-1.8,3.507-4.384,3.507h-6.531Zm-8.153,13.72H-7.349c6.707,0,12.186-2.279,12.186-9.731A7.428,7.428,0,0,0-.554-34.107a7.038,7.038,0,0,0,4.12-6.312c0-6.531-5.917-7.934-11.309-7.846H-22.384Zm8.153-24.986h6.312c1.709,0,3.331.745,3.331,3.025,0,2.236-1.929,2.981-3.331,2.981h-6.312Z" transform="translate(1812.966 -18007.299)" fill="#ff9d2a"/><path d="M.5,47.537h-1V0h1Z" transform="translate(1675.045 -18055.76)" fill="#fff"/><path d="M-27.537-27.538H-43.314A15.777,15.777,0,0,1-27.537-43.315Z" transform="translate(1668.091 -17980.686)" fill="#ff9d2a"/><path d="M0,0V47.331H15.777V15.777H31.554V31.554H47.331V0Z" transform="translate(1609 -18055.555)" fill="#fff"/><path d="M-35.735-33.881-48.461-53.292h-7.748v31.254h7.566V-41.405l12.538,19.152.142.216h7.793V-53.292h-7.566Z" transform="translate(1749.967 -18002.242)" fill="#fff"/><path d="M321.543-83.561h7.2v-22.618h-7.2Z" transform="translate(1404.576 -17940.719)" fill="#fff"/><path d="M-22.869-10.6l-4.485-6.073h-8.617l7.65,6.073Z" transform="translate(1798.014 -18038.895)" fill="#ff9d2a"/><path d="M-35.644-5.877a11.06,11.06,0,0,0-8.328-3.367c-7.008,0-12.093,5.012-12.093,11.917,0,7.1,4.86,11.875,12.093,11.875,5.626,0,9.36-2.562,11.1-7.613l.216-.627h-6.519l-.1.339c-.306,1.035-2.031,2.469-4.477,2.469-3.166,0-4.792-1.447-5.083-4.545h16.354l.029-.441A13.318,13.318,0,0,0-35.644-5.877m-4.115,5.73h-9.05a4.3,4.3,0,0,1,4.661-3.665c2.464,0,3.766,1.071,4.389,3.665" transform="translate(1815.402 -18038.24)" fill="#fff"/><path d="M321.543-123.927h7.2v-6.057h-7.2Z" transform="translate(1404.576 -17925.584)" fill="#ff9d2a"/><path d="M-40.5-15.134h-8.795L-56.5-8V-23.805h-7.2V7.484h7.2V-.243l1.854-1.7,6.085,9.429h8.736L-49.665-6.629Z" transform="translate(1801.001 -18031.764)" fill="#fff"/><path d="M0-28.462c0,9.074,5.567,16.306,15.43,16.306s15.43-7.233,15.43-16.306S25.292-44.769,15.43-44.769,0-37.536,0-28.462m8.153,0c0-4.647,2.016-9.293,7.277-9.293s7.276,4.646,7.276,9.293-2.016,9.293-7.276,9.293-7.277-4.646-7.277-9.293" transform="translate(1820.528 -18011.453)" fill="#ff9d2a"/></g></svg>