<svg xmlns="http://www.w3.org/2000/svg" width="787.458" height="108.629" viewBox="0 0 787.458 108.629"><g transform="translate(0 0.004)"><g transform="translate(11182.636 20787)"><path d="M21.5,0V42.182L-6.155,0H-22.993V67.918H-6.55V25.831L20.695,67.448l.308.47H37.939V0Z" transform="translate(-11159.643 -20785.006)" fill="#fff"/><path d="M129.517,6.632h15.638V-42.519H129.517Z" transform="translate(-11241.827 -20723.715)" fill="#fff"/><path d="M0,0,16.625,13.2H28.473L18.727,0Z" transform="translate(-11034.243 -20785.08)" fill="#ff9d2a"/><path d="M21.443,3.535C16.961-1.252,10.7-3.781,3.347-3.781c-15.23,0-26.281,10.89-26.281,25.9,0,15.435,10.559,25.8,26.281,25.8,12.225,0,20.34-5.565,24.117-16.544l.47-1.362H13.768l-.217.737c-.664,2.25-4.414,5.366-9.729,5.366-6.881,0-10.414-3.144-11.045-9.876H28.315l.064-.96c.561-8.51-1.966-16.435-6.937-21.747M12.5,15.986H-7.166c.441-2.461,2.3-7.964,10.13-7.964,5.352,0,8.181,2.328,9.536,7.964" transform="translate(-11017.188 -20763.734)" fill="#fff"/><path d="M129.517-39.1h15.64V-52.257h-15.64Z" transform="translate(-11241.827 -20732.82)" fill="#ff9d2a"/><path d="M0,0V68H15.64V51.2l4.031-3.7L32.894,68H51.876L30.5,37.325,50.423,18.842H31.31L15.64,34.351V0Z" transform="translate(-11088.015 -20785.08)" fill="#fff"/><path d="M216.681,481.955h9.98V549.44h-7.035V491.124h-.188L189.5,549.44h-6.463L153.2,491.029H153V549.44h-7.031V481.955h10.262l30.222,58.694Z" transform="translate(-11076.211 -21267.244)" fill="#fff"/><path d="M244.692,528.931H208.958L199.74,549.44h-7.6l30.791-67.485H231.1l30.793,67.485H253.72Zm-17.773-39.982L211.809,522.5h30.032Z" transform="translate(-11034.275 -21267.244)" fill="#fff"/><path d="M293.237,537.5h-.19c-6.939,9.926-14.922,14.464-28.225,14.464-23,0-35.546-14.368-35.546-35.45,0-20.421,13.782-35.454,36.3-35.454,18.914,0,30.983,10.589,32.789,23.068h-7.6c-2.757-11.44-13.021-16.637-25.186-16.637-18.532,0-28.7,11.248-28.7,29.024,0,18.152,9.314,29.023,27.371,29.023,20.338,0,26.8-11.534,28.892-23.635h-24.9v-6.429H299.6v34.791h-5.418Z" transform="translate(-11000.538 -21268.064)" fill="#fff"/><path d="M322.569,528.931H286.835l-9.218,20.509h-7.6L300.8,481.955h8.173l30.793,67.485H331.6ZM304.8,488.949,289.686,522.5h30.032Z" transform="translate(-10963.528 -21267.244)" fill="#fff"/><path d="M309.014,543.013l50.371-54.631h-47.14v-6.427h56.641v6.427l-50.655,54.631h51.417v6.427H309.014Z" transform="translate(-10928.062 -21267.244)" fill="#fff"/><path d="M345.089,481.955h7.033V549.44h-7.033Z" transform="translate(-10895.055 -21267.244)" fill="#fff"/><path d="M356.642,481.955H365.1l47.423,57.653h.192V481.955h7.033V549.44h-8.175l-47.709-57.653h-.188V549.44h-7.033Z" transform="translate(-10885.212 -21267.244)" fill="#fff"/><path d="M397.607,481.955h53.982v6.427H404.642v22.873h45.237v6.427H404.642v25.331h47.707v6.427H397.607Z" transform="translate(-10847.526 -21267.244)" fill="#fff"/><path d="M0,0V68.046" transform="translate(-10959.351 -20785.08)" fill="#fff"/><path d="M.5,68.046h-1V0h1Z" transform="translate(-10959.351 -20785.08)" fill="#fff"/></g><path d="M1.23,0V-10.708H2.651V0ZM5.8,0V-10.708H7.225V-1.2h5.669V0ZM21.227-4.907V-1.2H24.8a2.027,2.027,0,0,0,1.465-.52,1.848,1.848,0,0,0,.542-1.4,1.822,1.822,0,0,0-.19-.864,1.356,1.356,0,0,0-.527-.553,2.583,2.583,0,0,0-.729-.282,4.008,4.008,0,0,0-.875-.088ZM19.806,0V-10.708h3.882q.667,0,1.051.011a6.738,6.738,0,0,1,.934.106,2.591,2.591,0,0,1,.85.271,2.63,2.63,0,0,1,.912.912,2.5,2.5,0,0,1,.348,1.322,2.564,2.564,0,0,1-.421,1.472,2.536,2.536,0,0,1-1.168.93v.029a2.449,2.449,0,0,1,1.509.886,2.675,2.675,0,0,1,.535,1.692,3.132,3.132,0,0,1-.212,1.146,3.114,3.114,0,0,1-.612.981,2.8,2.8,0,0,1-1.029.692A3.7,3.7,0,0,1,24.977,0Zm1.421-9.507v3.4h2.849a2.861,2.861,0,0,0,1.74-.421,1.522,1.522,0,0,0,.546-1.285,2.029,2.029,0,0,0-.125-.747,1.3,1.3,0,0,0-.322-.494,1.4,1.4,0,0,0-.509-.282,3,3,0,0,0-.615-.135,6.725,6.725,0,0,0-.714-.033ZM30.825,0V-10.708h1.421V-1.2h5.669V0Zm8.814-3.248a6.682,6.682,0,0,1-.33-2.106,6.682,6.682,0,0,1,.33-2.106,5.764,5.764,0,0,1,.952-1.787A4.4,4.4,0,0,1,42.206-10.5a5.193,5.193,0,0,1,2.23-.465,5.379,5.379,0,0,1,1.838.3,4.412,4.412,0,0,1,1.443.835,5.149,5.149,0,0,1,1.022,1.241,5.692,5.692,0,0,1,.626,1.531,6.98,6.98,0,0,1,.205,1.7,6.98,6.98,0,0,1-.205,1.7,5.692,5.692,0,0,1-.626,1.531A5.149,5.149,0,0,1,47.717-.883a4.412,4.412,0,0,1-1.443.835,5.379,5.379,0,0,1-1.838.3,5.193,5.193,0,0,1-2.23-.465,4.4,4.4,0,0,1-1.615-1.252A5.764,5.764,0,0,1,39.639-3.248ZM40.95-6.962a5.8,5.8,0,0,0-.22,1.608,5.8,5.8,0,0,0,.22,1.608,4.88,4.88,0,0,0,.652,1.4,3.11,3.11,0,0,0,1.165,1.018,3.566,3.566,0,0,0,1.67.381,3.566,3.566,0,0,0,1.67-.381,3.11,3.11,0,0,0,1.165-1.018,4.88,4.88,0,0,0,.652-1.4,5.8,5.8,0,0,0,.22-1.608,5.8,5.8,0,0,0-.22-1.608,4.88,4.88,0,0,0-.652-1.4,3.11,3.11,0,0,0-1.165-1.018,3.566,3.566,0,0,0-1.67-.381,3.566,3.566,0,0,0-1.67.381A3.11,3.11,0,0,0,41.6-8.364,4.88,4.88,0,0,0,40.95-6.962ZM60.442,0l-.381-1.333a3.548,3.548,0,0,1-1.505,1.2,4.871,4.871,0,0,1-1.93.392,5.033,5.033,0,0,1-2.139-.45,4.6,4.6,0,0,1-1.611-1.2,5.676,5.676,0,0,1-.992-1.721,5.815,5.815,0,0,1-.355-2.021,7.9,7.9,0,0,1,.2-1.805,5.923,5.923,0,0,1,.619-1.593,5.09,5.09,0,0,1,1.014-1.271,4.355,4.355,0,0,1,1.436-.846,5.268,5.268,0,0,1,1.827-.308,6.31,6.31,0,0,1,1.652.205,4.483,4.483,0,0,1,1.373.626A3.465,3.465,0,0,1,60.677-9.02a4.525,4.525,0,0,1,.557,1.608H59.813A2.566,2.566,0,0,0,58.743-9.17a3.651,3.651,0,0,0-2.117-.593,3.6,3.6,0,0,0-1.373.253,3.028,3.028,0,0,0-1.04.685,3.952,3.952,0,0,0-.71,1.018,4.939,4.939,0,0,0-.417,1.234,6.953,6.953,0,0,0-.128,1.351,5.557,5.557,0,0,0,.15,1.3,4.46,4.46,0,0,0,.458,1.168,3.988,3.988,0,0,0,.736.945,3.111,3.111,0,0,0,1.029.634,3.585,3.585,0,0,0,1.3.231,3.347,3.347,0,0,0,2.56-1,3.273,3.273,0,0,0,.875-2.494h-3.42v-1.2h4.695V0ZM77.492,0l-.381-1.333a3.548,3.548,0,0,1-1.505,1.2,4.871,4.871,0,0,1-1.93.392,5.033,5.033,0,0,1-2.139-.45,4.6,4.6,0,0,1-1.611-1.2,5.676,5.676,0,0,1-.992-1.721,5.815,5.815,0,0,1-.355-2.021,7.9,7.9,0,0,1,.2-1.805A5.923,5.923,0,0,1,69.4-8.54a5.09,5.09,0,0,1,1.014-1.271,4.355,4.355,0,0,1,1.436-.846,5.268,5.268,0,0,1,1.827-.308,6.31,6.31,0,0,1,1.652.205,4.483,4.483,0,0,1,1.373.626A3.465,3.465,0,0,1,77.726-9.02a4.525,4.525,0,0,1,.557,1.608H76.862A2.566,2.566,0,0,0,75.792-9.17a3.651,3.651,0,0,0-2.117-.593A3.6,3.6,0,0,0,72.3-9.51a3.028,3.028,0,0,0-1.04.685,3.952,3.952,0,0,0-.71,1.018,4.939,4.939,0,0,0-.417,1.234,6.953,6.953,0,0,0-.128,1.351,5.557,5.557,0,0,0,.15,1.3,4.46,4.46,0,0,0,.458,1.168,3.988,3.988,0,0,0,.736.945,3.111,3.111,0,0,0,1.029.634,3.585,3.585,0,0,0,1.3.231,3.347,3.347,0,0,0,2.56-1,3.273,3.273,0,0,0,.875-2.494H73.69v-1.2h4.695V0Zm3.8,0V-10.708h1.421V0ZM94.417-10.708v6.841A4.066,4.066,0,0,1,93.322-.8,4.312,4.312,0,0,1,90.205.256,4.723,4.723,0,0,1,86.946-.762a3.963,3.963,0,0,1-1.135-3.105v-6.841h1.421v6.841A2.885,2.885,0,0,0,88.008-1.7a3.023,3.023,0,0,0,2.2.754A2.726,2.726,0,0,0,92.278-1.7,3.025,3.025,0,0,0,93-3.867v-6.841Zm10.572,3.135h-1.348a2.3,2.3,0,0,0-.82-1.652,2.923,2.923,0,0,0-1.838-.538,3.914,3.914,0,0,0-.886.1,2.794,2.794,0,0,0-.762.3,1.432,1.432,0,0,0-.553.571,1.788,1.788,0,0,0-.2.868,1.175,1.175,0,0,0,.055.366,1.415,1.415,0,0,0,.135.3A1,1,0,0,0,99-7.013a3.478,3.478,0,0,0,.286.209,1.985,1.985,0,0,0,.366.176q.231.088.4.143t.458.125q.286.07.476.11l.513.11q.322.07.513.114.593.132,1.022.267a5.878,5.878,0,0,1,.912.385,3.012,3.012,0,0,1,.784.557,2.485,2.485,0,0,1,.5.791,2.814,2.814,0,0,1,.2,1.091,2.868,2.868,0,0,1-.249,1.2,2.674,2.674,0,0,1-.659.908,3.815,3.815,0,0,1-.959.612,4.959,4.959,0,0,1-1.132.359,6.366,6.366,0,0,1-1.183.11,6.151,6.151,0,0,1-1.71-.227,4.384,4.384,0,0,1-1.4-.677,3.1,3.1,0,0,1-.963-1.187,3.872,3.872,0,0,1-.352-1.688h1.348a2.523,2.523,0,0,0,.256,1.157,2.129,2.129,0,0,0,.7.809,3.325,3.325,0,0,0,.992.458,4.329,4.329,0,0,0,1.172.154,4.911,4.911,0,0,0,.978-.092,3.31,3.31,0,0,0,.857-.3,1.583,1.583,0,0,0,.645-.6,1.813,1.813,0,0,0,.238-.952,1.545,1.545,0,0,0-1.033-1.443,10.291,10.291,0,0,0-1.963-.571L100.594-5q-.432-.1-.736-.172t-.688-.209a4.309,4.309,0,0,1-.648-.275,3.988,3.988,0,0,1-.542-.359,1.943,1.943,0,0,1-.443-.469,2.363,2.363,0,0,1-.271-.6,2.549,2.549,0,0,1-.106-.754,2.937,2.937,0,0,1,.33-1.4,2.641,2.641,0,0,1,.886-.985,4.391,4.391,0,0,1,1.234-.557,5.268,5.268,0,0,1,1.432-.19,5.914,5.914,0,0,1,1.245.125,3.911,3.911,0,0,1,1.066.392,3.118,3.118,0,0,1,.839.663,2.994,2.994,0,0,1,.56.956A4.074,4.074,0,0,1,104.988-7.573ZM110.345,0V-9.507h-3.574v-1.2h8.569v1.2h-3.574V0Zm6.983,0V-10.708h1.421V0Zm17.035-7.573h-1.348a2.3,2.3,0,0,0-.82-1.652,2.923,2.923,0,0,0-1.838-.538,3.914,3.914,0,0,0-.886.1,2.794,2.794,0,0,0-.762.3,1.432,1.432,0,0,0-.553.571,1.788,1.788,0,0,0-.2.868,1.175,1.175,0,0,0,.055.366,1.415,1.415,0,0,0,.135.3,1,1,0,0,0,.231.253,3.478,3.478,0,0,0,.286.209,1.985,1.985,0,0,0,.366.176q.231.088.4.143t.458.125q.286.07.476.11l.513.11q.322.07.513.114.593.132,1.022.267a5.878,5.878,0,0,1,.912.385,3.012,3.012,0,0,1,.784.557,2.485,2.485,0,0,1,.5.791,2.814,2.814,0,0,1,.2,1.091,2.868,2.868,0,0,1-.249,1.2,2.674,2.674,0,0,1-.659.908,3.815,3.815,0,0,1-.959.612,4.959,4.959,0,0,1-1.132.359,6.366,6.366,0,0,1-1.183.11,6.151,6.151,0,0,1-1.71-.227,4.384,4.384,0,0,1-1.4-.677,3.1,3.1,0,0,1-.963-1.187,3.872,3.872,0,0,1-.352-1.688h1.348a2.523,2.523,0,0,0,.256,1.157,2.129,2.129,0,0,0,.7.809,3.325,3.325,0,0,0,.992.458,4.329,4.329,0,0,0,1.172.154,4.911,4.911,0,0,0,.978-.092,3.31,3.31,0,0,0,.857-.3,1.583,1.583,0,0,0,.645-.6,1.813,1.813,0,0,0,.238-.952,1.545,1.545,0,0,0-1.033-1.443,10.291,10.291,0,0,0-1.963-.571L129.968-5q-.432-.1-.736-.172t-.688-.209a4.309,4.309,0,0,1-.648-.275,3.988,3.988,0,0,1-.542-.359,1.943,1.943,0,0,1-.443-.469,2.363,2.363,0,0,1-.271-.6,2.549,2.549,0,0,1-.106-.754,2.937,2.937,0,0,1,.33-1.4,2.641,2.641,0,0,1,.886-.985,4.391,4.391,0,0,1,1.234-.557,5.268,5.268,0,0,1,1.432-.19,5.914,5.914,0,0,1,1.245.125,3.911,3.911,0,0,1,1.066.392,3.118,3.118,0,0,1,.839.663,2.994,2.994,0,0,1,.56.956A4.074,4.074,0,0,1,134.363-7.573Zm2.654,4.325a6.682,6.682,0,0,1-.33-2.106,6.682,6.682,0,0,1,.33-2.106,5.764,5.764,0,0,1,.952-1.787,4.4,4.4,0,0,1,1.615-1.252,5.193,5.193,0,0,1,2.23-.465,5.379,5.379,0,0,1,1.838.3,4.412,4.412,0,0,1,1.443.835,5.149,5.149,0,0,1,1.022,1.241,5.692,5.692,0,0,1,.626,1.531,6.98,6.98,0,0,1,.205,1.7,6.98,6.98,0,0,1-.205,1.7,5.692,5.692,0,0,1-.626,1.531A5.149,5.149,0,0,1,145.1-.883a4.412,4.412,0,0,1-1.443.835,5.379,5.379,0,0,1-1.838.3,5.193,5.193,0,0,1-2.23-.465,4.4,4.4,0,0,1-1.615-1.252A5.764,5.764,0,0,1,137.017-3.248Zm1.311-3.713a5.8,5.8,0,0,0-.22,1.608,5.8,5.8,0,0,0,.22,1.608,4.88,4.88,0,0,0,.652,1.4,3.11,3.11,0,0,0,1.165,1.018,3.566,3.566,0,0,0,1.67.381,3.566,3.566,0,0,0,1.67-.381,3.11,3.11,0,0,0,1.165-1.018,4.88,4.88,0,0,0,.652-1.4,5.8,5.8,0,0,0,.22-1.608,5.8,5.8,0,0,0-.22-1.608,4.88,4.88,0,0,0-.652-1.4,3.11,3.11,0,0,0-1.165-1.018,3.566,3.566,0,0,0-1.67-.381,3.566,3.566,0,0,0-1.67.381,3.11,3.11,0,0,0-1.165,1.018A4.88,4.88,0,0,0,138.328-6.962ZM149.435,0V-10.708h7.031v1.2h-5.61v3.4h4.922v1.2h-4.922V0Zm11.788,0V-9.507h-3.574v-1.2h8.569v1.2h-3.574V0Zm19.463-10.708L177.822,0h-1.487l-2.446-9h-.029l-2.476,9H169.9l-2.739-10.708h1.45l2.1,8.906h.029l2.4-8.906h1.545L177.053-1.8h.029l2.175-8.906ZM181.15,0l4.182-10.708h1.575L191.089,0h-1.575L188.35-3.223h-4.534L182.615,0Zm4.929-9.419-1.809,5H187.9l-1.78-5Zm8.235,3.647h2.974a4.831,4.831,0,0,0,.956-.084,2.647,2.647,0,0,0,.773-.286,1.348,1.348,0,0,0,.553-.59,2.114,2.114,0,0,0,.194-.952,1.847,1.847,0,0,0-.472-1.326,1.886,1.886,0,0,0-1.432-.5h-3.545ZM192.894,0V-10.708h5.039a3.5,3.5,0,0,1,2.377.762,2.572,2.572,0,0,1,.875,2.043,3.128,3.128,0,0,1-.465,1.732,2.319,2.319,0,0,1-1.4.978v.029a2.1,2.1,0,0,1,.758.293,1.386,1.386,0,0,1,.476.52,2.9,2.9,0,0,1,.245.634,5.275,5.275,0,0,1,.125.765q.015.19.04.623t.051.674q.026.242.081.582a2.384,2.384,0,0,0,.172.6,2.233,2.233,0,0,0,.286.472h-1.589a1.052,1.052,0,0,1-.223-.6q-.048-.41-.066-1.022a6.266,6.266,0,0,0-.1-1.014,5.627,5.627,0,0,0-.154-.754,2.373,2.373,0,0,0-.275-.6,1.138,1.138,0,0,0-.524-.443,2.1,2.1,0,0,0-.835-.146h-3.479V0Zm11.019,0V-10.708h7.39v1.2h-5.969v3.4H210.9v1.2h-5.566V-1.2h6.021V0Zm22.374-7.573h-1.348a2.3,2.3,0,0,0-.82-1.652,2.923,2.923,0,0,0-1.838-.538,3.914,3.914,0,0,0-.886.1,2.794,2.794,0,0,0-.762.3,1.432,1.432,0,0,0-.553.571,1.788,1.788,0,0,0-.2.868,1.175,1.175,0,0,0,.055.366,1.415,1.415,0,0,0,.135.3,1,1,0,0,0,.231.253,3.478,3.478,0,0,0,.286.209,1.985,1.985,0,0,0,.366.176q.231.088.4.143t.458.125q.286.07.476.11l.513.11q.322.07.513.114.593.132,1.022.267a5.878,5.878,0,0,1,.912.385,3.012,3.012,0,0,1,.784.557,2.485,2.485,0,0,1,.5.791,2.814,2.814,0,0,1,.2,1.091,2.868,2.868,0,0,1-.249,1.2,2.674,2.674,0,0,1-.659.908,3.815,3.815,0,0,1-.959.612,4.959,4.959,0,0,1-1.132.359,6.366,6.366,0,0,1-1.183.11,6.151,6.151,0,0,1-1.71-.227,4.384,4.384,0,0,1-1.4-.677,3.1,3.1,0,0,1-.963-1.187,3.872,3.872,0,0,1-.352-1.688h1.348a2.523,2.523,0,0,0,.256,1.157,2.129,2.129,0,0,0,.7.809,3.325,3.325,0,0,0,.992.458,4.329,4.329,0,0,0,1.172.154,4.911,4.911,0,0,0,.978-.092,3.31,3.31,0,0,0,.857-.3,1.583,1.583,0,0,0,.645-.6,1.813,1.813,0,0,0,.238-.952,1.545,1.545,0,0,0-1.033-1.443,10.291,10.291,0,0,0-1.963-.571L221.892-5q-.432-.1-.736-.172t-.688-.209a4.309,4.309,0,0,1-.648-.275,3.988,3.988,0,0,1-.542-.359,1.943,1.943,0,0,1-.443-.469,2.363,2.363,0,0,1-.271-.6,2.549,2.549,0,0,1-.106-.754,2.937,2.937,0,0,1,.33-1.4,2.641,2.641,0,0,1,.886-.985,4.391,4.391,0,0,1,1.234-.557,5.268,5.268,0,0,1,1.432-.19,5.914,5.914,0,0,1,1.245.125,3.911,3.911,0,0,1,1.066.392,3.118,3.118,0,0,1,.839.663,2.994,2.994,0,0,1,.56.956A4.074,4.074,0,0,1,226.286-7.573Zm11.473-3.135v6.841A4.066,4.066,0,0,1,236.664-.8,4.312,4.312,0,0,1,233.547.256a4.723,4.723,0,0,1-3.259-1.018,3.963,3.963,0,0,1-1.135-3.105v-6.841h1.421v6.841A2.885,2.885,0,0,0,231.35-1.7a3.023,3.023,0,0,0,2.2.754A2.726,2.726,0,0,0,235.62-1.7a3.025,3.025,0,0,0,.718-2.168v-6.841ZM240.787,0V-10.708h1.421V-1.2h5.669V0Zm9.085,0V-10.708h1.421V-1.2h5.669V0Zm8.045-9.045v-1.663h1.663v1.663a2.8,2.8,0,0,1-.414,1.582,1.384,1.384,0,0,1-1.234.623v-.747a.689.689,0,0,0,.417-.128.826.826,0,0,0,.271-.348,2.1,2.1,0,0,0,.139-.461,2.908,2.908,0,0,0,.044-.52ZM262.819,0V-10.708h1.421V0Zm4.559,0V-10.708h1.516l5.64,8.687h.029v-8.687h1.348V0h-1.56l-5.6-8.6h-.029V0Zm11.575,0V-10.708h1.516l5.64,8.687h.029v-8.687h1.348V0h-1.56l-5.6-8.6H280.3V0Zm11.319-3.248a6.682,6.682,0,0,1-.33-2.106,6.682,6.682,0,0,1,.33-2.106,5.764,5.764,0,0,1,.952-1.787,4.4,4.4,0,0,1,1.615-1.252,5.193,5.193,0,0,1,2.23-.465,5.379,5.379,0,0,1,1.838.3,4.412,4.412,0,0,1,1.443.835,5.149,5.149,0,0,1,1.022,1.241A5.692,5.692,0,0,1,300-7.053a6.98,6.98,0,0,1,.205,1.7,6.98,6.98,0,0,1-.205,1.7,5.692,5.692,0,0,1-.626,1.531,5.149,5.149,0,0,1-1.022,1.241,4.412,4.412,0,0,1-1.443.835,5.379,5.379,0,0,1-1.838.3,5.193,5.193,0,0,1-2.23-.465,4.4,4.4,0,0,1-1.615-1.252A5.764,5.764,0,0,1,290.272-3.248Zm1.311-3.713a5.8,5.8,0,0,0-.22,1.608,5.8,5.8,0,0,0,.22,1.608,4.88,4.88,0,0,0,.652,1.4A3.11,3.11,0,0,0,293.4-1.326a3.566,3.566,0,0,0,1.67.381,3.566,3.566,0,0,0,1.67-.381A3.11,3.11,0,0,0,297.9-2.344a4.88,4.88,0,0,0,.652-1.4,5.8,5.8,0,0,0,.22-1.608,5.8,5.8,0,0,0-.22-1.608,4.88,4.88,0,0,0-.652-1.4,3.11,3.11,0,0,0-1.165-1.018,3.566,3.566,0,0,0-1.67-.381,3.566,3.566,0,0,0-1.67.381,3.11,3.11,0,0,0-1.165,1.018A4.88,4.88,0,0,0,291.583-6.962Zm19.126-3.746L306.9,0h-1.619L301.5-10.708h1.545l3.062,9.28h.029l3.091-9.28ZM310.639,0l4.182-10.708H316.4L320.578,0H319l-1.165-3.223h-4.534L312.1,0Zm4.929-9.419-1.809,5h3.625l-1.78-5ZM321.541,0V-1.2L328.2-9.507h-6.145v-1.2h7.83v1.2L323.232-1.2h6.826V0Zm10.813,0V-10.708h1.421V0Zm4.3-3.248a6.682,6.682,0,0,1-.33-2.106,6.682,6.682,0,0,1,.33-2.106,5.764,5.764,0,0,1,.952-1.787,4.4,4.4,0,0,1,1.615-1.252,5.193,5.193,0,0,1,2.23-.465,5.379,5.379,0,0,1,1.838.3,4.412,4.412,0,0,1,1.443.835,5.149,5.149,0,0,1,1.022,1.241,5.692,5.692,0,0,1,.626,1.531,6.98,6.98,0,0,1,.205,1.7,6.98,6.98,0,0,1-.205,1.7,5.692,5.692,0,0,1-.626,1.531,5.149,5.149,0,0,1-1.022,1.241,4.412,4.412,0,0,1-1.443.835,5.379,5.379,0,0,1-1.838.3,5.193,5.193,0,0,1-2.23-.465,4.4,4.4,0,0,1-1.615-1.252A5.764,5.764,0,0,1,336.656-3.248Zm1.311-3.713a5.8,5.8,0,0,0-.22,1.608,5.8,5.8,0,0,0,.22,1.608,4.88,4.88,0,0,0,.652,1.4,3.11,3.11,0,0,0,1.165,1.018,3.566,3.566,0,0,0,1.67.381,3.566,3.566,0,0,0,1.67-.381,3.11,3.11,0,0,0,1.165-1.018,4.88,4.88,0,0,0,.652-1.4,5.8,5.8,0,0,0,.22-1.608,5.8,5.8,0,0,0-.22-1.608,4.88,4.88,0,0,0-.652-1.4,3.11,3.11,0,0,0-1.165-1.018,3.566,3.566,0,0,0-1.67-.381,3.566,3.566,0,0,0-1.67.381,3.11,3.11,0,0,0-1.165,1.018A4.88,4.88,0,0,0,337.967-6.962ZM349.059,0V-10.708h1.516l5.64,8.687h.029v-8.687h1.348V0h-1.56l-5.6-8.6h-.029V0Zm11.59,0V-10.708h7.39v1.2H362.07v3.4h5.566v1.2H362.07V-1.2h6.021V0Z" transform="translate(0 108.369)" fill="#fff"/></g></svg>