<svg xmlns="http://www.w3.org/2000/svg" width="323.056" height="48.001" viewBox="0 0 323.056 48.001"><g transform="translate(-5775 19213.219)"><path d="M0,0" transform="translate(5801.702 -19167.516)" fill="#2b2e34"/><path d="M0,0V47.538" transform="translate(5841.046 -19212.758)" fill="#383838"/><path d="M.5,47.538h-1V0h1Z" transform="translate(5841.046 -19212.758)" fill="#fff"/><path d="M-27.537-27.537H-43.314A15.777,15.777,0,0,1-27.537-43.315Z" transform="translate(5834.092 -19137.682)" fill="#ff9d2a"/><path d="M0,0V47.333H15.778V15.778H31.555V31.555H47.333V0Z" transform="translate(5775 -19212.551)" fill="#fff"/><path d="M-35.735-33.88-48.46-53.292h-7.749v31.255h7.567V-41.405L-36.1-22.252l.142.216h7.794V-53.292h-7.566Z" transform="translate(5915.969 -19159.238)" fill="#fff"/><path d="M321.543-83.56h7.2v-22.619h-7.2Z" transform="translate(5570.579 -19097.715)" fill="#fff"/><path d="M-22.869-10.6l-4.485-6.074h-8.617l7.65,6.074Z" transform="translate(5964.018 -19195.893)" fill="#ff9d2a"/><path d="M-35.643-5.877a11.061,11.061,0,0,0-8.328-3.367c-7.008,0-12.094,5.012-12.094,11.918,0,7.1,4.86,11.876,12.094,11.876,5.626,0,9.361-2.562,11.1-7.613l.216-.627h-6.519l-.1.339c-.306,1.035-2.031,2.469-4.477,2.469-3.166,0-4.792-1.448-5.083-4.545H-32.48l.029-.441A13.318,13.318,0,0,0-35.643-5.877m-4.115,5.73h-9.05a4.3,4.3,0,0,1,4.661-3.665c2.464,0,3.766,1.071,4.389,3.665" transform="translate(5981.407 -19195.238)" fill="#fff"/><path d="M321.543-123.927h7.2v-6.057h-7.2Z" transform="translate(5570.579 -19082.582)" fill="#ff9d2a"/><path d="M-40.5-15.134h-8.8L-56.5-8V-23.805h-7.2V7.485h7.2V-.242l1.854-1.7,6.085,9.429h8.736L-49.664-6.629Z" transform="translate(5967.004 -19188.762)" fill="#fff"/><path d="M0-54.628H8.153v-11.4h6.181c3.814,0,4.34,3.244,4.559,6.4.088.876.219,3.945.92,5H27.88c-1.1-1.14-1.228-5.742-1.315-7.058-.263-2.981-1.227-6.707-4.559-7.5v-.087c3.288-1.271,4.91-4.472,4.91-7.847,0-6.312-5.436-8.811-10.959-8.811H0ZM8.153-79.4h6.488c2.279,0,4.121,1.052,4.121,3.375,0,2.367-1.315,3.682-3.77,3.682H8.153Z" transform="translate(5990.398 -19126.635)" fill="#ff9d2a"/><path d="M0-54.628H7.671V-78.387h.088l6.575,23.759h6.225l6.575-23.759h.087v23.759h7.671v-31.3H22.882L17.491-65.061H17.4L12.011-85.927H0Z" transform="translate(6022.092 -19126.635)" fill="#ff9d2a"/><path d="M-52.18-20.657c-.219-7.54-7.54-11.836-14.291-11.836-9.468,0-15.606,7.233-15.606,16.307S-75.939.121-66.47.121c7.934,0,13.852-4.735,14.291-12.8h-8.153c-.307,3.594-2.5,5.786-6.312,5.786-5.26,0-7.277-4.646-7.277-9.293s2.016-9.293,7.277-9.293c3.419,0,5.874,1.666,6.312,4.822Z" transform="translate(6038.663 -19180.727)" fill="#ff9d2a"/><path d="M-11.262-7.862a2.465,2.465,0,0,1-2.732,2.175,2.741,2.741,0,0,1-2.938-3.007A2.708,2.708,0,0,1-13.994-11.7,2.414,2.414,0,0,1-11.32-9.83h.724c-.215-1.841-1.87-2.536-3.4-2.536a3.525,3.525,0,0,0-3.72,3.672,3.451,3.451,0,0,0,3.72,3.672,3.232,3.232,0,0,0,3.457-2.839Zm8.428-4.328h-.723V-7.9c0,1.831-1.185,2.213-2.4,2.213s-2.4-.382-2.4-2.213V-12.19H-9.08V-7.9c0,1.273.352,2.878,3.123,2.878s3.123-1.6,3.123-2.878Zm7.25,2c-.049-1.665-1.488-2.173-2.918-2.173-1.352,0-2.761.5-2.761,2.026,0,1.126.89,1.6,2.555,1.861,1.274.206,2.547.333,2.547,1.4,0,1.107-1.087,1.391-2.135,1.391C.363-5.687-.617-6.04-.744-7.509h-.723C-1.36-5.628-.069-5.023,1.7-5.023c1.362,0,2.918-.469,2.918-2.183,0-1.342-1.272-1.636-2.545-1.851-1.7-.284-2.557-.5-2.557-1.41C-.48-11.26.372-11.7,1.5-11.7s2.1.314,2.194,1.508ZM7.953-5.2h.723v-6.326h2.742v-.665H5.211v.665H7.953Zm3.893-3.5a3.536,3.536,0,0,0,3.8,3.672,3.536,3.536,0,0,0,3.8-3.672,3.536,3.536,0,0,0-3.8-3.672,3.536,3.536,0,0,0-3.8,3.672m.782,0A2.822,2.822,0,0,1,15.646-11.7a2.822,2.822,0,0,1,3.017,3.007,2.823,2.823,0,0,1-3.017,3.007,2.822,2.822,0,0,1-3.017-3.007M25.116-6.108,22-12.19H20.945V-5.2h.723v-6.052h.019L24.763-5.2h.666l3.086-6.042h.019V-5.2h.723V-12.19H28.231Zm6.019.909h5.639v-.664H31.859V-8.489H36.52v-.665H31.859v-2.371H36.7v-.665H31.135Zm7.013,0h.723V-8.274h2.812c1.2,0,1.675.411,1.694,1.645a3.242,3.242,0,0,0,.186,1.43h.782A3.723,3.723,0,0,1,44.1-6.648c-.049-1.146-.254-1.782-1.242-1.939v-.02a1.7,1.7,0,0,0,1.37-1.694c0-1.469-1.086-1.889-2.271-1.889H38.149Zm.723-6.326h3.135c.666,0,1.44.2,1.44,1.225,0,1.068-.715,1.362-1.508,1.362H38.872ZM48.715-5.2h.723V-8.274H52.25c1.2,0,1.675.411,1.695,1.645A3.236,3.236,0,0,0,54.13-5.2h.782a3.723,3.723,0,0,1-.245-1.449c-.049-1.146-.254-1.782-1.243-1.939v-.02A1.7,1.7,0,0,0,54.8-10.3c0-1.469-1.086-1.889-2.271-1.889H48.715Zm.723-6.326h3.135c.666,0,1.44.2,1.44,1.225,0,1.068-.715,1.362-1.509,1.362H49.439ZM56.467-5.2h5.639v-.664H57.191V-8.489h4.661v-.665H57.191v-2.371h4.838v-.665H56.467Zm6.952,0h5.16v-.664H64.143V-12.19h-.724ZM74.437-7.988H71.343L72.9-11.466ZM75.661-5.2H76.5L73.33-12.19h-.842L69.316-5.2H70.1l.95-2.125h3.681ZM82.9-10.193c-.049-1.665-1.488-2.173-2.918-2.173-1.352,0-2.761.5-2.761,2.026,0,1.126.89,1.6,2.555,1.861,1.273.206,2.547.333,2.547,1.4,0,1.107-1.087,1.391-2.136,1.391-1.342,0-2.321-.353-2.449-1.822h-.723c.108,1.881,1.4,2.486,3.172,2.486,1.362,0,2.918-.469,2.918-2.183,0-1.342-1.272-1.636-2.545-1.851-1.7-.284-2.557-.5-2.557-1.41,0-.793.852-1.234,1.979-1.234s2.1.314,2.194,1.508ZM84.527-5.2h.723V-8.568H90.3V-5.2h.723V-12.19H90.3v2.957H85.251V-12.19h-.723Zm8.354,0H93.6V-12.19h-.723Zm2.242-3.5a3.536,3.536,0,0,0,3.8,3.672,3.536,3.536,0,0,0,3.8-3.672,3.536,3.536,0,0,0-3.8-3.672,3.536,3.536,0,0,0-3.8,3.672m.782,0A2.822,2.822,0,0,1,98.922-11.7a2.822,2.822,0,0,1,3.017,3.007,2.822,2.822,0,0,1-3.017,3.007A2.822,2.822,0,0,1,95.9-8.694m8.316,3.5h.723v-5.973h.02L109.881-5.2h.841V-12.19H110v5.974h-.02l-4.888-5.974h-.87Zm13.79-4.994c-.049-1.665-1.488-2.173-2.918-2.173-1.352,0-2.761.5-2.761,2.026,0,1.126.89,1.6,2.555,1.861,1.273.206,2.547.333,2.547,1.4,0,1.107-1.087,1.391-2.135,1.391-1.342,0-2.322-.353-2.449-1.822h-.723c.107,1.881,1.4,2.486,3.172,2.486,1.362,0,2.918-.469,2.918-2.183,0-1.342-1.272-1.636-2.545-1.851-1.7-.284-2.557-.5-2.557-1.41,0-.793.852-1.234,1.979-1.234s2.1.314,2.194,1.508ZM119.635-5.2h.723V-8.568h5.054V-5.2h.723V-12.19h-.723v2.957h-5.054V-12.19h-.723Zm8.354,0h.723V-12.19h-.723Zm3.343-6.326h2.948c.833,0,1.421.3,1.421,1.352,0,.813-.353,1.371-1.567,1.371h-2.8ZM130.609-5.2h.723V-8.137h2.723c1.558,0,2.428-.714,2.428-2.036a1.9,1.9,0,0,0-2.1-2.017h-3.77Zm14.258-.909-3.115-6.082H140.7V-5.2h.723v-6.052h.02L144.513-5.2h.666l3.085-6.042h.02V-5.2h.723V-12.19h-1.027Zm10.349-1.88h-3.094l1.557-3.478ZM156.439-5.2h.842l-3.172-6.991h-.842L150.094-5.2h.783l.95-2.125h3.681Zm1.919,0h.724v-5.973h.019L164.018-5.2h.841V-12.19h-.724v5.974h-.019l-4.888-5.974h-.871Zm12.7-2.789h-3.094l1.557-3.478ZM172.285-5.2h.842l-3.172-6.991h-.842L165.941-5.2h.783l.95-2.125h3.681Zm8.008,0h.557V-8.8h-3.231v.665h2.566a2.67,2.67,0,0,1-2.977,2.45c-1.861,0-2.821-1.127-2.821-3.007a2.733,2.733,0,0,1,2.958-3.007,2.407,2.407,0,0,1,2.6,1.724h.782c-.186-1.293-1.429-2.389-3.378-2.389a3.507,3.507,0,0,0-3.74,3.672,3.386,3.386,0,0,0,3.662,3.671,3.163,3.163,0,0,0,2.909-1.5h.02Zm2.384,0h5.639v-.664H183.4V-8.489h4.661v-.665H183.4v-2.371h4.838v-.665h-5.561ZM193.8-6.108l-3.115-6.082h-1.056V-5.2h.723v-6.052h.019L193.448-5.2h.666l3.086-6.042h.019V-5.2h.723V-12.19h-1.027Zm6.019.909h5.639v-.664h-4.916V-8.489H205.2v-.665h-4.661v-2.371h4.838v-.665h-5.561Zm6.952,0h.723v-5.973h.02L212.431-5.2h.841V-12.19h-.723v5.974h-.02l-4.888-5.974h-.871Zm10.345,0h.723v-6.326h2.742v-.665h-6.208v.665h2.742Z" transform="translate(5877.474 -19160.197)" fill="#fff"/></g></svg>