<svg aria-hidden="true" style="position: absolute; width: 0; height: 0; overflow: hidden;" version="1.1" xmlns="http://www.w3.org/2000/svg" xmlns:xlink="http://www.w3.org/1999/xlink">
<defs>
<symbol id="icon-arrow-enter-left" viewBox="0 0 32 32">
<path d="M1.883 20.707l11.293 11.293 2.667-2.667-6.757-6.739h21.032v-22.595h-3.765v18.824h-17.261l6.757-6.739-2.667-2.667z"></path>
</symbol>
<symbol id="icon-arrow-enter-right" viewBox="0 0 32 32">
<path d="M30.117 20.707l-11.293 11.293-2.667-2.667 6.757-6.739h-21.032v-22.595h3.765v18.824h17.261l-6.757-6.739 2.667-2.667z"></path>
</symbol>
<symbol id="icon-hamburger" viewBox="0 0 32 32">
<path d="M32 31.052h-32v-2.844h32z"></path>
<path d="M32 3.793h-32v-2.844h32z"></path>
<path d="M32 17.694h-32v-2.844h32z"></path>
</symbol>
<symbol id="icon-close" viewBox="0 0 32 32">
<path d="M15.474 16v0 0 0 0z"></path>
<path d="M3.053 30.947l-2.526-2.526 12.421-12.421-12.421-12.421 2.526-2.526 12.421 12.421 13.474-13.474 2.526 2.526-13.474 13.474 13.474 13.474-2.526 2.526-13.474-13.474z"></path>
</symbol>
<symbol id="icon-comic" viewBox="0 0 32 32">
<path d="M0.001 23.271v-22.545c0 0 0 0 0 0 0-0.401 0.325-0.726 0.726-0.726 0.001 0 0.001 0 0.002 0h30.543c0 0 0 0 0 0 0.401 0 0.727 0.325 0.727 0.726v22.545c0 0.402-0.326 0.728-0.728 0.728v0h-13.195l-9.952 7.82c-0.127 0.112-0.296 0.181-0.48 0.181-0.401 0-0.727-0.325-0.727-0.727 0-0 0-0 0-0.001v0-7.273h-6.189c-0 0-0.001 0-0.001 0-0.401 0-0.727-0.325-0.727-0.727 0-0 0-0.001 0-0.001v0zM17.1 21.090h11.991v-18.181h-26.182v18.18h6.189c0.402 0 0.728 0.326 0.728 0.728v0 5.011l6.794-5.559c0.127-0.111 0.294-0.179 0.476-0.179 0.001 0 0.002 0 0.003 0h-0z"></path>
</symbol>
<symbol id="icon-envelope" viewBox="0 0 32 32">
<path d="M0 27.521v-23.041c0 0 0 0 0 0 0-0.353 0.286-0.64 0.639-0.64h30.721c0.353 0.001 0.64 0.287 0.64 0.64v23.041c-0.001 0.353-0.287 0.639-0.64 0.639 0 0 0 0 0 0h-30.721c-0.353 0-0.639-0.286-0.639-0.639v0zM15.882 16.831l11.448-10.425-22.834 0.061 11.387 10.364zM11.17 16l-8.603-7.836v15.673l8.603-7.836zM13.069 17.731l-8.647 7.869h22.912l-8.641-7.869-2.382 2.174c-0.113 0.104-0.264 0.167-0.43 0.167s-0.317-0.064-0.43-0.167l0 0-2.384-2.166zM20.593 16l8.847 8.057v-16.113z"></path>
</symbol>
<symbol id="icon-gear" viewBox="0 0 32 32">
<path d="M31.993 13.7l-2.512-6.64-4.133-0.347-0.309-4.139-6.61-2.574-3.442 3.243-3.934-2.629-6.096 3.632 0.43 4.715-4.491 1.486-0.889 7.045 3.977 2.564-1.6 4.459 4.994 5.042 4.466-1.559 2.526 4.004 7.044-0.834 1.524-4.482 4.708 0.471 3.68-6.071-2.601-3.957 3.269-3.424zM26.228 24.334v0l-5.141-0.516-0.681 2.005-0.983 2.891-3.703 0.439-2.759-4.373-4.88 1.705-2.628-2.654 1.029-2.876 0.711-1.993-4.343-2.8 0.471-3.71 4.907-1.623-0.194-2.107-0.277-3.044 3.2-1.909 4.299 2.873 3.765-3.541 3.477 1.353 0.178 2.462 0.178 2.27 4.724 0.395 1.323 3.497-3.572 3.737 1.159 1.778 1.673 2.556-1.938 3.2zM18.169 10.411l0.040 0.014c-0.685-0.273-1.432-0.424-2.215-0.425h0c-0.002 0-0.004 0-0.006 0-3.31 0-5.993 2.683-5.993 5.993s2.683 5.993 5.993 5.993c3.31 0 5.993-2.683 5.993-5.993 0-2.525-1.562-4.686-3.813-5.582zM19.099 17.211v0c-0.497 1.253-1.7 2.123-3.105 2.123-1.84 0-3.332-1.492-3.332-3.332s1.492-3.332 3.332-3.332c1.355 0 2.52 0.809 3.041 1.969l0.008 0.021c0.179 0.394 0.283 0.855 0.283 1.34 0 0.435-0.084 0.85-0.236 1.23l0.008-0.022z"></path>
</symbol>
<symbol id="icon-headphones" viewBox="0 0 32 32">
<path d="M30.153 15.073v0.964c0.535 0.539 0.97 1.178 1.272 1.888l0.015 0.039c0.346 0.78 0.551 1.688 0.56 2.644l0 0.003v3.692c-0.099 3.358-2.796 6.055-6.145 6.153l-0.009 0c-5.586 0-5.563-3.072-5.54-6.222v-3.559c-0.025-3.125-0.046-6.222 5.54-6.222 0.494 0.005 0.973 0.063 1.433 0.17l-0.044-0.009c0.151 0.034 0.304 0.073 0.452 0.114-0.052-2.98-1.312-5.655-3.31-7.566l-0.004-0.004c-2.218-1.968-5.155-3.169-8.372-3.169s-6.154 1.202-8.386 3.181l0.013-0.011c-2.014 1.927-3.278 4.624-3.317 7.616l-0 0.007c0.169-0.053 0.341-0.103 0.514-0.148 0.397-0.107 0.855-0.172 1.326-0.178l0.004-0c5.588 0 5.563 3.092 5.54 6.222v3.566c0.025 3.141 0.048 6.222-5.54 6.222-3.358-0.098-6.055-2.795-6.153-6.144l-0-0.009v-3.707c0.008-0.959 0.213-1.867 0.575-2.691l-0.017 0.044c0.317-0.749 0.752-1.388 1.287-1.927l-0 0v-0.964c-0-0.019-0-0.042-0-0.064 0-3.763 1.575-7.157 4.101-9.561l0.005-0.005c2.636-2.422 6.167-3.906 10.044-3.906s7.408 1.484 10.055 3.916l-0.011-0.010c2.531 2.408 4.105 5.802 4.105 9.564 0 0.023-0 0.047-0 0.070v-0.004zM9.237 20.493c0.023-2.256 0.036-3.575-3.084-3.575-1.998 0.096-3.595 1.692-3.69 3.682l-0 0.009v3.692c0.096 1.998 1.692 3.595 3.682 3.69l0.009 0c3.12 0 3.108-1.319 3.084-3.575v-3.924zM28.409 26.865c0.674-0.65 1.102-1.553 1.129-2.555l0-0.005v-3.698c-0.027-1.007-0.455-1.91-1.128-2.559l-0.001-0.001c-0.65-0.675-1.552-1.102-2.555-1.129l-0.005-0c-3.12 0-3.108 1.319-3.083 3.575v3.924c-0.025 2.256-0.037 3.575 3.083 3.575 1.008-0.027 1.91-0.454 2.559-1.128l0.001-0.001z"></path>
</symbol>
<symbol id="icon-nikeglyph" viewBox="0 0 32 32">
<path d="M21.337 31.999h-10.672c0-0 0-0 0-0.001 0-5.894 4.778-10.672 10.672-10.672 0 0 0 0 0.001 0h-0z"></path>
<path d="M0 0v32h10.667v-21.333h10.666v10.666h10.667v-21.333z"></path>
</symbol>
<symbol id="icon-giustiglyph" viewBox="0 0 32 32">
<path d="M31.999 10.663v10.672c-0 0-0 0-0.001 0-5.894 0-10.672-4.778-10.672-10.672 0-0 0-0 0-0.001v0z"></path>
<path d="M0 32h32v-10.667h-21.333v-10.666h10.666v-10.667h-21.333z"></path>
</symbol>
<symbol id="icon-phone" viewBox="0 0 32 32">
<path d="M28.689 17.873c1.12 0.787 2.017 1.816 2.627 3.017l0.021 0.047c0.417 0.781 0.663 1.709 0.663 2.694 0 0.56-0.079 1.101-0.227 1.613l0.010-0.041c-0.415 1.464-1.335 2.669-2.555 3.443l-0.024 0.014-3.518 2.21c-0.477 0.302-1.027 0.554-1.612 0.725l-0.046 0.012c-0.535 0.16-1.151 0.252-1.787 0.252-0.001 0-0.002 0-0.003 0h0c-0.89-0.001-1.739-0.181-2.512-0.504l0.043 0.016c-0.813-0.34-1.507-0.808-2.091-1.387l0 0-15.788-15.658c-1.167-1.153-1.89-2.753-1.89-4.522 0-1.272 0.374-2.456 1.017-3.45l-0.015 0.025 2.166-3.397c1.108-1.716 3.007-2.837 5.17-2.844h0.001c1.011 0.001 1.962 0.254 2.795 0.701l-0.032-0.016c0.157 0.081 0.326 0.184 0.505 0.287 1.607 0.914 2.811 2.381 3.366 4.136l0.014 0.051c0.151 0.513 0.238 1.102 0.238 1.711 0 1.082-0.274 2.099-0.755 2.988l0.016-0.033c-0.048 0.094-0.112 0.204-0.184 0.33l-0.591 0.978 7.044 6.985 1-0.595c0.943-0.576 2.085-0.917 3.306-0.917 1.358 0 2.617 0.422 3.654 1.141l-0.021-0.014zM24.072 28.321l3.518-2.21c0.616-0.391 1.072-0.988 1.273-1.692l0.005-0.021c0.070-0.235 0.11-0.504 0.11-0.783 0-0.474-0.116-0.921-0.322-1.314l0.007 0.016c-0.392-0.777-0.941-1.422-1.61-1.915l-0.015-0.010c-0.552-0.402-1.244-0.643-1.992-0.643-0.321 0-0.631 0.044-0.926 0.127l0.024-0.006c-0.307 0.087-0.574 0.201-0.822 0.345l0.017-0.009-2.559 1.525c-0.111 0.067-0.244 0.107-0.387 0.107-0.208 0-0.397-0.085-0.534-0.221l-0-0-9.547-9.464c-0.136-0.137-0.22-0.325-0.22-0.533 0-0.143 0.040-0.277 0.109-0.392l-0.002 0.003 1.507-2.489c0.227-0.367 0.389-0.798 0.457-1.26l0.002-0.018c0.020-0.136 0.032-0.293 0.032-0.453 0-0.314-0.045-0.618-0.128-0.905l0.006 0.023c-0.164-0.562-0.443-1.047-0.811-1.449l0.002 0.003c-0.446-0.486-0.971-0.89-1.557-1.194l-0.031-0.015c-0.187-0.101-0.404-0.186-0.632-0.244l-0.020-0.004c-0.205-0.053-0.44-0.083-0.682-0.083-0.005 0-0.010 0-0.015 0h0.001c-0.548 0.002-1.062 0.146-1.508 0.397l0.016-0.008c-0.465 0.259-0.847 0.616-1.127 1.045l-0.007 0.012-2.168 3.397c-0.335 0.513-0.535 1.141-0.535 1.816 0 0.939 0.387 1.788 1.010 2.396l0.001 0.001 15.788 15.658c0.309 0.307 0.676 0.556 1.083 0.728l0.023 0.008c0.388 0.161 0.839 0.255 1.311 0.255 0.667 0 1.291-0.187 1.821-0.51l-0.015 0.009z"></path>
</symbol>
<symbol id="icon-play" viewBox="0 0 32 32">
<path d="M2.667 0l26.667 16-26.667 16z"></path>
</symbol>
<symbol id="icon-search" viewBox="0 0 32 32">
<path d="M26.677 18.685c-0.555 1.43-1.279 2.664-2.167 3.76l0.020-0.026 7.257 7.257c0.135 0.135 0.218 0.321 0.218 0.527s-0.083 0.392-0.218 0.527v0l-1.053 1.053c-0.135 0.135-0.321 0.218-0.527 0.218s-0.392-0.083-0.527-0.218v0l-7.257-7.257c-1.070 0.868-2.305 1.592-3.64 2.115l-0.094 0.032c-1.458 0.572-3.145 0.903-4.91 0.903-7.624 0-13.805-6.181-13.805-13.805s6.181-13.805 13.805-13.805c7.624 0 13.805 6.181 13.805 13.805 0 1.765-0.331 3.453-0.935 5.004l0.032-0.094zM6.15 21.429c1.952 1.947 4.646 3.152 7.622 3.152 5.96 0 10.792-4.832 10.792-10.792s-4.832-10.792-10.792-10.792c-5.96 0-10.792 4.832-10.792 10.792 0 0 0 0 0 0.001v-0c0 0.003 0 0.006 0 0.009 0 2.982 1.212 5.68 3.17 7.63l0 0z"></path>
</symbol>
<symbol id="icon-share" viewBox="0 0 32 32">
<path d="M20.828 17.097c1.012-0.524 2.209-0.831 3.477-0.831 4.25 0 7.694 3.445 7.694 7.694s-3.445 7.694-7.694 7.694c-4.25 0-7.694-3.445-7.694-7.694 0-0.616 0.073-1.216 0.209-1.791l-0.011 0.052c0.099-0.419 0.212-0.775 0.35-1.119l-0.019 0.052-6.482-3.278c-0.502 0.452-1.083 0.829-1.718 1.106l-0.041 0.016c-0.74 0.325-1.603 0.514-2.51 0.514-3.529 0-6.39-2.861-6.39-6.39s2.861-6.39 6.39-6.39c1.030 0 2.004 0.244 2.866 0.677l-0.037-0.017c0.757 0.381 1.399 0.878 1.931 1.475l0.006 0.006 8.018-2.988c-0.012-0.137-0.019-0.266-0.019-0.385-0-0.005-0-0.012-0-0.018 0-2.838 2.301-5.139 5.139-5.139s5.139 2.301 5.139 5.139c0 2.838-2.301 5.139-5.139 5.139-1.791 0-3.368-0.916-4.288-2.305l-0.012-0.019-7.543 2.811c0.061 0.172 0.125 0.395 0.177 0.622l0.008 0.043c0.092 0.406 0.145 0.871 0.145 1.35 0 0.97-0.218 1.89-0.608 2.712l0.016-0.038 6.262 3.169c0.655-0.765 1.444-1.393 2.334-1.852l0.043-0.020zM26.057 3.69c-0.464-0.465-1.105-0.753-1.814-0.753-1.415 0-2.562 1.147-2.562 2.562s1.147 2.562 2.562 2.562c1.415 0 2.562-1.147 2.562-2.561v-0c0-0.003 0-0.007 0-0.011 0-0.703-0.286-1.34-0.748-1.8l-0-0zM3.714 15.835c0.695 0.697 1.657 1.128 2.719 1.128 2.121 0 3.84-1.719 3.84-3.84s-1.719-3.84-3.84-3.84c-2.121 0-3.84 1.719-3.84 3.84v0c-0 0.004-0 0.010-0 0.015 0 1.054 0.429 2.008 1.121 2.697l0 0zM20.654 27.561c0.927 0.93 2.21 1.505 3.626 1.505 2.828 0 5.121-2.293 5.121-5.121s-2.293-5.121-5.121-5.121c-2.828 0-5.121 2.293-5.121 5.121 0 0.002 0 0.003 0 0.004v-0c0 0.004-0 0.008-0 0.013 0 1.406 0.571 2.679 1.494 3.598l0 0z"></path>
</symbol>
<symbol id="icon-user" viewBox="0 0 32 32">
<path d="M4.686 4.687c2.895-2.896 6.896-4.687 11.314-4.687 8.837 0 16 7.163 16 16s-7.163 16-16 16c-8.837 0-16-7.163-16-16 0-0 0-0 0-0v0c0-0.006 0-0.013 0-0.020 0-4.412 1.791-8.405 4.686-11.293l0-0zM12.109 28.869c1.163 0.366 2.501 0.577 3.888 0.577 2.67 0 5.157-0.781 7.247-2.127l-0.053 0.032-1.187-5.819c-0.087-0.634-0.388-1.185-0.827-1.588l-0.002-0.002c-0.382-0.351-0.874-0.589-1.418-0.658l-0.013-0.001c-0.484 0.358-1.040 0.661-1.636 0.881l-0.047 0.015c-0.612 0.228-1.319 0.36-2.056 0.36s-1.445-0.132-2.098-0.373l0.042 0.014c-0.637-0.232-1.188-0.529-1.688-0.893l0.019 0.013c-0.533 0.085-1.001 0.322-1.368 0.665l0.002-0.001c-0.421 0.39-0.709 0.917-0.792 1.511l-0.002 0.013-1.21 5.927c0.92 0.584 1.979 1.078 3.102 1.429l0.095 0.026zM12.857 9.656c-0.815 0.801-1.324 1.912-1.337 3.142l-0 0.002c0.037 1.374 0.573 2.617 1.432 3.559l-0.004-0.004c0.691 0.952 1.801 1.564 3.053 1.564s2.362-0.612 3.046-1.553l0.008-0.011c0.855-0.938 1.391-2.181 1.427-3.548l0-0.007c0-0.011 0-0.023 0-0.035 0-2.455-1.991-4.446-4.446-4.446-1.245 0-2.37 0.512-3.178 1.336l-0.001 0.001zM24.527 21.131l0.906 4.432c1.114-1.097 2.037-2.384 2.717-3.809l0.035-0.081c0.792-1.662 1.255-3.612 1.255-5.67 0-7.423-6.017-13.44-13.44-13.44s-13.44 6.017-13.44 13.44c0 2.080 0.472 4.049 1.316 5.807l-0.035-0.081c0.731 1.525 1.677 2.826 2.816 3.928l0.004 0.004 0.934-4.569c0.141-0.996 0.557-1.876 1.169-2.582l-0.005 0.006c0.439-0.511 0.968-0.932 1.565-1.239l0.029-0.014c-0.329-0.508-0.623-1.092-0.853-1.707l-0.021-0.063c-0.312-0.797-0.501-1.72-0.517-2.684l-0-0.007c0.106-3.807 3.218-6.853 7.041-6.853s6.935 3.046 7.040 6.843l0 0.010c-0.017 0.965-0.203 1.881-0.529 2.728l0.018-0.054c-0.247 0.67-0.535 1.247-0.878 1.785l0.022-0.037c0.649 0.319 1.198 0.745 1.647 1.261l0.005 0.006c0.625 0.717 1.055 1.62 1.198 2.615l0.003 0.027z"></path>
</symbol>
<symbol id="icon-arrow2-down" viewBox="0 0 32 32">
<path d="M0 7.771l16 16.459 16-16.459z"></path>
</symbol>
<symbol id="icon-arrow2-left" viewBox="0 0 32 32">
<path d="M24.229 0l-16.459 16 16.459 16z"></path>
</symbol>
<symbol id="icon-arrow2-right" viewBox="0 0 32 32">
<path d="M7.771 32l16.459-16-16.459-16z"></path>
</symbol>
<symbol id="icon-arrow2-up" viewBox="0 0 32 32">
<path d="M32 24.229l-16-16.459-16 16.459z"></path>
</symbol>
<symbol id="icon-playbtn" viewBox="0 0 32 32">
<path d="M9.772 30.743c-1.977-0.849-3.664-2.006-5.085-3.43l-0-0c-1.425-1.42-2.582-3.108-3.389-4.982l-0.040-0.103c-0.795-1.828-1.258-3.957-1.258-6.195 0-0.012 0-0.023 0-0.035v0.002c-0-0.009-0-0.021-0-0.032 0-2.238 0.462-4.368 1.297-6.299l-0.040 0.103c0.847-1.977 2.004-3.665 3.428-5.085l0-0c1.421-1.424 3.108-2.58 4.982-3.388l0.104-0.040c1.829-0.796 3.96-1.259 6.2-1.259 0.010 0 0.021 0 0.031 0h-0.002c0.009 0 0.019-0 0.029-0 2.239 0 4.371 0.463 6.303 1.299l-0.103-0.040c1.977 0.848 3.665 2.004 5.085 3.428l0 0c1.424 1.42 2.581 3.108 3.389 4.982l0.040 0.103c0.795 1.828 1.257 3.958 1.257 6.195 0 0.011 0 0.023-0 0.034v-0.002c0 0.010 0 0.023 0 0.035 0 2.236-0.462 4.365-1.297 6.295l0.040-0.103c-0.847 1.977-2.004 3.665-3.428 5.085l-0 0c-1.421 1.424-3.109 2.581-4.982 3.39l-0.104 0.040c-1.831 0.795-3.963 1.258-6.203 1.258-0.009 0-0.018 0-0.027-0h0.001c-0.008 0-0.017 0-0.027 0-2.24 0-4.371-0.462-6.305-1.297l0.103 0.040zM10.27 2.436c-1.819 0.78-3.371 1.844-4.678 3.154l-0 0c-1.311 1.307-2.376 2.861-3.119 4.585l-0.037 0.095c-0.731 1.681-1.156 3.64-1.156 5.697 0 0.011 0 0.022 0 0.034v-0.002c0 0.009-0 0.019-0 0.029 0 2.059 0.426 4.018 1.194 5.795l-0.036-0.095c0.78 1.82 1.845 3.373 3.155 4.679l0 0c1.307 1.311 2.859 2.375 4.583 3.118l0.095 0.037c1.682 0.731 3.642 1.157 5.701 1.157 0.010 0 0.019 0 0.029-0h-0.002c0.009 0 0.019 0 0.029 0 2.059 0 4.019-0.425 5.797-1.193l-0.095 0.036c1.819-0.78 3.372-1.844 4.678-3.154l0-0c1.311-1.307 2.375-2.86 3.119-4.584l0.037-0.095c0.728-1.679 1.152-3.634 1.152-5.689 0-0.014-0-0.029-0-0.043v0.002c0-0.012 0-0.026 0-0.040 0-2.054-0.424-4.010-1.188-5.784l0.036 0.095c-0.781-1.819-1.846-3.372-3.156-4.679l-0-0c-1.307-1.31-2.86-2.374-4.583-3.117l-0.095-0.037c-1.682-0.732-3.642-1.157-5.701-1.157-0.011 0-0.021 0-0.032 0h0.002c-0.009 0-0.019-0-0.029-0-2.059 0-4.018 0.426-5.795 1.194l0.095-0.036zM11.465 8.897l12.512 7.061-12.512 7.232z"></path>
</symbol>
<symbol id="icon-download" viewBox="0 0 32 32">
<path d="M1.972 31.020c-1.103-0.067-1.972-0.977-1.972-2.091 0-0.038 0.001-0.075 0.003-0.112l-0 0.005v-7.981h1.202v7.981c-0.003 0.027-0.004 0.058-0.004 0.090 0 0.456 0.332 0.834 0.768 0.905l0.005 0.001h28.026c0.456-0.063 0.803-0.45 0.803-0.918 0-0.027-0.001-0.055-0.004-0.081l0 0.003v-7.981h1.202v7.981c0 0.005 0 0.011 0 0.017 0 0.579-0.215 1.109-0.569 1.513l0.002-0.003c-0.35 0.405-0.861 0.663-1.433 0.671h-0.001zM7.586 18.309l0.851-0.85 6.962 6.962v-23.441h1.202v23.287l7.009-7.010 0.849 0.851-8.535 8.536z"></path>
</symbol>
<symbol id="icon-made-in-zaki" viewBox="0 0 32 32">
<path d="M19.78 25.878h-19.78v-19.755h19.78v4.639h12.22l-12.22 10.473v4.643zM15.174 16.286v3.079h0.826v-3.078h-0.826zM12.667 18.29v0l0.851 1.074h1.066l-1.336-1.683 1.336-1.395h-1.102l-1.203 1.257v-1.256h-0.826v3.078h0.826v-0.67l0.388-0.404zM8.386 18.897h1.532l0.202 0.467h0.916l-1.39-3.078h-0.988l-1.389 3.078h0.914l0.202-0.467zM3.902 16.284v0.726h1.806l-1.806 1.631v0.724h2.965v-0.721h-1.805l1.805-1.631v-0.725h-2.965zM14.418 13.338v0l1.444 1.707h0.137v-2.079h-0.213v1.707l-1.442-1.707h-0.137v2.079h0.213l-0.003-1.707zM13.426 12.966v2.080h0.215v-2.079h-0.215zM10.924 12.966v2.080h1.307v-0.176h-1.095v-0.797h0.999v-0.176h-0.999v-0.753h1.068v-0.177h-1.281zM8.776 12.966v2.080h0.706c0.562-0.016 1.012-0.475 1.012-1.040s-0.45-1.024-1.010-1.039l-0.001-0h-0.706zM6.922 14.505h1.1l0.233 0.542h0.228l-0.91-2.079h-0.201l-0.91 2.079h0.228l0.234-0.541zM5.919 13.336v0l0.091 1.71h0.213l-0.124-2.1h-0.223l-0.812 1.764-0.817-1.764h-0.222l-0.123 2.1h0.21l0.093-1.712 0.79 1.712h0.131zM9.606 18.175h-0.907l0.455-1.049 0.453 1.049zM9.465 14.87h-0.474v-1.726h0.474c0.451 0.032 0.805 0.406 0.805 0.863s-0.354 0.831-0.802 0.863l-0.003 0zM7.947 14.325h-0.948l0.474-1.1 0.473 1.098z"></path>
</symbol>
<symbol id="icon-arrow1-right" viewBox="0 0 32 32">
<path d="M10.264 0l-4.414 4.414 11.7 11.476-11.7 11.696 4.414 4.414 11.7-11.7 4.186-4.41-4.19-4.19z"></path>
</symbol>
<symbol id="icon-arrow1-top" viewBox="0 0 32 32">
<path d="M0 21.736l4.414 4.414 11.476-11.7 11.696 11.7 4.414-4.414-11.7-11.7-4.41-4.186-4.19 4.19z"></path>
</symbol>
<symbol id="icon-arrow1-left" viewBox="0 0 32 32">
<path d="M21.736 32l4.414-4.414-11.7-11.476 11.7-11.696-4.414-4.414-11.7 11.7-4.186 4.41 4.19 4.19z"></path>
</symbol>
<symbol id="icon-arrow1-down" viewBox="0 0 32 32">
<path d="M32 10.264l-4.414-4.414-11.476 11.7-11.696-11.7-4.414 4.414 11.7 11.7 4.41 4.186 4.19-4.19z"></path>
</symbol>
<symbol id="icon-amex" viewBox="0 0 32 32">
<path d="M4.617 16.432h2.032l-1.019-2.482z"></path>
<path d="M20.552 14.181v1.132h3.267v1.27h-3.267v1.239h3.659l1.7-1.824-1.628-1.815z"></path>
<path d="M32 11.654h-3.871l-1.229 1.33-1.149-1.33-11.175 0.004-0.97 2.242-0.995-2.242h-4.55v1.026l-0.5-1.026h-3.881l-3.68 8.683h4.421l0.573-1.383h1.284l0.572 1.383h5v-1.057l0.447 1.061h2.597l0.447-1.078v1.073h10.257l1.266-1.351 1.192 1.351h3.943v-1.517l-2.482-2.811 2.482-2.659zM16.418 19.119l-0.005-4.876-2.158 4.876h-1.307l-2.162-4.88v4.88h-3.026l-0.572-1.388h-3.099l-0.578 1.388h-1.616l2.665-6.225h2.211l2.531 5.894v-5.895h2.429l1.947 4.223 1.789-4.223h2.478v6.225zM27.828 16.018l2.74 3.103h-1.865l-1.832-2.061-1.904 2.061h-5.894v-6.228h5.985l1.831 2.041 1.892-2.041h1.965z"></path>
</symbol>
<symbol id="icon-shopify-pay" viewBox="0 0 32 32">
<path d="M23.399 14.144h-0.708c-0.035 0.001-0.062 0.028-0.063 0.063v1.484c0.001 0.034 0.029 0.061 0.063 0.062h0.708c0.419-0.032 0.747-0.38 0.747-0.805s-0.328-0.772-0.744-0.805l-0.003-0z"></path>
<path d="M25.572 16.77c0 0.215 0.182 0.335 0.499 0.335 0.024 0.003 0.051 0.005 0.079 0.005 0.336 0 0.608-0.272 0.608-0.608 0-0.015-0.001-0.030-0.002-0.045l0 0.002v-0.119l-0.645 0.033c-0.34 0.017-0.539 0.159-0.539 0.397z"></path>
<path d="M8.218 14.624c-0.248-0.53-0.777-0.891-1.39-0.891-0.032 0-0.063 0.001-0.094 0.003l0.004-0c-0.473 0.009-0.891 0.239-1.154 0.591l-0.003 0.004-0.027 0.033v-2.115c0 0 0 0 0-0 0-0.013-0.005-0.024-0.014-0.033v0c-0.008-0.008-0.020-0.014-0.032-0.014h-1.039c-0.025 0-0.045 0.021-0.045 0.046 0 0 0 0 0 0v0 6.069c0 0.025 0.020 0.045 0.045 0.045v0h1.113c0 0 0 0 0 0 0.025 0 0.046-0.020 0.046-0.045v-2.588c-0.001-0.013-0.001-0.028-0.001-0.044 0-0.451 0.366-0.817 0.817-0.817 0.020 0 0.039 0.001 0.058 0.002l-0.003-0c0.587 0 0.737 0.483 0.737 0.975v2.471c0 0.025 0.020 0.045 0.045 0.045v0h1.11c0 0 0 0 0.001 0 0.025 0 0.046-0.020 0.046-0.045v-2.619c0-0.013 0.001-0.029 0.001-0.044 0-0.077-0.005-0.153-0.013-0.228l0.001 0.009c-0.021-0.298-0.095-0.573-0.212-0.824l0.006 0.014z"></path>
<path d="M2.661 15.525s-0.567-0.133-0.775-0.187-0.573-0.17-0.573-0.443 0.294-0.364 0.593-0.364 0.63 0.072 0.656 0.403c0.001 0.012 0.007 0.023 0.015 0.031l0 0c0.008 0.008 0.020 0.012 0.032 0.012 0 0 0 0 0 0l1.097-0.004c0 0 0 0 0 0 0.026 0 0.047-0.021 0.047-0.047 0-0.001-0-0.002-0-0.004v0c-0.068-1.059-0.997-1.438-1.855-1.438-0.048-0.005-0.103-0.008-0.159-0.008-0.822 0-1.5 0.615-1.6 1.41l-0.001 0.008c0 0.54 0.152 1.046 1.352 1.398 0.21 0.061 0.496 0.141 0.746 0.21 0.3 0.084 0.462 0.21 0.462 0.41 0 0.231-0.335 0.392-0.665 0.392-0.477 0-0.815-0.177-0.843-0.495-0.003-0.024-0.023-0.042-0.047-0.042-0 0-0 0-0 0v0l-1.094 0.005c-0.007 0-0.013 0.002-0.019 0.004l0-0c-0.006 0.003-0.011 0.006-0.016 0.011v0c-0.008 0.008-0.014 0.020-0.014 0.033 0 0.001 0 0.001 0 0.002v-0c0.050 1 1.016 1.539 1.916 1.539 1.341 0 1.947-0.754 1.947-1.461 0-0.010 0-0.022 0-0.034 0-0.694-0.523-1.265-1.196-1.341l-0.006-0.001z"></path>
<path d="M16.774 13.736c-0.54 0.017-1.015 0.278-1.322 0.676l-0.003 0.004v-0.637c-0-0.012-0.005-0.024-0.013-0.032v0c-0.008-0.008-0.019-0.013-0.031-0.014h-1.043c-0.025 0-0.045 0.020-0.045 0.045v0 5.95c0.001 0.025 0.021 0.044 0.045 0.044 0 0 0 0 0 0h1.114c0 0 0 0 0 0 0.012 0 0.023-0.005 0.031-0.013v0c0.008-0.008 0.013-0.019 0.013-0.031v-1.956h0.017c0.295 0.364 0.741 0.594 1.242 0.594 0.018 0 0.036-0 0.053-0.001l-0.003 0c1.21-0.027 2.181-1.014 2.181-2.228 0-0.031-0.001-0.063-0.002-0.094l0 0.004c0-0.014 0-0.031 0-0.047 0-1.241-0.998-2.25-2.235-2.267h-0.002zM16.669 17.233c-0.009 0-0.019 0-0.029 0-0.652 0-1.181-0.529-1.181-1.181s0.529-1.181 1.181-1.181c0.651 0 1.179 0.527 1.181 1.178v0c0 0.005 0 0.012 0 0.018 0 0.639-0.514 1.157-1.151 1.165h-0.001z"></path>
<path d="M11.022 13.473c-0.027-0.001-0.059-0.001-0.091-0.001-0.711 0-1.366 0.239-1.889 0.642l0.007-0.005-0.012 0.008c-0.021 0.015-0.036 0.036-0.042 0.062l-0 0.001c-0.002 0.007-0.003 0.015-0.003 0.023 0 0.019 0.005 0.037 0.014 0.052l-0-0 0.411 0.707c0.016 0.026 0.042 0.045 0.072 0.050l0.001 0c0.005 0.001 0.012 0.002 0.018 0.002 0.025 0 0.048-0.009 0.066-0.024l-0 0 0.033-0.027c0.374-0.302 0.854-0.485 1.378-0.485 0.003 0 0.006 0 0.009 0h-0c0.055-0.007 0.118-0.011 0.181-0.011 0.374 0 0.716 0.14 0.975 0.371l-0.001-0.001c0.32 0.32 0.518 0.762 0.518 1.25 0 0.014-0 0.028-0 0.042l0-0.002c0.005 0.043 0.007 0.093 0.007 0.144 0 0.77-0.624 1.393-1.393 1.393-0.018 0-0.036-0-0.054-0.001l0.003 0c-0.73-0.004-1.22-0.385-1.22-0.947 0.002-0.292 0.159-0.546 0.393-0.685l0.004-0.002c0.026-0.019 0.043-0.049 0.043-0.083 0-0.017-0.004-0.034-0.012-0.048l-0.369-0.697c-0.007-0.013-0.016-0.023-0.027-0.032l-0-0c-0.011-0.008-0.023-0.015-0.037-0.019l-0.001-0c-0.009-0.003-0.019-0.004-0.030-0.004-0.020 0-0.039 0.006-0.054 0.015l0-0c-0.537 0.284-0.896 0.838-0.896 1.476 0 0.029 0.001 0.057 0.002 0.085l-0-0.004c0.065 1.103 0.975 1.973 2.088 1.973 0.017 0 0.033-0 0.049-0.001l-0.002 0h0.141c1.344-0.003 2.432-1.093 2.432-2.437 0-0.027-0-0.055-0.001-0.082l0 0.004c0-0.015 0-0.032 0-0.049 0-1.465-1.187-2.652-2.652-2.652-0.020 0-0.040 0-0.060 0.001l0.003-0z"></path>
<path d="M30.81 12.216h-9.504c0 0 0 0 0 0-0.655 0-1.187 0.531-1.187 1.187 0 0.001 0 0.002 0 0.004v-0 5.202c0 0 0 0 0 0 0 0.656 0.531 1.188 1.186 1.19h9.504c0 0 0 0 0 0 0.656 0 1.188-0.531 1.19-1.186v-5.208c0-0.001 0-0.002 0-0.003 0-0.655-0.531-1.187-1.187-1.187-0.001 0-0.002 0-0.004 0h0zM23.434 16.336h-0.747c-0 0-0 0-0.001 0-0.034 0-0.062 0.028-0.062 0.062 0 0 0 0 0 0.001v-0 1.064c0 0.035-0.028 0.063-0.063 0.063v0h-0.526c-0.035-0.001-0.062-0.028-0.063-0.063v-3.838c0-0.035 0.028-0.063 0.063-0.063v0h1.4c0.001 0 0.001 0 0.002 0 0.767 0 1.388 0.622 1.388 1.388s-0.62 1.387-1.386 1.388h-0zM27.374 17.463c0 0 0 0 0 0 0 0.017-0.007 0.033-0.018 0.045v0c-0.006 0.006-0.012 0.010-0.020 0.013l-0 0c-0.007 0.003-0.016 0.005-0.024 0.005h-0.497c0 0 0 0 0 0-0.017 0-0.033-0.007-0.045-0.019v0c-0.006-0.006-0.010-0.013-0.013-0.021l-0-0c-0.003-0.007-0.005-0.015-0.005-0.024 0-0 0-0 0-0v0-0.113c0-0.001 0-0.003 0-0.004 0-0.020-0.012-0.037-0.029-0.044l-0-0c-0.004-0.002-0.009-0.002-0.015-0.002s-0.010 0.001-0.015 0.003l0-0c-0.010 0.003-0.019 0.009-0.025 0.016l-0 0c-0.179 0.175-0.424 0.283-0.695 0.283-0.028 0-0.056-0.001-0.083-0.003l0.004 0c-0.567 0-0.941-0.295-0.941-0.805-0-0.010-0.001-0.021-0.001-0.033 0-0.249 0.122-0.47 0.31-0.606l0.002-0.002c0.26-0.159 0.575-0.253 0.912-0.253 0.028 0 0.055 0.001 0.083 0.002l-0.004-0 0.499-0.016v-0.146c0-0.294-0.198-0.419-0.516-0.419s-0.518 0.113-0.567 0.296c-0.004 0.013-0.012 0.024-0.023 0.032l-0 0c-0.010 0.007-0.022 0.011-0.035 0.011-0.001 0-0.002 0-0.003-0h-0.492c-0.001 0-0.001 0-0.002 0-0.018 0-0.035-0.008-0.046-0.021l-0-0c-0.006-0.007-0.010-0.015-0.013-0.023l-0-0c-0.001-0.004-0.002-0.009-0.002-0.013s0.001-0.009 0.002-0.014l-0 0c0.074-0.436 0.434-0.767 1.203-0.767 0.816 0 1.11 0.38 1.11 1.104zM30.469 14.969l-1.106 2.951c-0.13 0.5-0.577 0.863-1.109 0.863-0.023 0-0.045-0.001-0.068-0.002l0.003 0c-0.007 0-0.015 0-0.023 0-0.088 0-0.173-0.012-0.253-0.035l0.007 0.002c-0.014-0.004-0.026-0.012-0.034-0.023l-0-0c-0.008-0.011-0.013-0.024-0.013-0.039v0-0.448c0-0 0-0 0-0 0-0.020 0.009-0.037 0.023-0.049l0-0c0.007-0.006 0.015-0.010 0.025-0.012l0-0c0.004-0.001 0.009-0.002 0.014-0.002s0.010 0.001 0.014 0.002l-0-0c0.069 0.014 0.148 0.022 0.23 0.022 0 0 0 0 0.001 0h-0c0.009 0 0.020 0.001 0.030 0.001 0.268 0 0.495-0.178 0.569-0.422l0.001-0.004 0.033-0.103c0.002-0.006 0.004-0.014 0.004-0.021s-0.001-0.015-0.004-0.022l0 0-1.034-2.657c-0.001-0.004-0.002-0.009-0.002-0.015s0.001-0.010 0.002-0.015l-0 0c0.002-0.010 0.005-0.020 0.011-0.027l-0 0c0.006-0.008 0.014-0.014 0.022-0.019l0-0c0.008-0.005 0.018-0.007 0.029-0.007h0.503c0.013 0 0.026 0.004 0.036 0.011l-0-0c0.010 0.007 0.018 0.017 0.023 0.029l0 0 0.703 1.874c0.009 0.025 0.033 0.042 0.060 0.042h0c0 0 0 0 0 0 0.014 0 0.026-0.004 0.036-0.011l-0 0c0.011-0.007 0.019-0.018 0.024-0.030l0-0 0.609-1.87c0.008-0.026 0.032-0.044 0.060-0.044 0 0 0 0 0 0h0.516c0 0 0 0 0 0 0.011 0 0.020 0.002 0.029 0.007l-0-0c0.009 0.005 0.017 0.011 0.023 0.019l0 0c0.006 0.008 0.010 0.017 0.012 0.027l0 0c0.001 0.004 0.002 0.009 0.002 0.015s-0.001 0.010-0.002 0.015l0-0z"></path>
</symbol>
<symbol id="icon-arrow-circle-left" viewBox="0 0 32 32">
<path d="M15.997-0.002c0.003 0 0.006 0 0.009 0 8.837 0 16 7.163 16 16 0 6.591-3.986 12.252-9.678 14.703l-0.104 0.040c-1.838 0.797-3.978 1.261-6.227 1.261-8.839 0-16.004-7.165-16.004-16.004 0-6.59 3.983-12.249 9.673-14.703l0.104-0.040c1.829-0.795 3.959-1.258 6.197-1.258 0.010 0 0.021 0 0.031 0h-0.002zM17.090 20.53v0l1.193-1.193-3.16-3.161 3.16-3.101-1.193-1.193-4.293 4.296 1.133 1.194 3.16 3.158z"></path>
</symbol>
<symbol id="icon-arrow-circle-top" viewBox="0 0 32 32">
<path d="M32.002 15.997c0 0.003 0 0.006 0 0.009 0 8.837-7.163 16-16 16-6.591 0-12.252-3.986-14.703-9.678l-0.040-0.104c-0.797-1.838-1.261-3.978-1.261-6.227 0-8.839 7.165-16.004 16.004-16.004 6.59 0 12.249 3.983 14.703 9.673l0.040 0.104c0.795 1.829 1.258 3.959 1.258 6.197 0 0.010 0 0.021-0 0.031v-0.002zM11.47 17.090v0l1.193 1.193 3.161-3.16 3.101 3.16 1.193-1.193-4.296-4.293-1.194 1.133-3.158 3.16z"></path>
</symbol>
<symbol id="icon-arrow-circle-right" viewBox="0 0 32 32">
<path d="M16.003 32.002c-0.003 0-0.006 0-0.009 0-8.837 0-16-7.163-16-16 0-6.591 3.986-12.252 9.678-14.703l0.104-0.040c1.838-0.797 3.978-1.261 6.227-1.261 8.839 0 16.004 7.165 16.004 16.004 0 6.59-3.983 12.249-9.673 14.703l-0.104 0.040c-1.829 0.795-3.959 1.258-6.197 1.258-0.010 0-0.021 0-0.031-0h0.002zM14.91 11.47v0l-1.193 1.193 3.16 3.161-3.16 3.101 1.193 1.193 4.293-4.296-1.133-1.194-3.16-3.158z"></path>
</symbol>
<symbol id="icon-arrow-circle-down" viewBox="0 0 32 32">
<path d="M-0.002 16.003c0-0.003 0-0.006 0-0.009 0-8.837 7.163-16 16-16 6.591 0 12.252 3.986 14.703 9.678l0.040 0.104c0.797 1.838 1.261 3.978 1.261 6.227 0 8.839-7.165 16.004-16.004 16.004-6.59 0-12.249-3.983-14.703-9.673l-0.040-0.104c-0.795-1.829-1.258-3.959-1.258-6.197 0-0.010 0-0.021 0-0.031v0.002zM20.53 14.91v0l-1.193-1.193-3.161 3.16-3.101-3.16-1.193 1.193 4.296 4.293 1.194-1.133 3.158-3.16z"></path>
</symbol>
<symbol id="icon-applepay" viewBox="0 0 32 32">
<path d="M5.851 11.045c-0.376 0.449-0.976 0.803-1.576 0.752-0.075-0.607 0.219-1.251 0.563-1.649 0.376-0.461 1.032-0.788 1.563-0.815 0.063 0.632-0.181 1.251-0.549 1.712zM6.393 11.917c-0.868-0.051-1.613 0.5-2.024 0.5-0.42 0-1.051-0.475-1.739-0.461-0.893 0.013-1.724 0.524-2.18 1.34-0.939 1.629-0.244 4.044 0.661 5.371 0.444 0.657 0.976 1.377 1.676 1.352 0.661-0.025 0.924-0.436 1.724-0.436 0.807 0 1.037 0.436 1.739 0.424 0.724-0.013 1.18-0.657 1.624-1.315 0.507-0.747 0.713-1.472 0.725-1.511-0.013-0.013-1.4-0.549-1.413-2.167-0.012-1.353 1.093-1.997 1.144-2.035-0.624-0.936-1.6-1.037-1.937-1.063zM11.413 10.085v9.852h1.513v-3.368h2.093c1.912 0 3.256-1.328 3.256-3.248 0-1.921-1.319-3.236-3.205-3.236zM12.927 11.375h1.744c1.312 0 2.061 0.707 2.061 1.952s-0.749 1.96-2.068 1.96h-1.739zM21.039 20.012c0.951 0 1.832-0.485 2.232-1.257h0.031v1.183h1.4v-4.904c0-1.421-1.125-2.339-2.856-2.339-1.607 0-2.793 0.929-2.837 2.205h1.363c0.112-0.607 0.668-1.004 1.431-1.004 0.925 0 1.444 0.436 1.444 1.239v0.543l-1.888 0.115c-1.756 0.107-2.707 0.833-2.707 2.097 0 1.276 0.981 2.123 2.388 2.123zM21.445 18.844c-0.807 0-1.32-0.392-1.32-0.992 0-0.62 0.495-0.98 1.439-1.037l1.68-0.107v0.556c0 0.923-0.773 1.58-1.799 1.58zM26.571 22.617c1.475 0 2.168-0.569 2.773-2.295l2.656-7.533h-1.537l-1.781 5.82h-0.031l-1.781-5.82h-1.581l2.561 7.173-0.137 0.436c-0.231 0.739-0.605 1.023-1.275 1.023-0.119 0-0.349-0.013-0.444-0.025v1.183c0.088 0.025 0.463 0.037 0.577 0.039z"></path>
</symbol>
<symbol id="icon-facebook" viewBox="0 0 32 32">
<path d="M31.997 15.999c0-8.836-7.163-15.999-15.999-15.999s-15.999 7.163-15.999 15.999c0 7.985 5.851 14.604 13.499 15.804v-11.18h-4.062v-4.625h4.062v-3.525c0-4.010 2.389-6.225 6.043-6.225 1.75 0 3.581 0.313 3.581 0.313v3.937h-2.017c-1.987 0-2.607 1.233-2.607 2.498v3.001h4.437l-0.709 4.625h-3.728v11.18c7.649-1.2 13.499-7.819 13.499-15.804z"></path>
</symbol>
<symbol id="icon-google" viewBox="0 0 32 32">
<path d="M16.32 13.713v5.487h9.075c-0.367 2.353-2.741 6.899-9.075 6.899-5.46 0-9.919-4.519-9.919-10.099s4.46-10.099 9.919-10.099c3.107 0 5.188 1.319 6.38 2.465l4.339-4.184c-2.787-2.601-6.4-4.183-10.719-4.183-8.847 0-16 7.153-16 16s7.153 16 16 16c9.235 0 15.36-6.492 15.36-15.635 0-1.051-0.113-1.853-0.252-2.652z"></path>
</symbol>
<symbol id="icon-googlepay" viewBox="0 0 32 32">
<path d="M32 13.333l-4.179 9.333h-1.291l1.551-3.267-2.748-6.067h1.36l1.987 4.653h0.027l1.931-4.653zM14.644 16.221v3.779h-1.311v-9.333h3.476c0.025-0.001 0.053-0.001 0.082-0.001 0.831 0 1.59 0.306 2.171 0.812l-0.004-0.003c0.611 0.503 0.953 1.22 0.941 1.971 0 0.009 0 0.020 0 0.030 0 0.788-0.366 1.49-0.937 1.946l-0.005 0.004c-0.607 0.531-1.357 0.795-2.249 0.795zM14.641 11.816v3.259h2.197c0.487 0.013 0.957-0.163 1.297-0.483 0.336-0.3 0.527-0.711 0.527-1.141 0-0.429-0.191-0.84-0.527-1.14-0.321-0.307-0.757-0.496-1.237-0.496-0.021 0-0.043 0-0.064 0.001l0.003-0zM22.629 13.333c0.836 0 1.496 0.232 1.98 0.696 0.483 0.464 0.724 1.101 0.724 1.909v3.857h-1.081v-0.869h-0.049c-0.468 0.716-1.091 1.073-1.867 1.073-0.664 0-1.219-0.204-1.667-0.613-0.412-0.366-0.67-0.898-0.67-1.489 0-0.015 0-0.031 0.001-0.046l-0 0.002c0-0.647 0.236-1.161 0.707-1.544s1.1-0.573 1.887-0.575c0.671 0 1.224 0.128 1.657 0.383v-0.268c0-0.004 0-0.009 0-0.014 0-0.408-0.18-0.775-0.465-1.024l-0.002-0.001c-0.28-0.266-0.66-0.429-1.078-0.429-0.005 0-0.009 0-0.014 0h0.001c-0.632 0-1.132 0.277-1.499 0.831l-0.996-0.651c0.547-0.817 1.357-1.227 2.431-1.227zM21.167 17.88c-0 0.003-0 0.006-0 0.009 0 0.308 0.147 0.582 0.374 0.756l0.002 0.002c0.249 0.204 0.56 0.312 0.879 0.307 0.476-0.001 0.933-0.2 1.271-0.549 0.346-0.32 0.563-0.777 0.563-1.284 0-0.002 0-0.004 0-0.005v0c-0.353-0.293-0.844-0.439-1.475-0.439-0.46 0-0.843 0.116-1.149 0.347-0.309 0.232-0.464 0.516-0.464 0.857zM5.441 10.667c0.020-0 0.043-0 0.067-0 1.379 0 2.635 0.528 3.577 1.393l-0.004-0.003-1.552 1.523c-0.532-0.496-1.248-0.8-2.035-0.8-0.019 0-0.037 0-0.056 0.001l0.003-0c-1.411 0.009-2.607 0.916-3.048 2.177l-0.007 0.023c-0.108 0.304-0.171 0.656-0.171 1.021s0.063 0.717 0.178 1.043l-0.007-0.022c0.447 1.284 1.644 2.191 3.054 2.2h0.001c0.735 0 1.364-0.184 1.853-0.508 0.572-0.373 0.964-0.96 1.085-1.623h-2.939v-2.053h5.132c0.063 0.359 0.093 0.72 0.093 1.084 0 1.623-0.592 2.996-1.619 3.924-0.901 0.816-2.139 1.288-3.607 1.288-0.007 0-0.014 0-0.022 0-2.093 0-3.91-1.179-4.825-2.909l-0.014-0.030c-0.365-0.696-0.579-1.52-0.579-2.395s0.214-1.699 0.593-2.424l-0.014 0.029c0.929-1.76 2.746-2.939 4.839-2.939 0.008 0 0.016 0 0.024 0h-0.001z"></path>
</symbol>
<symbol id="icon-instagram" viewBox="0 0 32 32">
<path d="M16 0c-4.347 0-4.889 0.020-6.596 0.096-1.704 0.080-2.864 0.348-3.884 0.744-1.052 0.408-1.945 0.956-2.835 1.845s-1.439 1.781-1.845 2.835c-0.396 1.020-0.665 2.18-0.744 3.884-0.080 1.707-0.096 2.249-0.096 6.596s0.020 4.889 0.096 6.596c0.080 1.703 0.348 2.864 0.744 3.884 0.408 1.051 0.956 1.945 1.845 2.835 0.889 0.888 1.781 1.439 2.835 1.845 1.021 0.395 2.181 0.665 3.884 0.744 1.707 0.080 2.249 0.096 6.596 0.096s4.889-0.020 6.596-0.096c1.703-0.080 2.864-0.349 3.884-0.744 1.051-0.408 1.945-0.957 2.835-1.845 0.888-0.889 1.439-1.78 1.845-2.835 0.395-1.020 0.665-2.181 0.744-3.884 0.080-1.707 0.096-2.249 0.096-6.596s-0.020-4.889-0.096-6.596c-0.080-1.703-0.349-2.865-0.744-3.884-0.408-1.052-0.957-1.945-1.845-2.835-0.889-0.889-1.78-1.439-2.835-1.845-1.020-0.396-2.181-0.665-3.884-0.744-1.707-0.080-2.249-0.096-6.596-0.096zM16 2.88c4.271 0 4.78 0.021 6.467 0.095 1.56 0.073 2.407 0.332 2.969 0.553 0.749 0.289 1.28 0.636 1.843 1.195 0.559 0.56 0.905 1.092 1.195 1.841 0.219 0.563 0.48 1.409 0.551 2.969 0.076 1.688 0.093 2.195 0.093 6.467s-0.020 4.78-0.099 6.467c-0.081 1.56-0.341 2.407-0.561 2.969-0.299 0.749-0.639 1.28-1.199 1.843-0.559 0.559-1.099 0.905-1.84 1.195-0.56 0.219-1.42 0.48-2.98 0.551-1.699 0.076-2.199 0.093-6.479 0.093-4.281 0-4.781-0.020-6.479-0.099-1.561-0.081-2.421-0.341-2.981-0.561-0.759-0.299-1.28-0.639-1.839-1.199-0.561-0.559-0.92-1.099-1.2-1.84-0.22-0.56-0.479-1.42-0.56-2.98-0.060-1.68-0.081-2.199-0.081-6.459 0-4.261 0.021-4.781 0.081-6.481 0.081-1.56 0.34-2.419 0.56-2.979 0.28-0.76 0.639-1.28 1.2-1.841 0.559-0.559 1.080-0.919 1.839-1.197 0.56-0.221 1.401-0.481 2.961-0.561 1.7-0.060 2.2-0.080 6.479-0.080zM16 7.784c-4.54 0-8.216 3.68-8.216 8.216 0 4.54 3.68 8.216 8.216 8.216 4.54 0 8.216-3.68 8.216-8.216 0-4.54-3.68-8.216-8.216-8.216zM16 21.333c-2.947 0-5.333-2.387-5.333-5.333s2.387-5.333 5.333-5.333 5.333 2.387 5.333 5.333-2.387 5.333-5.333 5.333zM26.461 7.46c0 1.060-0.861 1.92-1.92 1.92-1.060 0-1.92-0.861-1.92-1.92s0.861-1.919 1.92-1.919c1.057-0.001 1.92 0.86 1.92 1.919z"></path>
</symbol>
<symbol id="icon-linkedin" viewBox="0 0 32 32">
<path d="M27.263 27.269h-4.739v-7.425c0-1.771-0.036-4.049-2.469-4.049-2.471 0-2.848 1.927-2.848 3.919v7.556h-4.739v-15.269h4.552v2.081h0.061c0.636-1.2 2.183-2.467 4.493-2.467 4.801 0 5.689 3.16 5.689 7.273zM7.116 9.911c-1.525 0-2.751-1.235-2.751-2.753 0-1.517 1.227-2.751 2.751-2.751 1.52 0 2.752 1.233 2.752 2.751 0 1.519-1.233 2.753-2.752 2.753zM9.492 27.269h-4.752v-15.269h4.752zM29.633 0h-27.272c-1.305 0-2.361 1.032-2.361 2.305v27.389c0 1.275 1.056 2.305 2.361 2.305h27.268c1.304 0 2.371-1.031 2.371-2.305v-27.389c0-1.273-1.067-2.305-2.371-2.305z"></path>
</symbol>
<symbol id="icon-mastercard" viewBox="0 0 32 32">
<path d="M15.124 24.041c0.077 0.065 0.16 0.131 0.241 0.195-1.569 1.044-3.453 1.651-5.476 1.651-5.463 0.001-9.889-4.425-9.889-9.887 0-5.46 4.427-9.888 9.888-9.888 2.024 0 3.908 0.608 5.473 1.651-0.080 0.068-0.16 0.131-0.22 0.2-2.341 2.023-3.681 4.955-3.681 8.037 0 3.081 1.335 6.013 3.664 8.041zM22.112 6.112c-2.027 0-3.908 0.608-5.473 1.651 0.080 0.068 0.16 0.131 0.22 0.2 2.341 2.023 3.681 4.955 3.681 8.037 0 3.080-1.335 6.009-3.664 8.041-0.077 0.065-0.16 0.131-0.241 0.195 1.569 1.044 3.451 1.651 5.476 1.651 5.463 0.001 9.889-4.425 9.889-9.887 0-5.459-4.427-9.888-9.888-9.888zM16 8.232c-0.128 0.1-0.252 0.2-0.373 0.308-2.085 1.812-3.401 4.48-3.401 7.46 0 2.981 1.316 5.648 3.401 7.46 0.12 0.107 0.247 0.211 0.373 0.309 0.128-0.099 0.252-0.203 0.373-0.309 2.084-1.812 3.401-4.479 3.401-7.46 0-2.98-1.316-5.648-3.401-7.46-0.12-0.107-0.245-0.208-0.373-0.308z"></path>
</symbol>
<symbol id="icon-paypal" viewBox="0 0 32 32">
<path d="M9.211 32h-4.139c-0.885 0-1.448-0.705-1.248-1.573l0.199-0.899h2.761c0.888 0 1.781-0.711 1.976-1.576l1.419-6.123c0.2-0.864 1.088-1.573 1.973-1.573h1.177c5.052 0 8.979-1.039 11.787-3.12s4.213-4.8 4.213-8.18c0-1.5-0.26-2.74-0.784-3.719 0-0.021-0.021-0.041-0.021-0.061l0.18 0.1c1 0.62 1.76 1.419 2.281 2.419 0.539 1 0.797 2.24 0.797 3.721 0 3.38-1.399 6.099-4.219 8.18-2.8 2.060-6.74 3.099-11.779 3.099h-1.2c-0.88 0-1.779 0.7-1.979 1.581l-1.42 6.14c-0.199 0.86-1.080 1.56-1.96 1.56zM5.641 28.407h-4.14c-0.884 0-1.445-0.705-1.248-1.573l5.831-25.257c0.201-0.871 1.087-1.576 1.975-1.576h8.62c1.86 0 3.479 0.131 4.864 0.385 1.38 0.252 2.56 0.692 3.579 1.32 0.981 0.62 1.763 1.429 2.263 2.424 0.519 0.997 0.779 2.24 0.779 3.729 0 3.38-1.401 6.099-4.219 8.159-2.8 2.081-6.741 3.101-11.781 3.101h-1.177c-0.88 0-1.771 0.699-1.971 1.559l-1.415 6.119c-0.199 0.861-1.089 1.563-1.98 1.563zM15.569 5.248h-1.352c-0.888 0-1.776 0.705-1.973 1.571l-1.24 5.36c-0.2 0.864 0.36 1.572 1.24 1.572h1.021c2.219 0 3.96-0.457 5.2-1.361 1.239-0.915 1.86-2.205 1.86-3.883 0-1.107-0.401-1.927-1.2-2.453-0.8-0.539-2-0.807-3.581-0.807z"></path>
</symbol>
<symbol id="icon-pinterest" viewBox="0 0 32 32">
<path d="M16.023 0c-8.828 0-15.984 7.156-15.984 15.983 0 6.772 4.211 12.556 10.157 14.883-0.14-1.265-0.265-3.204 0.055-4.585 0.292-1.249 1.875-7.943 1.875-7.943s-0.479-0.96-0.479-2.375c0-2.217 1.289-3.881 2.891-3.881 1.365 0 2.024 1.025 2.024 2.251 0 1.372-0.871 3.423-1.323 5.323-0.38 1.591 0.8 2.887 2.367 2.887 2.837 0 5.024-2.993 5.024-7.316 0-3.815-2.751-6.492-6.677-6.492-4.547 0-7.212 3.416-7.212 6.932 0 1.377 0.525 2.857 1.185 3.655 0.132 0.16 0.149 0.3 0.113 0.46-0.12 0.5-0.391 1.599-0.445 1.817-0.071 0.3-0.229 0.361-0.535 0.22-1.993-0.92-3.244-3.837-3.244-6.195 0-5.035 3.664-9.669 10.56-9.669 5.544 0 9.856 3.956 9.856 9.231 0 5.513-3.476 9.949-8.311 9.949-1.619 0-3.139-0.839-3.677-1.839l-0.999 3.797c-0.359 1.393-1.339 3.136-1.997 4.195 1.497 0.46 3.075 0.713 4.733 0.713 8.809 0 15.98-7.153 15.98-15.983 0-8.831-7.171-15.983-15.98-15.983z"></path>
</symbol>
<symbol id="icon-samsungpay" viewBox="0 0 32 32">
<path d="M31.971 14.269c-0.177-5.104-1.519-9.212-4.544-11.456s-7.573-3.023-13.288-2.751c-2.595 0.125-4.936 0.463-6.836 1.223-1.96 0.787-3.475 1.895-4.583 3.437-2.228 3.1-2.917 7.78-2.673 13.173 0.232 5.12 1.559 9.171 4.62 11.38 3.045 2.196 7.995 2.893 13.212 2.673 5.064-0.213 9.177-1.556 11.38-4.621 2.199-3.060 2.9-7.577 2.712-13.059zM8.803 19.693h-0.66v-1.417h0.66c1.261 0 2.181-0.976 2.181-2.181 0-1.204-0.976-2.181-2.181-2.181h-2.132c-0.078 0-0.143 0.052-0.165 0.123l-0 0.001v7.736h-1.373v-7.736c0-0.851 0.689-1.54 1.54-1.54h2.132c1.987 0 3.633 1.611 3.633 3.597s-1.537 3.599-3.635 3.599zM20.405 19.695h-1.392v-3.707c-0.028-1.045-1.137-2.087-2.319-2.087-1.328 0-2.305 1.133-2.305 2.195 0 1.501 1.059 2.188 2.305 2.188h0.491v1.411h-0.491c-2.051-0.001-3.713-1.313-3.713-3.599 0-1.864 1.663-3.599 3.713-3.599 1.852 0 3.652 1.553 3.711 3.491zM22.171 12.733l1.815 3.717-0.789 1.604-2.599-5.32zM23.852 22.028h-1.575l4.568-9.295h1.575z"></path>
</symbol>
<symbol id="icon-telegram" viewBox="0 0 32 32">
<path d="M31.88 5.053l-4.813 22.733c-0.333 1.613-1.307 2-2.667 1.253l-7.333-5.427-3.547 3.427c-0.4 0.4-0.733 0.747-1.467 0.747-0.96 0-0.8-0.36-1.12-1.267l-2.533-8.253-7.267-2.267c-1.573-0.467-1.587-1.547 0.347-2.333l28.347-10.933c1.293-0.573 2.533 0.32 2.053 2.32z"></path>
</symbol>
<symbol id="icon-twitter" viewBox="0 0 32 32">
<path d="M31.939 6.092c-1.18 0.519-2.44 0.872-3.767 1.033 1.352-0.815 2.392-2.099 2.884-3.631-1.268 0.74-2.673 1.279-4.169 1.579-1.195-1.279-2.897-2.079-4.788-2.079-3.623 0-6.56 2.937-6.56 6.556 0 0.52 0.060 1.020 0.169 1.499-5.453-0.257-10.287-2.876-13.521-6.835-0.569 0.963-0.888 2.081-0.888 3.3 0 2.28 1.16 4.284 2.917 5.461-1.076-0.035-2.088-0.331-2.971-0.821v0.081c0 3.18 2.257 5.832 5.261 6.436-0.551 0.148-1.132 0.228-1.728 0.228-0.419 0-0.82-0.040-1.221-0.115 0.841 2.604 3.26 4.503 6.139 4.556-2.24 1.759-5.079 2.807-8.136 2.807-0.52 0-1.039-0.031-1.56-0.089 2.919 1.859 6.357 2.945 10.076 2.945 12.072 0 18.665-9.995 18.665-18.648 0-0.279 0-0.56-0.020-0.84 1.281-0.919 2.4-2.080 3.28-3.397z"></path>
</symbol>
<symbol id="icon-visa" viewBox="0 0 32 32">
<path d="M23.26 11.497c-0.516-0.195-1.32-0.401-2.32-0.401-2.56 0-4.367 1.291-4.38 3.14-0.016 1.36 1.285 2.125 2.268 2.581 1.009 0.467 1.347 0.76 1.344 1.18-0.007 0.636-0.807 0.924-1.549 0.924-1.021 0-1.581-0.143-2.441-0.5l-0.319-0.148-0.361 2.131c0.621 0.26 1.741 0.483 2.9 0.5 2.721 0 4.5-1.281 4.521-3.252 0.021-1.084-0.68-1.907-2.161-2.584-0.899-0.44-1.459-0.735-1.459-1.181 0-0.395 0.479-0.816 1.479-0.816 0.86-0.013 1.461 0.172 1.94 0.364l0.24 0.108 0.361-2.059zM29.904 11.271h-2c-0.623 0-1.088 0.169-1.361 0.788l-3.847 8.712h2.721l0.544-1.427 3.32 0.003c0.081 0.333 0.32 1.424 0.32 1.424h2.399zM12.88 11.191h2.591l-1.62 9.505h-2.592l1.621-9.508zM6.295 16.429l0.269 1.32 2.535-6.479h2.745l-4.081 9.487h-2.739l-2.24-8.035c-0.047-0.137-0.104-0.231-0.24-0.316-0.757-0.396-1.604-0.719-2.544-0.943l0.033-0.2h4.175c0.565 0.021 1.021 0.2 1.177 0.805l0.909 4.364zM26.705 17.399l1.033-2.659c-0.013 0.027 0.213-0.549 0.344-0.907l0.177 0.82 0.599 2.743h-2.153z"></path>
</symbol>
<symbol id="icon-whatsapp" viewBox="0 0 32 32">
<path d="M23.331 19.176c-0.401-0.2-2.356-1.156-2.72-1.288-0.364-0.135-0.631-0.2-0.897 0.2-0.263 0.393-1.028 1.285-1.259 1.549-0.233 0.26-0.465 0.28-0.861 0.1-0.4-0.2-1.684-0.62-3.204-1.98-1.184-1.060-1.979-2.36-2.213-2.76-0.232-0.4-0.025-0.62 0.173-0.82 0.181-0.18 0.401-0.46 0.601-0.697 0.195-0.241 0.259-0.401 0.396-0.661 0.133-0.28 0.065-0.5-0.033-0.699-0.1-0.2-0.896-2.16-1.229-2.941-0.32-0.779-0.649-0.68-0.896-0.68-0.229-0.020-0.495-0.020-0.761-0.020s-0.697 0.099-1.063 0.479c-0.364 0.4-1.393 1.36-1.393 3.3s1.427 3.82 1.625 4.1c0.199 0.26 2.807 4.26 6.8 5.98 0.952 0.4 1.693 0.64 2.272 0.839 0.952 0.303 1.82 0.26 2.507 0.161 0.765-0.121 2.356-0.961 2.688-1.901 0.34-0.94 0.34-1.72 0.24-1.9-0.099-0.18-0.36-0.28-0.76-0.46zM16.081 29h-0.021c-2.36 0-4.699-0.64-6.74-1.84l-0.48-0.285-5 1.3 1.34-4.86-0.319-0.5c-1.32-2.101-2.021-4.521-2.021-7.013 0-7.26 5.94-13.18 13.256-13.18 3.539 0 6.86 1.38 9.361 3.88 2.5 2.479 3.879 5.8 3.879 9.32-0.005 7.259-5.947 13.18-13.247 13.18zM27.36 4.599c-3.040-2.939-7.040-4.599-11.3-4.599-8.776 0-15.921 7.112-15.925 15.857 0 2.795 0.732 5.52 2.127 7.927l-2.261 8.216 8.447-2.203c2.328 1.257 4.947 1.925 7.613 1.929h0.008c8.78 0 15.928-7.115 15.932-15.861 0-4.235-1.653-8.22-4.66-11.215z"></path>
</symbol>
<symbol id="icon-youtube" viewBox="0 0 32 32">
<path d="M31.327 8.273c-0.386-1.353-1.431-2.398-2.756-2.777l-0.028-0.007c-2.493-0.668-12.528-0.668-12.528-0.668s-10.009-0.013-12.528 0.668c-1.353 0.386-2.398 1.431-2.777 2.756l-0.007 0.028c-0.443 2.281-0.696 4.903-0.696 7.585 0 0.054 0 0.109 0 0.163l-0-0.008c-0 0.037-0 0.082-0 0.126 0 2.682 0.253 5.304 0.737 7.845l-0.041-0.26c0.386 1.353 1.431 2.398 2.756 2.777l0.028 0.007c2.491 0.669 12.528 0.669 12.528 0.669s10.008 0 12.528-0.669c1.353-0.386 2.398-1.431 2.777-2.756l0.007-0.028c0.425-2.233 0.668-4.803 0.668-7.429 0-0.099-0-0.198-0.001-0.297l0 0.015c0.001-0.092 0.001-0.201 0.001-0.31 0-2.626-0.243-5.196-0.708-7.687l0.040 0.258zM12.812 20.801v-9.591l8.352 4.803z"></path>
</symbol>
</defs>
</svg>
