<!-- Generated by IcoMoon.io -->
<svg version="1.1" xmlns="http://www.w3.org/2000/svg" width="32" height="32" viewBox="0 0 32 32">
<title>amex</title>
<path d="M4.617 16.432h2.032l-1.019-2.482z"></path>
<path d="M20.552 14.181v1.132h3.267v1.27h-3.267v1.239h3.659l1.7-1.824-1.628-1.815z"></path>
<path d="M32 11.654h-3.871l-1.229 1.33-1.149-1.33-11.175 0.004-0.97 2.242-0.995-2.242h-4.55v1.026l-0.5-1.026h-3.881l-3.68 8.683h4.421l0.573-1.383h1.284l0.572 1.383h5v-1.057l0.447 1.061h2.597l0.447-1.078v1.073h10.257l1.266-1.351 1.192 1.351h3.943v-1.517l-2.482-2.811 2.482-2.659zM16.418 19.119l-0.005-4.876-2.158 4.876h-1.307l-2.162-4.88v4.88h-3.026l-0.572-1.388h-3.099l-0.578 1.388h-1.616l2.665-6.225h2.211l2.531 5.894v-5.895h2.429l1.947 4.223 1.789-4.223h2.478v6.225zM27.828 16.018l2.74 3.103h-1.865l-1.832-2.061-1.904 2.061h-5.894v-6.228h5.985l1.831 2.041 1.892-2.041h1.965z"></path>
</svg>
