<!-- Generated by IcoMoon.io -->
<svg version="1.1" xmlns="http://www.w3.org/2000/svg" width="32" height="32" viewBox="0 0 32 32">
<title>arrow-up</title>
<path d="M4.8 10.795l10.5-10.5c0.133-0.133 0.303-0.228 0.493-0.27l0.007-0.001s0 0 0.007 0l0.039-0.006c0.002-0 0.004-0.001 0.005-0.001s0.004 0 0.006 0.001l-0-0c0.005-0 0.011-0.001 0.017-0.001s0.012 0 0.018 0.001l-0.001-0c0.002-0 0.005-0.001 0.008-0.001s0.006 0 0.008 0.001l-0-0c0.013 0 0.024 0 0.036 0h0.014c0.015-0.001 0.032-0.002 0.050-0.002s0.035 0.001 0.052 0.002l-0.002-0c0.004-0 0.009-0.001 0.015-0.001s0.010 0 0.015 0.001l-0.001-0h0.014l0.040 0.006h0.008c0.239 0.034 0.447 0.149 0.599 0.315l0.001 0.001 10.458 10.455c0.158 0.176 0.254 0.41 0.254 0.666 0 0.552-0.448 1-1 1-0.256 0-0.49-0.097-0.667-0.255l0.001 0.001-8.794-8.789v27.582c0 0.552-0.448 1-1 1s-1-0.448-1-1v0-27.59l-8.8 8.8c-0.18 0.177-0.427 0.286-0.7 0.286-0.551 0-0.998-0.445-1-0.996v-0c0.003-0.276 0.117-0.525 0.3-0.705l0-0z"></path>
</svg>
