<!-- Generated by IcoMoon.io -->
<svg version="1.1" xmlns="http://www.w3.org/2000/svg" width="32" height="32" viewBox="0 0 32 32">
<title>arrow-right</title>
<path d="M21.213 4.82l10.5 10.5c0.133 0.133 0.228 0.303 0.27 0.493l0.001 0.007s0 0 0 0.007l0.006 0.039c0 0.002 0.001 0.004 0.001 0.005s-0 0.004-0.001 0.006l0-0c0 0.005 0.001 0.011 0.001 0.017s-0 0.012-0.001 0.018l0-0.001c0 0.002 0.001 0.005 0.001 0.008s-0 0.006-0.001 0.008l0-0c0 0.013 0 0.024 0 0.036v0.014c0.001 0.015 0.002 0.032 0.002 0.050s-0.001 0.035-0.002 0.052l0-0.002c0 0.004 0.001 0.009 0.001 0.015s-0 0.010-0.001 0.015l0-0.001v0.014l-0.006 0.040v0.008c-0.034 0.239-0.149 0.447-0.315 0.599l-0.001 0.001-10.455 10.458c-0.176 0.158-0.41 0.254-0.666 0.254-0.552 0-1-0.448-1-1 0-0.256 0.097-0.49 0.255-0.667l-0.001 0.001 8.789-8.794h-27.582c-0.552 0-1-0.448-1-1s0.448-1 1-1v0h27.59l-8.8-8.8c-0.177-0.18-0.286-0.427-0.286-0.7 0-0.551 0.445-0.998 0.996-1h0c0.276 0.003 0.525 0.117 0.705 0.3l0 0z"></path>
</svg>
