<!-- Generated by IcoMoon.io -->
<svg version="1.1" xmlns="http://www.w3.org/2000/svg" width="32" height="32" viewBox="0 0 32 32">
<title>arrow-circle-right</title>
<path d="M16.003 32.002c-0.003 0-0.006 0-0.009 0-8.837 0-16-7.163-16-16 0-6.591 3.986-12.252 9.678-14.703l0.104-0.040c1.838-0.797 3.978-1.261 6.227-1.261 8.839 0 16.004 7.165 16.004 16.004 0 6.59-3.983 12.249-9.673 14.703l-0.104 0.040c-1.829 0.795-3.959 1.258-6.197 1.258-0.010 0-0.021 0-0.031-0h0.002zM14.91 11.47v0l-1.193 1.193 3.16 3.161-3.16 3.101 1.193 1.193 4.293-4.296-1.133-1.194-3.16-3.158z"></path>
</svg>
