<!-- Generated by IcoMoon.io -->
<svg version="1.1" xmlns="http://www.w3.org/2000/svg" width="32" height="32" viewBox="0 0 32 32">
<title>arrow-left</title>
<path d="M10.787 4.816l-10.5 10.5c-0.133 0.133-0.228 0.303-0.27 0.493l-0.001 0.007s0 0 0 0.007l-0.006 0.039c-0 0.002-0.001 0.004-0.001 0.005s0 0.004 0.001 0.006l-0-0c-0 0.005-0.001 0.011-0.001 0.017s0 0.012 0.001 0.018l-0-0.001c-0 0.002-0.001 0.005-0.001 0.008s0 0.006 0.001 0.008l-0-0c0 0.013 0 0.024 0 0.036v0.014c-0.001 0.015-0.002 0.032-0.002 0.050s0.001 0.035 0.002 0.052l-0-0.002c-0 0.004-0.001 0.009-0.001 0.015s0 0.010 0.001 0.015l-0-0.001v0.021l0.006 0.040v0.008c0.034 0.239 0.149 0.447 0.315 0.599l0.001 0.001 10.455 10.452c0.176 0.158 0.41 0.254 0.666 0.254 0.552 0 1-0.448 1-1 0-0.256-0.097-0.49-0.255-0.667l0.001 0.001-8.789-8.788h27.582c0.552 0 1-0.448 1-1s-0.448-1-1-1v0h-27.59l8.8-8.8c0.177-0.18 0.286-0.427 0.286-0.7 0-0.551-0.445-0.998-0.996-1h-0c-0.275 0.001-0.525 0.112-0.705 0.293v0z"></path>
</svg>
