<!-- Generated by IcoMoon.io -->
<svg version="1.1" xmlns="http://www.w3.org/2000/svg" width="32" height="32" viewBox="0 0 32 32">
<title>arrow-circle-top</title>
<path d="M32.002 15.997c0 0.003 0 0.006 0 0.009 0 8.837-7.163 16-16 16-6.591 0-12.252-3.986-14.703-9.678l-0.040-0.104c-0.797-1.838-1.261-3.978-1.261-6.227 0-8.839 7.165-16.004 16.004-16.004 6.59 0 12.249 3.983 14.703 9.673l0.040 0.104c0.795 1.829 1.258 3.959 1.258 6.197 0 0.010 0 0.021-0 0.031v-0.002zM11.47 17.090v0l1.193 1.193 3.161-3.16 3.101 3.16 1.193-1.193-4.296-4.293-1.194 1.133-3.158 3.16z"></path>
</svg>
