<!-- Generated by IcoMoon.io -->
<svg version="1.1" xmlns="http://www.w3.org/2000/svg" width="32" height="32" viewBox="0 0 32 32">
<title>back</title>
<path d="M7.006 27.706l-6.7-6.7c-0.189-0.182-0.306-0.437-0.306-0.72 0-0.308 0.14-0.584 0.359-0.768l0.002-0.001 6.645-6.644c0.178-0.168 0.419-0.271 0.685-0.271 0.552 0 1 0.448 1 1 0 0.265-0.103 0.506-0.271 0.685l0.001-0.001-5 5h19.2c0.111 0.006 0.241 0.009 0.371 0.009 2.020 0 3.857-0.788 5.218-2.073l-0.004 0.003c1.11-1.144 1.794-2.706 1.794-4.428 0-0.027-0-0.054-0-0.080l0 0.004c0-4.552-3.721-6.664-7.236-6.722-0.043 0.007-0.094 0.011-0.145 0.011h-21.619c-0.552 0-1-0.448-1-1s0.448-1 1-1v0h21.51c0.031-0.005 0.069-0.009 0.107-0.011l0.002-0c6.16 0 9.381 4.392 9.381 8.722 0 0.021 0 0.046 0 0.071 0 2.271-0.905 4.331-2.375 5.838l0.002-0.002c-1.714 1.649-4.048 2.665-6.619 2.665-0.138 0-0.276-0.003-0.413-0.009l0.020 0.001h-19.201l5.006 5c0.185 0.182 0.3 0.434 0.3 0.714 0 0.552-0.448 1-1 1-0.002 0-0.005 0-0.007-0h0c-0.001 0-0.001 0-0.002 0-0.276 0-0.525-0.112-0.705-0.294l-0-0z"></path>
</svg>
