<!-- Generated by IcoMoon.io -->
<svg version="1.1" xmlns="http://www.w3.org/2000/svg" width="32" height="32" viewBox="0 0 32 32">
<title>book</title>
<path d="M1 1.5h9c3.864 0.005 6.995 3.136 7 7v21c0 0.552-0.448 1-1 1s-1-0.448-1-1v0c0-1.933-1.567-3.5-3.5-3.5v0h-10.5c-0.552 0-1-0.448-1-1v0-22.5c0-0.552 0.448-1 1-1v0zM15 25.26v-16.76c-0.003-2.76-2.24-4.997-5-5h-8v20.5h9.5c0.002 0 0.004 0 0.006 0 1.332 0 2.554 0.476 3.503 1.267l-0.009-0.007z"></path>
<path d="M22 1.5h9c0.552 0 1 0.448 1 1v0 22.5c0 0.552-0.448 1-1 1v0h-10.5c-1.933 0-3.5 1.567-3.5 3.5v0c0 0.552-0.448 1-1 1s-1-0.448-1-1v0-21c0.005-3.864 3.136-6.995 7-7h0zM30 3.5h-8c-2.76 0.003-4.997 2.24-5 5v16.76c0.941-0.784 2.162-1.26 3.494-1.26 0.002 0 0.004 0 0.006 0h9.5z"></path>
</svg>
