<!-- Generated by IcoMoon.io -->
<svg version="1.1" xmlns="http://www.w3.org/2000/svg" width="32" height="32" viewBox="0 0 32 32">
<title>bottle</title>
<path d="M26.083-0.003c0.001 0 0.003 0 0.005 0 0.534 0 1.017 0.217 1.365 0.568l3.978 3.978c0.35 0.351 0.566 0.835 0.566 1.37s-0.216 1.019-0.566 1.37l-1.325 1.326c-0.349 0.351-0.832 0.568-1.365 0.568-0.002 0-0.003 0-0.005 0h0c-0.001 0-0.002 0-0.003 0-0.165 0-0.325-0.020-0.478-0.059l0.013 0.003-3.528 3.526c0.275 0.8 0.434 1.722 0.434 2.681 0 2.343-0.948 4.464-2.482 6.001l-9.282 9.282c-0.855 0.859-2.038 1.391-3.346 1.391-0.005 0-0.009 0-0.014-0h0.001c-0.004 0-0.008 0-0.013 0-1.308 0-2.491-0.532-3.346-1.391l-5.3-5.3c-0.859-0.86-1.389-2.048-1.389-3.36s0.531-2.499 1.39-3.36l-0 0 9.274-9.286c1.539-1.534 3.662-2.483 6.006-2.483 0.957 0 1.877 0.158 2.736 0.449l-0.060-0.018 3.527-3.527c-0.036-0.139-0.056-0.299-0.056-0.464 0-0.001 0-0.002 0-0.003v0c0-0.001 0-0.003 0-0.005 0-0.534 0.217-1.017 0.568-1.365l1.325-1.326c0.349-0.351 0.832-0.568 1.365-0.568 0.002 0 0.003 0 0.005 0h-0zM29.973 5.913l-3.89-3.89-1.238 1.238 0.663 0.663-5.677 5.673-0.62-0.262c-0.749-0.326-1.621-0.515-2.538-0.515-1.793 0-3.416 0.725-4.592 1.898l-9.282 9.285c-0.497 0.498-0.804 1.186-0.804 1.945s0.307 1.447 0.804 1.945l5.3 5.3c0.498 0.498 1.185 0.805 1.945 0.805s1.447-0.308 1.945-0.805l9.282-9.282c1.176-1.172 1.903-2.794 1.903-4.585 0-0.92-0.192-1.795-0.538-2.587l0.016 0.042-0.262-0.62 5.677-5.677 0.663 0.663z"></path>
</svg>
