<!-- Generated by IcoMoon.io -->
<svg version="1.1" xmlns="http://www.w3.org/2000/svg" width="32" height="32" viewBox="0 0 32 32">
<title>calendar</title>
<path d="M7.998 32c-4.418 0-8-3.582-8-8v0-9c-0.552 0-1-0.448-1-1s0.448-1 1-1v0-1c0-4.418 3.582-8 8-8v0h1v-3c0-0.552 0.448-1 1-1s1 0.448 1 1v0 3h10v-3c0-0.552 0.448-1 1-1s1 0.448 1 1v0 3h1c4.418 0 8 3.582 8 8v0 1c0.552 0 1 0.448 1 1s-0.448 1-1 1v0 9c0 4.418-3.582 8-8 8v0zM1.998 24c0.007 3.311 2.689 5.993 5.999 6h16.001c3.311-0.007 5.993-2.689 6-5.999v-9.001h-28zM29.998 13v-1c-0.004-3.312-2.688-5.996-6-6h-1v3c0 0.552-0.448 1-1 1s-1-0.448-1-1v0-3h-10v3c0 0.552-0.448 1-1 1s-1-0.448-1-1v0-3h-1c-3.312 0.004-5.996 2.688-6 6v1z"></path>
</svg>
