<!-- Generated by IcoMoon.io -->
<svg version="1.1" xmlns="http://www.w3.org/2000/svg" width="32" height="32" viewBox="0 0 32 32">
<title>cart</title>
<path d="M24.866 22.666h-14.88c-1.067-0.005-1.945-0.802-2.079-1.833l-0.001-0.011-2.39-19.018h-4.509c-0.442 0-0.8-0.358-0.8-0.8s0.358-0.8 0.8-0.8v0h5.214c0.002 0 0.004-0 0.006-0 0.407 0 0.743 0.304 0.793 0.697l0 0.004 0.722 5.818h23.251c0 0 0 0 0 0 0.442 0 0.8 0.358 0.8 0.8 0 0.098-0.018 0.192-0.050 0.279l0.002-0.006-4.904 13.483c-0.303 0.814-1.073 1.384-1.976 1.386h-0zM7.942 8.324l1.544 12.301c0.032 0.25 0.243 0.441 0.499 0.442h14.88c0.002 0 0.005 0 0.008 0 0.215 0 0.399-0.136 0.471-0.326l0.001-0.003 4.514-12.411z"></path>
<path d="M24.475 24.978c1.882 0 3.408 1.526 3.408 3.408s-1.526 3.408-3.408 3.408c-1.882 0-3.408-1.526-3.408-3.408v0c0.002-1.881 1.527-3.406 3.408-3.408h0zM24.475 30.193c0.999 0 1.808-0.809 1.808-1.808s-0.809-1.808-1.808-1.808c-0.999 0-1.808 0.809-1.808 1.808 0 0.001 0 0.001 0 0.002v-0c0.002 0.997 0.81 1.805 1.808 1.806h0z"></path>
<path d="M10.134 24.978c1.882 0 3.408 1.526 3.408 3.408s-1.526 3.408-3.408 3.408c-1.882 0-3.408-1.526-3.408-3.408v0c0.002-1.881 1.527-3.406 3.408-3.408h0zM10.134 30.193c0.999 0 1.808-0.809 1.808-1.808s-0.809-1.808-1.808-1.808c-0.999 0-1.808 0.809-1.808 1.808 0 0.001 0 0.001 0 0.002v-0c0.002 0.997 0.81 1.805 1.808 1.806h0z"></path>
</svg>
