<!-- Generated by IcoMoon.io -->
<svg version="1.1" xmlns="http://www.w3.org/2000/svg" width="32" height="32" viewBox="0 0 32 32">
<title>categories</title>
<path d="M23.999 28c0-2.209 1.791-4 4-4s4 1.791 4 4c0 2.209-1.791 4-4 4v0c-2.209 0-4-1.791-4-4v0zM25.999 28c0 1.105 0.895 2 2 2s2-0.895 2-2c0-1.105-0.895-2-2-2v0c-1.105 0-2 0.895-2 2v0zM11.999 28c0-2.209 1.791-4 4-4s4 1.791 4 4c0 2.209-1.791 4-4 4v0c-2.209 0-4-1.791-4-4v0zM13.999 28c0 1.105 0.895 2 2 2s2-0.895 2-2c0-1.105-0.895-2-2-2v0c-1.105 0-2 0.895-2 2v0zM-0.001 28c0-2.209 1.791-4 4-4s4 1.791 4 4c0 2.209-1.791 4-4 4v0c-2.209 0-4-1.791-4-4v0zM1.999 28c0 1.105 0.895 2 2 2s2-0.895 2-2c0-1.105-0.895-2-2-2v0c-1.105 0-2 0.895-2 2v0zM23.999 16c0-2.209 1.791-4 4-4s4 1.791 4 4c0 2.209-1.791 4-4 4v0c-2.209 0-4-1.791-4-4v0zM25.999 16c0 1.105 0.895 2 2 2s2-0.895 2-2c0-1.105-0.895-2-2-2v0c-1.105 0-2 0.895-2 2v0zM11.999 16c0-2.209 1.791-4 4-4s4 1.791 4 4c0 2.209-1.791 4-4 4v0c-2.209 0-4-1.791-4-4v0zM13.999 16c0 1.105 0.895 2 2 2s2-0.895 2-2c0-1.105-0.895-2-2-2v0c-1.105 0-2 0.895-2 2v0zM-0.001 16c0-2.209 1.791-4 4-4s4 1.791 4 4c0 2.209-1.791 4-4 4v0c-2.209 0-4-1.791-4-4v0zM1.999 16c0 1.105 0.895 2 2 2s2-0.895 2-2c0-1.105-0.895-2-2-2v0c-1.105 0-2 0.895-2 2v0zM23.999 4c0-2.209 1.791-4 4-4s4 1.791 4 4c0 2.209-1.791 4-4 4v0c-2.209 0-4-1.791-4-4v0zM25.999 4c0 1.105 0.895 2 2 2s2-0.895 2-2c0-1.105-0.895-2-2-2v0c-1.105 0-2 0.895-2 2v0zM11.999 4c0-2.209 1.791-4 4-4s4 1.791 4 4c0 2.209-1.791 4-4 4v0c-2.209 0-4-1.791-4-4v0zM13.999 4c0 1.105 0.895 2 2 2s2-0.895 2-2c0-1.105-0.895-2-2-2v0c-1.105 0-2 0.895-2 2v0zM-0.001 4c0-2.209 1.791-4 4-4s4 1.791 4 4c0 2.209-1.791 4-4 4v0c-2.209 0-4-1.791-4-4v0zM1.999 4c0 1.105 0.895 2 2 2s2-0.895 2-2c0-1.105-0.895-2-2-2v0c-1.105 0-2 0.895-2 2v0z"></path>
</svg>
