<!-- Generated by IcoMoon.io -->
<svg version="1.1" xmlns="http://www.w3.org/2000/svg" width="32" height="32" viewBox="0 0 32 32">
<title>checkmark</title>
<path d="M11.5 24.937c-0.001 0-0.002 0-0.004 0-0.273 0-0.521-0.108-0.703-0.283l0 0-7.5-7.247c-0.181-0.172-0.293-0.414-0.293-0.683s0.112-0.511 0.292-0.683l0-0c0.184-0.175 0.433-0.283 0.707-0.283s0.523 0.108 0.707 0.283l-0-0 6.793 6.563 15.793-15.259c0.184-0.175 0.433-0.283 0.707-0.283s0.523 0.108 0.707 0.283l-0-0c0.181 0.172 0.293 0.414 0.293 0.683s-0.112 0.511-0.292 0.683l-0 0-16.5 15.943c-0.182 0.175-0.43 0.283-0.703 0.283-0.001 0-0.003 0-0.004 0h0z"></path>
</svg>
