<!-- Generated by IcoMoon.io -->
<svg version="1.1" xmlns="http://www.w3.org/2000/svg" width="32" height="32" viewBox="0 0 32 32">
<title>chess</title>
<path d="M23.169 32v-1.28h4.824v-0.725c-0.001-0.4-0.325-0.724-0.725-0.725h-2.731v-1.28h1.323v-3.499h-4.736v-1.28h6.144c0 0 0 0 0.001 0 0.023 0 0.042-0.019 0.042-0.042 0-0 0-0 0-0.001v0-1.366c0-0.024-0.019-0.043-0.043-0.043v0h-7.513v-1.28h5.61c0.849-0.636 1.393-1.64 1.393-2.771 0-0.001 0-0.002 0-0.003v0c-0.002-1.908-1.548-3.454-3.456-3.456h-0c-1.272 0.003-2.383 0.69-2.985 1.712l-0.009 0.016-1.108-0.64c0.837-1.423 2.359-2.365 4.101-2.368h0.001c2.614 0.003 4.733 2.122 4.736 4.736v0c0 0.001 0 0.003 0 0.004 0 1.040-0.336 2.002-0.905 2.783l0.009-0.013h0.122c0.73 0.001 1.321 0.592 1.322 1.322v1.366c-0.001 0.73-0.592 1.321-1.322 1.322h-0.128v3.499h0.128c1.107 0.001 2.004 0.898 2.005 2.005v2.006zM2.731 32v-3.372c0.001-1.107 0.899-2.004 2.006-2.005h0.042v-1.408c0.001-1.107 0.899-2.004 2.006-2.005h0.043v-5.922l-2.048-2.048v-6.409c-0-0.025-0-0.056-0-0.086 0-1.362 0.316-2.65 0.88-3.795l-0.022 0.051c0.553-1.103 1.304-2.029 2.214-2.766l0.015-0.012c1.742-1.385 3.973-2.223 6.401-2.223 0.011 0 0.021 0 0.032 0h-0.002c1.98 0 4.687 1.024 5.911 2.232l0.458 0.453-2.048 2.048 3.831 3.83v2.55l-2.688 2.719-2.316-2.316h-1.145v2.509l4.361 4.361-2.312 2.313v2.508h0.043c1.107 0.001 2.004 0.898 2.005 2.005v1.408h0.043c1.107 0.001 2.004 0.898 2.005 2.004v3.372zM4.011 28.628v2.092h17.152v-2.092c-0.001-0.4-0.325-0.724-0.725-0.724h-3.414v-1.28h2.091v-1.408c-0.001-0.4-0.325-0.724-0.725-0.725h-2.731v-1.28h1.408v-3.039l1.783-1.783-3.831-3.831v-3.039h-0.723c-1.657 0-3.371-1.005-3.371-2.688v-0.683h1.28v0.683c0 0.869 1.088 1.408 2.091 1.408h3.678l1.78 1.78 1.411-1.428v-1.494l-4.591-4.591 0.905-0.905 0.23 0.23 1.097-1.097c-1.276-0.841-2.824-1.372-4.489-1.453l-0.021-0.001c-0.010-0-0.023-0-0.035-0-2.117 0-4.065 0.729-5.604 1.95l0.019-0.014c-1.601 1.293-2.616 3.256-2.616 5.456 0 0.056 0.001 0.112 0.002 0.168l-0-0.008v5.879l2.048 2.048v6.452h1.408v1.28h-2.733c-0.4 0-0.725 0.325-0.726 0.725v1.408h4.822v1.28h-6.144c-0.401 0.001-0.725 0.326-0.725 0.726 0 0 0 0 0 0v0zM6.827 10.196v-1.365c-0-0.007-0-0.016-0-0.025 0-1.866 0.758-3.555 1.984-4.775l0-0c1.221-1.226 2.91-1.984 4.776-1.984 0.009 0 0.017 0 0.026 0h-0.001v1.28c-3.038 0.004-5.5 2.466-5.504 5.504v1.366z"></path>
</svg>
