<!-- Generated by IcoMoon.io -->
<svg version="1.1" xmlns="http://www.w3.org/2000/svg" width="32" height="32" viewBox="0 0 32 32">
<title>comic</title>
<path d="M0.001 23.271v-22.545c0 0 0 0 0 0 0-0.401 0.325-0.726 0.726-0.726 0.001 0 0.001 0 0.002 0h30.543c0 0 0 0 0 0 0.401 0 0.727 0.325 0.727 0.726v22.545c0 0.402-0.326 0.728-0.728 0.728v0h-13.195l-9.952 7.82c-0.127 0.112-0.296 0.181-0.48 0.181-0.401 0-0.727-0.325-0.727-0.727 0-0 0-0 0-0.001v0-7.273h-6.189c-0 0-0.001 0-0.001 0-0.401 0-0.727-0.325-0.727-0.727 0-0 0-0.001 0-0.001v0zM17.1 21.090h11.991v-18.181h-26.182v18.18h6.189c0.402 0 0.728 0.326 0.728 0.728v0 5.011l6.794-5.559c0.127-0.111 0.294-0.179 0.476-0.179 0.001 0 0.002 0 0.003 0h-0z"></path>
</svg>
