<!-- Generated by IcoMoon.io -->
<svg version="1.1" xmlns="http://www.w3.org/2000/svg" width="32" height="32" viewBox="0 0 32 32">
<title>continuity</title>
<path d="M0.921 19.575c-0.31-0-0.569-0.221-0.627-0.514l-0.001-0.004c-0.187-0.919-0.293-1.976-0.293-3.058 0-2.172 0.43-4.243 1.21-6.133l-0.039 0.107c0.437-1.069 0.928-1.985 1.499-2.842l-0.036 0.058c2.915-4.357 7.816-7.188 13.379-7.188 2.167 0 4.233 0.429 6.119 1.208l-0.107-0.039c0.743 0.304 1.362 0.612 1.956 0.96l-0.072-0.039c0.445 0.256 0.885 0.539 1.316 0.845l1.12-1.12c0.116-0.116 0.276-0.187 0.453-0.187 0.294 0 0.543 0.199 0.617 0.47l0.001 0.004 1.86 6.942c0.014 0.050 0.022 0.107 0.022 0.166 0 0.353-0.287 0.64-0.64 0.64-0.059 0-0.116-0.008-0.17-0.023l0.004 0.001-6.942-1.861c-0.275-0.076-0.474-0.324-0.474-0.618 0-0.177 0.072-0.337 0.187-0.453l0.708-0.708q-0.239-0.147-0.478-0.28c-0.316-0.181-0.699-0.367-1.093-0.531l-0.071-0.026c-1.278-0.533-2.762-0.842-4.319-0.842-6.35 0-11.497 5.147-11.497 11.497 0 0.774 0.077 1.531 0.223 2.262l-0.012-0.073c0.007 0.037 0.012 0.079 0.012 0.122 0 0.354-0.287 0.64-0.64 0.64-0.311 0-0.569-0.221-0.628-0.514l-0.001-0.004c-0.149-0.733-0.234-1.576-0.234-2.439 0-1.733 0.343-3.385 0.965-4.893l-0.031 0.085c1.324-3.206 3.82-5.702 6.941-6.995l0.085-0.031c1.423-0.591 3.075-0.934 4.808-0.934s3.385 0.343 4.893 0.966l-0.085-0.031c0.521 0.212 0.95 0.421 1.363 0.654l-0.060-0.031c0.484 0.27 0.887 0.526 1.275 0.802l-0.041-0.028c0.165 0.117 0.271 0.308 0.271 0.523 0 0.177-0.072 0.337-0.188 0.453l-0.479 0.479 4.8 1.286-1.286-4.8-0.724 0.725c-0.116 0.116-0.276 0.188-0.453 0.188-0.146 0-0.281-0.049-0.389-0.132l0.002 0.001c-0.471-0.363-1.003-0.722-1.558-1.047l-0.073-0.040c-0.477-0.283-1.044-0.565-1.631-0.809l-0.093-0.034c-1.641-0.682-3.547-1.078-5.545-1.078s-3.904 0.396-5.643 1.114l0.098-0.036c-0.983 0.402-1.825 0.852-2.613 1.377l0.054-0.034c-1.677 1.119-3.073 2.515-4.158 4.138l-0.034 0.054c-0.492 0.735-0.943 1.577-1.308 2.463l-0.035 0.097c-0.682 1.643-1.079 3.551-1.079 5.551 0 0.995 0.098 1.966 0.285 2.906l-0.016-0.094c0.007 0.037 0.012 0.079 0.012 0.122 0 0.353-0.286 0.64-0.64 0.64-0 0-0.001 0-0.001 0h0z"></path>
<path d="M16 31.999c-0.002 0-0.004 0-0.006 0-2.169 0-4.238-0.43-6.126-1.209l0.107 0.039c-0.743-0.304-1.363-0.614-1.957-0.962l0.072 0.039c-0.448-0.256-0.886-0.54-1.316-0.845l-1.12 1.12c-0.116 0.116-0.276 0.187-0.453 0.187-0.294 0-0.542-0.199-0.617-0.47l-0.001-0.004-1.858-6.942c-0.014-0.050-0.022-0.107-0.022-0.166 0-0.353 0.287-0.64 0.64-0.64 0.059 0 0.116 0.008 0.17 0.023l-0.004-0.001 6.942 1.86c0.275 0.076 0.474 0.324 0.474 0.618 0 0.177-0.072 0.337-0.187 0.453l-0.708 0.708q0.239 0.147 0.478 0.28c0.316 0.18 0.699 0.367 1.093 0.531l0.071 0.026c1.281 0.532 2.768 0.841 4.328 0.841s3.047-0.309 4.405-0.869l-0.077 0.028c2.884-1.19 5.13-3.436 6.293-6.243l0.028-0.076c0.532-1.281 0.84-2.77 0.84-4.33 0-0.777-0.077-1.537-0.223-2.271l0.012 0.074c-0.007-0.036-0.012-0.078-0.012-0.121 0-0.354 0.287-0.64 0.64-0.64 0.311 0 0.57 0.221 0.628 0.515l0.001 0.004c0.149 0.733 0.234 1.576 0.234 2.439 0 1.733-0.343 3.385-0.965 4.893l0.031-0.085c-1.634 3.964-5.099 6.879-9.313 7.715l-0.081 0.013c-0.734 0.149-1.578 0.234-2.441 0.234-1.733 0-3.385-0.343-4.893-0.966l0.085 0.031c-0.522-0.213-0.951-0.422-1.365-0.655l0.060 0.031c-0.484-0.27-0.887-0.527-1.275-0.803l0.041 0.028c-0.165-0.117-0.271-0.308-0.271-0.523 0-0.177 0.072-0.337 0.187-0.452l0.479-0.479-4.8-1.286 1.286 4.8 0.724-0.724c0.116-0.116 0.276-0.187 0.452-0.187 0.146 0 0.281 0.049 0.389 0.132l-0.002-0.001c0.471 0.364 1.003 0.724 1.558 1.050l0.072 0.039c0.479 0.282 1.047 0.564 1.635 0.807l0.093 0.034c1.639 0.684 3.544 1.082 5.542 1.082 5.117 0 9.624-2.607 12.267-6.566l0.034-0.054c0.492-0.735 0.943-1.577 1.308-2.463l0.035-0.097c0.681-1.641 1.076-3.547 1.076-5.545 0-0.995-0.098-1.968-0.285-2.908l0.016 0.094c-0.007-0.036-0.012-0.078-0.012-0.121 0-0.354 0.287-0.64 0.64-0.64 0.311 0 0.57 0.221 0.628 0.515l0.001 0.004c0.187 0.919 0.293 1.976 0.293 3.058 0 2.172-0.43 4.243-1.21 6.133l0.039-0.107c-0.437 1.069-0.928 1.985-1.499 2.842l0.036-0.058c-2.904 4.357-7.798 7.189-13.353 7.189-0.004 0-0.009 0-0.013 0h0.001z"></path>
<path d="M16.501 24.183q-0.158 0-0.316-0.006c-0.731-0.031-1.42-0.158-2.072-0.368l0.055 0.015c-0.719-0.229-1.343-0.527-1.917-0.897l0.031 0.019c-0.615-0.395-1.146-0.843-1.613-1.353l-0.005-0.006c-0.469-0.511-0.877-1.089-1.207-1.715l-0.021-0.045c-0.313-0.59-0.568-1.273-0.729-1.992l-0.011-0.056c-0.124-0.542-0.194-1.164-0.194-1.803 0-0.141 0.003-0.282 0.010-0.421l-0.001 0.020c0.040-0.802 0.183-1.557 0.418-2.27l-0.017 0.061c0.255-0.785 0.586-1.467 0.995-2.093l-0.020 0.033c0.436-0.669 0.93-1.247 1.489-1.755l0.007-0.007c0.561-0.508 1.196-0.952 1.882-1.309l0.050-0.024c0.645-0.337 1.393-0.611 2.18-0.784l0.060-0.011c0.576-0.128 1.237-0.201 1.916-0.201 0.172 0 0.343 0.005 0.512 0.014l-0.024-0.001c0.339 0.019 0.606 0.298 0.606 0.64 0 0.354-0.287 0.641-0.641 0.641-0.012 0-0.024-0-0.036-0.001l0.002 0c-0.126-0.007-0.273-0.011-0.421-0.011-0.584 0-1.154 0.063-1.702 0.183l0.052-0.010c-0.728 0.158-1.371 0.393-1.968 0.703l0.043-0.021c-0.631 0.326-1.175 0.705-1.662 1.146l0.007-0.006c-0.485 0.44-0.907 0.934-1.262 1.477l-0.018 0.029c-0.332 0.505-0.614 1.087-0.817 1.704l-0.015 0.052c-0.185 0.555-0.307 1.198-0.34 1.863l-0.001 0.017c-0.005 0.101-0.008 0.22-0.008 0.339 0 0.543 0.060 1.071 0.175 1.579l-0.009-0.048c0.146 0.656 0.362 1.235 0.645 1.773l-0.018-0.038c0.296 0.566 0.641 1.054 1.041 1.49l-0.005-0.005c0.397 0.433 0.844 0.811 1.334 1.127l0.027 0.016c0.455 0.293 0.978 0.542 1.534 0.72l0.047 0.013c0.499 0.163 1.076 0.268 1.673 0.294l0.013 0c0.078 0.003 0.169 0.005 0.261 0.005 0.5 0 0.987-0.057 1.454-0.165l-0.043 0.008c0.584-0.134 1.099-0.33 1.576-0.586l-0.034 0.016c0.501-0.267 0.933-0.577 1.319-0.935l-0.004 0.003c0.382-0.355 0.714-0.754 0.992-1.191l0.015-0.025c0.257-0.405 0.475-0.872 0.629-1.366l0.011-0.042c0.141-0.443 0.23-0.954 0.248-1.483l0-0.010c0.002-0.055 0.003-0.12 0.003-0.186 0-0.456-0.054-0.9-0.157-1.325l0.008 0.038c-0.122-0.512-0.298-0.963-0.526-1.381l0.014 0.029c-0.237-0.437-0.512-0.813-0.83-1.149l0.002 0.002c-0.312-0.33-0.664-0.618-1.049-0.857l-0.022-0.013c-0.354-0.221-0.762-0.407-1.194-0.538l-0.036-0.009c-0.386-0.118-0.831-0.191-1.292-0.202l-0.006-0c-0.033-0.001-0.072-0.001-0.111-0.001-0.413 0-0.813 0.051-1.196 0.148l0.034-0.007c-0.441 0.11-0.827 0.266-1.185 0.467l0.024-0.012c-0.371 0.208-0.692 0.448-0.976 0.724l0.001-0.001c-0.278 0.269-0.52 0.572-0.72 0.903l-0.011 0.020c-0.184 0.303-0.339 0.654-0.446 1.025l-0.008 0.031c-0.097 0.331-0.155 0.711-0.159 1.105l-0 0.002c-0 0.010-0 0.022-0 0.035 0 0.369 0.049 0.727 0.14 1.067l-0.007-0.029c0.098 0.369 0.233 0.692 0.407 0.99l-0.010-0.019c0.178 0.307 0.382 0.572 0.616 0.807l-0-0c0.227 0.228 0.484 0.426 0.763 0.589l0.018 0.010c0.253 0.148 0.545 0.271 0.854 0.354l0.025 0.006c0.265 0.072 0.569 0.113 0.883 0.113 0.009 0 0.018-0 0.028-0h-0.001c0.313-0.005 0.613-0.051 0.897-0.134l-0.024 0.006c0.297-0.085 0.556-0.2 0.795-0.345l-0.014 0.008c0.243-0.148 0.453-0.318 0.639-0.511l0.001-0.001c0.176-0.184 0.329-0.392 0.454-0.618l0.008-0.015c0.112-0.202 0.203-0.435 0.263-0.681l0.004-0.019c0.045-0.186 0.071-0.4 0.071-0.62 0-0.033-0.001-0.067-0.002-0.1l0 0.005c-0.010-0.244-0.051-0.475-0.121-0.694l0.005 0.019c-0.072-0.225-0.166-0.42-0.282-0.6l0.006 0.010c-0.117-0.179-0.25-0.334-0.4-0.47l-0.002-0.002c-0.14-0.125-0.299-0.234-0.471-0.321l-0.013-0.006c-0.151-0.077-0.326-0.138-0.51-0.175l-0.013-0.002c-0.111-0.022-0.239-0.035-0.369-0.035-0.053 0-0.105 0.002-0.157 0.006l0.007-0c-0.174 0.015-0.335 0.052-0.487 0.108l0.013-0.004c-0.152 0.057-0.284 0.128-0.404 0.215l0.005-0.003c-0.116 0.084-0.216 0.179-0.302 0.286l-0.002 0.003c-0.076 0.096-0.143 0.206-0.194 0.323l-0.004 0.009c-0.042 0.099-0.074 0.215-0.090 0.336l-0.001 0.007c-0.005 0.042-0.008 0.090-0.008 0.138 0 0.064 0.005 0.127 0.015 0.189l-0.001-0.007c0.018 0.102 0.047 0.193 0.087 0.279l-0.003-0.007c0.039 0.080 0.085 0.15 0.139 0.212l-0.001-0.001c0.049 0.054 0.104 0.101 0.164 0.14l0.003 0.002c0.049 0.030 0.106 0.055 0.166 0.073l0.005 0.001c0.042 0.011 0.090 0.017 0.14 0.017 0.002 0 0.004 0 0.006-0h-0c0.042-0.003 0.081-0.011 0.118-0.023l-0.003 0.001c0.025-0.011 0.046-0.023 0.065-0.037l-0.001 0.001c0.106-0.080 0.239-0.128 0.384-0.128 0.353 0 0.64 0.287 0.64 0.64 0 0.209-0.1 0.394-0.254 0.511l-0.002 0.001c-0.122 0.091-0.262 0.168-0.413 0.223l-0.011 0.004c-0.148 0.051-0.318 0.084-0.495 0.090l-0.003 0c-0.011 0-0.025 0-0.038 0-0.172 0-0.339-0.024-0.498-0.067l0.013 0.003c-0.193-0.056-0.362-0.133-0.517-0.23l0.008 0.005c-0.168-0.109-0.314-0.235-0.44-0.377l-0.002-0.002c-0.13-0.148-0.242-0.316-0.33-0.499l-0.006-0.013c-0.084-0.178-0.15-0.386-0.186-0.603l-0.002-0.014c-0.018-0.113-0.028-0.243-0.028-0.376 0-0.106 0.007-0.21 0.019-0.313l-0.001 0.012c0.033-0.254 0.098-0.484 0.19-0.699l-0.006 0.017c0.104-0.242 0.231-0.45 0.382-0.638l-0.004 0.005c0.163-0.203 0.348-0.379 0.553-0.527l0.008-0.006c0.204-0.147 0.438-0.273 0.687-0.366l0.020-0.007c0.238-0.089 0.514-0.152 0.802-0.176l0.011-0.001c0.074-0.006 0.159-0.009 0.246-0.009 0.218 0 0.432 0.022 0.638 0.063l-0.021-0.003c0.32 0.064 0.604 0.164 0.868 0.297l-0.019-0.009c0.293 0.148 0.545 0.321 0.771 0.523l-0.003-0.003c0.236 0.214 0.442 0.454 0.615 0.718l0.009 0.014c0.168 0.259 0.311 0.557 0.413 0.873l0.007 0.027c0.096 0.3 0.159 0.646 0.173 1.004l0 0.007c0.001 0.041 0.002 0.089 0.002 0.137 0 0.325-0.039 0.642-0.112 0.945l0.006-0.027c-0.093 0.386-0.227 0.726-0.401 1.041l0.011-0.021c-0.19 0.346-0.41 0.643-0.664 0.908l0.001-0.001c-0.263 0.275-0.561 0.514-0.886 0.712l-0.019 0.011c-0.314 0.192-0.677 0.353-1.061 0.463l-0.032 0.008c-0.362 0.106-0.778 0.169-1.208 0.173h-0.002c-0.012 0-0.026 0-0.040 0-0.429 0-0.844-0.057-1.239-0.163l0.033 0.008c-0.453-0.121-0.849-0.288-1.215-0.501l0.023 0.012c-0.399-0.232-0.743-0.498-1.048-0.804l-0-0c-0.312-0.313-0.585-0.666-0.808-1.051l-0.013-0.025c-0.216-0.369-0.395-0.797-0.516-1.248l-0.008-0.037c-0.11-0.407-0.174-0.875-0.174-1.358 0-0.018 0-0.035 0-0.053l-0 0.003c0.005-0.514 0.080-1.008 0.215-1.477l-0.010 0.039c0.148-0.519 0.348-0.972 0.601-1.39l-0.014 0.025c0.273-0.453 0.585-0.843 0.942-1.188l0.002-0.002c0.363-0.351 0.773-0.657 1.218-0.907l0.030-0.015c0.424-0.239 0.916-0.437 1.434-0.567l0.042-0.009c0.441-0.113 0.946-0.178 1.467-0.178 0.049 0 0.099 0.001 0.148 0.002l-0.007-0c0.586 0.014 1.145 0.107 1.675 0.268l-0.044-0.012c0.585 0.175 1.094 0.408 1.563 0.7l-0.027-0.016c0.507 0.314 0.944 0.672 1.33 1.079l0.003 0.003c0.39 0.412 0.73 0.878 1.007 1.384l0.017 0.035c0.264 0.479 0.481 1.034 0.622 1.618l0.009 0.046c0.116 0.474 0.182 1.017 0.182 1.577 0 0.081-0.001 0.161-0.004 0.242l0-0.012c-0.023 0.658-0.132 1.283-0.317 1.874l0.013-0.050c-0.202 0.652-0.467 1.219-0.798 1.741l0.017-0.029c-0.355 0.561-0.759 1.045-1.217 1.471l-0.005 0.004c-0.462 0.429-0.983 0.803-1.549 1.106l-0.040 0.019c-0.534 0.288-1.153 0.524-1.805 0.675l-0.051 0.010c-0.507 0.119-1.090 0.189-1.689 0.189h-0.001z"></path>
</svg>
