<!-- Generated by IcoMoon.io -->
<svg version="1.1" xmlns="http://www.w3.org/2000/svg" width="32" height="32" viewBox="0 0 32 32">
<title>design</title>
<path d="M0.97 32.001c-0.353 0-0.64-0.287-0.64-0.64v0-30.72c0-0.353 0.287-0.64 0.64-0.64v0h30.060c0.353 0 0.64 0.287 0.64 0.64v0 30.72c0 0.353-0.287 0.64-0.64 0.64v0zM1.61 30.721h28.779v-23.405h-28.779zM30.389 6.035v-4.754h-28.779v4.753zM18.921 28.517c-0.075-0.003-0.146-0.020-0.21-0.049l0.004 0.001-2.952-1.216-2.952 1.216c-0.061 0.027-0.131 0.044-0.205 0.047l-0.001 0h-0.074c-0.163-0.009-0.309-0.078-0.417-0.186v0c-0.116-0.116-0.187-0.276-0.187-0.452 0-0.088 0.018-0.173 0.050-0.249l-0.002 0.004 3.2-7.709c0.099-0.234 0.326-0.394 0.591-0.394s0.492 0.161 0.589 0.39l0.002 0.004 3.196 7.709c0.030 0.072 0.048 0.156 0.048 0.244 0 0.34-0.266 0.619-0.601 0.639l-0.002 0zM16.008 25.968l1.768 0.732-2.013-4.858-2.013 4.858 1.77-0.732c0.072-0.030 0.156-0.048 0.244-0.048s0.172 0.017 0.249 0.049l-0.004-0.002zM23.56 23.536v-0.768c0-0.026 0-0.056 0-0.086 0-3.252-2.017-6.033-4.869-7.16l-0.052-0.018v0.939h-5.754v-0.931c-1.339 0.55-2.454 1.412-3.291 2.499l-0.014 0.018c-1.006 1.294-1.613 2.942-1.613 4.731 0 0.002 0 0.003 0 0.005v-0 0.768h-1.28v-0.768c0-0.001 0-0.002 0-0.004 0-1.058 0.182-2.073 0.517-3.016l-0.020 0.063c0.927-2.615 2.933-4.646 5.469-5.585l0.063-0.021h-3.286c-0.31 1.319-1.477 2.286-2.87 2.286-1.59 0-2.886-1.261-2.942-2.838l-0-0.005v-0.163c0.040-1.338 0.966-2.45 2.21-2.771l0.020-0.004h1.421c1.080 0.278 1.909 1.125 2.156 2.196l0.004 0.020h3.456v-2.216h5.754v2.216h3.456c0.251-1.090 1.080-1.938 2.14-2.211l0.020-0.004h1.421c1.293 0.329 2.234 1.483 2.234 2.857 0 1.626-1.318 2.944-2.944 2.944-1.4 0-2.572-0.977-2.87-2.287l-0.004-0.020h-3.274c3.533 1.255 6.017 4.569 6.017 8.463 0 0.035-0 0.070-0.001 0.105l0-0.005v0.768zM23.304 13.524v0.087c0.024 0.9 0.76 1.62 1.663 1.62 0.919 0 1.664-0.745 1.664-1.664s-0.745-1.664-1.664-1.664c-0.904 0-1.639 0.72-1.663 1.618l-0 0.002zM4.897 13.567c0.043 0.884 0.771 1.585 1.662 1.585 0.876 0 1.594-0.677 1.659-1.536l0-0.006v-0.087c-0.066-0.865-0.784-1.542-1.659-1.542-0.891 0-1.619 0.7-1.662 1.581l-0 0.004zM14.164 15.167h3.194v-3.194h-3.194z"></path>
<path d="M5.732 3.592c0 0.647-0.524 1.171-1.171 1.171s-1.171-0.524-1.171-1.171c0-0.647 0.524-1.171 1.171-1.171s1.171 0.524 1.171 1.171z"></path>
<path d="M4.561 2.42c0.647 0 1.171 0.524 1.171 1.171s-0.524 1.171-1.171 1.171c-0.647 0-1.171-0.524-1.171-1.171v0c0-0.647 0.524-1.171 1.171-1.171v0z"></path>
<path d="M10.417 3.592c0 0.647-0.524 1.171-1.171 1.171s-1.171-0.524-1.171-1.171c0-0.647 0.524-1.171 1.171-1.171s1.171 0.524 1.171 1.171z"></path>
<path d="M9.246 2.42c0.647 0 1.171 0.524 1.171 1.171s-0.524 1.171-1.171 1.171c-0.647 0-1.171-0.524-1.171-1.171v0c0-0.647 0.524-1.171 1.171-1.171v0z"></path>
<path d="M15.102 3.592c0 0.647-0.524 1.171-1.171 1.171s-1.171-0.524-1.171-1.171c0-0.647 0.524-1.171 1.171-1.171s1.171 0.524 1.171 1.171z"></path>
<path d="M13.931 2.42c0.647 0 1.171 0.524 1.171 1.171s-0.524 1.171-1.171 1.171c-0.647 0-1.171-0.524-1.171-1.171v0c0-0.647 0.524-1.171 1.171-1.171v0z"></path>
</svg>
