<!-- Generated by IcoMoon.io -->
<svg version="1.1" xmlns="http://www.w3.org/2000/svg" width="32" height="32" viewBox="0 0 32 32">
<title>development</title>
<path d="M0.97 31.999c-0.353 0-0.64-0.287-0.64-0.64v0-30.72c0-0.353 0.287-0.64 0.64-0.64v0h30.060c0.353 0 0.64 0.287 0.64 0.64v0 30.72c0 0.353-0.287 0.64-0.64 0.64v0zM1.61 30.719h28.781v-23.407h-28.781zM1.61 6.034h28.781v-4.755h-28.781zM12.988 25.475c-0.232-0.1-0.391-0.326-0.391-0.589 0-0.090 0.018-0.175 0.052-0.253l-0.002 0.004 5.298-12.584c0.1-0.232 0.326-0.392 0.59-0.392 0.354 0 0.64 0.287 0.64 0.64 0 0.090-0.018 0.175-0.052 0.253l0.002-0.004-5.3 12.582c-0.1 0.232-0.326 0.392-0.59 0.392-0 0-0 0-0 0v0c-0.001 0-0.002 0-0.003 0-0.089 0-0.173-0.018-0.25-0.050l0.004 0.002zM20.252 22.985c-0.093-0.11-0.149-0.254-0.149-0.41 0-0.197 0.089-0.373 0.228-0.49l4.284-3.57-4.283-3.569c-0.141-0.118-0.23-0.295-0.23-0.492 0-0.354 0.287-0.641 0.641-0.641 0.157 0 0.3 0.056 0.412 0.15l-0.001-0.001 4.871 4.060c0.141 0.118 0.23 0.295 0.23 0.492s-0.089 0.374-0.229 0.491l-0.001 0.001-4.871 4.060c-0.11 0.092-0.254 0.148-0.41 0.148h-0c-0.001 0-0.001 0-0.002 0-0.197 0-0.372-0.089-0.49-0.228l-0.001-0.001zM10.588 23.066l-4.871-4.060c-0.141-0.118-0.23-0.295-0.23-0.492s0.089-0.374 0.229-0.491l0.001-0.001 4.871-4.060c0.11-0.092 0.253-0.148 0.41-0.148 0.353 0 0.64 0.287 0.64 0.64 0 0.197-0.089 0.374-0.229 0.491l-0.001 0.001-4.28 3.569 4.28 3.569c0.141 0.118 0.229 0.294 0.229 0.491 0 0.353-0.285 0.639-0.638 0.64h-0c-0 0-0.001 0-0.002 0-0.157 0-0.3-0.056-0.412-0.149l0.001 0.001z"></path>
<path d="M5.655 3.59c0 0.647-0.524 1.171-1.171 1.171s-1.171-0.524-1.171-1.171c0-0.647 0.524-1.171 1.171-1.171s1.171 0.524 1.171 1.171z"></path>
<path d="M4.484 2.419c0.647 0 1.171 0.524 1.171 1.171s-0.524 1.171-1.171 1.171c-0.647 0-1.171-0.524-1.171-1.171v0c0-0.647 0.524-1.171 1.171-1.171v0z"></path>
<path d="M10.34 3.59c0 0.647-0.524 1.171-1.171 1.171s-1.171-0.524-1.171-1.171c0-0.647 0.524-1.171 1.171-1.171s1.171 0.524 1.171 1.171z"></path>
<path d="M9.169 2.419c0.647 0 1.171 0.524 1.171 1.171s-0.524 1.171-1.171 1.171c-0.647 0-1.171-0.524-1.171-1.171v0c0-0.647 0.524-1.171 1.171-1.171v0z"></path>
<path d="M15.025 3.59c0 0.647-0.524 1.171-1.171 1.171s-1.171-0.524-1.171-1.171c0-0.647 0.524-1.171 1.171-1.171s1.171 0.524 1.171 1.171z"></path>
<path d="M13.853 2.419c0.647 0 1.171 0.524 1.171 1.171s-0.524 1.171-1.171 1.171c-0.647 0-1.171-0.524-1.171-1.171v0c0-0.647 0.524-1.171 1.171-1.171v0z"></path>
</svg>
