<!-- Generated by IcoMoon.io -->
<svg version="1.1" xmlns="http://www.w3.org/2000/svg" width="32" height="32" viewBox="0 0 32 32">
<title>development2</title>
<path d="M0.571 30.286c-0.316 0-0.571-0.256-0.571-0.571v0-27.429c0-0.316 0.256-0.571 0.571-0.571v0h30.857c0.316 0 0.571 0.256 0.571 0.571v0 27.429c0 0.316-0.256 0.571-0.571 0.571v0zM1.143 29.143h29.714v-26.286h-29.714zM13.493 24.527c-0.207-0.089-0.35-0.291-0.35-0.527 0-0.080 0.016-0.156 0.046-0.226l-0.001 0.004 4.571-10.857c0.089-0.207 0.291-0.35 0.527-0.35 0.080 0 0.156 0.016 0.225 0.046l-0.004-0.001c0.207 0.089 0.35 0.291 0.35 0.527 0 0.080-0.016 0.156-0.046 0.226l0.001-0.004-4.571 10.857c-0.089 0.207-0.291 0.35-0.527 0.35-0 0-0 0-0 0v0c-0.080-0-0.156-0.017-0.225-0.047l0.004 0.001zM19.752 22.374c-0.082-0.098-0.133-0.226-0.133-0.366 0-0.176 0.080-0.334 0.205-0.438l0.001-0.001 3.678-3.065-3.678-3.064c-0.126-0.106-0.206-0.263-0.206-0.439 0-0.14 0.050-0.268 0.133-0.367l-0.001 0.001c0.106-0.126 0.263-0.206 0.439-0.206 0.139 0 0.267 0.050 0.366 0.133l-0.001-0.001 4.204 3.504c0.126 0.106 0.205 0.263 0.205 0.439 0 0 0 0 0 0v0c0 0 0 0.001 0 0.001 0 0.176-0.079 0.333-0.204 0.438l-0.001 0.001-4.203 3.502c-0.098 0.082-0.226 0.133-0.366 0.133v0c-0.001 0-0.001 0-0.002 0-0.176 0-0.333-0.079-0.438-0.204l-0.001-0.001zM11.415 22.446l-4.204-3.503c-0.126-0.106-0.206-0.263-0.206-0.439 0-0 0-0 0-0v0c0-0.176 0.080-0.333 0.205-0.438l0.001-0.001 4.204-3.503c0.098-0.082 0.226-0.132 0.365-0.132 0.176 0 0.334 0.080 0.438 0.205l0.001 0.001c0.082 0.098 0.133 0.226 0.133 0.366 0 0.176-0.080 0.334-0.205 0.438l-0.001 0.001-3.677 3.064 3.677 3.065c0.126 0.106 0.206 0.263 0.206 0.439 0 0.14-0.050 0.268-0.133 0.367l0.001-0.001c-0.106 0.126-0.263 0.206-0.439 0.206-0 0-0 0-0 0h0c-0.139-0.001-0.267-0.051-0.366-0.134l0.001 0.001zM1.713 7.428v-1.143h28v1.143zM6.855 5.142v-1.143h1.143v1.143zM4.57 5.142v-1.143h1.714v1.143zM2.855 5.142v-1.143h1.143v1.143z"></path>
</svg>
