<!-- Generated by IcoMoon.io -->
<svg version="1.1" xmlns="http://www.w3.org/2000/svg" width="32" height="32" viewBox="0 0 32 32">
<title>device-bubbles</title>
<path d="M20.675 31.997h-10.688c-1.089-0.003-1.971-0.884-1.973-1.973v-17.363c0.001-1.091 0.885-1.975 1.976-1.976h2.003v1.28h-2.003c-0.384 0-0.695 0.312-0.696 0.696v17.363c0.002 0.383 0.313 0.693 0.696 0.693h10.688c0.384-0 0.695-0.312 0.696-0.696v-10.015h1.28v10.017c-0.003 1.090-0.887 1.973-1.978 1.973-0 0-0 0-0.001 0h0z"></path>
<path d="M21.956 27.95h-13.563v-1.28h13.563z"></path>
<path d="M18.419 14.977h-10.025v-1.28h10.025z"></path>
<path d="M16.060 30.309h-2.359v-1.28h2.359z"></path>
<path d="M14.002 12.833c-0.165-0-0.323-0.031-0.468-0.086l0.009 0.003c-0.502-0.186-0.854-0.661-0.854-1.218 0-0.003 0-0.006 0-0.008v0-2.229h-0.028c-1.091-0.001-1.975-0.885-1.976-1.976v-5.343c0.001-1.091 0.885-1.975 1.976-1.976h10.688c1.091 0.001 1.975 0.885 1.976 1.976v4.007h-1.28v-4.007c-0-0.384-0.312-0.696-0.696-0.696-0.001 0-0.001 0-0.002 0h-10.688c-0.383 0.002-0.693 0.313-0.693 0.696v5.343c0 0.384 0.312 0.695 0.696 0.696h1.308v3.51c-0 0.002-0.001 0.005-0.001 0.008s0 0.005 0.001 0.008l-0-0c0.008 0.008 0.020 0.013 0.032 0.013 0.001 0 0.002-0 0.003-0h-0c0.004-0.003 0.008-0.007 0.011-0.011l0-0 3.024-3.527h1.63v1.28h-1.039l-2.641 3.080c-0.239 0.281-0.593 0.458-0.987 0.458h-0z"></path>
<path d="M21.343 6.678h8.682c1.091 0.001 1.975 0.885 1.976 1.976v6.010c-0.001 1.091-0.885 1.975-1.976 1.976h-6.378l-1.967 2.36c-0.239 0.289-0.597 0.471-0.998 0.472h-0c-0 0-0.001 0-0.001 0-0.724 0-1.311-0.586-1.313-1.309v-9.509c0.001-1.091 0.885-1.975 1.976-1.976h0zM30.024 15.36c0.384-0 0.695-0.312 0.696-0.696v-6.010c-0-0.384-0.312-0.695-0.696-0.696h-8.682c-0.384 0-0.695 0.312-0.696 0.696v9.509c-0 0.002-0.001 0.005-0.001 0.008s0 0.006 0.001 0.008l-0-0c0.008 0.008 0.020 0.013 0.032 0.013h0.004c0.004-0.003 0.008-0.007 0.011-0.011l0-0 2.35-2.82z"></path>
<path d="M5.303 21.905c-0.434-0.001-0.817-0.216-1.049-0.546l-0.003-0.004-1.937-2.708h-0.339c-1.091-0.001-1.976-0.886-1.976-1.978 0-0 0-0 0-0.001v0-8.014c0.001-1.091 0.885-1.975 1.976-1.976h8.014v1.28h-8.014c-0.384 0-0.695 0.312-0.696 0.696v8.014c0 0.001 0 0.001 0 0.002 0 0.384 0.311 0.696 0.696 0.696h0.997l2.319 3.247c0.003 0.005 0.007 0.009 0.011 0.012l0 0c0.001 0 0.003 0 0.004 0 0.013 0 0.024-0.005 0.033-0.012l-0 0c0-0.002 0-0.005 0-0.008s-0-0.006-0-0.008l0 0v-3.231h1.976v1.28h-0.694v1.951c0 0.004 0 0.010 0 0.015 0 0.576-0.378 1.063-0.899 1.228l-0.009 0.002c-0.121 0.039-0.26 0.062-0.404 0.062-0.003 0-0.005 0-0.008-0h0z"></path>
</svg>
