<!-- Generated by IcoMoon.io -->
<svg version="1.1" xmlns="http://www.w3.org/2000/svg" width="32" height="32" viewBox="0 0 32 32">
<title>devices</title>
<path d="M20.632 28.909c-0.856 0-1.549-0.694-1.549-1.549v0-17.041c0-0.856 0.694-1.549 1.549-1.549v0h9.811c0.856 0 1.549 0.694 1.549 1.549v0 17.041c0 0.856-0.694 1.549-1.549 1.549v0zM20.116 10.32v17.041c0 0.285 0.231 0.516 0.516 0.516v0h9.811c0.285 0 0.516-0.231 0.516-0.516v0-17.041c0-0.285-0.231-0.516-0.516-0.516v0h-9.811c-0.285 0-0.516 0.231-0.516 0.516v0zM24.763 26.844v-1.033h1.549v1.033zM3.189 24.89c-1.764-0.003-3.193-1.432-3.196-3.196v-0.517h2.010v-16.23c0.001-1.025 0.832-1.855 1.856-1.856h22.775c1.025 0.001 1.855 0.832 1.856 1.856v2.010h-1.033v-2.010c-0.001-0.454-0.369-0.822-0.823-0.824h-22.776c-0.454 0.001-0.822 0.369-0.824 0.824v16.23h9.075l0.671 0.671h2.921l0.671-0.671h1.554v1.033h-1.126l-0.671 0.671h-3.777l-0.671-0.671h-10.594c0.242 0.952 1.090 1.645 2.1 1.647h14.737v1.033z"></path>
</svg>
