<!-- Generated by IcoMoon.io -->
<svg version="1.1" xmlns="http://www.w3.org/2000/svg" width="32" height="32" viewBox="0 0 32 32">
<title>digital-wellbeing</title>
<path d="M8.675 31.329v-1.226h3.656v-4.123h-11.105c-0.677 0-1.226-0.549-1.226-1.226v0-22.86c0-0.677 0.549-1.226 1.226-1.226v0h29.547c0.677 0 1.226 0.549 1.226 1.226v0 22.86c0 0.677-0.549 1.226-1.226 1.226v0h-10.526v4.125h3.145v1.226zM13.558 30.103h5.463v-4.123h-5.463zM30.773 24.752v-2.787h-29.547v2.787h29.547zM30.773 20.737v-18.844h-29.549v18.843zM11.807 16.364c-1.293-0.555-2.397-1.312-3.326-2.243l-0-0 0.868-0.867c1.662 1.672 3.964 2.707 6.507 2.707 0.009 0 0.019 0 0.028-0h-0.001c0.008 0 0.017 0 0.027 0 2.544 0 4.846-1.035 6.508-2.707l0-0 0.868 0.867c-0.929 0.932-2.034 1.689-3.259 2.218l-0.068 0.026c-1.197 0.521-2.591 0.823-4.056 0.823-0.007 0-0.014 0-0.021-0h0.001c-0.006 0-0.013 0-0.020 0-1.465 0-2.859-0.303-4.123-0.849l0.067 0.026zM17.381 8.86c0 0 0 0 0 0 0-1.116 0.904-2.022 2.020-2.023h0c1.117 0 2.023 0.906 2.023 2.023v0c0 1.117-0.906 2.023-2.023 2.023v0c-1.116-0.002-2.020-0.907-2.020-2.023 0-0 0-0 0-0.001v0zM18.608 8.86c0 0.44 0.357 0.797 0.797 0.797v0c0.44 0 0.797-0.357 0.797-0.797v0c0-0.44-0.357-0.797-0.797-0.797v0c-0.44 0-0.797 0.357-0.797 0.796v0zM10.343 8.86c0 0 0 0 0 0 0-1.116 0.904-2.022 2.020-2.023h0c1.117 0 2.023 0.906 2.023 2.023v0c0 1.117-0.906 2.023-2.023 2.023v0c-1.116-0.002-2.020-0.907-2.020-2.023 0-0 0-0 0-0.001v0zM11.569 8.86c0 0.44 0.357 0.797 0.797 0.797v0c0.44 0 0.797-0.357 0.797-0.797v0c0-0.44-0.357-0.797-0.797-0.797v0c-0.44 0-0.797 0.357-0.797 0.796v0z"></path>
</svg>
