<!-- Generated by IcoMoon.io -->
<svg version="1.1" xmlns="http://www.w3.org/2000/svg" width="32" height="32" viewBox="0 0 32 32">
<title>document</title>
<path d="M6.998 32.002c-2.207-0.005-3.995-1.793-4-4v-24c0-2.209 1.791-4 4-4v0l10.744 0.009c0.212 0.054 0.392 0.171 0.524 0.328l0.001 0.002 10.438 10.451c0.11 0.11 0.195 0.247 0.242 0.399l0.002 0.007 0.012 0.039s0 0.007 0 0.010c0.003 0.010 0.006 0.022 0.008 0.034l0 0.001s0 0.009 0 0.014l0.006 0.032c0 0.006 0 0.012 0 0.018 0 0.005 0.001 0.010 0.001 0.015s-0 0.011-0.001 0.016l0-0.001c0 0.003 0.001 0.006 0.001 0.010s-0 0.007-0.001 0.010l0-0c0 0.010 0 0.020 0 0.030v0.020c0 0.008 0.001 0.017 0.001 0.025s-0 0.018-0.001 0.027l0-0.001v16.505c0 2.209-1.791 4-4 4v0zM4.998 4.002v24c0 1.105 0.895 2 2 2v0h18c1.105 0 2-0.895 2-2v0-15.5h-9.5c-0.552 0-1-0.448-1-1v0-9.5h-9.5c-1.105 0-2 0.895-2 2v0zM18.498 10.502h7.084l-7.084-7.082z"></path>
</svg>
