<!-- Generated by IcoMoon.io -->
<svg version="1.1" xmlns="http://www.w3.org/2000/svg" width="32" height="32" viewBox="0 0 32 32">
<title>download</title>
<path d="M1.972 31.020c-1.103-0.067-1.972-0.977-1.972-2.091 0-0.038 0.001-0.075 0.003-0.112l-0 0.005v-7.981h1.202v7.981c-0.003 0.027-0.004 0.058-0.004 0.090 0 0.456 0.332 0.834 0.768 0.905l0.005 0.001h28.026c0.456-0.063 0.803-0.45 0.803-0.918 0-0.027-0.001-0.055-0.004-0.081l0 0.003v-7.981h1.202v7.981c0 0.005 0 0.011 0 0.017 0 0.579-0.215 1.109-0.569 1.513l0.002-0.003c-0.35 0.405-0.861 0.663-1.433 0.671h-0.001zM7.586 18.309l0.851-0.85 6.962 6.962v-23.441h1.202v23.287l7.009-7.010 0.849 0.851-8.535 8.536z"></path>
</svg>
