<!-- Generated by IcoMoon.io -->
<svg version="1.1" xmlns="http://www.w3.org/2000/svg" width="32" height="32" viewBox="0 0 32 32">
<title>edit</title>
<path d="M15.998 31.269c-0.552 0-1-0.448-1-1s0.448-1 1-1v0h15c0.552 0 1 0.448 1 1s-0.448 1-1 1v0zM0.298 30.977c-0.183-0.184-0.296-0.437-0.296-0.717 0-0.084 0.010-0.166 0.030-0.245l-0.001 0.007 1.668-6.663c0.046-0.182 0.137-0.339 0.262-0.462l20.831-20.836c0.821-0.821 1.955-1.328 3.207-1.328 2.505 0 4.535 2.031 4.535 4.535 0 1.252-0.508 2.386-1.328 3.207l-20.83 20.836c-0.125 0.125-0.283 0.216-0.46 0.261l-0.007 0.001-6.664 1.665c-0.073 0.019-0.157 0.030-0.243 0.030-0.001 0-0.002 0-0.003 0h0c-0 0-0.001 0-0.001 0-0.273 0-0.52-0.111-0.699-0.291l-0-0zM24.212 3.477l-20.64 20.636-1.2 4.778 4.779-1.191 20.647-20.642c0.466-0.46 0.755-1.099 0.755-1.805 0-1.399-1.134-2.534-2.534-2.534-0.708 0-1.347 0.29-1.807 0.758l-0 0z"></path>
</svg>
