<!-- Generated by IcoMoon.io -->
<svg version="1.1" xmlns="http://www.w3.org/2000/svg" width="32" height="32" viewBox="0 0 32 32">
<title>envelope</title>
<path d="M0 27.521v-23.041c0 0 0 0 0 0 0-0.353 0.286-0.64 0.639-0.64h30.721c0.353 0.001 0.64 0.287 0.64 0.64v23.041c-0.001 0.353-0.287 0.639-0.64 0.639 0 0 0 0 0 0h-30.721c-0.353 0-0.639-0.286-0.639-0.639v0zM15.882 16.831l11.448-10.425-22.834 0.061 11.387 10.364zM11.17 16l-8.603-7.836v15.673l8.603-7.836zM13.069 17.731l-8.647 7.869h22.912l-8.641-7.869-2.382 2.174c-0.113 0.104-0.264 0.167-0.43 0.167s-0.317-0.064-0.43-0.167l0 0-2.384-2.166zM20.593 16l8.847 8.057v-16.113z"></path>
</svg>
