<!-- Generated by IcoMoon.io -->
<svg version="1.1" xmlns="http://www.w3.org/2000/svg" width="32" height="32" viewBox="0 0 32 32">
<title>favourites-checked</title>
<path d="M31.5 9.707c0 12.289-13.214 20-15.5 20s-15.5-6.286-15.5-20c0-4.772 3.869-8.641 8.641-8.642h0c2.796 0.007 5.277 1.347 6.843 3.418l0.016 0.022c1.581-2.093 4.063-3.433 6.858-3.44h0.001c4.772 0.001 8.64 3.87 8.641 8.642v0z"></path>
<path d="M16 30.292c-1.5 0-5.468-1.725-9-4.963-4.282-3.779-6.974-9.273-6.995-15.396v-0.004c0.006-5.168 4.194-9.357 9.361-9.363h0.001c0.004 0 0.008 0 0.013 0 2.598 0 4.945 1.072 6.623 2.798l0.002 0.002c1.68-1.728 4.028-2.8 6.625-2.8 0.005 0 0.009 0 0.014 0h-0.001c5.168 0.006 9.356 4.195 9.362 9.362v0.001c0 6.715-3.793 11.787-6.976 14.859-3.413 3.294-7.422 5.504-9.029 5.504zM9.362 2.57c-4.064 0.005-7.357 3.299-7.362 7.363v0c0.028 5.541 2.469 10.507 6.325 13.903l0.021 0.018c3.357 3.074 6.881 4.439 7.654 4.439 0.61 0 4.069-1.495 7.641-4.945 2.9-2.8 6.359-7.4 6.359-13.414-0.005-4.064-3.298-7.358-7.361-7.363h-0c-2.383 0.003-4.498 1.148-5.829 2.916l-0.013 0.019-0.8 1.048-0.8-1.048c-1.342-1.786-3.453-2.93-5.832-2.937h-0.001z"></path>
</svg>
