<!-- Generated by IcoMoon.io -->
<svg version="1.1" xmlns="http://www.w3.org/2000/svg" width="32" height="32" viewBox="0 0 32 32">
<title>focus-eye</title>
<path d="M28.988 32c-0.001 0-0.002 0-0.004 0-0.835 0-1.588-0.346-2.125-0.903l-0.001-0.001-6.149-6.303c-0.113-0.115-0.183-0.274-0.183-0.448 0-0.354 0.287-0.641 0.641-0.641 0.18 0 0.342 0.074 0.458 0.193l6.149 6.303c0.307 0.319 0.737 0.517 1.214 0.517 0.001 0 0.002 0 0.002 0h-0c0.476-0 0.905-0.198 1.211-0.516l0.001-0.001c0.317-0.327 0.513-0.773 0.513-1.265s-0.196-0.938-0.513-1.265l0 0-6.232-6.387c-0.113-0.115-0.183-0.274-0.183-0.448 0-0.354 0.287-0.641 0.641-0.641 0.179 0 0.342 0.074 0.458 0.193l6.232 6.391c0.541 0.558 0.875 1.32 0.875 2.159s-0.334 1.602-0.875 2.16l0.001-0.001c-0.537 0.557-1.29 0.902-2.123 0.902-0.001 0-0.002 0-0.004 0h0z"></path>
<path d="M15.608 16.070c-1.343 0-2.432-1.089-2.432-2.432v0c0-0.354 0.287-0.64 0.64-0.64s0.64 0.287 0.64 0.64v0c0 0.636 0.516 1.152 1.152 1.152v0c0.354 0 0.64 0.287 0.64 0.64s-0.287 0.64-0.64 0.64v0z"></path>
<path d="M14.629 20.425c-0.001 0-0.002 0-0.002 0-1.952 0-3.771-0.571-5.298-1.555l0.039 0.023c-1.535-0.99-2.761-2.337-3.582-3.926l-0.027-0.057c-0.044-0.084-0.070-0.184-0.070-0.29s0.026-0.206 0.071-0.294l-0.002 0.004c0.847-1.647 2.073-2.993 3.568-3.959l0.040-0.024c1.489-0.961 3.309-1.532 5.261-1.532s3.772 0.571 5.3 1.556l-0.039-0.023c1.535 0.99 2.761 2.336 3.582 3.926l0.027 0.057c0.044 0.084 0.070 0.184 0.070 0.29s-0.026 0.206-0.071 0.294l0.002-0.004c-0.847 1.647-2.073 2.993-3.568 3.959l-0.040 0.024c-1.489 0.961-3.307 1.532-5.259 1.532-0.001 0-0.001 0-0.002 0h0zM7.053 14.619c0.735 1.311 1.748 2.386 2.965 3.173l0.035 0.021c1.295 0.836 2.878 1.334 4.576 1.334s3.281-0.497 4.61-1.354l-0.034 0.020c1.252-0.807 2.265-1.882 2.977-3.149l0.023-0.045c-0.735-1.311-1.748-2.386-2.965-3.172l-0.035-0.021c-1.295-0.836-2.878-1.333-4.576-1.333s-3.281 0.497-4.61 1.354l0.034-0.020c-1.252 0.807-2.265 1.882-2.977 3.148l-0.023 0.045z"></path>
<path d="M28.607 8.27c-0.354 0-0.64-0.287-0.64-0.64v0-6.35h-6.35c-0.354 0-0.64-0.287-0.64-0.64s0.287-0.64 0.64-0.64v0h6.99c0.354 0 0.64 0.287 0.64 0.64v0 6.99c0 0.354-0.287 0.64-0.64 0.64v0z"></path>
<path d="M0.648 8.27c-0.353 0-0.64-0.287-0.64-0.64v0-6.99c0-0.353 0.287-0.64 0.64-0.64v0h6.99c0.354 0 0.64 0.287 0.64 0.64s-0.287 0.64-0.64 0.64v0h-6.35v6.35c0 0.354-0.287 0.64-0.64 0.64v0z"></path>
<path d="M7.638 29.239h-6.99c-0.353 0-0.64-0.287-0.64-0.64v0-6.99c0-0.354 0.287-0.64 0.64-0.64s0.64 0.287 0.64 0.64v0 6.35h6.35c0.354 0 0.64 0.287 0.64 0.64s-0.287 0.64-0.64 0.64v0z"></path>
<path d="M14.629 18.423c-0 0-0.001 0-0.001 0-2.101 0-3.804-1.703-3.804-3.804s1.703-3.804 3.804-3.804c2.101 0 3.804 1.703 3.804 3.804 0 0 0 0.001 0 0.001v-0c-0.003 2.099-1.704 3.8-3.803 3.803h-0zM14.629 12.095c-0 0-0.001 0-0.001 0-1.394 0-2.524 1.13-2.524 2.524s1.13 2.524 2.524 2.524c1.394 0 2.523-1.129 2.524-2.523v-0c-0.001-1.393-1.13-2.523-2.523-2.525h-0z"></path>
<path d="M14.627 2.758c0.006 0 0.012 0 0.019 0 1.626 0 3.172 0.344 4.569 0.963l-0.072-0.029c1.435 0.632 2.658 1.49 3.681 2.543l0.003 0.003c1.032 1.056 1.869 2.307 2.451 3.692l0.029 0.078c0.575 1.364 0.909 2.949 0.909 4.612s-0.334 3.248-0.939 4.692l0.030-0.080c-0.611 1.463-1.448 2.714-2.482 3.772l0.002-0.002c-1.026 1.055-2.249 1.914-3.61 2.516l-0.074 0.029c-1.331 0.591-2.884 0.935-4.517 0.935s-3.186-0.344-4.589-0.963l0.073 0.029c-1.434-0.632-2.655-1.49-3.678-2.543l-0.003-0.003c-1.033-1.056-1.872-2.307-2.454-3.692l-0.029-0.078c-0.575-1.364-0.909-2.949-0.909-4.612s0.334-3.248 0.939-4.692l-0.030 0.080c0.612-1.463 1.45-2.714 2.485-3.772l-0.002 0.002c1.025-1.055 2.247-1.913 3.607-2.516l0.074-0.029c1.325-0.591 2.871-0.934 4.497-0.934 0.007 0 0.014 0 0.020 0h-0.001zM14.627 25.201c0.001 0 0.003 0 0.005 0 2.857 0 5.438-1.185 7.277-3.091l0.003-0.003c1.872-1.936 3.025-4.578 3.025-7.488s-1.154-5.552-3.028-7.491l0.003 0.003c-1.844-1.908-4.426-3.093-7.284-3.093s-5.441 1.185-7.282 3.091l-0.003 0.003c-1.872 1.936-3.025 4.578-3.025 7.488s1.154 5.552 3.028 7.491l-0.003-0.003c1.842 1.909 4.423 3.094 7.28 3.094 0.001 0 0.003 0 0.004 0h-0z"></path>
</svg>
