<!-- Generated by IcoMoon.io -->
<svg version="1.1" xmlns="http://www.w3.org/2000/svg" width="32" height="32" viewBox="0 0 32 32">
<title>gear-lamp</title>
<path d="M13.867 31.946v-1.275h4.386v1.275zM12.739 29.97v-1.275h6.648v1.275zM5.858 28.384c-0.779-0.65-1.475-1.346-2.102-2.101l-0.021-0.026c-0.294-0.36-0.107-0.78 0.112-1.266 0.135-0.302 0.329-0.705 0.579-1.202 0.259-0.517 0.528-1.030 0.698-1.349-0.539-0.907-0.987-1.955-1.287-3.064l-0.021-0.089c-0.344-0.106-0.9-0.279-1.452-0.46-0.528-0.175-0.95-0.323-1.261-0.441-0.497-0.191-0.929-0.358-0.972-0.821-0.045-0.451-0.071-0.975-0.071-1.504s0.026-1.053 0.076-1.57l-0.005 0.066c0.043-0.464 0.476-0.629 0.976-0.819 0.306-0.119 0.731-0.267 1.261-0.438 0.548-0.178 1.101-0.35 1.448-0.457 0.318-1.202 0.766-2.255 1.34-3.224l-0.032 0.058c-0.17-0.323-0.438-0.836-0.701-1.355-0.251-0.497-0.446-0.9-0.574-1.204-0.219-0.488-0.406-0.91-0.11-1.266 0.65-0.78 1.348-1.476 2.104-2.103l0.026-0.021c0.356-0.294 0.78-0.106 1.266 0.112 0.302 0.135 0.705 0.329 1.202 0.583 0.517 0.263 1.030 0.532 1.349 0.701 0.907-0.539 1.955-0.986 3.064-1.287l0.089-0.021c0.106-0.344 0.281-0.9 0.464-1.451 0.172-0.529 0.319-0.956 0.437-1.262 0.191-0.501 0.358-0.929 0.823-0.972 0.451-0.045 0.975-0.071 1.505-0.071s1.054 0.026 1.571 0.077l-0.065-0.005c0.464 0.043 0.625 0.476 0.816 0.976 0.12 0.306 0.267 0.732 0.439 1.261 0.182 0.55 0.354 1.104 0.457 1.452 1.199 0.317 2.25 0.763 3.217 1.336l-0.058-0.032c0.319-0.168 0.829-0.437 1.349-0.698 0.497-0.255 0.904-0.446 1.204-0.582 0.488-0.219 0.91-0.407 1.266-0.11 0.78 0.649 1.476 1.346 2.103 2.101l0.021 0.026c0.298 0.36 0.11 0.782-0.11 1.27-0.135 0.3-0.332 0.701-0.581 1.202-0.263 0.516-0.532 1.032-0.701 1.351 0.542 0.907 0.99 1.956 1.291 3.065l0.020 0.088c0.344 0.107 0.9 0.281 1.451 0.46 0.529 0.175 0.951 0.323 1.258 0.439 0.501 0.191 0.933 0.356 0.976 0.819 0.044 0.445 0.069 0.962 0.069 1.485 0 0.537-0.026 1.068-0.078 1.592l0.005-0.066c-0.043 0.464-0.474 0.629-0.972 0.819-0.31 0.116-0.732 0.267-1.261 0.441-0.55 0.178-1.104 0.354-1.448 0.457-0.319 1.2-0.767 2.25-1.34 3.218l0.032-0.058c0.168 0.319 0.437 0.829 0.701 1.349 0.251 0.494 0.446 0.9 0.579 1.202 0.219 0.487 0.407 0.91 0.107 1.269-0.648 0.78-1.344 1.475-2.098 2.101l-0.026 0.021c-0.36 0.296-0.782 0.11-1.27-0.11-0.298-0.132-0.701-0.329-1.198-0.579-0.838-0.422-1.665-0.863-1.674-0.869l0.604-1.123c1.107 0.594 2.423 1.261 2.971 1.489 0.542-0.469 1.033-0.959 1.486-1.482l0.015-0.018c-0.231-0.55-0.898-1.864-1.489-2.969l-0.178-0.325 0.197-0.312c0.629-0.992 1.12-2.144 1.412-3.374l0.015-0.077 0.085-0.36 0.353-0.106c1.202-0.363 2.603-0.819 3.157-1.049 0.026-0.317 0.040-0.687 0.040-1.060s-0.015-0.743-0.043-1.109l0.003 0.048c-0.55-0.226-1.952-0.685-3.153-1.045l-0.354-0.106-0.085-0.36c-0.309-1.306-0.803-2.457-1.46-3.495l0.028 0.047-0.198-0.312 0.175-0.325c0.598-1.107 1.264-2.423 1.496-2.975-0.469-0.541-0.958-1.031-1.478-1.487l-0.017-0.015c-0.554 0.231-1.871 0.898-2.975 1.492l-0.325 0.175-0.319-0.197c-0.991-0.627-2.141-1.118-3.369-1.411l-0.078-0.016-0.36-0.081-0.106-0.356c-0.36-1.202-0.817-2.607-1.045-3.161-0.317-0.024-0.688-0.037-1.061-0.037s-0.744 0.014-1.11 0.040l0.049-0.003c-0.228 0.554-0.685 1.955-1.048 3.161l-0.107 0.353-0.36 0.085c-1.305 0.307-2.457 0.799-3.493 1.457l0.046-0.027-0.319 0.191-0.325-0.175c-1.104-0.594-2.418-1.264-2.969-1.495-0.542 0.467-1.033 0.956-1.487 1.477l-0.015 0.017c0.229 0.554 0.893 1.872 1.489 2.979l0.172 0.325-0.191 0.312c-0.625 0.984-1.114 2.127-1.406 3.347l-0.015 0.077-0.064 0.387-0.383 0.116c-1.202 0.36-2.603 0.813-3.157 1.041-0.024 0.317-0.037 0.688-0.037 1.061s0.014 0.744 0.040 1.11l-0.003-0.049c0.554 0.228 1.955 0.687 3.157 1.051l0.356 0.106 0.082 0.36c0.31 1.304 0.803 2.454 1.46 3.489l-0.027-0.046 0.191 0.312-0.175 0.329c-0.594 1.104-1.261 2.418-1.489 2.969 0.469 0.539 0.958 1.029 1.478 1.483l0.018 0.015c0.554-0.228 1.868-0.893 2.975-1.486l0.6 1.123c-0.009 0-0.835 0.446-1.67 0.869-0.497 0.251-0.9 0.446-1.202 0.579-0.244 0.134-0.53 0.225-0.834 0.258l-0.010 0.001c-0.004 0-0.008 0-0.013 0-0.156 0-0.3-0.055-0.412-0.146l0.001 0.001zM12.1 27.997v-1.574c0-1.67-0.879-2.768-1.899-4.039-1.207-1.504-2.578-3.213-2.578-6.141 0-4.659 3.777-8.436 8.436-8.436s8.436 3.777 8.436 8.436v0c0 2.928-1.368 4.636-2.574 6.141-1.020 1.27-1.899 2.369-1.899 4.039v1.574zM10.995 11.178c-1.295 1.289-2.096 3.072-2.096 5.043 0 0.008 0 0.015 0 0.023v-0.001c-0 0.021-0 0.047-0 0.072 0 1.085 0.261 2.109 0.725 3.013l-0.017-0.037c0.481 0.871 1.008 1.622 1.604 2.313l-0.015-0.017c1.070 1.339 2.178 2.719 2.178 4.837v0.298h5.371v-0.298c0-2.118 1.107-3.5 2.181-4.837 0.581-0.673 1.107-1.425 1.554-2.227l0.035-0.068c0.446-0.866 0.707-1.89 0.707-2.975 0-0.025-0-0.050-0-0.076l0 0.004c-0.002-3.955-3.208-7.16-7.163-7.16-1.977 0-3.767 0.801-5.063 2.096l0-0zM16.62 25.897c0.172-2.578 1.535-4.283 2.634-5.65 1.057-1.322 1.824-2.278 1.824-4.003-0.003-2.771-2.248-5.016-5.018-5.021h-0v-1.275c3.474 0.004 6.289 2.821 6.291 6.295v0c0 2.177-0.972 3.391-2.104 4.798-1.039 1.295-2.212 2.76-2.359 4.94z"></path>
</svg>
