<!-- Generated by IcoMoon.io -->
<svg version="1.1" xmlns="http://www.w3.org/2000/svg" width="32" height="32" viewBox="0 0 32 32">
<title>gear</title>
<path d="M31.993 13.7l-2.512-6.64-4.133-0.347-0.309-4.139-6.61-2.574-3.442 3.243-3.934-2.629-6.096 3.632 0.43 4.715-4.491 1.486-0.889 7.045 3.977 2.564-1.6 4.459 4.994 5.042 4.466-1.559 2.526 4.004 7.044-0.834 1.524-4.482 4.708 0.471 3.68-6.071-2.601-3.957 3.269-3.424zM26.228 24.334v0l-5.141-0.516-0.681 2.005-0.983 2.891-3.703 0.439-2.759-4.373-4.88 1.705-2.628-2.654 1.029-2.876 0.711-1.993-4.343-2.8 0.471-3.71 4.907-1.623-0.194-2.107-0.277-3.044 3.2-1.909 4.299 2.873 3.765-3.541 3.477 1.353 0.178 2.462 0.178 2.27 4.724 0.395 1.323 3.497-3.572 3.737 1.159 1.778 1.673 2.556-1.938 3.2zM18.169 10.411l0.040 0.014c-0.685-0.273-1.432-0.424-2.215-0.425h0c-0.002 0-0.004 0-0.006 0-3.31 0-5.993 2.683-5.993 5.993s2.683 5.993 5.993 5.993c3.31 0 5.993-2.683 5.993-5.993 0-2.525-1.562-4.686-3.813-5.582zM19.099 17.211v0c-0.497 1.253-1.7 2.123-3.105 2.123-1.84 0-3.332-1.492-3.332-3.332s1.492-3.332 3.332-3.332c1.355 0 2.52 0.809 3.041 1.969l0.008 0.021c0.179 0.394 0.283 0.855 0.283 1.34 0 0.435-0.084 0.85-0.236 1.23l0.008-0.022z"></path>
</svg>
