<!-- Generated by IcoMoon.io -->
<svg version="1.1" xmlns="http://www.w3.org/2000/svg" width="32" height="32" viewBox="0 0 32 32">
<title>hands-world</title>
<path d="M26.135 30.284v-2.504h-7.591v2.504h-1.143v-3.648h1.503c-0.255-2.778 0.207-4.491 1.558-5.839 0.861-0.983 2.033-1.675 3.361-1.92l0.036-0.006c0.391-0.394 0.84-0.844 1.209-1.213l0.616-0.616c0.363-0.36 0.835-0.609 1.363-0.692l0.014-0.002c0.093-0.014 0.201-0.021 0.31-0.021 0.008 0 0.017 0 0.025 0h-0.001c0.105-0.761 0.386-2.777 0.594-4.228 0.080-0.944 0.545-1.765 1.236-2.315l0.007-0.005c0.562-0.378 1.255-0.604 2-0.604 0.062 0 0.123 0.002 0.185 0.005l-0.009-0h0.591l-0.33 10.998-6.456 6.456h2.064v3.648zM23.598 26.636l6.944-6.946 0.281-9.328c-1.016 0.153-1.535 0.747-1.702 1.901-0.218 1.539-0.521 3.72-0.61 4.352 0.382 0.204 0.709 0.452 0.992 0.742l0.001 0.001 0.405 0.405-4.507 4.507-0.808-0.807 3.667-3.667c-0.246-0.199-0.563-0.319-0.908-0.319-0.046 0-0.091 0.002-0.135 0.006l0.006-0c-0.286 0.048-0.535 0.18-0.727 0.369l-0.616 0.616c-0.405 0.407-0.914 0.914-1.332 1.332l-0.122 0.125-0.171 0.034c-1.201 0.181-2.236 0.78-2.975 1.642l-0.005 0.007c-1.111 1.111-1.463 2.538-1.219 5.032zM13.451 30.284v-2.504h-7.588v2.504h-1.143v-3.648h2.065l-6.456-6.456-0.33-10.998h0.588c0.053-0.003 0.116-0.004 0.179-0.004 0.744 0 1.436 0.226 2.010 0.612l-0.013-0.008c0.7 0.554 1.167 1.376 1.246 2.308l0.001 0.012c0.206 1.451 0.488 3.467 0.595 4.228 0.007-0 0.015-0 0.023-0 0.108 0 0.214 0.008 0.318 0.023l-0.012-0.001c0.542 0.085 1.015 0.334 1.377 0.694l-0-0 0.622 0.619c0.364 0.366 0.816 0.816 1.207 1.209 1.364 0.251 2.535 0.943 3.388 1.919l0.006 0.007c1.35 1.348 1.813 3.061 1.56 5.839h1.504v3.648zM11.943 26.636c0.245-2.493-0.106-3.92-1.221-5.032-0.744-0.868-1.78-1.467-2.954-1.645l-0.027-0.003-0.171-0.034-0.125-0.125c-0.417-0.416-0.924-0.925-1.327-1.33l-0.622-0.618c-0.191-0.189-0.439-0.321-0.717-0.368l-0.008-0.001c-0.039-0.004-0.084-0.006-0.13-0.006-0.345 0-0.662 0.12-0.911 0.322l0.003-0.002 3.663 3.667-0.808 0.807-4.505-4.507 0.403-0.405c0.285-0.291 0.613-0.539 0.975-0.732l0.021-0.011c-0.089-0.631-0.391-2.814-0.61-4.352-0.167-1.155-0.686-1.749-1.702-1.901l0.28 9.328 6.947 6.946zM16 19.468c-0.003 0-0.007 0-0.010 0-4.903 0-8.877-3.974-8.877-8.877 0-4.899 3.969-8.871 8.867-8.877h0.042c4.898 0.006 8.867 3.978 8.867 8.877 0 4.903-3.974 8.877-8.877 8.877-0.004 0-0.007 0-0.011 0h0.001zM16 18.325c0.544 0 1.177-0.788 1.652-2.060 0.248-0.662 0.458-1.447 0.593-2.257l0.011-0.076h-4.513c0.145 0.886 0.354 1.671 0.632 2.423l-0.029-0.090c0.474 1.272 1.107 2.060 1.654 2.060zM10.53 16.060c0.919 0.925 2.071 1.616 3.361 1.979l0.054 0.013c-0.248-0.397-0.474-0.855-0.652-1.337l-0.017-0.053c-0.291-0.78-0.531-1.699-0.678-2.65l-0.010-0.081h-3.567c0.4 0.821 0.905 1.524 1.509 2.127l0 0zM18.723 16.662c-0.193 0.533-0.418 0.991-0.686 1.42l0.018-0.032c2.186-0.623 3.943-2.117 4.905-4.073l0.020-0.046h-3.568c-0.158 1.031-0.398 1.95-0.723 2.829l0.032-0.099zM23.421 12.788c0.2-0.658 0.315-1.414 0.315-2.196s-0.115-1.539-0.329-2.252l0.014 0.055h-3.862c0.069 0.708 0.105 1.445 0.105 2.195s-0.035 1.488-0.105 2.198zM18.411 12.788c0.071-0.659 0.112-1.423 0.112-2.196s-0.041-1.538-0.12-2.29l0.008 0.094h-4.822c-0.071 0.659-0.112 1.423-0.112 2.196s0.041 1.538 0.12 2.29l-0.008-0.094zM12.44 12.788c-0.070-0.71-0.106-1.446-0.106-2.198s0.036-1.485 0.106-2.195h-3.861c-0.2 0.658-0.315 1.414-0.315 2.196s0.115 1.539 0.329 2.252l-0.014-0.055zM22.981 7.252c-0.982-2.002-2.739-3.497-4.87-4.109l-0.055-0.014c0.248 0.397 0.473 0.855 0.65 1.336l0.017 0.052c0.292 0.781 0.532 1.702 0.679 2.653l0.010 0.080zM18.255 7.252c-0.145-0.886-0.355-1.672-0.633-2.424l0.029 0.090c-0.474-1.271-1.107-2.062-1.652-2.062s-1.179 0.791-1.654 2.062c-0.248 0.663-0.458 1.448-0.592 2.259l-0.010 0.076zM12.587 7.252c0.157-1.032 0.397-1.953 0.721-2.834l-0.032 0.1c0.196-0.534 0.422-0.992 0.689-1.421l-0.019 0.033c-2.187 0.623-3.945 2.118-4.905 4.076l-0.020 0.046z"></path>
</svg>
