<!-- Generated by IcoMoon.io -->
<svg version="1.1" xmlns="http://www.w3.org/2000/svg" width="32" height="32" viewBox="0 0 32 32">
<title>handstack</title>
<path d="M20.93 27.001h-1.595c-0.004 0-0.008 0-0.012 0-0.977 0-1.907-0.199-2.753-0.559l0.046 0.017c-0.258-0.105-0.466-0.205-0.668-0.316l0.034 0.017c-1.218 0.737-2.651 1.256-4.183 1.46l-0.057 0.006-3.729 3.729-0.879-0.879 4.057-4.058 0.238-0.012c1.261-0.142 2.41-0.505 3.447-1.051l-0.053 0.025q-0.264-0.219-0.51-0.462l-6.856-6.856c-0.274-0.275-0.534-0.566-0.777-0.87l-0.016-0.021c-0.261 0.641-0.413 1.385-0.413 2.164v2.113l-5.372 5.368-0.879-0.879 5.005-5.006v-1.595c0-0 0-0 0-0.001 0-1.227 0.311-2.381 0.859-3.388l-0.019 0.037c-0.737-1.218-1.255-2.651-1.457-4.184l-0.006-0.056-4.382-4.383 0.879-0.879 4.707 4.708 0.013 0.237c0.071 0.717 0.219 1.375 0.437 2l-0.018-0.060c0.494 1.493 1.289 2.772 2.319 3.818l-0.001-0.001 3.216 3.216c0.1-0.219 0.231-0.406 0.391-0.566l0-0 0.109-0.113c0.159-0.159 0.345-0.29 0.551-0.385l0.012-0.005-3.269-3.27c-0.348-0.347-0.563-0.826-0.563-1.356s0.215-1.009 0.563-1.356l0.113-0.113c0.202-0.203 0.45-0.361 0.727-0.456l0.013-0.004c-0.075-0.197-0.118-0.425-0.118-0.663 0-0.53 0.215-1.011 0.562-1.359l-0 0 0.113-0.112c0.344-0.348 0.821-0.563 1.348-0.563 0.002 0 0.005 0 0.007 0h-0c0.001 0 0.003 0 0.005 0 0.237 0 0.465 0.043 0.675 0.122l-0.013-0.004c0.099-0.29 0.257-0.538 0.46-0.74l0-0 0.113-0.109c0.347-0.346 0.827-0.561 1.356-0.561s1.009 0.214 1.356 0.561l0.675 0.675c0.101-0.219 0.232-0.406 0.392-0.566l0.109-0.109c0.159-0.16 0.346-0.291 0.554-0.386l0.012-0.005-0.994-0.994c-1.057-1.061-2.52-1.718-4.136-1.718-0.003 0-0.005 0-0.008 0h-2.113l-4.72-4.723 0.879-0.879 4.357 4.354h1.596c0.002 0 0.005 0 0.007 0 0.978 0 1.91 0.199 2.757 0.559l-0.046-0.017q0.326 0.135 0.635 0.301c1.218-0.736 2.65-1.254 4.182-1.459l0.057-0.006 3.729-3.729 0.88 0.879-4.058 4.058-0.238 0.012c-1.261 0.14-2.409 0.504-3.445 1.051l0.052-0.025q0.264 0.219 0.508 0.464l6.858 6.854c0.275 0.275 0.534 0.566 0.777 0.87l0.016 0.021c0.262-0.641 0.414-1.385 0.414-2.164v-2.109l5.368-5.372 0.879 0.879-5.005 5.006v1.595c0 0.001 0 0.002 0 0.002 0 1.226-0.311 2.379-0.859 3.385l0.019-0.037c0.736 1.219 1.254 2.654 1.459 4.188l0.006 0.057 4.383 4.38-0.883 0.879-4.705-4.709-0.012-0.234c-0.075-0.72-0.224-1.378-0.441-2.004l0.019 0.062c-0.493-1.493-1.287-2.772-2.316-3.818l-4.595-4.591c-0.122-0.123-0.291-0.199-0.478-0.199s-0.356 0.076-0.478 0.199l-0.109 0.109c-0.122 0.123-0.197 0.292-0.197 0.479s0.075 0.356 0.198 0.479l2.971 2.971-0.876 0.879-2.974-2.973c-0.013-0.013-0.025-0.025-0.038-0.039l-1.908-1.907c-0.122-0.123-0.29-0.199-0.477-0.199s-0.355 0.076-0.477 0.199l-0 0-0.113 0.109c-0.122 0.123-0.197 0.292-0.197 0.478 0 0.169 0.062 0.325 0.165 0.444l-0.001-0.001 4.95 4.954-0.879 0.879-4.916-4.919c-0.021-0.021-0.040-0.041-0.062-0.062l-0.589-0.589c-0.122-0.122-0.292-0.198-0.478-0.198s-0.356 0.076-0.478 0.198v0l-0.109 0.113c-0.122 0.12-0.198 0.287-0.198 0.472 0 0.001 0 0.002 0 0.003v-0c0 0.001 0 0.003 0 0.004 0 0.186 0.076 0.354 0.198 0.475l5.568 5.568-0.88 0.879-4.92-4.921c-0.122-0.122-0.291-0.197-0.477-0.197s-0.355 0.075-0.477 0.197l-0.113 0.113c-0.121 0.12-0.196 0.286-0.196 0.47 0 0.002 0 0.004 0 0.006v-0c0 0.002-0 0.004-0 0.005 0 0.185 0.075 0.352 0.196 0.473v0l4.479 4.479c0.022 0.019 0.042 0.039 0.062 0.062v0l2.322 2.323-0.879 0.879-2.362-2.362c-0.118-0.101-0.272-0.162-0.44-0.162-0.187 0-0.356 0.075-0.479 0.197l0-0-0.109 0.113c-0.123 0.122-0.199 0.29-0.199 0.477s0.076 0.355 0.199 0.477l2.37 2.37c1.061 1.061 2.527 1.717 4.145 1.718h2.113l4.723 4.723-0.879 0.879z"></path>
</svg>
