<!-- Generated by IcoMoon.io -->
<svg version="1.1" xmlns="http://www.w3.org/2000/svg" width="32" height="32" viewBox="0 0 32 32">
<title>handshake</title>
<path d="M0.002 20.808l5.511-3.15 0.813 1.444 4.071-4.071c0.088-0.77 0.439-1.445 0.961-1.943l0.001-0.001 7.155-7.156-1.188-0.631 2.832-5.3 11.841 6.269-2.832 5.3-1.809-0.958v2.865c0.587 0.050 1.094 0.358 1.412 0.808l0.004 0.006c0.29 0.397 0.465 0.896 0.465 1.434 0 0.239-0.034 0.47-0.098 0.688l0.004-0.017-1.956 7.108c-0.279 0.99-1.077 1.742-2.074 1.949l-0.018 0.003-0.901 0.154c-2.611 1.335-4.055 2.124-5.488 2.929l1.078-0.556c-0.267-0.153-0.587-0.243-0.928-0.243-0.667 0-1.254 0.345-1.591 0.867l-0.005 0.007c-0.267-0.153-0.587-0.243-0.928-0.243-0.667 0-1.254 0.345-1.591 0.867l-0.005 0.007c-0.972-0.002-1.772-0.735-1.881-1.678l-0.001-0.009-1.616 0.276 0.573 1.018-5.513 3.15zM1.717 21.281l5.059 8.995 3.321-1.897-5.061-8.997zM14.108 25.461v1.893c0 0.348 0.282 0.631 0.631 0.631s0.631-0.282 0.631-0.631v0-1.893c0-0.348-0.282-0.631-0.631-0.631s-0.631 0.282-0.631 0.631v0zM16.632 24.83v1.893c0 0.348 0.282 0.631 0.631 0.631s0.631-0.282 0.631-0.631v0-1.893c0-0.348-0.282-0.631-0.631-0.631s-0.631 0.282-0.631 0.631v0zM19.155 24.199v1.893c0 0.348 0.282 0.631 0.631 0.631s0.631-0.282 0.631-0.631v0-1.893c0-0.348-0.282-0.631-0.631-0.631s-0.631 0.282-0.631 0.631v0zM10.582 26.669l2.261-0.389v-0.82c2.672-0.92 4.964-1.986 7.123-3.254l-0.183 0.099c0.267 0.154 0.588 0.245 0.93 0.245 0.667 0 1.253-0.346 1.59-0.868l0.005-0.008c1.045 0 1.893 0.847 1.893 1.893v0 0.763l0.694-0.119c0.527-0.135 0.936-0.534 1.083-1.044l0.003-0.011 1.956-7.129c0.024-0.090 0.039-0.193 0.039-0.299 0-0.259-0.083-0.498-0.225-0.692l0.002 0.003c-0.117-0.18-0.316-0.299-0.543-0.303h-9.109l-1.986 1.491c0.283 0.839 0.864 2.563 0.954 2.975 0.049 0.198 0.077 0.426 0.077 0.66 0 0.386-0.076 0.754-0.215 1.090l0.007-0.019c-0.253 0.585-0.733 1.032-1.325 1.236l-0.016 0.005c-0.239 0.086-0.514 0.136-0.802 0.136-0.306 0-0.599-0.057-0.869-0.16l0.017 0.006c-0.579-0.224-1.037-0.653-1.294-1.196l-0.006-0.014-0.006-0.010-1.978-4.384-3.693 3.694zM21.679 23.566v1.893c0 0.348 0.282 0.631 0.631 0.631s0.631-0.282 0.631-0.631v0-1.893c0-0.348-0.282-0.631-0.631-0.631s-0.631 0.282-0.631 0.631v0zM12.251 13.976c-0.373 0.336-0.607 0.822-0.607 1.361 0 0.158 0.020 0.312 0.058 0.458l-0.003-0.013 2.086 4.627c0.183 0.38 0.565 0.638 1.008 0.638 0.14 0 0.274-0.026 0.397-0.073l-0.008 0.003c0.433-0.177 0.733-0.596 0.733-1.084 0-0.152-0.029-0.297-0.082-0.43l0.003 0.008c-0.074-0.336-0.694-2.186-1.066-3.274l-0.146-0.433 3.060-2.296h8.41v-3.528l-6.414-3.396zM19.037 4.777l9.608 5.089 1.644-3.072-9.612-5.087z"></path>
</svg>
