<!-- Generated by IcoMoon.io -->
<svg version="1.1" xmlns="http://www.w3.org/2000/svg" width="32" height="32" viewBox="0 0 32 32">
<title>hands-person</title>
<path d="M7.355 28.585l-6.593-6.592c-0.29-0.29-0.472-0.687-0.484-1.127l-0-0.002-0.277-9.111c-0-0.011-0.001-0.023-0.001-0.036 0-0.358 0.157-0.68 0.406-0.9l0.001-0.001c0.206-0.184 0.479-0.296 0.779-0.296 0.062 0 0.124 0.005 0.183 0.014l-0.007-0.001c0.679 0.086 1.277 0.383 1.738 0.822l-0.001-0.001c0.517 0.548 0.86 1.265 0.941 2.059l0.001 0.015c0.259 1.811 0.633 4.506 0.637 4.533l-1.2 0.167c-0.004-0.027-0.378-2.72-0.635-4.529-0.206-1.44-0.974-1.758-1.632-1.864l0.274 9.093c0.004 0.121 0.054 0.229 0.133 0.308v0l6.593 6.592z"></path>
<path d="M13.083 28.417l-1.203-0.136c0.303-2.679-0.027-4.171-1.177-5.32-0.741-0.862-1.77-1.457-2.937-1.636l-0.027-0.003-0.182-0.036-2.079-2.080c-0.224-0.23-0.537-0.372-0.883-0.372-0.307 0-0.588 0.112-0.804 0.298l0.002-0.001 3.634 3.634-0.856 0.856-3.676-3.677c-0.211-0.211-0.341-0.502-0.341-0.823 0-0.034 0.001-0.068 0.004-0.101l-0 0.004c0.028-0.345 0.205-0.644 0.467-0.835l0.003-0.002c0.432-0.347 0.987-0.557 1.591-0.557 0.193 0 0.381 0.021 0.561 0.062l-0.017-0.003c0.461 0.117 0.859 0.347 1.173 0.66l1.82 1.82c1.367 0.255 2.541 0.948 3.399 1.927l0.006 0.007c1.427 1.428 1.868 3.255 1.523 6.313z"></path>
<path d="M24.648 28.586l-0.856-0.856 6.593-6.593c0.079-0.079 0.13-0.188 0.133-0.308v-0.001l0.271-9.093c-0.658 0.107-1.426 0.424-1.631 1.864-0.258 1.809-0.632 4.503-0.636 4.529l-1.2-0.167c0.004-0.027 0.378-2.722 0.637-4.533 0.081-0.809 0.425-1.526 0.943-2.076l-0.002 0.002c0.46-0.438 1.058-0.735 1.723-0.82l0.015-0.002c0.053-0.009 0.114-0.013 0.176-0.013 0.3 0 0.573 0.113 0.78 0.298l-0.001-0.001c0.25 0.221 0.406 0.542 0.406 0.9 0 0.013-0 0.026-0.001 0.039l0-0.002-0.274 9.112c-0.012 0.442-0.195 0.838-0.485 1.128l0-0z"></path>
<path d="M18.92 28.417c-0.345-3.057 0.096-4.885 1.524-6.312 0.863-0.985 2.037-1.678 3.367-1.928l0.037-0.006 1.817-1.82c0.315-0.313 0.712-0.544 1.156-0.656l0.017-0.004c0.164-0.037 0.351-0.059 0.544-0.059 0.604 0 1.159 0.21 1.596 0.561l-0.005-0.004c0.265 0.192 0.442 0.491 0.47 0.832l0 0.004c0.003 0.029 0.004 0.063 0.004 0.098 0 0.321-0.13 0.611-0.34 0.822l-3.68 3.68-0.856-0.856 3.634-3.634c-0.216-0.178-0.496-0.286-0.801-0.286-0.345 0-0.657 0.138-0.885 0.361l0-0-2.074 2.076-0.182 0.036c-1.194 0.182-2.223 0.777-2.959 1.633l-0.005 0.006c-1.151 1.151-1.479 2.641-1.177 5.32z"></path>
<path d="M16.221 5.439c-1.265 0-2.291-1.026-2.291-2.291s1.026-2.291 2.291-2.291c1.265 0 2.291 1.026 2.291 2.291v0c-0.001 1.264-1.026 2.289-2.291 2.291h-0zM16.221 2.070c-0.596 0-1.079 0.483-1.079 1.079s0.483 1.079 1.079 1.079c0.596 0 1.079-0.483 1.079-1.079v0c-0-0.596-0.483-1.079-1.079-1.079h-0z"></path>
<path d="M14.107 21.544l-0.485-6.559c-0.87-0.219-1.701-0.744-1.763-1.667l-0.363-4.942v-0.024c0-0.002 0-0.005 0-0.007 0-1.283 1.014-2.33 2.284-2.383l0.005-0h4.507c0.65 0.027 1.234 0.291 1.672 0.707l-0.001-0.001c0.461 0.417 0.753 1.013 0.765 1.678l0 0.002c0 0.025 0 0.066 0 0.121v0.016l-0.363 4.839c-0.055 0.577-0.4 1.062-0.885 1.313l-0.009 0.004c-0.247 0.145-0.532 0.262-0.834 0.339l-0.023 0.005-0.485 6.545-1.208-0.090 0.559-7.516 0.502-0.054 0.061-0.007c0.525-0.077 1.095-0.325 1.118-0.632l0.36-4.829c0-0.011 0-0.019 0-0.028v-0.020c-0.067-0.648-0.597-1.153-1.25-1.18l-0.003-0h-4.459c-0.614 0.036-1.098 0.542-1.1 1.161v0l0.36 4.902c0.020 0.303 0.597 0.551 1.13 0.63l0.047 0.006 0.513 0.045 0.558 7.538z"></path>
<path d="M14.632 31.142h-1.211v-2.471h-7.521v2.47h-1.211v-3.681h9.944z"></path>
<path d="M27.315 31.142h-1.211v-2.471h-7.522v2.47h-1.211v-3.681h9.944z"></path>
</svg>
