<!-- Generated by IcoMoon.io -->
<svg version="1.1" xmlns="http://www.w3.org/2000/svg" width="32" height="32" viewBox="0 0 32 32">
<title>headphones</title>
<path d="M30.153 15.073v0.964c0.535 0.539 0.97 1.178 1.272 1.888l0.015 0.039c0.346 0.78 0.551 1.688 0.56 2.644l0 0.003v3.692c-0.099 3.358-2.796 6.055-6.145 6.153l-0.009 0c-5.586 0-5.563-3.072-5.54-6.222v-3.559c-0.025-3.125-0.046-6.222 5.54-6.222 0.494 0.005 0.973 0.063 1.433 0.17l-0.044-0.009c0.151 0.034 0.304 0.073 0.452 0.114-0.052-2.98-1.312-5.655-3.31-7.566l-0.004-0.004c-2.218-1.968-5.155-3.169-8.372-3.169s-6.154 1.202-8.386 3.181l0.013-0.011c-2.014 1.927-3.278 4.624-3.317 7.616l-0 0.007c0.169-0.053 0.341-0.103 0.514-0.148 0.397-0.107 0.855-0.172 1.326-0.178l0.004-0c5.588 0 5.563 3.092 5.54 6.222v3.566c0.025 3.141 0.048 6.222-5.54 6.222-3.358-0.098-6.055-2.795-6.153-6.144l-0-0.009v-3.707c0.008-0.959 0.213-1.867 0.575-2.691l-0.017 0.044c0.317-0.749 0.752-1.388 1.287-1.927l-0 0v-0.964c-0-0.019-0-0.042-0-0.064 0-3.763 1.575-7.157 4.101-9.561l0.005-0.005c2.636-2.422 6.167-3.906 10.044-3.906s7.408 1.484 10.055 3.916l-0.011-0.010c2.531 2.408 4.105 5.802 4.105 9.564 0 0.023-0 0.047-0 0.070v-0.004zM9.237 20.493c0.023-2.256 0.036-3.575-3.084-3.575-1.998 0.096-3.595 1.692-3.69 3.682l-0 0.009v3.692c0.096 1.998 1.692 3.595 3.682 3.69l0.009 0c3.12 0 3.108-1.319 3.084-3.575v-3.924zM28.409 26.865c0.674-0.65 1.102-1.553 1.129-2.555l0-0.005v-3.698c-0.027-1.007-0.455-1.91-1.128-2.559l-0.001-0.001c-0.65-0.675-1.552-1.102-2.555-1.129l-0.005-0c-3.12 0-3.108 1.319-3.083 3.575v3.924c-0.025 2.256-0.037 3.575 3.083 3.575 1.008-0.027 1.91-0.454 2.559-1.128l0.001-0.001z"></path>
</svg>
