<!-- Generated by IcoMoon.io -->
<svg version="1.1" xmlns="http://www.w3.org/2000/svg" width="32" height="32" viewBox="0 0 32 32">
<title>help</title>
<path d="M-0.002 15.998c0-8.837 7.163-16 16-16s16 7.163 16 16c0 8.837-7.163 16-16 16v0c-8.832-0.010-15.99-7.168-16-15.999v-0.001zM1.998 15.998c0 7.732 6.268 14 14 14s14-6.268 14-14c0-7.732-6.268-14-14-14v0c-7.728 0.010-13.99 6.272-14 13.999v0.001zM14.998 23.498c0-0.552 0.448-1 1-1s1 0.448 1 1c0 0.552-0.448 1-1 1v0c-0.552 0-1-0.448-1-1v0zM14.93 17.815c-0.033-0.094-0.051-0.203-0.051-0.316 0-0.439 0.283-0.813 0.677-0.947l0.007-0.002c0.036-0.012 3.816-1.347 3.816-3.551 0-0.001 0-0.001 0-0.002 0-1.933-1.567-3.5-3.5-3.5-1.515 0-2.805 0.963-3.292 2.309l-0.008 0.024c-0.133 0.407-0.509 0.696-0.953 0.696-0.552 0-1-0.448-1-1 0-0.129 0.024-0.253 0.069-0.366l-0.002 0.007c0.777-2.157 2.805-3.671 5.187-3.671 3.038 0 5.5 2.462 5.5 5.5 0 0 0 0.001 0 0.001v-0c0 3.677-4.972 5.377-5.184 5.447-0.094 0.032-0.203 0.051-0.316 0.051-0.439 0-0.812-0.283-0.946-0.676l-0.002-0.007z"></path>
</svg>
