<!-- Generated by IcoMoon.io -->
<svg version="1.1" xmlns="http://www.w3.org/2000/svg" width="32" height="32" viewBox="0 0 32 32">
<title>hide</title>
<path d="M30.293 31.705l-6.3-6.3c-2.24 1.531-4.997 2.46-7.97 2.5l-0.010 0h-0.015c-4.186 0-8.27-1.992-11.811-5.766-1.554-1.654-2.909-3.523-4.010-5.55l-0.070-0.141c-0.068-0.131-0.108-0.286-0.108-0.451 0-0.174 0.045-0.337 0.123-0.479l-0.003 0.005c1.637-3.024 3.737-5.58 6.238-7.674l0.041-0.033-6.109-6.109c-0.181-0.181-0.293-0.431-0.293-0.708 0-0.553 0.448-1.001 1.001-1.001 0.276 0 0.527 0.112 0.708 0.293v0l6.893 6.896c0.008 0.006 0.014 0.012 0.020 0.019l0 0 5.18 5.177c0.014 0.014 0.029 0.027 0.043 0.042l5.734 5.736c0.015 0.013 0.029 0.027 0.043 0.041l5.154 5.154c0.021 0.021 0.043 0.041 0.063 0.063l6.875 6.874c0.18 0.181 0.291 0.43 0.291 0.705s-0.111 0.524-0.291 0.705l0-0c-0.183 0.182-0.434 0.294-0.712 0.296h-0c-0.276-0.001-0.525-0.114-0.705-0.295l-0-0zM2.137 16c1.056 1.82 2.231 3.395 3.563 4.821l-0.014-0.015c3.184 3.379 6.652 5.1 10.3 5.1 2.436-0.038 4.697-0.759 6.608-1.978l-0.051 0.030-3.705-3.7c-0.818 0.587-1.84 0.938-2.943 0.938v0c-0.447-0.001-0.881-0.059-1.294-0.166l0.036 0.008c-2.222-0.579-3.836-2.568-3.836-4.934 0-1.103 0.351-2.124 0.947-2.957l-0.011 0.015-3.913-3.922c-2.278 1.875-4.175 4.114-5.625 6.643l-0.062 0.117zM12.905 16.862c0.351 1.348 1.558 2.326 2.993 2.326 0.549 0 1.064-0.143 1.511-0.394l-0.015 0.008-4.2-4.2c-0.243 0.431-0.387 0.946-0.387 1.495 0 0.274 0.036 0.539 0.103 0.792l-0.005-0.021zM27.413 21.109c-0.218-0.185-0.356-0.459-0.356-0.765 0-0.246 0.089-0.471 0.236-0.645l-0.001 0.001c0.92-1.087 1.77-2.297 2.506-3.581l0.063-0.119c-1.054-1.821-2.229-3.397-3.562-4.822l0.013 0.015c-3.184-3.384-6.658-5.1-10.311-5.1-0.002 0-0.004 0-0.006 0-0.933 0-1.841 0.109-2.711 0.316l0.079-0.016c-0.068 0.017-0.147 0.026-0.227 0.026-0.553 0-1.001-0.448-1.001-1.001 0-0.472 0.327-0.868 0.767-0.974l0.007-0.001c0.924-0.224 1.984-0.353 3.075-0.353 0.005 0 0.010 0 0.015 0h-0.001c4.18 0 8.27 2 11.807 5.772 1.559 1.654 2.918 3.524 4.023 5.553l0.070 0.14c0.066 0.13 0.104 0.284 0.104 0.447 0 0.172-0.043 0.334-0.119 0.476l0.003-0.005c-0.929 1.717-1.944 3.198-3.094 4.56l0.032-0.039c-0.185 0.219-0.459 0.358-0.766 0.358h-0c-0.001 0-0.002 0-0.004 0-0.246 0-0.471-0.090-0.644-0.239l0.001 0.001z"></path>
</svg>
