<!-- Generated by IcoMoon.io -->
<svg version="1.1" xmlns="http://www.w3.org/2000/svg" width="32" height="32" viewBox="0 0 32 32">
<title>idea</title>
<path d="M18.411 31.998c-2.588-0.003-4.684-2.099-4.687-4.687v-2.865h1.28v2.864c0.002 1.881 1.526 3.405 3.407 3.407h5.568c0.002 0 0.004 0 0.006 0 1.108 0 2.019-0.844 2.125-1.925l0.001-0.009 0.43-4.38c0.075-0.739 0.613-1.333 1.316-1.492l0.011-0.002 1.865-0.412c0.12-0.026 0.217-0.104 0.268-0.209l0.001-0.002c0.025-0.050 0.040-0.108 0.040-0.17s-0.015-0.12-0.041-0.172l0.001 0.002-2.983-6.033c-0.18-0.367-0.285-0.798-0.285-1.254 0-0.072 0.003-0.143 0.008-0.214l-0.001 0.009c0.017-0.256 0.028-0.52 0.028-0.773-0.003-5.46-3.529-10.095-8.428-11.755l-0.087-0.026c-1.162-0.395-2.5-0.622-3.891-0.622-0.494 0-0.982 0.029-1.461 0.085l0.058-0.006c-6.22 0.718-11.004 5.955-11.004 12.308 0 3.153 1.178 6.030 3.118 8.216l-0.011-0.013c0.788 0.865 1.276 2.016 1.291 3.281l0 0.003v6.208h-1.28v-6.208c-0.016-0.943-0.383-1.797-0.975-2.44l0.002 0.003c-2.118-2.397-3.411-5.567-3.411-9.038 0-7.555 6.125-13.68 13.68-13.68s13.68 6.125 13.68 13.68c0 0.002 0 0.003 0 0.005v-0c0 0.284-0.013 0.57-0.030 0.859-0.003 0.038-0.005 0.083-0.005 0.128 0 0.246 0.057 0.479 0.158 0.687l-0.004-0.009 2.981 6.033c0.11 0.216 0.174 0.471 0.174 0.741 0 0.795-0.558 1.46-1.303 1.625l-0.011 0.002-1.865 0.412c-0.176 0.040-0.308 0.185-0.329 0.365l-0 0.002-0.429 4.383c-0.175 1.741-1.633 3.088-3.405 3.088-0.001 0-0.002 0-0.002 0h0zM12.361 22.83v-1.28h4.005v1.28zM18.687 18.916l0.904-0.907 2.085 2.086-0.906 0.904zM7.051 20.094l2.085-2.086 0.904 0.907-2.085 2.082zM15.723 20.384v-0.564c0-1.366 0.699-2.232 1.37-3.072 0.683-0.851 1.327-1.653 1.327-3.061 0-2.241-1.817-4.057-4.057-4.057s-4.057 1.817-4.057 4.057v0c0.037 1.199 0.537 2.275 1.325 3.061l0 0c0.674 0.841 1.369 1.707 1.369 3.072v0.564h-1.28v-0.564c0-0.916-0.48-1.515-1.088-2.271-0.968-1.002-1.574-2.359-1.605-3.858l-0-0.006c0-2.948 2.39-5.337 5.337-5.337s5.337 2.39 5.337 5.337v0c-0.032 1.505-0.639 2.861-1.609 3.865l0.002-0.002c-0.609 0.755-1.088 1.354-1.088 2.271v0.564zM21.085 14.334v-1.28h2.92v1.28zM4.664 14.327v-1.28h2.975v1.28zM18.659 8.483l2.112-2.107 0.906 0.904-2.109 2.112zM7.053 7.281l0.904-0.904 2.106 2.107-0.904 0.907zM13.724 6.968v-2.98h1.28v2.98z"></path>
</svg>
