<!-- Generated by IcoMoon.io -->
<svg version="1.1" xmlns="http://www.w3.org/2000/svg" width="32" height="32" viewBox="0 0 32 32">
<title>info</title>
<path d="M-0.002 16.001c0-8.837 7.163-16 16-16s16 7.163 16 16c0 8.837-7.163 16-16 16v0c-8.832-0.010-15.99-7.168-16-15.999v-0.001zM1.998 16.001c0 7.732 6.268 14 14 14s14-6.268 14-14c0-7.732-6.268-14-14-14v0c-7.728 0.009-13.991 6.272-14 13.999v0.001zM14.998 21.95v-5.867c0-0.552 0.448-1 1-1s1 0.448 1 1v0 5.866c0 0.552-0.448 1-1 1s-1-0.448-1-1v0zM14.998 10.083c0-0.552 0.448-1 1-1s1 0.448 1 1c0 0.552-0.448 1-1 1v0c-0.552 0-1-0.448-1-1v0z"></path>
</svg>
