<!-- Generated by IcoMoon.io -->
<svg version="1.1" xmlns="http://www.w3.org/2000/svg" width="32" height="32" viewBox="0 0 32 32">
<title>language</title>
<path d="M16 0c8.837 0 16 7.163 16 16s-7.163 16-16 16c-8.837 0-16-7.163-16-16v0c0.010-8.832 7.168-15.99 15.999-16h0.001zM16 30c7.732 0 14-6.268 14-14s-6.268-14-14-14c-7.732 0-14 6.268-14 14v0c0.009 7.728 6.272 13.991 13.999 14h0.001z"></path>
<path d="M31 17h-30c-0.552 0-1-0.448-1-1s0.448-1 1-1v0h30c0.552 0 1 0.448 1 1s-0.448 1-1 1v0z"></path>
<path d="M16 0c0.292 0 0.555 0.126 0.737 0.325l0.001 0.001c3.777 4.122 6.132 9.601 6.262 15.627l0 0.026q0 0.021 0 0.042c-0.129 6.053-2.485 11.531-6.277 15.672l0.016-0.018c-0.183 0.201-0.446 0.326-0.738 0.326s-0.555-0.125-0.738-0.325l-0.001-0.001c-3.777-4.123-6.133-9.601-6.262-15.628l-0-0.026q0-0.021 0-0.042c0.13-6.052 2.485-11.531 6.278-15.671l-0.016 0.018c0.183-0.2 0.446-0.326 0.738-0.326h0zM21 16c-0.115-5.145-1.984-9.833-5.029-13.511l0.029 0.037c-3.016 3.641-4.885 8.329-5 13.449l-0 0.025c0.115 5.145 1.984 9.833 5.029 13.511l-0.029-0.037c3.016-3.641 4.885-8.329 5-13.449l0-0.025z"></path>
</svg>
