<!-- Generated by IcoMoon.io -->
<svg version="1.1" xmlns="http://www.w3.org/2000/svg" width="32" height="32" viewBox="0 0 32 32">
<title>leaf</title>
<path d="M27.855 3.554c-0.293 0.004-0.547 0.168-0.678 0.41l-0.002 0.004c-1.457 2.557-4.165 4.254-7.269 4.254-0.007 0-0.014 0-0.020-0h-3.89c-5.153 0.003-9.329 4.179-9.332 9.332v0c0.008 0.361 0.034 0.708 0.078 1.048l-0.005-0.048c3.693-2.58 8.276-4.122 13.219-4.122 0.25 0 0.498 0.004 0.746 0.012l-0.036-0.001c0.43 0 0.778 0.348 0.778 0.778s-0.348 0.778-0.778 0.778v0c-12.222 0-17.4 7.492-18.552 10.307-0.063 0.163-0.099 0.351-0.099 0.547 0 0.86 0.698 1.558 1.558 1.558 0.631 0 1.174-0.375 1.419-0.914l0.004-0.010c0.858-1.75 2.038-3.218 3.476-4.381l0.024-0.019c1.715 2.317 4.438 3.802 7.508 3.802 0.349 0 0.694-0.019 1.034-0.057l-0.042 0.004c7.633-0.554 13-7.4 13-15.781 0-0.009 0-0.019 0-0.030 0-2.531-0.532-4.937-1.489-7.114l0.044 0.113c-0.116-0.279-0.385-0.471-0.7-0.473h-0zM27.851 1.552v0c0.002 0 0.005 0 0.008 0 1.121 0 2.086 0.673 2.51 1.637l0.007 0.018c1.024 2.299 1.62 4.981 1.62 7.803 0 0.016-0 0.031-0 0.047v-0.002c0.001 0.076 0.002 0.166 0.002 0.256 0 4.483-1.54 8.607-4.12 11.871l0.031-0.040c-2.574 3.212-6.378 5.346-10.686 5.684l-0.053 0.003c-0.359 0.040-0.777 0.062-1.199 0.063h-0.001c-0.009 0-0.020 0-0.031 0-1.998 0-3.871-0.531-5.487-1.46l0.054 0.028c-0.796-0.451-1.484-0.951-2.11-1.518l0.010 0.009c-0.607 0.665-1.129 1.423-1.537 2.248l-0.025 0.057c-0.563 1.267-1.811 2.135-3.261 2.135-1.965 0-3.558-1.593-3.558-3.558 0-0.459 0.087-0.898 0.246-1.301l-0.008 0.024c1.090-2.409 2.633-4.437 4.538-6.054l0.024-0.020-0.086-0.836c-0.041-0.322-0.067-0.7-0.072-1.084l-0-0.006c0.008-6.255 5.077-11.324 11.331-11.333h3.89c0.002 0 0.003 0 0.005 0 2.37 0 4.437-1.296 5.531-3.219l0.016-0.031c0.488-0.847 1.386-1.41 2.416-1.417h0.001z"></path>
</svg>
