<!-- Generated by IcoMoon.io -->
<svg version="1.1" xmlns="http://www.w3.org/2000/svg" width="32" height="32" viewBox="0 0 32 32">
<title>link</title>
<path d="M4.336 32.002c-2.393-0.004-4.333-1.943-4.336-4.337v-18.33c0.006-2.392 1.944-4.329 4.336-4.333h10c0.552 0 1 0.448 1 1s-0.448 1-1 1v0h-10c-1.289 0.001-2.333 1.045-2.336 2.333v18.33c0.001 1.29 1.046 2.336 2.336 2.337h18.332c1.289-0.003 2.332-1.048 2.332-2.337 0 0 0 0 0 0v0-10c0-0.552 0.448-1 1-1s1 0.448 1 1v0 10c-0.003 2.392-1.94 4.331-4.331 4.337h-0.001zM11.957 20.037c-0.181-0.181-0.292-0.431-0.292-0.706s0.112-0.526 0.292-0.706v0l16.631-16.622h-7.588c-0.552 0-1-0.448-1-1s0.448-1 1-1v0h10.1c0.477 0.047 0.853 0.423 0.9 0.896l0 0.004v0.014c0 0.005 0.001 0.012 0.001 0.018s-0 0.013-0.001 0.019l0-0.001c0.001 0.007 0.001 0.016 0.001 0.025s-0 0.018-0.001 0.026l0-0.001v10c0 0.552-0.448 1-1 1s-1-0.448-1-1v0-7.589l-16.629 16.625c-0.181 0.181-0.431 0.293-0.707 0.293s-0.526-0.112-0.707-0.293v0z"></path>
</svg>
