<!-- Generated by IcoMoon.io -->
<svg version="1.1" xmlns="http://www.w3.org/2000/svg" width="32" height="32" viewBox="0 0 32 32">
<title>list</title>
<path d="M23 23h-16c-0.552 0-1-0.448-1-1v0c0-0.552 0.448-1 1-1v0h16c0.552 0 1 0.448 1 1v0c0 0.552-0.448 1-1 1v0z"></path>
<path d="M15 29h-8c-0.552 0-1-0.448-1-1v0c0-0.552 0.448-1 1-1v0h8c0.552 0 1 0.448 1 1v0c0 0.552-0.448 1-1 1v0z"></path>
<path d="M2 23h-1c-0.552 0-1-0.448-1-1v0c0-0.552 0.448-1 1-1v0h1c0.552 0 1 0.448 1 1v0c0 0.552-0.448 1-1 1v0z"></path>
<path d="M2 29h-1c-0.552 0-1-0.448-1-1v0c0-0.552 0.448-1 1-1v0h1c0.552 0 1 0.448 1 1v0c0 0.552-0.448 1-1 1v0z"></path>
<path d="M31 17h-24c-0.552 0-1-0.448-1-1v0c0-0.552 0.448-1 1-1v0h24c0.552 0 1 0.448 1 1v0c0 0.552-0.448 1-1 1v0z"></path>
<path d="M2 17h-1c-0.552 0-1-0.448-1-1v0c0-0.552 0.448-1 1-1v0h1c0.552 0 1 0.448 1 1v0c0 0.552-0.448 1-1 1v0z"></path>
<path d="M31 5h-24c-0.552 0-1-0.448-1-1v0c0-0.552 0.448-1 1-1v0h24c0.552 0 1 0.448 1 1v0c0 0.552-0.448 1-1 1v0z"></path>
<path d="M19 10.999h-12c-0.552 0-1-0.448-1-1v0c0-0.552 0.448-1 1-1v0h12c0.552 0 1 0.448 1 1v0c0 0.552-0.448 1-1 1v0z"></path>
<path d="M2 5h-1c-0.552 0-1-0.448-1-1v0c0-0.552 0.448-1 1-1v0h1c0.552 0 1 0.448 1 1v0c0 0.552-0.448 1-1 1v0z"></path>
<path d="M2 11.001h-1c-0.552 0-1-0.448-1-1v0c0-0.552 0.448-1 1-1v0h1c0.552 0 1 0.448 1 1v0c0 0.552-0.448 1-1 1v0z"></path>
</svg>
