<!-- Generated by IcoMoon.io -->
<svg version="1.1" xmlns="http://www.w3.org/2000/svg" width="32" height="32" viewBox="0 0 32 32">
<title>logout</title>
<path d="M11 32h-6.667c-2.392-0.003-4.33-1.941-4.333-4.333v-23.334c0.003-2.392 1.941-4.33 4.333-4.333h6.667c0.552 0 1 0.448 1 1s-0.448 1-1 1v0h-6.667c-1.288 0.002-2.331 1.045-2.333 2.333v23.334c0.002 1.288 1.045 2.331 2.333 2.333h6.667c0.552 0 1 0.448 1 1s-0.448 1-1 1v0z"></path>
<path d="M22.667 25.334c-0.552-0-1-0.448-1-1 0-0.276 0.112-0.526 0.293-0.707l7.626-7.626-7.626-7.626c-0.174-0.18-0.281-0.425-0.281-0.695 0-0.552 0.448-1 1-1 0.27 0 0.515 0.107 0.695 0.281l8.333 8.333c0.181 0.181 0.293 0.431 0.293 0.707s-0.112 0.526-0.293 0.707l-8.333 8.333c-0.181 0.181-0.431 0.293-0.707 0.293v0z"></path>
<path d="M31 17h-20c-0.552 0-1-0.448-1-1s0.448-1 1-1v0h20c0.552 0 1 0.448 1 1s-0.448 1-1 1v0z"></path>
</svg>
