<!-- Generated by IcoMoon.io -->
<svg version="1.1" xmlns="http://www.w3.org/2000/svg" width="32" height="32" viewBox="0 0 32 32">
<title>love-people</title>
<path d="M4.754 26.455c-1.491 0-2.7-1.209-2.7-2.7s1.209-2.7 2.7-2.7c1.491 0 2.7 1.209 2.7 2.7v0c-0.002 1.49-1.209 2.698-2.7 2.7h-0zM4.754 22.319c-0.793 0-1.436 0.643-1.436 1.436s0.643 1.436 1.436 1.436c0.793 0 1.436-0.643 1.436-1.436v0c-0.001-0.793-0.644-1.435-1.436-1.436h-0z"></path>
<path d="M9.508 31.791h-1.263v-2.467c-0.001-0.531-0.431-0.961-0.962-0.961h-5.058c-0.531 0-0.961 0.43-0.962 0.961v2.467h-1.263v-2.467c0.002-1.228 0.997-2.223 2.225-2.225h5.058c1.228 0.001 2.223 0.997 2.225 2.224v0z"></path>
<path d="M27.246 26.455c-1.491 0-2.7-1.209-2.7-2.7s1.209-2.7 2.7-2.7c1.491 0 2.7 1.209 2.7 2.7v0c-0.002 1.49-1.209 2.698-2.7 2.7h-0zM27.246 22.319c-0.793 0-1.436 0.643-1.436 1.436s0.643 1.436 1.436 1.436c0.793 0 1.436-0.643 1.436-1.436v0c-0.001-0.793-0.644-1.435-1.436-1.436h-0z"></path>
<path d="M32 31.791h-1.263v-2.467c-0.001-0.531-0.431-0.961-0.962-0.961h-5.058c-0.531 0-0.961 0.43-0.962 0.961v2.467h-1.263v-2.467c0.002-1.228 0.997-2.223 2.225-2.225h5.058c1.228 0.001 2.224 0.997 2.225 2.224v0z"></path>
<path d="M4.754 5.608c-1.491 0-2.7-1.209-2.7-2.7s1.209-2.7 2.7-2.7c1.491 0 2.7 1.209 2.7 2.7v0c-0.002 1.49-1.21 2.697-2.699 2.7h-0zM4.754 1.472c-0.793 0-1.436 0.643-1.436 1.436s0.643 1.436 1.436 1.436c0.793 0 1.436-0.643 1.436-1.436v0c-0.001-0.793-0.644-1.435-1.436-1.436h-0z"></path>
<path d="M9.508 10.944h-1.263v-2.467c-0.001-0.531-0.431-0.961-0.962-0.961h-5.058c-0.531 0-0.961 0.43-0.962 0.961v2.467h-1.263v-2.467c0.002-1.228 0.997-2.223 2.225-2.225h5.058c1.228 0.001 2.223 0.997 2.225 2.224v0z"></path>
<path d="M27.246 5.608c-1.491 0-2.7-1.209-2.7-2.7s1.209-2.7 2.7-2.7c1.491 0 2.7 1.209 2.7 2.7v0c-0.002 1.49-1.21 2.697-2.699 2.7h-0zM27.246 1.472c-0.793 0-1.436 0.643-1.436 1.436s0.643 1.436 1.436 1.436c0.793 0 1.436-0.643 1.436-1.436v0c-0.001-0.793-0.644-1.435-1.436-1.436h-0z"></path>
<path d="M32 10.944h-1.263v-2.467c-0.001-0.531-0.431-0.961-0.962-0.961h-5.058c-0.531 0-0.961 0.43-0.962 0.961v2.467h-1.263v-2.467c0.002-1.228 0.997-2.223 2.225-2.225h5.058c1.228 0.001 2.224 0.997 2.225 2.224v0z"></path>
<path d="M22.318 26.141l-4.645-3.79 0.799-0.98 4.645 3.79z"></path>
<path d="M21.957 16.123l-0.798-0.978 4.497-3.67 0.799 0.979z"></path>
<path d="M15.945 24.647v0c-0.001 0-0.001 0-0.002 0-0.307 0-0.586-0.122-0.791-0.32l0 0c-0.604-0.579-1.782-1.725-2.888-2.906-2.141-2.282-2.415-2.998-2.505-3.233-0.151-0.384-0.239-0.829-0.239-1.294 0-2.002 1.623-3.625 3.625-3.625 1.158 0 2.189 0.543 2.853 1.388l0.006 0.008c0.67-0.844 1.696-1.381 2.847-1.381 2.002 0 3.625 1.623 3.625 3.625 0 0.485-0.095 0.949-0.269 1.372l0.009-0.024c-0.094 0.234-0.379 0.947-2.556 3.204-1.128 1.17-2.323 2.303-2.935 2.875-0.204 0.192-0.479 0.311-0.782 0.311h-0zM13.145 14.533c-1.304 0.002-2.36 1.059-2.36 2.363 0 0.303 0.057 0.592 0.161 0.858l-0.006-0.016c0.292 0.762 2.253 2.956 5.006 5.6 2.797-2.616 4.794-4.79 5.099-5.55 0.115-0.268 0.181-0.58 0.181-0.908 0-1.304-1.057-2.361-2.361-2.361-0.998 0-1.852 0.619-2.197 1.495l-0.006 0.016c-0.016 0.042-0.033 0.095-0.047 0.15l-0.002 0.010c-0.074 0.273-0.319 0.471-0.611 0.471s-0.537-0.198-0.61-0.466l-0.001-0.004c-0.006-0.023-0.025-0.094-0.041-0.136-0.352-0.894-1.206-1.517-2.206-1.521h-0.001z"></path>
<path d="M10.035 16.117l-4.49-3.664 0.798-0.979 4.49 3.664z"></path>
<path d="M9.681 26.141l-0.798-0.979 4.442-3.624 0.798 0.979z"></path>
</svg>
