<!-- Generated by IcoMoon.io -->
<svg version="1.1" xmlns="http://www.w3.org/2000/svg" width="32" height="32" viewBox="0 0 32 32">
<title>made-in-zaki</title>
<path d="M19.78 25.878h-19.78v-19.755h19.78v4.639h12.22l-12.22 10.473v4.643zM15.174 16.286v3.079h0.826v-3.078h-0.826zM12.667 18.29v0l0.851 1.074h1.066l-1.336-1.683 1.336-1.395h-1.102l-1.203 1.257v-1.256h-0.826v3.078h0.826v-0.67l0.388-0.404zM8.386 18.897h1.532l0.202 0.467h0.916l-1.39-3.078h-0.988l-1.389 3.078h0.914l0.202-0.467zM3.902 16.284v0.726h1.806l-1.806 1.631v0.724h2.965v-0.721h-1.805l1.805-1.631v-0.725h-2.965zM14.418 13.338v0l1.444 1.707h0.137v-2.079h-0.213v1.707l-1.442-1.707h-0.137v2.079h0.213l-0.003-1.707zM13.426 12.966v2.080h0.215v-2.079h-0.215zM10.924 12.966v2.080h1.307v-0.176h-1.095v-0.797h0.999v-0.176h-0.999v-0.753h1.068v-0.177h-1.281zM8.776 12.966v2.080h0.706c0.562-0.016 1.012-0.475 1.012-1.040s-0.45-1.024-1.010-1.039l-0.001-0h-0.706zM6.922 14.505h1.1l0.233 0.542h0.228l-0.91-2.079h-0.201l-0.91 2.079h0.228l0.234-0.541zM5.919 13.336v0l0.091 1.71h0.213l-0.124-2.1h-0.223l-0.812 1.764-0.817-1.764h-0.222l-0.123 2.1h0.21l0.093-1.712 0.79 1.712h0.131zM9.606 18.175h-0.907l0.455-1.049 0.453 1.049zM9.465 14.87h-0.474v-1.726h0.474c0.451 0.032 0.805 0.406 0.805 0.863s-0.354 0.831-0.802 0.863l-0.003 0zM7.947 14.325h-0.948l0.474-1.1 0.473 1.098z"></path>
</svg>
