<!-- Generated by IcoMoon.io -->
<svg version="1.1" xmlns="http://www.w3.org/2000/svg" width="32" height="32" viewBox="0 0 32 32">
<title>map-marker</title>
<path d="M15.546 31.812c-1.988-2.049-3.857-4.246-5.577-6.56l-0.124-0.175c-1.406-1.858-2.714-3.958-3.826-6.173l-0.107-0.235c-1.049-1.962-1.708-4.276-1.815-6.733l-0.001-0.034c0-6.574 5.329-11.903 11.903-11.903s11.903 5.329 11.903 11.903v0c-0.113 2.484-0.774 4.79-1.864 6.832l0.042-0.086c-1.222 2.45-2.53 4.548-4.009 6.511l0.076-0.105c-1.844 2.498-3.711 4.701-5.713 6.773l0.018-0.019c-0.115 0.118-0.275 0.191-0.452 0.192h-0c-0 0-0 0-0.001 0-0.177 0-0.337-0.072-0.453-0.188v0zM8.487 4.393c-1.921 1.912-3.11 4.559-3.11 7.483 0 0.010 0 0.020 0 0.029v-0.002c0.108 2.287 0.719 4.408 1.724 6.287l-0.039-0.079c1.179 2.369 2.444 4.398 3.877 6.295l-0.072-0.1c1.684 2.271 3.365 4.27 5.158 6.163l-0.028-0.030c1.76-1.866 3.44-3.871 5-5.97l0.127-0.179c1.356-1.797 2.621-3.828 3.699-5.969l0.105-0.23c0.965-1.793 1.578-3.905 1.692-6.149l0.001-0.035c0-0 0-0 0-0.001 0-5.867-4.756-10.623-10.623-10.623-2.934 0-5.59 1.19-7.513 3.113l-0 0zM10.241 11.524c0-3.181 2.579-5.759 5.759-5.759s5.759 2.579 5.759 5.759c0 3.181-2.579 5.759-5.759 5.759v0c-3.179-0.004-5.756-2.58-5.759-5.759v-0zM11.52 11.524c0 2.474 2.006 4.48 4.48 4.48s4.48-2.006 4.48-4.48c0-2.474-2.006-4.48-4.48-4.48v0c-2.473 0.002-4.477 2.006-4.48 4.479v0z"></path>
</svg>
