<!-- Generated by IcoMoon.io -->
<svg version="1.1" xmlns="http://www.w3.org/2000/svg" width="32" height="32" viewBox="0 0 32 32">
<title>map</title>
<path d="M10.545 1.363c0.163 0 0.317 0.039 0.453 0.109l-0.006-0.003 10.43 5.215 9.078-5.189c0.143-0.084 0.316-0.134 0.5-0.134 0.552 0 1 0.448 1 1 0 0.001 0 0.001 0 0.002v-0 21.818c0 0.001 0 0.001 0 0.002 0 0.368-0.199 0.69-0.495 0.863l-0.005 0.003-9.545 5.455c-0.142 0.083-0.313 0.132-0.496 0.132-0.163 0-0.317-0.039-0.453-0.108l0.006 0.003-10.43-5.215-9.082 5.189c-0.143 0.084-0.316 0.134-0.5 0.134-0.552 0-1-0.448-1-1 0-0.001 0-0.001 0-0.002v0-21.818c0-0.001 0-0.002 0-0.003 0-0.368 0.199-0.69 0.495-0.863l0.005-0.003 9.545-5.455c0.142-0.082 0.313-0.131 0.495-0.131 0.002 0 0.004 0 0.005 0h-0zM21.455 8.818c-0.163-0-0.317-0.039-0.453-0.109l0.006 0.003-10.431-5.215-8.577 4.901v19.515l8.049-4.6c0.142-0.083 0.313-0.132 0.496-0.132 0.163 0 0.317 0.039 0.453 0.108l-0.006-0.003 10.43 5.215 8.577-4.9v-19.516l-8.049 4.6c-0.142 0.083-0.313 0.132-0.495 0.132h-0z"></path>
<path d="M10.545 25.181c-0.552 0-1-0.448-1-1v0-21.818c0-0.552 0.448-1 1-1s1 0.448 1 1v0 21.818c0 0.552-0.448 1-1 1v0z"></path>
<path d="M21.455 30.636c-0.552 0-1-0.448-1-1v0-21.818c0-0.552 0.448-1 1-1s1 0.448 1 1v0 21.818c0 0.552-0.448 1-1 1v0z"></path>
</svg>
