<!-- Generated by IcoMoon.io -->
<svg version="1.1" xmlns="http://www.w3.org/2000/svg" width="32" height="32" viewBox="0 0 32 32">
<title>market</title>
<path d="M7 0h18c0.326 0 0.616 0.156 0.798 0.398l0.002 0.003 4.5 6c0.125 0.165 0.2 0.374 0.2 0.6v0 21c0 2.209-1.791 4-4 4v0h-21c-2.209 0-4-1.791-4-4v0-21c0-0.226 0.075-0.435 0.202-0.603l-0.002 0.003 4.5-6c0.184-0.244 0.474-0.4 0.8-0.4v0zM24.5 2h-17l-4 5.333v20.667c0 1.105 0.895 2 2 2v0h21c1.105 0 2-0.895 2-2v0-20.667z"></path>
<path d="M29.5 8h-27c-0.552 0-1-0.448-1-1s0.448-1 1-1v0h27c0.552 0 1 0.448 1 1s-0.448 1-1 1v0z"></path>
<path d="M16 20c-3.864-0.005-6.995-3.136-7-7v-0c0-0.552 0.448-1 1-1s1 0.448 1 1v0c0 2.761 2.239 5 5 5s5-2.239 5-5v0c0-0.552 0.448-1 1-1s1 0.448 1 1v0c-0.005 3.864-3.136 6.995-7 7h-0z"></path>
</svg>
