<!-- Generated by IcoMoon.io -->
<svg version="1.1" xmlns="http://www.w3.org/2000/svg" width="32" height="32" viewBox="0 0 32 32">
<title>mask</title>
<path d="M16.031 6c5.3 0 9.41 1.1 12.222 3.255 2.276 1.681 3.738 4.351 3.747 7.363v0.002c-0.017 2.474-0.932 4.731-2.434 6.466l0.011-0.013c-1.47 1.769-3.659 2.895-6.113 2.928l-0.006 0c-2.325-0.034-4.363-1.23-5.564-3.031l-0.016-0.025-1.206-1.771c-0.13-0.223-0.369-0.371-0.642-0.371s-0.511 0.148-0.64 0.368l-0.002 0.003-1.206 1.771c-1.218 1.827-3.258 3.023-5.579 3.056l-0.005 0c-2.475-0.009-4.691-1.112-6.191-2.849l-0.009-0.011c-1.483-1.689-2.391-3.914-2.4-6.352v-0.002c0.016-3.049 1.49-5.751 3.76-7.444l0.025-0.018c1.417-1.073 3.084-1.906 4.891-2.4l0.102-0.024c2.065-0.573 4.437-0.903 6.885-0.903 0.129 0 0.258 0.001 0.387 0.003l-0.019-0zM23.459 24c1.856-0.037 3.504-0.896 4.599-2.228l0.008-0.011c1.19-1.372 1.919-3.17 1.934-5.139l0-0.003c0-0.004 0-0.008 0-0.012 0-2.368-1.161-4.464-2.944-5.752l-0.021-0.014c-1.219-0.905-2.651-1.606-4.202-2.016l-0.087-0.020c-1.901-0.513-4.083-0.808-6.334-0.808-0.134 0-0.267 0.001-0.401 0.003l0.020-0c-0.109-0.002-0.237-0.003-0.365-0.003-2.255 0-4.439 0.302-6.515 0.867l0.173-0.040c-1.648 0.442-3.087 1.156-4.345 2.099l0.033-0.023c-1.819 1.346-2.991 3.477-3.012 5.883l-0 0.003c0.008 1.93 0.726 3.691 1.907 5.036l-0.007-0.009c1.142 1.331 2.821 2.173 4.698 2.187h0.002c1.64-0.035 3.074-0.887 3.916-2.163l0.011-0.018 1.206-1.771c0.495-0.754 1.338-1.246 2.295-1.246s1.799 0.491 2.288 1.235l0.006 0.010 1.206 1.772c0.854 1.295 2.289 2.147 3.926 2.18l0.005 0zM9.625 12.545c1.847 0.036 3.479 0.924 4.524 2.286l0.010 0.014c0.25 0.314 0.402 0.717 0.402 1.155s-0.151 0.841-0.404 1.159l0.003-0.004c-1.055 1.376-2.688 2.264-4.529 2.3l-0.006 0c-1.847-0.036-3.479-0.924-4.524-2.286l-0.010-0.014c-0.25-0.314-0.402-0.717-0.402-1.155s0.151-0.841 0.404-1.159l-0.003 0.004c1.055-1.376 2.688-2.264 4.529-2.3l0.006-0zM12.525 16c-0.687-0.863-1.725-1.421-2.894-1.455l-0.006-0c-1.173 0.035-2.21 0.593-2.889 1.447l-0.006 0.008c0.686 0.863 1.725 1.421 2.894 1.455l0.006 0c1.171-0.037 2.206-0.594 2.884-1.447l0.006-0.008zM22.38 12.545c1.847 0.036 3.479 0.924 4.524 2.286l0.010 0.014c0.25 0.314 0.401 0.717 0.401 1.155s-0.151 0.841-0.404 1.159l0.003-0.004c-1.055 1.376-2.688 2.264-4.529 2.3l-0.006 0c-1.847-0.036-3.479-0.924-4.524-2.286l-0.010-0.014c-0.25-0.314-0.401-0.717-0.401-1.155s0.151-0.841 0.404-1.159l-0.003 0.004c1.054-1.375 2.685-2.263 4.524-2.3l0.006-0zM25.28 16c-0.686-0.863-1.725-1.421-2.894-1.455l-0.006-0c-1.175 0.034-2.214 0.592-2.894 1.447l-0.006 0.008c0.686 0.863 1.725 1.421 2.894 1.455l0.006 0c1.171-0.037 2.206-0.594 2.884-1.447l0.006-0.008z"></path>
</svg>
