<!-- Generated by IcoMoon.io -->
<svg version="1.1" xmlns="http://www.w3.org/2000/svg" width="32" height="32" viewBox="0 0 32 32">
<title>more</title>
<path d="M24.001 16.001c0-2.209 1.791-4 4-4s4 1.791 4 4c0 2.209-1.791 4-4 4v0c-2.209 0-4-1.791-4-4v0zM26.001 16.001c0 1.105 0.895 2 2 2s2-0.895 2-2c0-1.105-0.895-2-2-2v0c-1.105 0-2 0.895-2 2v0zM12.001 16.001c0-2.209 1.791-4 4-4s4 1.791 4 4c0 2.209-1.791 4-4 4v0c-2.209 0-4-1.791-4-4v0zM14.001 16.001c0 1.105 0.895 2 2 2s2-0.895 2-2c0-1.105-0.895-2-2-2v0c-1.105 0-2 0.895-2 2v0zM0.001 16.001c0-2.209 1.791-4 4-4s4 1.791 4 4c0 2.209-1.791 4-4 4v0c-2.209 0-4-1.791-4-4v0zM2.001 16.001c0 1.105 0.895 2 2 2s2-0.895 2-2c0-1.105-0.895-2-2-2v0c-1.105 0-2 0.895-2 2v0z"></path>
</svg>
