<!-- Generated by IcoMoon.io -->
<svg version="1.1" xmlns="http://www.w3.org/2000/svg" width="32" height="32" viewBox="0 0 32 32">
<title>multimedia</title>
<path d="M2.56 32c-0.353 0-0.64-0.287-0.64-0.64v0-30.72c0-0.353 0.287-0.64 0.64-0.64v0h26.88c0.353 0 0.64 0.287 0.64 0.64v0 30.72c0 0.353-0.287 0.64-0.64 0.64v0zM3.2 30.72h25.6v-10.24h-25.6zM28.8 19.2v-14.080h-25.6v14.080zM28.8 3.84v-2.56h-25.6v2.56zM5.44 28.8c-0.353 0-0.64-0.287-0.64-0.64v0-5.12c0-0.353 0.287-0.64 0.64-0.64v0h5.12c0.353 0 0.64 0.287 0.64 0.64v0 5.12c0 0.353-0.287 0.64-0.64 0.64v0zM6.080 27.52h3.84v-3.84h-3.84zM13.12 27.52v-1.28h7.040v1.28zM13.12 24.32v-1.28h12.8v1.28zM12.165 16.896c-0.195-0.112-0.325-0.319-0.325-0.557v-8.192c0-0.238 0.13-0.445 0.322-0.555l0.003-0.002c0.091-0.052 0.199-0.083 0.315-0.083h0c0 0 0.001 0 0.001 0 0.121 0 0.235 0.034 0.332 0.092l-0.003-0.002 6.827 4.096c0.187 0.114 0.31 0.317 0.31 0.549 0 0 0 0 0 0.001v-0c0 0 0 0 0 0.001 0 0.232-0.123 0.435-0.308 0.547l-0.003 0.002-6.827 4.096c-0.094 0.057-0.207 0.091-0.329 0.091-0 0-0 0-0 0v0c-0.001 0-0.003 0-0.004 0-0.115 0-0.222-0.030-0.315-0.083l0.003 0.002zM13.12 15.208l4.943-2.965-4.943-2.966zM9.92 3.197v-1.28h1.28v1.28zM6.72 3.197v-1.28h1.92v1.28zM4.16 3.197v-1.28h1.28v1.28z"></path>
</svg>
