<!-- Generated by IcoMoon.io -->
<svg version="1.1" xmlns="http://www.w3.org/2000/svg" width="32" height="32" viewBox="0 0 32 32">
<title>museum</title>
<path d="M31 32h-30c-0.552 0-1-0.448-1-1s0.448-1 1-1v0h30c0.552 0 1 0.448 1 1s-0.448 1-1 1v0z"></path>
<path d="M28 28h-24c-0.552 0-1-0.448-1-1s0.448-1 1-1v0h24c0.552 0 1 0.448 1 1s-0.448 1-1 1v0z"></path>
<path d="M28 12h-24c-0.55-0.003-0.995-0.449-0.995-1 0-0.326 0.156-0.616 0.397-0.798l0.003-0.002 12.165-9c0.164-0.122 0.371-0.196 0.595-0.196 0.229 0 0.439 0.077 0.608 0.206l-0.002-0.002 11.835 9c0.244 0.184 0.4 0.474 0.4 0.8 0 0.552-0.448 1-1 1-0.002 0-0.004 0-0.005 0h0zM7.033 10h18l-8.876-6.75z"></path>
<path d="M18 27v-16c0-0.552 0.448-1 1-1v0c0.552 0 1 0.448 1 1v0 16c0 0.552-0.448 1-1 1v0c-0.552 0-1-0.448-1-1v0z"></path>
<path d="M24 27v-16c0-0.552 0.448-1 1-1v0c0.552 0 1 0.448 1 1v0 16c0 0.552-0.448 1-1 1v0c-0.552 0-1-0.448-1-1v0z"></path>
<path d="M12 27v-16c0-0.552 0.448-1 1-1v0c0.552 0 1 0.448 1 1v0 16c0 0.552-0.448 1-1 1v0c-0.552 0-1-0.448-1-1v0z"></path>
<path d="M6 27v-16c0-0.552 0.448-1 1-1v0c0.552 0 1 0.448 1 1v0 16c0 0.552-0.448 1-1 1v0c-0.552 0-1-0.448-1-1v0z"></path>
</svg>
