<!-- Generated by IcoMoon.io -->
<svg version="1.1" xmlns="http://www.w3.org/2000/svg" width="32" height="32" viewBox="0 0 32 32">
<title>music</title>
<path d="M11 27c-0.552 0-1-0.448-1-1v0-21.667c0-0.494 0.359-0.905 0.83-0.985l0.006-0.001 20-3.333c0.049-0.009 0.106-0.014 0.164-0.014 0.552 0 1 0.447 1 1v21.667c0 0.552-0.448 1-1 1s-1-0.448-1-1v0-20.487l-18 3v20.82c0 0.552-0.448 1-1 1v0z"></path>
<path d="M6 32c-3.314 0-6-2.686-6-6s2.686-6 6-6c3.314 0 6 2.686 6 6v0c-0.004 3.312-2.688 5.996-6 6h-0zM6 22c-2.209 0-4 1.791-4 4s1.791 4 4 4c2.209 0 4-1.791 4-4v0c0-2.209-1.791-4-4-4v0z"></path>
<path d="M26 28.667c-3.314 0-6-2.686-6-6s2.686-6 6-6c3.314 0 6 2.686 6 6v0c-0.004 3.312-2.688 5.996-6 6h-0zM26 18.667c-2.209 0-4 1.791-4 4s1.791 4 4 4c2.209 0 4-1.791 4-4v0c0-2.209-1.791-4-4-4v0z"></path>
</svg>
