<!-- Generated by IcoMoon.io -->
<svg version="1.1" xmlns="http://www.w3.org/2000/svg" width="32" height="32" viewBox="0 0 32 32">
<title>paw</title>
<path d="M4 9.196c-1.105 0-2 0.895-2 2s0.895 2 2 2c1.105 0 2-0.895 2-2v0c0-1.105-0.895-2-2-2v0zM4 7.196c2.209 0 4 1.791 4 4s-1.791 4-4 4c-2.209 0-4-1.791-4-4v0c0-2.209 1.791-4 4-4v0z"></path>
<path d="M11.2 2.796c-1.105 0-2 0.895-2 2s0.895 2 2 2c1.105 0 2-0.895 2-2v0c0-1.105-0.895-2-2-2v0zM11.2 0.796c2.209 0 4 1.791 4 4s-1.791 4-4 4c-2.209 0-4-1.791-4-4v0c0-2.209 1.791-4 4-4v0z"></path>
<path d="M20.8 2.796c-1.105 0-2 0.895-2 2s0.895 2 2 2c1.105 0 2-0.895 2-2v0c0-1.105-0.895-2-2-2v0zM20.8 0.796c2.209 0 4 1.791 4 4s-1.791 4-4 4c-2.209 0-4-1.791-4-4v0c0-2.209 1.791-4 4-4v0z"></path>
<path d="M28 9.196c-1.105 0-2 0.895-2 2s0.895 2 2 2c1.105 0 2-0.895 2-2v0c0-1.105-0.895-2-2-2v0zM28 7.196c2.209 0 4 1.791 4 4s-1.791 4-4 4c-2.209 0-4-1.791-4-4v0c0-2.209 1.791-4 4-4v0z"></path>
<path d="M15.999 14.796c-0.054-0.002-0.118-0.003-0.182-0.003-0.248 0-0.493 0.017-0.732 0.050l0.028-0.003h-0.020c-0.077 0.015-0.144 0.034-0.209 0.059l0.009-0.003-0.035 0.012c-0.78 0.351-1.43 0.87-1.925 1.514l-0.009 0.012c-0.5 0.582-0.964 1.133-1.424 1.675-0.842 0.992-1.637 1.929-2.545 2.981l-0.048 0.056-0.052 0.052-0.386 0.384c-2.094 2.078-3.462 3.593-3.258 5.446 0.283 1.058 1.095 1.876 2.129 2.163l0.021 0.005c0.018 0 0.052 0 0.105 0 0.473 0 1.362-0.117 2.3-0.241 1.798-0.284 3.898-0.465 6.033-0.5l0.038-0h0.288c2.187 0.035 4.301 0.216 6.369 0.533l-0.259-0.033c0.938 0.122 1.824 0.238 2.291 0.238 0.045 0 0.076 0 0.094 0 1.048-0.3 1.853-1.117 2.132-2.15l0.005-0.021c0.010-0.103 0.016-0.223 0.016-0.344 0-0.831-0.268-1.599-0.723-2.223l0.007 0.011c-0.771-1.085-1.609-2.034-2.536-2.888l-0.013-0.012-0.439-0.438-0.051-0.060c-0.5-0.587-0.973-1.144-1.437-1.691-0.836-0.986-1.626-1.917-2.523-2.956l-0.008-0.010c-0.498-0.656-1.147-1.173-1.895-1.505l-0.031-0.012-0.035-0.012c-0.050-0.019-0.112-0.037-0.175-0.051l-0.008-0.001c-0.218-0.024-0.471-0.037-0.727-0.037-0.064 0-0.128 0.001-0.192 0.003l0.009-0zM15.997 12.795c0.063-0.002 0.138-0.003 0.213-0.003 0.365 0 0.724 0.024 1.076 0.071l-0.041-0.005c0.203 0.038 0.38 0.088 0.55 0.151l-0.022-0.007c1.13 0.466 2.073 1.188 2.789 2.097l0.011 0.015c1.408 1.632 2.576 3.024 3.968 4.656 2.1 2.1 4.672 4.416 4.176 7.68-0.46 1.84-1.885 3.26-3.693 3.705l-0.035 0.007c-1.168 0.224-4.9-0.7-8.864-0.7h-0.288c-3.968 0-7.7 0.944-8.864 0.7-1.846-0.447-3.273-1.869-3.721-3.677l-0.007-0.035c-0.48-3.248 2.1-5.568 4.192-7.664 1.408-1.632 2.576-3.024 3.968-4.656 0.73-0.921 1.672-1.642 2.755-2.095l0.045-0.017c0.148-0.056 0.325-0.106 0.508-0.141l0.020-0.003c0.315-0.053 0.679-0.082 1.049-0.082 0.076 0 0.152 0.001 0.228 0.004l-0.011-0z"></path>
</svg>
