<!-- Generated by IcoMoon.io -->
<svg version="1.1" xmlns="http://www.w3.org/2000/svg" width="32" height="32" viewBox="0 0 32 32">
<title>pentagon</title>
<path d="M15.999 31.456c-0.005 0-0.010 0-0.016 0-1.105 0-2.125-0.368-2.943-0.988l0.012 0.009c-0.585-0.436-4.739-3.448-7.772-5.647-1.7-1.229-3.034-2.2-3.267-2.371-1.225-0.908-2.011-2.348-2.014-3.972v-0c0-0.001 0-0.002 0-0.002 0-0.55 0.090-1.079 0.256-1.572l-0.010 0.035c0.359-1.090 2.232-6.849 3.351-10.289 0.493-1.516 0.849-2.611 0.888-2.729 0.664-1.981 2.503-3.384 4.67-3.384 0.003 0 0.005 0 0.008 0h13.677c0.002 0 0.005 0 0.008 0 2.166 0 4.005 1.402 4.659 3.348l0.010 0.035c0.040 0.121 0.41 1.258 0.921 2.832 1.108 3.406 2.962 9.107 3.317 10.186 0.156 0.459 0.246 0.988 0.246 1.538 0 0.001 0 0.002 0 0.003v-0c-0.003 1.624-0.79 3.064-2.002 3.963l-0.013 0.009c-0.224 0.164-1.476 1.072-3.061 2.22-2.928 2.122-7.353 5.329-7.976 5.8-0.806 0.61-1.825 0.977-2.93 0.977-0.007 0-0.013 0-0.020-0h0.001zM9.161 2.546c-0.002 0-0.003 0-0.005 0-1.286 0-2.378 0.832-2.766 1.987l-0.006 0.021c-0.038 0.115-0.394 1.209-0.886 2.723-1.119 3.442-2.993 9.2-3.353 10.3-0.093 0.273-0.146 0.587-0.146 0.913 0 0.001 0 0.001 0 0.002v-0c0 0.003-0 0.006-0 0.010 0 0.963 0.469 1.816 1.192 2.344l0.008 0.006c0.229 0.168 1.566 1.138 3.259 2.364 3.038 2.2 7.2 5.219 7.8 5.664 0.478 0.362 1.082 0.58 1.737 0.58 0.004 0 0.008 0 0.012-0h-0.001c0.003 0 0.006 0 0.009 0 0.657 0 1.262-0.218 1.749-0.586l-0.007 0.005c0.635-0.475 4.892-3.561 8-5.814 1.582-1.147 2.832-2.053 3.052-2.214 0.731-0.533 1.2-1.387 1.2-2.349 0-0.004 0-0.007-0-0.011v0.001c0-0.001 0-0.002 0-0.002 0-0.327-0.053-0.641-0.152-0.934l0.006 0.021c-0.356-1.081-2.211-6.785-3.319-10.192-0.511-1.572-0.881-2.708-0.919-2.826-0.394-1.176-1.486-2.008-2.772-2.008-0.002 0-0.004 0-0.006 0h0z"></path>
</svg>
