<!-- Generated by IcoMoon.io -->
<svg version="1.1" xmlns="http://www.w3.org/2000/svg" width="32" height="32" viewBox="0 0 32 32">
<title>people-group</title>
<path d="M29.199 30.354v-6.612c0-0.317 0.257-0.573 0.573-0.573v0c0.596-0.001 1.079-0.484 1.079-1.080 0 0 0 0 0 0v0-6.497c-0-0.211-0.123-0.392-0.301-0.478l-0.003-0.001c-1.008-0.45-2.185-0.712-3.422-0.712-0.030 0-0.059 0-0.089 0l0.005-0c-0.020-0-0.044-0-0.067-0-1.258 0-2.454 0.264-3.536 0.739l0.057-0.022c-0.184 0.084-0.31 0.267-0.31 0.48 0 0.001 0 0.002 0 0.003v-0 6.488c0 0.596 0.484 1.079 1.080 1.080h0c0.317 0 0.573 0.257 0.573 0.573v0 6.612h-1.147v-6.113c-0.959-0.262-1.653-1.126-1.653-2.152 0-0 0-0.001 0-0.001v0-6.488c0-0.002 0-0.004 0-0.006 0-0.676 0.402-1.258 0.98-1.52l0.010-0.004c1.163-0.517 2.519-0.818 3.946-0.818 0.024 0 0.048 0 0.072 0l-0.004-0c0.023-0 0.051-0 0.079-0 1.411 0 2.751 0.3 3.961 0.84l-0.062-0.025c0.583 0.269 0.981 0.849 0.981 1.522 0 0.001 0 0.001 0 0.002v-0 6.497c-0.001 1.026-0.694 1.889-1.638 2.149l-0.016 0.004v6.113zM26.551 30.354v-7.283h1.147v7.283zM18.182 30.354v-6.612c0-0.317 0.257-0.573 0.573-0.573v0c0 0 0.001 0 0.001 0 0.597 0 1.080-0.483 1.081-1.080v-6.497c0-0 0-0 0-0 0-0.211-0.124-0.394-0.304-0.478l-0.003-0.001c-1.008-0.45-2.184-0.711-3.421-0.711-0.029 0-0.059 0-0.088 0l0.004-0c-0.021-0-0.045-0-0.069-0-1.258 0-2.454 0.264-3.536 0.739l0.056-0.022c-0.183 0.085-0.307 0.267-0.307 0.478 0 0.002 0 0.003 0 0.005v-0 6.488c0 0 0 0.001 0 0.002 0 0.595 0.483 1.078 1.078 1.078 0 0 0 0 0.001 0h-0c0.317 0 0.573 0.257 0.573 0.573v0 6.612h-1.147v-6.113c-0.959-0.263-1.653-1.127-1.653-2.153v-6.488c0-0.001 0-0.002 0-0.004 0-0.677 0.403-1.26 0.982-1.522l0.011-0.004c1.162-0.517 2.518-0.818 3.945-0.818 0.024 0 0.049 0 0.073 0l-0.004-0c0.024-0 0.053-0 0.082-0 1.408 0 2.747 0.3 3.954 0.84l-0.061-0.025c0.584 0.267 0.982 0.847 0.982 1.519 0 0.001 0 0.003 0 0.004v-0 6.497c-0.001 1.026-0.694 1.889-1.638 2.149l-0.016 0.004v6.113zM15.628 30.354v-7.283h1.147v7.283zM7.162 30.354v-6.612c0-0.317 0.257-0.573 0.573-0.573v0c0.596-0 1.079-0.484 1.080-1.080v-6.497c-0.001-0.211-0.123-0.392-0.301-0.478l-0.003-0.001c-1.008-0.45-2.185-0.711-3.422-0.711-0.030 0-0.059 0-0.089 0l0.005-0c-0.020-0-0.044-0-0.067-0-1.258 0-2.454 0.264-3.536 0.739l0.057-0.022c-0.184 0.084-0.31 0.267-0.31 0.48 0 0.001 0 0.002 0 0.003v-0 6.488c0 0.596 0.484 1.079 1.080 1.080h0c0.317 0 0.573 0.257 0.573 0.573v0 6.612h-1.147v-6.113c-0.96-0.262-1.653-1.126-1.653-2.152 0-0 0-0.001 0-0.001v0-6.488c0-0.002 0-0.004 0-0.006 0-0.676 0.402-1.258 0.98-1.52l0.010-0.004c1.163-0.517 2.519-0.818 3.946-0.818 0.024 0 0.048 0 0.072 0l-0.004-0c0.024-0 0.051-0 0.079-0 1.41 0 2.75 0.3 3.96 0.84l-0.062-0.025c0.584 0.269 0.982 0.849 0.982 1.522 0 0 0 0.001 0 0.001v-0 6.497c-0.001 1.026-0.694 1.889-1.638 2.149l-0.016 0.004v6.113zM4.304 30.354v-7.283h1.147v7.283zM25.018 11.233c-0.486-0.62-0.779-1.411-0.779-2.27 0-0.033 0-0.066 0.001-0.099l-0 0.005c0.023-1.517 1.258-2.738 2.778-2.738s2.756 1.221 2.778 2.736l0 0.002c0.001 0.028 0.001 0.061 0.001 0.094 0 0.859-0.293 1.65-0.784 2.279l0.006-0.008c-0.473 0.59-1.193 0.964-2 0.964s-1.528-0.374-1.997-0.959l-0.004-0.005zM25.388 8.868c0 1.266 0.688 2.179 1.631 2.179s1.63-0.918 1.63-2.179c0-0.9-0.73-1.63-1.63-1.63s-1.63 0.73-1.63 1.63v0zM14.002 11.233c-0.485-0.62-0.778-1.411-0.778-2.271 0-0.033 0-0.066 0.001-0.099l-0 0.005c0-1.533 1.243-2.777 2.777-2.777s2.777 1.243 2.777 2.777v0c0.001 0.028 0.001 0.061 0.001 0.094 0 0.859-0.293 1.65-0.785 2.278l0.006-0.008c-0.472 0.59-1.192 0.964-1.999 0.964s-1.527-0.374-1.995-0.959l-0.004-0.005zM14.369 8.868c0 1.266 0.688 2.179 1.633 2.179s1.627-0.918 1.627-2.179c0-0.9-0.73-1.63-1.63-1.63s-1.63 0.73-1.63 1.63v0zM2.984 11.233c-0.485-0.62-0.778-1.411-0.778-2.271 0-0.033 0-0.066 0.001-0.099l-0 0.005c0-1.533 1.243-2.777 2.777-2.777s2.777 1.243 2.777 2.777v0c0.001 0.028 0.001 0.061 0.001 0.094 0 0.859-0.293 1.65-0.784 2.279l0.006-0.008c-0.472 0.59-1.192 0.964-1.999 0.964s-1.527-0.374-1.995-0.959l-0.004-0.005zM3.352 8.868c0 1.266 0.688 2.179 1.633 2.179s1.627-0.918 1.627-2.179c0-0.9-0.73-1.63-1.63-1.63s-1.63 0.73-1.63 1.63v0zM19.509 6.825c-0.484-0.62-0.776-1.41-0.776-2.269 0-0.032 0-0.065 0.001-0.097l-0 0.005c0-1.533 1.243-2.777 2.777-2.777s2.777 1.243 2.777 2.777v0c0.001 0.028 0.001 0.061 0.001 0.094 0 0.858-0.293 1.648-0.784 2.275l0.006-0.008c-0.473 0.59-1.193 0.964-2 0.964s-1.528-0.375-1.997-0.959l-0.004-0.005zM19.879 4.464c0 1.262 0.688 2.179 1.63 2.179s1.63-0.918 1.63-2.179c0-0.9-0.73-1.63-1.63-1.63s-1.63 0.73-1.63 1.63v0zM8.491 6.825c-0.485-0.619-0.778-1.409-0.778-2.267 0-0.033 0-0.066 0.001-0.098l-0 0.005c-0-0.012-0-0.026-0-0.040 0-1.534 1.244-2.778 2.778-2.778s2.778 1.244 2.778 2.778c0 0.014-0 0.028-0 0.042l0-0.002c0.001 0.028 0.001 0.061 0.001 0.094 0 0.858-0.293 1.648-0.785 2.275l0.006-0.008c-0.473 0.59-1.193 0.964-2 0.964s-1.528-0.375-1.997-0.959l-0.004-0.005zM8.862 4.464c0 1.262 0.688 2.179 1.63 2.179s1.631-0.918 1.631-2.179c0-0.9-0.73-1.63-1.63-1.63s-1.63 0.73-1.63 1.63v0z"></path>
</svg>
