<!-- Generated by IcoMoon.io -->
<svg version="1.1" xmlns="http://www.w3.org/2000/svg" width="32" height="32" viewBox="0 0 32 32">
<title>phone</title>
<path d="M28.689 17.873c1.12 0.787 2.017 1.816 2.627 3.017l0.021 0.047c0.417 0.781 0.663 1.709 0.663 2.694 0 0.56-0.079 1.101-0.227 1.613l0.010-0.041c-0.415 1.464-1.335 2.669-2.555 3.443l-0.024 0.014-3.518 2.21c-0.477 0.302-1.027 0.554-1.612 0.725l-0.046 0.012c-0.535 0.16-1.151 0.252-1.787 0.252-0.001 0-0.002 0-0.003 0h0c-0.89-0.001-1.739-0.181-2.512-0.504l0.043 0.016c-0.813-0.34-1.507-0.808-2.091-1.387l0 0-15.788-15.658c-1.167-1.153-1.89-2.753-1.89-4.522 0-1.272 0.374-2.456 1.017-3.45l-0.015 0.025 2.166-3.397c1.108-1.716 3.007-2.837 5.17-2.844h0.001c1.011 0.001 1.962 0.254 2.795 0.701l-0.032-0.016c0.157 0.081 0.326 0.184 0.505 0.287 1.607 0.914 2.811 2.381 3.366 4.136l0.014 0.051c0.151 0.513 0.238 1.102 0.238 1.711 0 1.082-0.274 2.099-0.755 2.988l0.016-0.033c-0.048 0.094-0.112 0.204-0.184 0.33l-0.591 0.978 7.044 6.985 1-0.595c0.943-0.576 2.085-0.917 3.306-0.917 1.358 0 2.617 0.422 3.654 1.141l-0.021-0.014zM24.072 28.321l3.518-2.21c0.616-0.391 1.072-0.988 1.273-1.692l0.005-0.021c0.070-0.235 0.11-0.504 0.11-0.783 0-0.474-0.116-0.921-0.322-1.314l0.007 0.016c-0.392-0.777-0.941-1.422-1.61-1.915l-0.015-0.010c-0.552-0.402-1.244-0.643-1.992-0.643-0.321 0-0.631 0.044-0.926 0.127l0.024-0.006c-0.307 0.087-0.574 0.201-0.822 0.345l0.017-0.009-2.559 1.525c-0.111 0.067-0.244 0.107-0.387 0.107-0.208 0-0.397-0.085-0.534-0.221l-0-0-9.547-9.464c-0.136-0.137-0.22-0.325-0.22-0.533 0-0.143 0.040-0.277 0.109-0.392l-0.002 0.003 1.507-2.489c0.227-0.367 0.389-0.798 0.457-1.26l0.002-0.018c0.020-0.136 0.032-0.293 0.032-0.453 0-0.314-0.045-0.618-0.128-0.905l0.006 0.023c-0.164-0.562-0.443-1.047-0.811-1.449l0.002 0.003c-0.446-0.486-0.971-0.89-1.557-1.194l-0.031-0.015c-0.187-0.101-0.404-0.186-0.632-0.244l-0.020-0.004c-0.205-0.053-0.44-0.083-0.682-0.083-0.005 0-0.010 0-0.015 0h0.001c-0.548 0.002-1.062 0.146-1.508 0.397l0.016-0.008c-0.465 0.259-0.847 0.616-1.127 1.045l-0.007 0.012-2.168 3.397c-0.335 0.513-0.535 1.141-0.535 1.816 0 0.939 0.387 1.788 1.010 2.396l0.001 0.001 15.788 15.658c0.309 0.307 0.676 0.556 1.083 0.728l0.023 0.008c0.388 0.161 0.839 0.255 1.311 0.255 0.667 0 1.291-0.187 1.821-0.51l-0.015 0.009z"></path>
</svg>
