<!-- Generated by IcoMoon.io -->
<svg version="1.1" xmlns="http://www.w3.org/2000/svg" width="32" height="32" viewBox="0 0 32 32">
<title>playbtn</title>
<path d="M9.772 30.743c-1.977-0.849-3.664-2.006-5.085-3.43l-0-0c-1.425-1.42-2.582-3.108-3.389-4.982l-0.040-0.103c-0.795-1.828-1.258-3.957-1.258-6.195 0-0.012 0-0.023 0-0.035v0.002c-0-0.009-0-0.021-0-0.032 0-2.238 0.462-4.368 1.297-6.299l-0.040 0.103c0.847-1.977 2.004-3.665 3.428-5.085l0-0c1.421-1.424 3.108-2.58 4.982-3.388l0.104-0.040c1.829-0.796 3.96-1.259 6.2-1.259 0.010 0 0.021 0 0.031 0h-0.002c0.009 0 0.019-0 0.029-0 2.239 0 4.371 0.463 6.303 1.299l-0.103-0.040c1.977 0.848 3.665 2.004 5.085 3.428l0 0c1.424 1.42 2.581 3.108 3.389 4.982l0.040 0.103c0.795 1.828 1.257 3.958 1.257 6.195 0 0.011 0 0.023-0 0.034v-0.002c0 0.010 0 0.023 0 0.035 0 2.236-0.462 4.365-1.297 6.295l0.040-0.103c-0.847 1.977-2.004 3.665-3.428 5.085l-0 0c-1.421 1.424-3.109 2.581-4.982 3.39l-0.104 0.040c-1.831 0.795-3.963 1.258-6.203 1.258-0.009 0-0.018 0-0.027-0h0.001c-0.008 0-0.017 0-0.027 0-2.24 0-4.371-0.462-6.305-1.297l0.103 0.040zM10.27 2.436c-1.819 0.78-3.371 1.844-4.678 3.154l-0 0c-1.311 1.307-2.376 2.861-3.119 4.585l-0.037 0.095c-0.731 1.681-1.156 3.64-1.156 5.697 0 0.011 0 0.022 0 0.034v-0.002c0 0.009-0 0.019-0 0.029 0 2.059 0.426 4.018 1.194 5.795l-0.036-0.095c0.78 1.82 1.845 3.373 3.155 4.679l0 0c1.307 1.311 2.859 2.375 4.583 3.118l0.095 0.037c1.682 0.731 3.642 1.157 5.701 1.157 0.010 0 0.019 0 0.029-0h-0.002c0.009 0 0.019 0 0.029 0 2.059 0 4.019-0.425 5.797-1.193l-0.095 0.036c1.819-0.78 3.372-1.844 4.678-3.154l0-0c1.311-1.307 2.375-2.86 3.119-4.584l0.037-0.095c0.728-1.679 1.152-3.634 1.152-5.689 0-0.014-0-0.029-0-0.043v0.002c0-0.012 0-0.026 0-0.040 0-2.054-0.424-4.010-1.188-5.784l0.036 0.095c-0.781-1.819-1.846-3.372-3.156-4.679l-0-0c-1.307-1.31-2.86-2.374-4.583-3.117l-0.095-0.037c-1.682-0.732-3.642-1.157-5.701-1.157-0.011 0-0.021 0-0.032 0h0.002c-0.009 0-0.019-0-0.029-0-2.059 0-4.018 0.426-5.795 1.194l0.095-0.036zM11.465 8.897l12.512 7.061-12.512 7.232z"></path>
</svg>
