<!-- Generated by IcoMoon.io -->
<svg version="1.1" xmlns="http://www.w3.org/2000/svg" width="32" height="32" viewBox="0 0 32 32">
<title>screen-brush</title>
<path d="M18.038 31.36h-1.28v-3.801h1.28z"></path>
<path d="M12.453 31.36h-1.28v-3.801h1.28z"></path>
<path d="M21.121 32h-13.031v-1.28h13.031z"></path>
<path d="M26.706 27.345h-24.201c-1.381-0.001-2.501-1.12-2.503-2.502v-19.549c0.002-1.381 1.122-2.5 2.503-2.501h22.712v1.28h-22.712c0 0 0 0 0 0-0.675 0-1.222 0.546-1.223 1.221v19.549c0.001 0.675 0.548 1.221 1.223 1.222h24.201c0.675-0 1.222-0.547 1.223-1.222v-18.058h1.28v18.058c-0.002 1.381-1.122 2.501-2.503 2.502h-0z"></path>
<path d="M28.569 23.312h-27.927v-1.28h27.927z"></path>
<path d="M22.309 13.945l-4.256-4.256 8.832-8.832c0.551-0.531 1.301-0.858 2.128-0.858s1.577 0.327 2.129 0.859l-0.001-0.001c0.53 0.544 0.858 1.288 0.858 2.108 0 0.007-0 0.014-0 0.021v-0.001c0 0.007 0 0.015 0 0.023 0 0.82-0.327 1.564-0.858 2.108l0.001-0.001zM19.863 9.689l2.446 2.446 7.928-7.925c0.297-0.32 0.48-0.75 0.48-1.223s-0.183-0.903-0.481-1.224l0.001 0.001c-0.319-0.298-0.749-0.482-1.222-0.482s-0.903 0.183-1.223 0.483l0.001-0.001z"></path>
<path d="M16.547 11.45c0.012-0 0.025-0 0.039-0 0.972 0 1.853 0.391 2.494 1.025l-0-0c0.65 0.651 1.052 1.551 1.052 2.544 0 0.024-0 0.049-0.001 0.073l0-0.004c-0.028 1.013-0.474 1.916-1.171 2.547l-0.003 0.003c-0.9 0.867-2.126 1.402-3.476 1.402-0.035 0-0.071-0-0.106-0.001l0.005 0c-1.655-0-3.154-0.667-4.243-1.746l0 0-1.091-1.092h1.544c0.576 0 1.258-0.141 1.258-0.813-0.004-0.068-0.007-0.146-0.007-0.226 0-1.044 0.415-1.991 1.089-2.685l-0.001 0.001 0.022-0.021c0.682-0.623 1.594-1.005 2.596-1.005 0 0 0 0 0 0v0zM15.38 17.757c0.029 0.001 0.063 0.001 0.097 0.001 1.003 0 1.914-0.395 2.586-1.038l-0.001 0.001 0.020-0.019c0.457-0.406 0.75-0.989 0.768-1.641l0-0.003c0-0.012 0-0.027 0-0.041 0-0.639-0.259-1.217-0.677-1.636v0c-0.41-0.402-0.973-0.65-1.593-0.65-0.012 0-0.024 0-0.036 0l0.002-0c-0 0-0 0-0.001 0-0.664 0-1.268 0.251-1.725 0.663l0.002-0.002c-0.434 0.464-0.7 1.090-0.7 1.778 0 0.076 0.003 0.152 0.010 0.226l-0.001-0.010c0 0.008 0 0.018 0 0.028 0 0.755-0.425 1.41-1.049 1.739l-0.011 0.005c0.666 0.376 1.462 0.598 2.309 0.599h0z"></path>
</svg>
