<!-- Generated by IcoMoon.io -->
<svg version="1.1" xmlns="http://www.w3.org/2000/svg" width="32" height="32" viewBox="0 0 32 32">
<title>search</title>
<path d="M26.677 18.685c-0.555 1.43-1.279 2.664-2.167 3.76l0.020-0.026 7.257 7.257c0.135 0.135 0.218 0.321 0.218 0.527s-0.083 0.392-0.218 0.527v0l-1.053 1.053c-0.135 0.135-0.321 0.218-0.527 0.218s-0.392-0.083-0.527-0.218v0l-7.257-7.257c-1.070 0.868-2.305 1.592-3.64 2.115l-0.094 0.032c-1.458 0.572-3.145 0.903-4.91 0.903-7.624 0-13.805-6.181-13.805-13.805s6.181-13.805 13.805-13.805c7.624 0 13.805 6.181 13.805 13.805 0 1.765-0.331 3.453-0.935 5.004l0.032-0.094zM6.15 21.429c1.952 1.947 4.646 3.152 7.622 3.152 5.96 0 10.792-4.832 10.792-10.792s-4.832-10.792-10.792-10.792c-5.96 0-10.792 4.832-10.792 10.792 0 0 0 0 0 0.001v-0c0 0.003 0 0.006 0 0.009 0 2.982 1.212 5.68 3.17 7.63l0 0z"></path>
</svg>
