<!-- Generated by IcoMoon.io -->
<svg version="1.1" xmlns="http://www.w3.org/2000/svg" width="32" height="32" viewBox="0 0 32 32">
<title>share</title>
<path d="M20.828 17.097c1.012-0.524 2.209-0.831 3.477-0.831 4.25 0 7.694 3.445 7.694 7.694s-3.445 7.694-7.694 7.694c-4.25 0-7.694-3.445-7.694-7.694 0-0.616 0.073-1.216 0.209-1.791l-0.011 0.052c0.099-0.419 0.212-0.775 0.35-1.119l-0.019 0.052-6.482-3.278c-0.502 0.452-1.083 0.829-1.718 1.106l-0.041 0.016c-0.74 0.325-1.603 0.514-2.51 0.514-3.529 0-6.39-2.861-6.39-6.39s2.861-6.39 6.39-6.39c1.030 0 2.004 0.244 2.866 0.677l-0.037-0.017c0.757 0.381 1.399 0.878 1.931 1.475l0.006 0.006 8.018-2.988c-0.012-0.137-0.019-0.266-0.019-0.385-0-0.005-0-0.012-0-0.018 0-2.838 2.301-5.139 5.139-5.139s5.139 2.301 5.139 5.139c0 2.838-2.301 5.139-5.139 5.139-1.791 0-3.368-0.916-4.288-2.305l-0.012-0.019-7.543 2.811c0.061 0.172 0.125 0.395 0.177 0.622l0.008 0.043c0.092 0.406 0.145 0.871 0.145 1.35 0 0.97-0.218 1.89-0.608 2.712l0.016-0.038 6.262 3.169c0.655-0.765 1.444-1.393 2.334-1.852l0.043-0.020zM26.057 3.69c-0.464-0.465-1.105-0.753-1.814-0.753-1.415 0-2.562 1.147-2.562 2.562s1.147 2.562 2.562 2.562c1.415 0 2.562-1.147 2.562-2.561v-0c0-0.003 0-0.007 0-0.011 0-0.703-0.286-1.34-0.748-1.8l-0-0zM3.714 15.835c0.695 0.697 1.657 1.128 2.719 1.128 2.121 0 3.84-1.719 3.84-3.84s-1.719-3.84-3.84-3.84c-2.121 0-3.84 1.719-3.84 3.84v0c-0 0.004-0 0.010-0 0.015 0 1.054 0.429 2.008 1.121 2.697l0 0zM20.654 27.561c0.927 0.93 2.21 1.505 3.626 1.505 2.828 0 5.121-2.293 5.121-5.121s-2.293-5.121-5.121-5.121c-2.828 0-5.121 2.293-5.121 5.121 0 0.002 0 0.003 0 0.004v-0c0 0.004-0 0.008-0 0.013 0 1.406 0.571 2.679 1.494 3.598l0 0z"></path>
</svg>
