<!-- Generated by IcoMoon.io -->
<svg version="1.1" xmlns="http://www.w3.org/2000/svg" width="32" height="32" viewBox="0 0 32 32">
<title>shopify-pay</title>
<path d="M23.399 14.144h-0.708c-0.035 0.001-0.062 0.028-0.063 0.063v1.484c0.001 0.034 0.029 0.061 0.063 0.062h0.708c0.419-0.032 0.747-0.38 0.747-0.805s-0.328-0.772-0.744-0.805l-0.003-0z"></path>
<path d="M25.572 16.77c0 0.215 0.182 0.335 0.499 0.335 0.024 0.003 0.051 0.005 0.079 0.005 0.336 0 0.608-0.272 0.608-0.608 0-0.015-0.001-0.030-0.002-0.045l0 0.002v-0.119l-0.645 0.033c-0.34 0.017-0.539 0.159-0.539 0.397z"></path>
<path d="M8.218 14.624c-0.248-0.53-0.777-0.891-1.39-0.891-0.032 0-0.063 0.001-0.094 0.003l0.004-0c-0.473 0.009-0.891 0.239-1.154 0.591l-0.003 0.004-0.027 0.033v-2.115c0 0 0 0 0-0 0-0.013-0.005-0.024-0.014-0.033v0c-0.008-0.008-0.020-0.014-0.032-0.014h-1.039c-0.025 0-0.045 0.021-0.045 0.046 0 0 0 0 0 0v0 6.069c0 0.025 0.020 0.045 0.045 0.045v0h1.113c0 0 0 0 0 0 0.025 0 0.046-0.020 0.046-0.045v-2.588c-0.001-0.013-0.001-0.028-0.001-0.044 0-0.451 0.366-0.817 0.817-0.817 0.020 0 0.039 0.001 0.058 0.002l-0.003-0c0.587 0 0.737 0.483 0.737 0.975v2.471c0 0.025 0.020 0.045 0.045 0.045v0h1.11c0 0 0 0 0.001 0 0.025 0 0.046-0.020 0.046-0.045v-2.619c0-0.013 0.001-0.029 0.001-0.044 0-0.077-0.005-0.153-0.013-0.228l0.001 0.009c-0.021-0.298-0.095-0.573-0.212-0.824l0.006 0.014z"></path>
<path d="M2.661 15.525s-0.567-0.133-0.775-0.187-0.573-0.17-0.573-0.443 0.294-0.364 0.593-0.364 0.63 0.072 0.656 0.403c0.001 0.012 0.007 0.023 0.015 0.031l0 0c0.008 0.008 0.020 0.012 0.032 0.012 0 0 0 0 0 0l1.097-0.004c0 0 0 0 0 0 0.026 0 0.047-0.021 0.047-0.047 0-0.001-0-0.002-0-0.004v0c-0.068-1.059-0.997-1.438-1.855-1.438-0.048-0.005-0.103-0.008-0.159-0.008-0.822 0-1.5 0.615-1.6 1.41l-0.001 0.008c0 0.54 0.152 1.046 1.352 1.398 0.21 0.061 0.496 0.141 0.746 0.21 0.3 0.084 0.462 0.21 0.462 0.41 0 0.231-0.335 0.392-0.665 0.392-0.477 0-0.815-0.177-0.843-0.495-0.003-0.024-0.023-0.042-0.047-0.042-0 0-0 0-0 0v0l-1.094 0.005c-0.007 0-0.013 0.002-0.019 0.004l0-0c-0.006 0.003-0.011 0.006-0.016 0.011v0c-0.008 0.008-0.014 0.020-0.014 0.033 0 0.001 0 0.001 0 0.002v-0c0.050 1 1.016 1.539 1.916 1.539 1.341 0 1.947-0.754 1.947-1.461 0-0.010 0-0.022 0-0.034 0-0.694-0.523-1.265-1.196-1.341l-0.006-0.001z"></path>
<path d="M16.774 13.736c-0.54 0.017-1.015 0.278-1.322 0.676l-0.003 0.004v-0.637c-0-0.012-0.005-0.024-0.013-0.032v0c-0.008-0.008-0.019-0.013-0.031-0.014h-1.043c-0.025 0-0.045 0.020-0.045 0.045v0 5.95c0.001 0.025 0.021 0.044 0.045 0.044 0 0 0 0 0 0h1.114c0 0 0 0 0 0 0.012 0 0.023-0.005 0.031-0.013v0c0.008-0.008 0.013-0.019 0.013-0.031v-1.956h0.017c0.295 0.364 0.741 0.594 1.242 0.594 0.018 0 0.036-0 0.053-0.001l-0.003 0c1.21-0.027 2.181-1.014 2.181-2.228 0-0.031-0.001-0.063-0.002-0.094l0 0.004c0-0.014 0-0.031 0-0.047 0-1.241-0.998-2.25-2.235-2.267h-0.002zM16.669 17.233c-0.009 0-0.019 0-0.029 0-0.652 0-1.181-0.529-1.181-1.181s0.529-1.181 1.181-1.181c0.651 0 1.179 0.527 1.181 1.178v0c0 0.005 0 0.012 0 0.018 0 0.639-0.514 1.157-1.151 1.165h-0.001z"></path>
<path d="M11.022 13.473c-0.027-0.001-0.059-0.001-0.091-0.001-0.711 0-1.366 0.239-1.889 0.642l0.007-0.005-0.012 0.008c-0.021 0.015-0.036 0.036-0.042 0.062l-0 0.001c-0.002 0.007-0.003 0.015-0.003 0.023 0 0.019 0.005 0.037 0.014 0.052l-0-0 0.411 0.707c0.016 0.026 0.042 0.045 0.072 0.050l0.001 0c0.005 0.001 0.012 0.002 0.018 0.002 0.025 0 0.048-0.009 0.066-0.024l-0 0 0.033-0.027c0.374-0.302 0.854-0.485 1.378-0.485 0.003 0 0.006 0 0.009 0h-0c0.055-0.007 0.118-0.011 0.181-0.011 0.374 0 0.716 0.14 0.975 0.371l-0.001-0.001c0.32 0.32 0.518 0.762 0.518 1.25 0 0.014-0 0.028-0 0.042l0-0.002c0.005 0.043 0.007 0.093 0.007 0.144 0 0.77-0.624 1.393-1.393 1.393-0.018 0-0.036-0-0.054-0.001l0.003 0c-0.73-0.004-1.22-0.385-1.22-0.947 0.002-0.292 0.159-0.546 0.393-0.685l0.004-0.002c0.026-0.019 0.043-0.049 0.043-0.083 0-0.017-0.004-0.034-0.012-0.048l-0.369-0.697c-0.007-0.013-0.016-0.023-0.027-0.032l-0-0c-0.011-0.008-0.023-0.015-0.037-0.019l-0.001-0c-0.009-0.003-0.019-0.004-0.030-0.004-0.020 0-0.039 0.006-0.054 0.015l0-0c-0.537 0.284-0.896 0.838-0.896 1.476 0 0.029 0.001 0.057 0.002 0.085l-0-0.004c0.065 1.103 0.975 1.973 2.088 1.973 0.017 0 0.033-0 0.049-0.001l-0.002 0h0.141c1.344-0.003 2.432-1.093 2.432-2.437 0-0.027-0-0.055-0.001-0.082l0 0.004c0-0.015 0-0.032 0-0.049 0-1.465-1.187-2.652-2.652-2.652-0.020 0-0.040 0-0.060 0.001l0.003-0z"></path>
<path d="M30.81 12.216h-9.504c0 0 0 0 0 0-0.655 0-1.187 0.531-1.187 1.187 0 0.001 0 0.002 0 0.004v-0 5.202c0 0 0 0 0 0 0 0.656 0.531 1.188 1.186 1.19h9.504c0 0 0 0 0 0 0.656 0 1.188-0.531 1.19-1.186v-5.208c0-0.001 0-0.002 0-0.003 0-0.655-0.531-1.187-1.187-1.187-0.001 0-0.002 0-0.004 0h0zM23.434 16.336h-0.747c-0 0-0 0-0.001 0-0.034 0-0.062 0.028-0.062 0.062 0 0 0 0 0 0.001v-0 1.064c0 0.035-0.028 0.063-0.063 0.063v0h-0.526c-0.035-0.001-0.062-0.028-0.063-0.063v-3.838c0-0.035 0.028-0.063 0.063-0.063v0h1.4c0.001 0 0.001 0 0.002 0 0.767 0 1.388 0.622 1.388 1.388s-0.62 1.387-1.386 1.388h-0zM27.374 17.463c0 0 0 0 0 0 0 0.017-0.007 0.033-0.018 0.045v0c-0.006 0.006-0.012 0.010-0.020 0.013l-0 0c-0.007 0.003-0.016 0.005-0.024 0.005h-0.497c0 0 0 0 0 0-0.017 0-0.033-0.007-0.045-0.019v0c-0.006-0.006-0.010-0.013-0.013-0.021l-0-0c-0.003-0.007-0.005-0.015-0.005-0.024 0-0 0-0 0-0v0-0.113c0-0.001 0-0.003 0-0.004 0-0.020-0.012-0.037-0.029-0.044l-0-0c-0.004-0.002-0.009-0.002-0.015-0.002s-0.010 0.001-0.015 0.003l0-0c-0.010 0.003-0.019 0.009-0.025 0.016l-0 0c-0.179 0.175-0.424 0.283-0.695 0.283-0.028 0-0.056-0.001-0.083-0.003l0.004 0c-0.567 0-0.941-0.295-0.941-0.805-0-0.010-0.001-0.021-0.001-0.033 0-0.249 0.122-0.47 0.31-0.606l0.002-0.002c0.26-0.159 0.575-0.253 0.912-0.253 0.028 0 0.055 0.001 0.083 0.002l-0.004-0 0.499-0.016v-0.146c0-0.294-0.198-0.419-0.516-0.419s-0.518 0.113-0.567 0.296c-0.004 0.013-0.012 0.024-0.023 0.032l-0 0c-0.010 0.007-0.022 0.011-0.035 0.011-0.001 0-0.002 0-0.003-0h-0.492c-0.001 0-0.001 0-0.002 0-0.018 0-0.035-0.008-0.046-0.021l-0-0c-0.006-0.007-0.010-0.015-0.013-0.023l-0-0c-0.001-0.004-0.002-0.009-0.002-0.013s0.001-0.009 0.002-0.014l-0 0c0.074-0.436 0.434-0.767 1.203-0.767 0.816 0 1.11 0.38 1.11 1.104zM30.469 14.969l-1.106 2.951c-0.13 0.5-0.577 0.863-1.109 0.863-0.023 0-0.045-0.001-0.068-0.002l0.003 0c-0.007 0-0.015 0-0.023 0-0.088 0-0.173-0.012-0.253-0.035l0.007 0.002c-0.014-0.004-0.026-0.012-0.034-0.023l-0-0c-0.008-0.011-0.013-0.024-0.013-0.039v0-0.448c0-0 0-0 0-0 0-0.020 0.009-0.037 0.023-0.049l0-0c0.007-0.006 0.015-0.010 0.025-0.012l0-0c0.004-0.001 0.009-0.002 0.014-0.002s0.010 0.001 0.014 0.002l-0-0c0.069 0.014 0.148 0.022 0.23 0.022 0 0 0 0 0.001 0h-0c0.009 0 0.020 0.001 0.030 0.001 0.268 0 0.495-0.178 0.569-0.422l0.001-0.004 0.033-0.103c0.002-0.006 0.004-0.014 0.004-0.021s-0.001-0.015-0.004-0.022l0 0-1.034-2.657c-0.001-0.004-0.002-0.009-0.002-0.015s0.001-0.010 0.002-0.015l-0 0c0.002-0.010 0.005-0.020 0.011-0.027l-0 0c0.006-0.008 0.014-0.014 0.022-0.019l0-0c0.008-0.005 0.018-0.007 0.029-0.007h0.503c0.013 0 0.026 0.004 0.036 0.011l-0-0c0.010 0.007 0.018 0.017 0.023 0.029l0 0 0.703 1.874c0.009 0.025 0.033 0.042 0.060 0.042h0c0 0 0 0 0 0 0.014 0 0.026-0.004 0.036-0.011l-0 0c0.011-0.007 0.019-0.018 0.024-0.030l0-0 0.609-1.87c0.008-0.026 0.032-0.044 0.060-0.044 0 0 0 0 0 0h0.516c0 0 0 0 0 0 0.011 0 0.020 0.002 0.029 0.007l-0-0c0.009 0.005 0.017 0.011 0.023 0.019l0 0c0.006 0.008 0.010 0.017 0.012 0.027l0 0c0.001 0.004 0.002 0.009 0.002 0.015s-0.001 0.010-0.002 0.015l0-0z"></path>
</svg>
