<!-- Generated by IcoMoon.io -->
<svg version="1.1" xmlns="http://www.w3.org/2000/svg" width="32" height="32" viewBox="0 0 32 32">
<title>show</title>
<path d="M4.198 22.138c-1.555-1.655-2.913-3.524-4.019-5.55l-0.071-0.141c-0.067-0.13-0.106-0.284-0.106-0.447s0.039-0.317 0.108-0.453l-0.003 0.006c1.177-2.168 2.535-4.037 4.103-5.706l-0.013 0.014c3.532-3.772 7.614-5.772 11.8-5.772s8.27 2 11.809 5.772c1.559 1.654 2.918 3.523 4.021 5.552l0.070 0.14c0.067 0.13 0.106 0.284 0.106 0.447s-0.039 0.317-0.108 0.453l0.003-0.006c-1.173 2.168-2.531 4.037-4.101 5.705l0.013-0.014c-3.542 3.776-7.624 5.772-11.812 5.772s-8.268-1.996-11.8-5.772zM5.686 11.194c-1.321 1.408-2.496 2.981-3.483 4.677l-0.066 0.123c1.054 1.823 2.229 3.4 3.563 4.826l-0.014-0.015c3.189 3.385 6.66 5.1 10.314 5.1s7.129-1.714 10.313-5.1c1.322-1.411 2.497-2.988 3.485-4.687l0.066-0.124c-1.052-1.819-2.228-3.392-3.563-4.813l0.012 0.013c-3.184-3.384-6.661-5.106-10.315-5.106s-7.123 1.722-10.312 5.106zM10.907 15.994c0.001-2.812 2.281-5.092 5.093-5.092s5.093 2.28 5.093 5.093-2.28 5.093-5.093 5.093c-0.001 0-0.001 0-0.002 0h0c-2.809-0.005-5.086-2.28-5.092-5.088v-0.001zM12.907 15.994c0 0.001 0 0.003 0 0.005 0 1.707 1.384 3.091 3.091 3.091s3.091-1.384 3.091-3.091c0-1.707-1.384-3.091-3.091-3.091v0c-1.706 0.002-3.088 1.385-3.090 3.091v0z"></path>
</svg>
