<!-- Generated by IcoMoon.io -->
<svg version="1.1" xmlns="http://www.w3.org/2000/svg" width="32" height="32" viewBox="0 0 32 32">
<title>sort</title>
<path d="M12.527-0.001h0.048c0.096 0.009 0.184 0.028 0.268 0.057l-0.008-0.002c0.007 0 0.010 0.007 0.017 0.007s0 0 0.007 0c0.001 0.001 0.003 0.001 0.005 0.001s0.004-0 0.005-0.001l-0 0c0.005 0.003 0.011 0.005 0.017 0.007l0 0c0.122 0.052 0.227 0.123 0.314 0.212l7 7c0.181 0.181 0.294 0.431 0.294 0.708 0 0.553-0.448 1.001-1.001 1.001-0.276 0-0.526-0.112-0.707-0.293v0l-5.286-5.283v13.586c0 0.552-0.448 1-1 1s-1-0.448-1-1v0-13.583l-5.291 5.291c-0.181 0.181-0.432 0.294-0.708 0.294-0.553 0-1.002-0.448-1.002-1.002 0-0.276 0.112-0.527 0.293-0.708l7-7c0.145-0.145 0.335-0.246 0.547-0.279l0.006-0.001c0.003-0.001 0.007-0.001 0.011-0.001s0.007 0 0.011 0.001l-0-0c0.003 0 0.005 0 0.008 0s0.006-0 0.009-0l-0 0h0.017c0.002 0.001 0.005 0.001 0.007 0.001s0.005-0 0.007-0.001l-0 0h0.062c0.007 0 0.017 0 0.023 0s0.018-0.012 0.028-0.012zM20.5 14.999v13.586l5.293-5.291c0.183-0.199 0.445-0.323 0.736-0.323 0.552 0 1 0.448 1 1 0 0.291-0.124 0.552-0.322 0.735l-0.001 0.001-7 7c-0.123 0.121-0.276 0.212-0.448 0.259l-0.007 0.002c-0.008 0.001-0.015 0.003-0.021 0.007l0-0h-0.007c-0.007 0-0.010 0-0.017 0-0.001-0.001-0.003-0.001-0.005-0.001s-0.004 0-0.005 0.001l0-0h-0.014s-0.007 0-0.010 0h-0.010c-0.002 0.001-0.005 0.001-0.007 0.001s-0.005-0-0.007-0.001l0 0h-0.010c-0.003 0.001-0.005 0.001-0.009 0.001s-0.006-0-0.009-0.001l0 0h-0.007c-0.001 0.010-0.006 0.018-0.014 0.024l-0 0h-0.010c-0.003-0.001-0.005-0.001-0.009-0.001s-0.006 0-0.009 0.001l0-0h-0.146c-0.002-0.001-0.005-0.001-0.007-0.001s-0.005 0-0.007 0.001l0-0h-0.013c-0.007 0-0.010 0-0.014 0h-0.010c-0.003 0.001-0.005 0.001-0.009 0.001s-0.006-0-0.009-0.001l0 0h-0.021c-0.002-0.001-0.005-0.001-0.007-0.001s-0.005 0-0.007 0.001l0-0s-0.007 0-0.010 0c-0.003 0.001-0.005 0.001-0.009 0.001s-0.006-0-0.009-0.001l0 0c-0.007 0-0.014 0-0.021 0v0c-0.193-0.051-0.357-0.152-0.483-0.289l-0.001-0.001-7-7c-0.194-0.183-0.315-0.442-0.315-0.729 0-0.552 0.448-1 1-1 0.287 0 0.547 0.121 0.729 0.315l0.001 0.001 5.294 5.293v-13.59c0-0.552 0.448-1 1-1s1 0.448 1 1v0z"></path>
</svg>
