<!-- Generated by IcoMoon.io -->
<svg version="1.1" xmlns="http://www.w3.org/2000/svg" width="32" height="32" viewBox="0 0 32 32">
<title>sport</title>
<path d="M14.342 32h-0.030c-7.81-0.244-14.078-6.517-14.311-14.307l-0.001-0.022c-0-0.007-0-0.016-0-0.025 0-0.51 0.382-0.932 0.876-0.992l0.005-0c0.488-0.063 1.054-0.099 1.628-0.1h0.001c0.059-0.001 0.13-0.002 0.2-0.002 5.291 0 9.826 3.235 11.735 7.835l0.031 0.084c0.614 1.459 0.971 3.155 0.971 4.934 0 0.008 0 0.015-0 0.023v-0.001c-0.002 0.601-0.043 1.191-0.121 1.769l0.008-0.069c-0.065 0.495-0.484 0.873-0.992 0.873-0 0-0 0-0 0v0zM2.059 18.562c0.647 6.004 5.371 10.729 11.319 11.371l0.056 0.005c0.009-0.174 0.013-0.345 0.013-0.513 0-0.006 0-0.014 0-0.021 0-1.507-0.302-2.943-0.849-4.252l0.027 0.073c-1.634-3.948-5.456-6.675-9.914-6.675-0.071 0-0.141 0.001-0.212 0.002l0.011-0q-0.224 0-0.451 0.010z"></path>
<path d="M14.226 0.098c0 0 0 0 0 0 0.552 0 1 0.448 1 1 0 0.039-0.002 0.077-0.007 0.115l0-0.005c-0.061 0.495-0.097 1.071-0.1 1.655v0.003c-0 0.013-0 0.028-0 0.043 0 7.677 6.223 13.9 13.9 13.9 0.017 0 0.035-0 0.052-0h0.82c0.027 0 0.060 0.001 0.092 0.001 0.285 0 0.566-0.015 0.842-0.046l-0.034 0.003c0.036-0.005 0.077-0.007 0.119-0.007 0.552 0 1 0.448 1 1 0 0.041-0.002 0.081-0.007 0.121l0-0.005c-0.46 3.756-2.164 7.048-4.681 9.512l-0.003 0.003c-2.517 2.465-5.84 4.117-9.537 4.524l-0.073 0.006c-0.032 0.004-0.069 0.006-0.107 0.006-0.552 0-1-0.448-1-1 0-0.042 0.003-0.084 0.008-0.125l-0 0.005c0.055-0.449 0.087-0.968 0.087-1.495 0-0.011 0-0.022-0-0.033v0.002c0-0.012 0-0.027 0-0.042 0-7.673-6.221-13.894-13.894-13.894-0.018 0-0.036 0-0.054 0h0.003c-0.477 0-0.959 0.024-1.476 0.075-0.029 0.003-0.063 0.005-0.097 0.005-0.552 0-1-0.448-1-1 0-0.037 0.002-0.073 0.006-0.109l-0 0.004c0.869-7.409 6.635-13.243 13.937-14.206l0.082-0.009c0.036-0.005 0.079-0.008 0.122-0.008h0zM29.727 18.818h-0.656c-0.015 0-0.033 0-0.051 0-8.781 0-15.9-7.119-15.9-15.9 0-0.018 0-0.037 0-0.055v0.003q0-0.285 0.010-0.57c-5.493 1.238-9.726 5.531-10.858 10.963l-0.016 0.092q0.2 0 0.4 0c0.014-0 0.030-0 0.046-0 8.778 0 15.894 7.116 15.894 15.894 0 0.013-0 0.026-0 0.039v-0.002q0 0.239-0.007 0.473c2.841-0.564 5.305-1.908 7.233-3.795l-0.003 0.002c1.925-1.887 3.306-4.322 3.891-7.052l0.016-0.092z"></path>
<path d="M29.22 15.645c-0.006 0-0.014 0-0.022 0-1.779 0-3.475-0.357-5.020-1.003l0.086 0.032c-3.189-1.326-5.674-3.811-6.969-6.916l-0.031-0.084c-0.617-1.462-0.975-3.161-0.975-4.944 0-0.006 0-0.011 0-0.017v0.001c0.002-0.656 0.051-1.298 0.144-1.927l-0.009 0.073c0.071-0.489 0.487-0.86 0.99-0.86 0.003 0 0.007 0 0.010 0h-0.001c7.964 0.142 14.388 6.537 14.576 14.476l0 0.018c0 0.006 0 0.013 0 0.020 0 0.501-0.369 0.916-0.85 0.989l-0.006 0.001c-0.578 0.089-1.245 0.141-1.924 0.142h-0.001zM18.311 2.045q-0.022 0.341-0.022 0.669c0 0.006-0 0.014-0 0.021 0 1.507 0.302 2.943 0.849 4.252l-0.027-0.073c1.119 2.694 3.217 4.792 5.84 5.885l0.071 0.026c1.236 0.52 2.672 0.822 4.179 0.822 0.008 0 0.015 0 0.022-0h-0.001c0.24 0 0.484-0.008 0.729-0.025-0.606-6.156-5.476-11.005-11.589-11.573l-0.051-0.004z"></path>
</svg>
