<!-- Generated by IcoMoon.io -->
<svg version="1.1" xmlns="http://www.w3.org/2000/svg" width="32" height="32" viewBox="0 0 32 32">
<title>stat-lens</title>
<path d="M-0 28.367v-1.016h30.493v1.016zM22.531 26.504v-8.131h1.016v8.131zM17.788 26.504v-8.131h1.016v8.131zM15.078 26.504v-9.487h1.016v9.487zM10.335 26.504v-15.416h2.54v1.016h-1.524v14.4zM7.624 26.504v-9.657h-3.73v9.657h-1.016v-10.672h5.759v10.672zM28.82 21.706l-4.956-4.956c-0.924 0.488-2.019 0.775-3.181 0.775-0.006 0-0.011 0-0.017-0h0.001c-0.005 0-0.012 0-0.018 0-1.912 0-3.643-0.778-4.893-2.034l-0-0c-1.257-1.25-2.034-2.981-2.034-4.893 0-0.006 0-0.013 0-0.019v0.001c-0-0.005-0-0.012-0-0.019 0-1.912 0.778-3.643 2.034-4.893l0-0c1.25-1.257 2.98-2.035 4.893-2.035 0.007 0 0.013 0 0.020 0h-0.001c0.006-0 0.013-0 0.020-0 1.912 0 3.642 0.778 4.891 2.034l0 0c1.257 1.25 2.034 2.98 2.034 4.892 0 0.007 0 0.014-0 0.020v-0.001c0 0.005 0 0.012 0 0.018 0 1.336-0.38 2.584-1.037 3.641l0.017-0.029 4.862 4.862c0.337 0.337 0.545 0.803 0.545 1.317s-0.208 0.98-0.545 1.317l0-0c-0.336 0.336-0.801 0.545-1.314 0.545-0.001 0-0.003 0-0.004 0h0c-0.001 0-0.003 0-0.004 0-0.513 0-0.978-0.208-1.314-0.545v0zM29.538 20.987c0.153 0.153 0.365 0.248 0.599 0.248s0.446-0.095 0.599-0.248v0c0.153-0.153 0.247-0.365 0.247-0.599s-0.095-0.445-0.248-0.599l-4.747-4.748q-0.195 0.231-0.411 0.448c-0.252 0.252-0.522 0.486-0.809 0.698l-0.019 0.014zM16.475 6.386c-1.073 1.067-1.737 2.545-1.737 4.177 0 0.006 0 0.011 0 0.017v-0.001c0 0.005-0 0.010-0 0.015 0 1.633 0.664 3.11 1.736 4.177l0 0c1.067 1.073 2.545 1.737 4.177 1.737 0.005 0 0.011 0 0.016-0h-0.001c0.004 0 0.009 0 0.014 0 1.096 0 2.123-0.299 3.002-0.821l-0.027 0.015c0.020-0.015 0.043-0.029 0.068-0.041l0.003-0.001c0.429-0.262 0.801-0.556 1.133-0.889l0-0c0.229-0.229 0.439-0.475 0.629-0.738l0.012-0.018c0.015-0.025 0.030-0.046 0.047-0.066l-0.001 0.001c0.657-0.936 1.049-2.1 1.049-3.355 0-0.006 0-0.011-0-0.017v0.001c0-0.005 0-0.010 0-0.016 0-1.633-0.664-3.11-1.736-4.177l-0-0c-1.067-1.072-2.545-1.736-4.177-1.736-0.006 0-0.011 0-0.017 0h0.001c-0.005 0-0.010-0-0.015-0-1.633 0-3.11 0.664-4.177 1.736l-0 0zM22.531 14.306v-4.913h-3.728v4.913h-1.016v-5.929h5.76v5.929z"></path>
</svg>
