<!-- Generated by IcoMoon.io -->
<svg version="1.1" xmlns="http://www.w3.org/2000/svg" width="32" height="32" viewBox="0 0 32 32">
<title>target</title>
<path d="M28.777 31.737l-6.445-6.445c-0.365-0.363-0.591-0.866-0.591-1.422 0-0.002 0-0.005 0-0.007v0c0-0.001 0-0.003 0-0.005 0-0.322 0.076-0.627 0.21-0.897l-0.005 0.012-0.482-0.482c-0.901 0.8-1.944 1.468-3.082 1.958l-0.075 0.029c-1.134 0.494-2.45 0.815-3.831 0.892l-0.030 0.001v1.891h-1.306v-1.891c-1.411-0.079-2.726-0.4-3.935-0.922l0.075 0.029c-1.433-0.613-2.656-1.451-3.686-2.482l-0-0c-1.031-1.030-1.868-2.253-2.453-3.611l-0.029-0.075c-0.494-1.134-0.815-2.45-0.892-3.831l-0.001-0.030h-1.893v-1.306h1.891c0.079-1.411 0.4-2.727 0.922-3.935l-0.029 0.075c0.614-1.433 1.451-2.656 2.482-3.686l0-0c1.030-1.031 2.253-1.868 3.611-2.453l0.075-0.029c1.134-0.494 2.449-0.815 3.83-0.892l0.030-0.001v-1.896h1.306v1.89c1.411 0.079 2.727 0.4 3.936 0.922l-0.075-0.029c1.433 0.613 2.657 1.451 3.686 2.482l0 0c1.031 1.030 1.869 2.253 2.453 3.611l0.029 0.075c0.494 1.134 0.815 2.45 0.892 3.831l0.001 0.030h1.47v1.306h-1.47c-0.079 1.411-0.4 2.727-0.922 3.935l0.029-0.075c-0.538 1.257-1.239 2.337-2.093 3.275l0.008-0.009 0.476 0.476c0.259-0.13 0.564-0.206 0.887-0.206 0.001 0 0.003 0 0.004 0h-0c0.002 0 0.004 0 0.006 0 0.556 0 1.060 0.226 1.423 0.592l6.445 6.445c0.366 0.364 0.592 0.867 0.592 1.423 0 0.002 0 0.004 0 0.006v-0c0 0.002 0 0.003 0 0.005 0 0.556-0.226 1.060-0.592 1.423l-0 0c-0.363 0.365-0.866 0.591-1.422 0.591-0.002 0-0.005 0-0.007 0h0c-0.001 0-0.003 0-0.005 0-0.554 0-1.055-0.224-1.419-0.587v0zM23.255 23.358c-0.129 0.128-0.208 0.306-0.208 0.502 0 0.001 0 0.002 0 0.003v-0c0 0.001 0 0.002 0 0.003 0 0.196 0.080 0.374 0.208 0.502v0l6.446 6.445c0.128 0.129 0.306 0.209 0.503 0.209 0.001 0 0.002 0 0.002 0h-0c0.001 0 0.001 0 0.002 0 0.197 0 0.374-0.080 0.503-0.209l0-0c0.129-0.129 0.209-0.307 0.209-0.504 0-0 0-0.001 0-0.001v0c0-0.001 0-0.001 0-0.002 0-0.197-0.080-0.375-0.209-0.503l-6.445-6.445c-0.128-0.129-0.306-0.209-0.503-0.209-0.001 0-0.001 0-0.002 0h0c-0 0-0.001 0-0.001 0-0.197 0-0.375 0.080-0.504 0.209v0zM14.446 20.949v3.115c2.602-0.163 4.916-1.276 6.623-2.994l0-0c1.718-1.708 2.831-4.021 2.993-6.593l0.001-0.029h-3.535v-1.306h3.535c-0.163-2.601-1.276-4.915-2.994-6.622l-0-0c-1.708-1.718-4.022-2.831-6.594-2.993l-0.029-0.001v3.115h-1.306v-3.114c-2.601 0.163-4.915 1.276-6.622 2.994l-0 0c-1.718 1.708-2.831 4.021-2.993 6.593l-0.001 0.029h3.115v1.306h-3.115c0.163 2.601 1.276 4.915 2.994 6.622l0 0c1.707 1.718 4.021 2.831 6.593 2.993l0.029 0.001v-3.115zM17.042 19.155v-1.555c-0.020-0.125-0.308-0.543-1.045-0.99-0.625-0.402-1.38-0.656-2.191-0.697l-0.011-0c-0.822 0.042-1.576 0.296-2.22 0.708l0.018-0.011c-0.739 0.447-1.027 0.865-1.045 0.99v1.555h-1.306v-1.561c0-0.952 1.12-1.754 1.601-2.055 0.258-0.164 0.559-0.324 0.871-0.46l0.043-0.017q-0.081-0.082-0.157-0.171c-0.497-0.609-0.797-1.394-0.797-2.25 0-0.022 0-0.045 0.001-0.067l-0 0.003v-0.893c-0-0.019-0.001-0.041-0.001-0.063 0-0.856 0.301-1.641 0.803-2.257l-0.005 0.007c0.523-0.622 1.302-1.015 2.173-1.015 0.009 0 0.017 0 0.026 0h-0.001c0.007-0 0.016-0 0.024-0 0.87 0 1.649 0.393 2.169 1.011l0.004 0.004c0.497 0.609 0.797 1.394 0.797 2.249 0 0.023-0 0.045-0.001 0.067l0-0.003v0.893c0 0.019 0.001 0.042 0.001 0.065 0 0.855-0.301 1.64-0.802 2.255l0.005-0.007q-0.075 0.089-0.155 0.17c0.356 0.153 0.656 0.313 0.942 0.494l-0.027-0.016c0.481 0.301 1.599 1.103 1.599 2.055v1.561zM12.593 10.214c-0.305 0.383-0.489 0.873-0.489 1.407 0 0.022 0 0.045 0.001 0.067l-0-0.003v0.893c-0.001 0.019-0.001 0.041-0.001 0.064 0 0.533 0.184 1.024 0.492 1.411l-0.004-0.005c0.282 0.339 0.703 0.553 1.175 0.553 0.009 0 0.017-0 0.026-0h-0.001c0.007 0 0.016 0 0.025 0 0.471 0 0.893-0.214 1.172-0.55l0.002-0.002c0.305-0.383 0.489-0.873 0.489-1.407 0-0.022-0-0.044-0.001-0.066l0 0.003v-0.893c0.001-0.019 0.001-0.041 0.001-0.063 0-0.534-0.184-1.024-0.493-1.412l0.004 0.005c-0.282-0.338-0.703-0.552-1.175-0.552-0.009 0-0.017 0-0.026 0h0.001c-0.008-0-0.017-0-0.026-0-0.471 0-0.892 0.214-1.172 0.55l-0.002 0.002z"></path>
</svg>
