<!-- Generated by IcoMoon.io -->
<svg version="1.1" xmlns="http://www.w3.org/2000/svg" width="32" height="32" viewBox="0 0 32 32">
<title>user-new</title>
<path d="M24.998 31v-3.331c-0.001-3.129-2.536-5.665-5.664-5.669h-11.666c-3.131 0.001-5.668 2.538-5.67 5.669v3.331c0 0.552-0.448 1-1 1s-1-0.448-1-1v0-3.331c0.004-4.234 3.436-7.666 7.67-7.669h11.666c4.232 0.006 7.661 3.436 7.664 7.669v3.331c0 0.552-0.448 1-1 1s-1-0.448-1-1v0zM25.998 20v-3h-3c-0.552 0-1-0.448-1-1s0.448-1 1-1v0h3v-3c0-0.552 0.448-1 1-1s1 0.448 1 1v0 3h3c0.552 0 1 0.448 1 1s-0.448 1-1 1v0h-3v3c0 0.552-0.448 1-1 1s-1-0.448-1-1v0zM5.834 7.67c0-4.233 3.431-7.664 7.664-7.664s7.664 3.431 7.664 7.664c0 4.233-3.431 7.664-7.664 7.664v0c-4.23-0.006-7.658-3.434-7.664-7.663v-0.001zM7.834 7.67c0.002 3.128 2.538 5.662 5.666 5.662 3.129 0 5.666-2.537 5.666-5.666s-2.537-5.666-5.666-5.666c-0.001 0-0.001 0-0.002 0h0c-3.13 0.003-5.666 2.54-5.668 5.67v0z"></path>
</svg>
