<!-- Generated by IcoMoon.io -->
<svg version="1.1" xmlns="http://www.w3.org/2000/svg" width="32" height="32" viewBox="0 0 32 32">
<title>user-refresh</title>
<path d="M7.19 29.355c-2.083-1.388-3.783-3.189-5.016-5.296l-0.041-0.076v2.876h-1.28v-4.589h0.205v-0.64h5.072v1.28h-3.129c1.187 2.2 2.84 4.009 4.838 5.343l0.054 0.034c2.274 1.524 5.073 2.432 8.083 2.432 0.009 0 0.017 0 0.026-0h-0.001c0.007 0 0.016 0 0.025 0 2.060 0 4.021-0.426 5.799-1.194l-0.095 0.036c1.82-0.779 3.374-1.844 4.68-3.155l0-0c1.31-1.307 2.375-2.86 3.12-4.584l0.037-0.095c0.728-1.68 1.152-3.636 1.152-5.691 0-0.014 0-0.027-0-0.041v0.002h1.28c0 0.008 0 0.017 0 0.026 0 2.24-0.462 4.372-1.296 6.306l0.040-0.103c-0.847 1.978-2.005 3.666-3.431 5.085l-0.001 0.001c-1.42 1.425-3.108 2.581-4.982 3.389l-0.103 0.040c-1.829 0.796-3.959 1.26-6.197 1.26-0.011 0-0.022 0-0.033-0h0.002c-0.006 0-0.012 0-0.019 0-3.273 0-6.316-0.988-8.847-2.681l0.058 0.036zM8.694 19.046c0-0.064-0.003-0.118 0-0.173 0-0.003 0-0.007 0-0.010 0-1.843 1.453-3.347 3.276-3.428l0.007-0h7.917c1.834 0.079 3.291 1.585 3.291 3.431 0 0.006 0 0.011-0 0.017v-0.001 0.024l-0.282 3.844-1.276-0.094 0.279-3.796c0-0.001 0-0.001 0-0.002 0-1.146-0.899-2.083-2.030-2.142l-0.005-0h-7.868c-1.133 0.064-2.027 0.998-2.027 2.141 0 0.010 0 0.020 0 0.030v-0.002 0.026c-0.001 0.010-0.001 0.022-0.001 0.034s0 0.024 0.001 0.036l-0-0.002 0.273 3.677-1.28 0.095zM0 16.002c0-0.008-0-0.019-0-0.029 0-2.24 0.463-4.372 1.299-6.305l-0.040 0.103c0.85-1.976 2.007-3.664 3.429-5.085l0-0c1.421-1.423 3.109-2.58 4.982-3.39l0.104-0.040c1.831-0.794 3.963-1.256 6.204-1.256 0.009 0 0.017 0 0.026 0h-0.001c0.008 0 0.018-0 0.028-0 3.273 0 6.316 0.987 8.846 2.681l-0.058-0.036c2.055 1.372 3.736 3.144 4.963 5.215l0.041 0.074v-2.532h1.28v4.59h-0.203v0.64h-5.073v-1.28h3.309c-1.188-2.317-2.894-4.218-4.972-5.603l-0.054-0.034c-2.275-1.524-5.075-2.432-8.086-2.432-0.008 0-0.016 0-0.023 0h0.001c-0.012-0-0.025-0-0.039-0-2.054 0-4.009 0.424-5.782 1.189l0.095-0.036c-1.82 0.78-3.374 1.845-4.681 3.155l-0 0c-1.311 1.308-2.376 2.862-3.119 4.587l-0.036 0.095c-0.732 1.684-1.157 3.646-1.157 5.707 0 0.008 0 0.016 0 0.023v-0.001zM12.319 11.069c0.002-1.999 1.622-3.618 3.62-3.62h0c1.999 0.002 3.618 1.622 3.62 3.62v0c-0.002 1.999-1.622 3.618-3.62 3.621h-0c-1.999-0.003-3.618-1.622-3.62-3.621v-0zM13.599 11.069c0.001 1.292 1.048 2.339 2.34 2.341h0c1.292-0.002 2.339-1.049 2.34-2.341v-0c-0.001-1.292-1.048-2.339-2.34-2.341h-0c-1.292 0.002-2.339 1.049-2.34 2.341v0z"></path>
</svg>
