<!-- Generated by IcoMoon.io -->
<svg version="1.1" xmlns="http://www.w3.org/2000/svg" width="32" height="32" viewBox="0 0 32 32">
<title>user-connected</title>
<path d="M13.456 29.333c0.002-1.247 0.856-2.294 2.012-2.588l0.019-0.004v-3.153c-0.902-0.075-1.734-0.287-2.506-0.614l0.053 0.020c-0.995-0.417-1.846-0.987-2.566-1.691l0.002 0.001-2.248 2.248c0.267 0.407 0.426 0.906 0.426 1.442 0 0.001 0 0.002 0 0.004v-0c-0.002 1.474-1.196 2.668-2.67 2.67h-0c-1.474-0.002-2.668-1.196-2.67-2.67v-0c0.002-1.474 1.196-2.668 2.67-2.67h0c0.001 0 0.002 0 0.003 0 0.481 0 0.932 0.128 1.321 0.352l-0.013-0.007 2.338-2.338c-0.369-0.496-0.694-1.061-0.948-1.663l-0.020-0.053c-0.287-0.669-0.491-1.446-0.576-2.258l-0.003-0.035h-1.585c-0.353 1.092-1.359 1.868-2.547 1.869h-0c-1.474-0.002-2.668-1.196-2.67-2.67v-0c0.002-1.474 1.196-2.668 2.67-2.67h0c1.303 0.003 2.387 0.938 2.622 2.174l0.003 0.017h1.479c0.060-0.956 0.277-1.845 0.625-2.666l-0.020 0.053c0.303-0.723 0.672-1.347 1.115-1.912l-0.013 0.018-2.281-2.281c-0.42 0.291-0.94 0.465-1.5 0.465-0.001 0-0.002 0-0.003 0h0c-1.474-0.002-2.668-1.196-2.67-2.67v-0c0.002-1.474 1.196-2.668 2.67-2.67h0c1.474 0.001 2.669 1.196 2.67 2.67v0c0 0.001 0 0.002 0 0.003 0 0.456-0.115 0.886-0.318 1.261l0.007-0.014 2.293 2.293c0.681-0.63 1.477-1.148 2.352-1.516l0.053-0.020c0.719-0.308 1.552-0.519 2.424-0.592l0.030-0.002v-2.202c-1.174-0.299-2.028-1.346-2.030-2.592v-0c0.002-1.474 1.196-2.668 2.67-2.67h0c1.474 0.001 2.668 1.196 2.67 2.67v0c-0.001 1.247-0.856 2.294-2.011 2.588l-0.019 0.004v2.202c0.901 0.075 1.734 0.287 2.505 0.614l-0.053-0.020c0.929 0.389 1.727 0.908 2.413 1.544l-0.005-0.005 2.292-2.292c-0.197-0.362-0.313-0.793-0.313-1.25 0-0.001 0-0.002 0-0.003v0c0.002-1.474 1.196-2.668 2.67-2.67h0c1.474 0.001 2.668 1.196 2.67 2.67v0c-0.001 1.474-1.196 2.669-2.67 2.67h-0c-0.001 0-0.002 0-0.003 0-0.559 0-1.078-0.173-1.506-0.469l0.009 0.006-2.282 2.282c0.429 0.546 0.798 1.169 1.080 1.837l0.020 0.053c0.328 0.767 0.545 1.657 0.604 2.589l0.001 0.023h1.48c0.237-1.252 1.321-2.187 2.624-2.19h0c0 0 0 0 0 0 1.474 0 2.669 1.193 2.673 2.666v0c-0.002 1.474-1.196 2.668-2.67 2.67h-0c-1.188-0.001-2.195-0.777-2.542-1.85l-0.005-0.019h-1.585c-0.088 0.847-0.293 1.623-0.599 2.346l0.020-0.053c-0.274 0.654-0.597 1.218-0.981 1.735l0.016-0.022 2.339 2.339c0.375-0.216 0.825-0.343 1.305-0.343 0.001 0 0.003 0 0.004 0h-0c1.474 0.001 2.668 1.196 2.67 2.67v0c-0.002 1.474-1.196 2.668-2.67 2.67h-0c-1.474-0.002-2.668-1.196-2.67-2.67v-0c0-0.001 0-0.002 0-0.004 0-0.537 0.16-1.038 0.434-1.455l-0.006 0.010-2.248-2.248c-0.719 0.704-1.571 1.275-2.514 1.672l-0.053 0.020c-0.719 0.307-1.552 0.519-2.424 0.592l-0.030 0.002v3.154c1.174 0.299 2.028 1.345 2.030 2.592v0c-0.002 1.474-1.196 2.668-2.67 2.67h-0c-1.472-0.004-2.664-1.197-2.666-2.668v-0zM14.736 29.333c0.001 0.767 0.622 1.389 1.389 1.39h0c0.767-0.001 1.389-0.622 1.39-1.389v-0c0-0 0-0.001 0-0.001 0-0.769-0.623-1.392-1.392-1.392-0 0-0 0-0.001 0h0c-0.767 0.002-1.387 0.624-1.387 1.391 0 0.001 0 0.001 0 0.002v-0zM24.887 24.995c0 0.767 0.622 1.389 1.389 1.39h0c0.768-0.001 1.39-0.623 1.39-1.39v-0c-0.001-0.767-0.623-1.389-1.39-1.39h-0c-0.767 0.001-1.389 0.622-1.39 1.389v0zM4.588 24.995c0 0.767 0.622 1.389 1.389 1.39h0c0.768-0.001 1.389-0.623 1.39-1.39v-0c-0.001-0.767-0.623-1.389-1.39-1.39h-0c-0.767 0.001-1.389 0.622-1.39 1.389v0zM9.842 12.92c-0.326 0.768-0.515 1.661-0.515 2.599 0 2.818 1.712 5.237 4.152 6.272l0.045 0.017c0.768 0.326 1.661 0.515 2.599 0.515 2.818 0 5.237-1.712 6.273-4.152l0.017-0.045c0.326-0.768 0.515-1.661 0.515-2.599 0-2.818-1.712-5.237-4.152-6.272l-0.045-0.017c-0.767-0.327-1.658-0.518-2.595-0.518h-0c-0 0-0.001 0-0.001 0-2.82 0-5.24 1.714-6.275 4.157l-0.017 0.045zM26.916 15.522c0 0.767 0.622 1.389 1.39 1.39h0c0.766-0.002 1.387-0.623 1.388-1.389v-0c-0.001-0.767-0.623-1.389-1.39-1.39h-0c-0.766 0.002-1.386 0.623-1.387 1.389v0zM2.558 15.522c0.001 0.768 0.623 1.389 1.39 1.39h0c0.767-0.001 1.389-0.623 1.39-1.39v-0c-0.001-0.767-0.622-1.389-1.389-1.39h-0c-0.768 0.001-1.389 0.623-1.39 1.39v0zM24.887 6.049c0 0.767 0.622 1.389 1.389 1.39h0c0.768-0.001 1.39-0.623 1.39-1.39v-0c-0.001-0.767-0.623-1.389-1.39-1.39h-0c-0.767 0.001-1.389 0.623-1.39 1.39v0zM4.588 6.049c0 0.767 0.622 1.389 1.389 1.39h0c0.768-0.001 1.389-0.623 1.39-1.39v-0c-0.001-0.767-0.623-1.389-1.39-1.39h-0c-0.767 0.001-1.389 0.623-1.39 1.39v0zM14.738 2.666c0 0.767 0.622 1.389 1.389 1.39h0c0.768-0.001 1.389-0.623 1.39-1.39v-0c-0.001-0.767-0.623-1.389-1.39-1.39h-0c-0.768 0.001-1.39 0.623-1.39 1.391 0 0 0 0.001 0 0.001v-0zM18.871 19.581v-1.317c-0.014-0.106-0.25-0.46-0.867-0.832-0.523-0.335-1.153-0.549-1.83-0.59l-0.011-0.001h-0.070c-0.687 0.041-1.317 0.255-1.856 0.599l0.016-0.009c-0.617 0.376-0.853 0.729-0.867 0.832v1.317h-1.28v-1.321c0.022-0.424 0.196-0.804 0.468-1.089l-0.001 0.001c0.274-0.308 0.588-0.572 0.936-0.787l0.018-0.010c0.184-0.118 0.4-0.236 0.624-0.34l0.035-0.015c-0.445-0.436-0.723-1.042-0.728-1.712v-0.948c0.007-0.722 0.327-1.368 0.829-1.81l0.003-0.002c0.484-0.442 1.129-0.715 1.838-0.722h0.001c0.71 0.007 1.356 0.28 1.842 0.724l-0.002-0.002c0.505 0.445 0.825 1.091 0.832 1.811v0.949c-0.005 0.671-0.282 1.277-0.726 1.713l-0 0c0.259 0.119 0.475 0.238 0.683 0.369l-0.023-0.014c0.427 0.268 1.42 0.988 1.42 1.888v1.321zM16.159 15.558c0.712-0.008 1.293-0.553 1.358-1.249l0-0.005v-0.947c-0.066-0.706-0.656-1.255-1.374-1.255-0.006 0-0.011 0-0.017 0h0.001c-0.005-0-0.010-0-0.015-0-0.718 0-1.308 0.548-1.374 1.249l-0 0.006v0.95c0.065 0.701 0.646 1.247 1.357 1.255h0.065z"></path>
</svg>
