<!-- Generated by IcoMoon.io -->
<svg version="1.1" xmlns="http://www.w3.org/2000/svg" width="32" height="32" viewBox="0 0 32 32">
<title>vector-handle</title>
<path d="M27.867 21.339h-1v-1.033c0-0.037 0.001-0.080 0.001-0.123 0-4.919-3.311-9.065-7.825-10.33l-0.076-0.018 0.267-0.964c1.327 0.371 2.488 0.921 3.529 1.631l-0.041-0.026c1.058 0.721 1.961 1.575 2.711 2.551l0.020 0.027c1.507 1.965 2.415 4.459 2.415 7.165 0 0.030-0 0.059-0 0.089l0-0.005z"></path>
<path d="M5.133 21.339h-1v-1.033c0-0.003 0-0.005 0-0.008 0-1.382 0.238-2.708 0.675-3.94l-0.026 0.082c0.876-2.467 2.456-4.502 4.497-5.922l0.039-0.026c0.987-0.689 2.133-1.243 3.362-1.6l0.082-0.021 0.272 0.963c-1.2 0.346-2.247 0.853-3.185 1.506l0.035-0.023c-1.907 1.324-3.355 3.19-4.134 5.373l-0.024 0.077c-0.377 1.053-0.596 2.267-0.596 3.532 0 0.002 0 0.005 0 0.007v-0z"></path>
<path d="M13.4 8.406h-7.2v-1h7.2z"></path>
<path d="M25.8 8.406h-7.2v-1h7.2z"></path>
<path d="M3.6 4.305c1.988 0 3.6 1.612 3.6 3.6s-1.612 3.6-3.6 3.6c-1.988 0-3.6-1.612-3.6-3.6v0c0.003-1.987 1.613-3.597 3.6-3.6h0zM3.6 10.505c1.436 0 2.6-1.164 2.6-2.6s-1.164-2.6-2.6-2.6c-1.436 0-2.6 1.164-2.6 2.6v0c0.002 1.435 1.165 2.598 2.6 2.6h0z"></path>
<path d="M28.4 4.305c1.988 0 3.6 1.612 3.6 3.6s-1.612 3.6-3.6 3.6c-1.988 0-3.6-1.612-3.6-3.6v0c0.003-1.987 1.613-3.597 3.6-3.6h0zM28.4 10.505c1.436 0 2.6-1.164 2.6-2.6s-1.164-2.6-2.6-2.6c-1.436 0-2.6 1.164-2.6 2.6v0c0.001 1.435 1.165 2.599 2.6 2.6h0z"></path>
<path d="M12.486 4.393h7.028v7.028h-7.028zM18.515 5.393h-5.028v5.028h5.028z"></path>
<path d="M20.306 27.695c-0.069-0-0.134-0.014-0.194-0.039l0.003 0.001-4.115-1.7-4.117 1.7c-0.056 0.024-0.122 0.038-0.191 0.038-0.276 0-0.5-0.224-0.5-0.5 0-0.069 0.014-0.135 0.039-0.195l-0.001 0.003 4.307-10.389c0.077-0.183 0.255-0.308 0.462-0.308 0 0 0 0 0 0v0c0 0 0 0 0 0 0.207 0 0.385 0.126 0.461 0.305l0.001 0.003 4.306 10.389c0.024 0.057 0.038 0.122 0.038 0.192 0 0.276-0.224 0.5-0.5 0.5-0 0-0 0-0 0v0zM16 18.112l-3.383 8.161 3.193-1.317c0.056-0.024 0.122-0.038 0.191-0.038s0.134 0.014 0.194 0.039l-0.003-0.001 3.192 1.317z"></path>
</svg>
