<!-- Generated by IcoMoon.io -->
<svg version="1.1" xmlns="http://www.w3.org/2000/svg" width="32" height="32" viewBox="0 0 32 32">
<title>window-question</title>
<path d="M0.968 32c-0.353 0-0.64-0.287-0.64-0.64v0-30.72c0-0.353 0.287-0.64 0.64-0.64v0h30.060c0.353 0 0.64 0.287 0.64 0.64v0 30.72c0 0.353-0.287 0.64-0.64 0.64v0zM1.608 30.72h28.781v-23.406h-28.781zM1.608 6.033h28.781v-4.755h-28.781zM14.869 23.7c0-0.543 0.44-0.982 0.982-0.982s0.982 0.44 0.982 0.982v0c0 0.543-0.44 0.982-0.982 0.982s-0.982-0.44-0.982-0.982v0zM15.18 21.611c0-2.442 0.928-3.307 1.7-3.973 0.551-0.34 0.922-0.927 0.96-1.602l0-0.005c0-1.036-0.772-1.732-1.948-1.732-0.043-0.004-0.093-0.006-0.143-0.006-0.984 0-1.788 0.765-1.852 1.732l-0 0.006-1.531-0.078c0.093-1.809 1.486-3.014 3.526-3.014 2.195 0 3.648 1.206 3.648 2.984 0 1.251-0.664 1.824-1.375 2.426-0.989 0.684-1.628 1.812-1.628 3.089 0 0.061 0.001 0.123 0.004 0.183l-0-0.009zM12.68 3.59c0-0 0-0.001 0-0.001 0-0.647 0.525-1.172 1.172-1.172s1.172 0.525 1.172 1.172c0 0.647-0.524 1.171-1.17 1.172h-0c0 0 0 0 0 0-0.646 0-1.169-0.522-1.172-1.166v-0zM7.996 3.59c0-0 0-0.001 0-0.001 0-0.647 0.525-1.172 1.172-1.172s1.172 0.525 1.172 1.172c0 0.647-0.524 1.171-1.17 1.172h-0c0 0 0 0 0 0-0.646 0-1.169-0.522-1.172-1.166v-0zM3.311 3.59c0-0 0-0.001 0-0.001 0-0.647 0.525-1.172 1.172-1.172s1.172 0.525 1.172 1.172c0 0.647-0.525 1.172-1.172 1.172-0 0-0.001 0-0.001 0h0c-0.645-0.001-1.167-0.522-1.17-1.166v-0z"></path>
</svg>
