<!-- Generated by IcoMoon.io -->
<svg version="1.1" xmlns="http://www.w3.org/2000/svg" width="32" height="32" viewBox="0 0 32 32">
<title>window-bubbles</title>
<path d="M0.97 32c-0.353 0-0.64-0.287-0.64-0.64v0-30.72c0-0.353 0.287-0.64 0.64-0.64v0h30.060c0.353 0 0.64 0.287 0.64 0.64v0 30.72c0 0.353-0.287 0.64-0.64 0.64v0zM1.61 30.72h28.78v-23.407h-28.78zM1.61 6.033h28.78v-4.755h-28.78zM8.308 28.53l-1.684-2.358h-0.259c-1.003-0.001-1.815-0.814-1.816-1.816v-7.067c0.001-1.003 0.813-1.816 1.816-1.816h1.412v1.28h-1.412c-0.296 0.001-0.536 0.24-0.537 0.536v7.067c0.001 0.296 0.241 0.536 0.537 0.537h0.919l1.974 2.762v-2.762h6.28v1.28h-4.998v1.643c-0.001 0.679-0.552 1.229-1.231 1.229-0.411 0-0.774-0.201-0.998-0.51l-0.002-0.004zM15.988 25.67v-8.384c0.001-1.003 0.813-1.816 1.816-1.816h7.654c1.003 0.001 1.816 0.813 1.816 1.816v5.299c-0 1.003-0.813 1.817-1.816 1.819h-5.589l-1.709 2.053c-0.227 0.271-0.565 0.443-0.944 0.443-0.678 0-1.228-0.55-1.228-1.228 0-0.001 0-0.002 0-0.003v0zM17.268 17.286v8.242l2.004-2.406h6.186c0.297 0 0.537-0.24 0.537-0.537v0-5.299c-0.001-0.296-0.241-0.536-0.537-0.536h-7.656c-0.296 0.001-0.536 0.242-0.536 0.538 0 0.001 0 0.001 0 0.002v-0zM10.903 20.968c-0.473-0.174-0.804-0.62-0.804-1.144 0-0.003 0-0.006 0-0.008v0-1.892c-0.981-0.030-1.765-0.831-1.766-1.816v-4.709c0-1.003 0.813-1.817 1.816-1.819h9.42c1.004 0.002 1.817 0.815 1.819 1.819v3.532h-1.28v-3.532c0-0.298-0.241-0.539-0.539-0.539-0 0-0 0-0.001 0h-9.419c-0.297 0.001-0.537 0.242-0.537 0.539 0 0 0 0 0 0v0 4.708c0 0 0 0 0 0 0 0.297 0.24 0.538 0.537 0.54h1.229v3.029l2.6-3.029h1.472v1.28h-0.883l-2.304 2.688c-0.224 0.264-0.557 0.43-0.928 0.43-0.155 0-0.303-0.029-0.439-0.082l0.008 0.003zM12.684 3.588c0-0 0-0 0-0.001 0-0.647 0.524-1.171 1.171-1.171s1.171 0.524 1.171 1.171c0 0.647-0.524 1.171-1.171 1.171-0 0-0.001 0-0.001 0h0c0 0 0 0 0 0-0.645 0-1.169-0.522-1.171-1.166v-0zM7.998 3.588c0-0 0-0 0-0.001 0-0.647 0.524-1.171 1.171-1.171s1.171 0.524 1.171 1.171c0 0.646-0.524 1.17-1.17 1.171h-0c-0.001 0-0.002 0-0.003 0-0.645 0-1.169-0.522-1.172-1.166v-0zM3.315 3.588c0-0.646 0.524-1.169 1.17-1.169s1.17 0.524 1.17 1.17-0.524 1.17-1.17 1.17v0c-0 0-0 0-0.001 0-0.645 0-1.169-0.522-1.171-1.166v-0z"></path>
</svg>
